<?xml version="1.0" encoding="UTF-8"?>
<!-- Generator: CustomSymbols v2.6.7.45 by @serious_bret https://bretlester.com/app_content/CustomSymbols/ -->
<!-- Guides: Left/Right -0.054000000000000006/-0.055999999999999994 Cap/Base -0.06/-0.055999999999999994 -->
<!-- Settings: RefScale 0.0 Min/Max Stroke Scales 0.5/0.3 -->
<!DOCTYPE svg
PUBLIC "-//W3C//DTD SVG 1.1//EN"
       "http://www.w3.org/Graphics/SVG/1.1/DTD/svg11.dtd">
<svg version="1.1" xmlns="http://www.w3.org/2000/svg" xmlns:xlink="http://www.w3.org/1999/xlink" width="3300" height="2200">
<![CDATA[<svg xmlns="http://www.w3.org/2000/svg" width="24.409" height="23.377" viewBox="0 0 24.409 23.377"><path fill="#BBB" d="M12.904615,0.164190926 C13.3895121,0.404743703 13.4794327,0.565878643 13.9926839,1.71737605 L16.3418472,6.98760195 L16.3605947,7.02956825 L16.4071274,7.03514284 L22.1456781,7.6408211 C23.3997703,7.77317126 23.5803051,7.80878827 23.9591019,8.19567746 C24.3035651,8.54767184 24.4636338,9.04049653 24.3918284,9.52751211 C24.3129934,10.0631072 24.1883267,10.1975493 23.2509368,11.0423961 L18.9643484,14.9053724 L18.9295993,14.9360633 L18.9394352,14.981966 L20.1367567,20.6267386 C20.398533,21.8608548 20.4204115,22.0432088 20.1695084,22.5227512 C19.9411597,22.9592897 19.5219894,23.2638382 19.0360904,23.3461349 C18.5025761,23.4363569 18.3351944,23.3588859 17.2431622,22.7290737 L12.2444646,19.8459285 L12.2043457,19.8229609 L12.1641413,19.8459774 L7.16554076,22.7290814 C6.07358973,23.3588723 5.90618642,23.4363553 5.37242621,23.3460968 C4.88667459,23.2638304 4.46735444,22.9591915 4.23926701,22.5227912 C3.98836429,22.043192 4.01024698,21.8607794 4.27198246,20.6267508 L5.46924172,14.9820314 L5.47830989,14.9360633 L5.44440968,14.905456 L1.1578007,11.0423693 C0.220530554,10.1976504 0.0958704684,10.0632293 0.0168702032,9.52773772 C-0.0549786159,9.04042765 0.10515896,8.54754813 0.449735726,8.19556653 C0.828364485,7.80878758 1.00880407,7.77319161 2.26307892,7.64082219 L8.00165555,7.03513984 L8.0473145,7.03035053 L8.06669321,6.98788215 L10.4160014,1.71738851 C10.9292581,0.565878643 11.0191787,0.404743703 11.5039449,0.164255848 C11.9452182,-0.0547411279 12.4634727,-0.0547411279 12.904615,0.164190926 Z"/></svg>]]>
 <g id="Notes">
  <rect height="2200" id="artboard" style="fill:white;opacity:1" width="3300" x="0" y="0"/>
  <line id="" style="fill:none;stroke:black;opacity:1;stroke-width:0.5;" x1="263" x2="3036" y1="292" y2="292"/>
  <text id="reftext1" style="stroke:none;fill:black;font-family:-apple-system,&quot;SF Pro Display&quot;,&quot;SF Pro Text&quot;,Helvetica,sans-serif;font-weight:bold;" transform="matrix(1 0 0 1 263 322)">Weight/Scale Variations</text>
  <text id="reftext2" style="stroke:none;fill:black;font-family:-apple-system,&quot;SF Pro Display&quot;,&quot;SF Pro Text&quot;,Helvetica,sans-serif;text-anchor:middle;" transform="matrix(1 0 0 1 559.711 322)">Ultralight</text>
  <text style="stroke:none;fill:black;font-family:-apple-system,&quot;SF Pro Display&quot;,&quot;SF Pro Text&quot;,Helvetica,sans-serif;text-anchor:middle;" transform="matrix(1 0 0 1 856.422 322)">Thin</text>
  <text style="stroke:none;fill:black;font-family:-apple-system,&quot;SF Pro Display&quot;,&quot;SF Pro Text&quot;,Helvetica,sans-serif;text-anchor:middle;" transform="matrix(1 0 0 1 1153.13 322)">Light</text>
  <text style="stroke:none;fill:black;font-family:-apple-system,&quot;SF Pro Display&quot;,&quot;SF Pro Text&quot;,Helvetica,sans-serif;text-anchor:middle;" transform="matrix(1 0 0 1 1449.84 322)">Regular</text>
  <text style="stroke:none;fill:black;font-family:-apple-system,&quot;SF Pro Display&quot;,&quot;SF Pro Text&quot;,Helvetica,sans-serif;text-anchor:middle;" transform="matrix(1 0 0 1 1746.56 322)">Medium</text>
  <text style="stroke:none;fill:black;font-family:-apple-system,&quot;SF Pro Display&quot;,&quot;SF Pro Text&quot;,Helvetica,sans-serif;text-anchor:middle;" transform="matrix(1 0 0 1 2043.27 322)">Semibold</text>
  <text style="stroke:none;fill:black;font-family:-apple-system,&quot;SF Pro Display&quot;,&quot;SF Pro Text&quot;,Helvetica,sans-serif;text-anchor:middle;" transform="matrix(1 0 0 1 2339.98 322)">Bold</text>
  <text style="stroke:none;fill:black;font-family:-apple-system,&quot;SF Pro Display&quot;,&quot;SF Pro Text&quot;,Helvetica,sans-serif;text-anchor:middle;" transform="matrix(1 0 0 1 2636.69 322)">Heavy</text>
  <text style="stroke:none;fill:black;font-family:-apple-system,&quot;SF Pro Display&quot;,&quot;SF Pro Text&quot;,Helvetica,sans-serif;text-anchor:middle;" transform="matrix(1 0 0 1 2933.4 322)">Black</text>
  <line id="" style="fill:none;stroke:black;opacity:1;stroke-width:0.5;" x1="263" x2="3036" y1="1903" y2="1903"/>
  <g id="" transform="matrix(1 0 0 1 263 1933)">
   <path d="M9.24805 0.830078C13.5547 0.830078 17.1387-2.74414 17.1387-7.05078C17.1387-11.3574 13.5449-14.9316 9.23828-14.9316C4.94141-14.9316 1.36719-11.3574 1.36719-7.05078C1.36719-2.74414 4.95117 0.830078 9.24805 0.830078ZM9.24805-0.654297C5.70312-0.654297 2.87109-3.49609 2.87109-7.05078C2.87109-10.6055 5.69336-13.4473 9.23828-13.4473C12.793-13.4473 15.6348-10.6055 15.6445-7.05078C15.6543-3.49609 12.8027-0.654297 9.24805-0.654297ZM6.39648-6.31836L8.50586-6.31836L8.50586-4.19922C8.50586-3.75977 8.79883-3.45703 9.22852-3.45703C9.67773-3.45703 9.9707-3.75977 9.9707-4.19922L9.9707-6.31836L12.0996-6.31836C12.5391-6.31836 12.8418-6.61133 12.8418-7.04102C12.8418-7.48047 12.5391-7.7832 12.0996-7.7832L9.9707-7.7832L9.9707-9.89258C9.9707-10.3418 9.67773-10.6445 9.22852-10.6445C8.79883-10.6445 8.50586-10.3418 8.50586-9.89258L8.50586-7.7832L6.39648-7.7832C5.94727-7.7832 5.64453-7.48047 5.64453-7.04102C5.64453-6.61133 5.94727-6.31836 6.39648-6.31836Z"/>
  </g>
  <g id="" transform="matrix(1 0 0 1 281.506 1933)">
   <path d="M11.709 2.91016C17.1582 2.91016 21.6699-1.61133 21.6699-7.05078C21.6699-12.5 17.1484-17.0117 11.6992-17.0117C6.25977-17.0117 1.74805-12.5 1.74805-7.05078C1.74805-1.61133 6.26953 2.91016 11.709 2.91016ZM11.709 1.25C7.09961 1.25 3.41797-2.44141 3.41797-7.05078C3.41797-11.6602 7.08984-15.3516 11.6992-15.3516C16.3086-15.3516 20-11.6602 20.0098-7.05078C20.0195-2.44141 16.3184 1.25 11.709 1.25ZM7.98828-6.23047L10.8789-6.23047L10.8789-3.32031C10.8789-2.83203 11.2109-2.5 11.6895-2.5C12.1777-2.5 12.5195-2.83203 12.5195-3.32031L12.5195-6.23047L15.4297-6.23047C15.918-6.23047 16.25-6.5625 16.25-7.04102C16.25-7.5293 15.918-7.87109 15.4297-7.87109L12.5195-7.87109L12.5195-10.7617C12.5195-11.2695 12.1777-11.6016 11.6895-11.6016C11.2109-11.6016 10.8789-11.2598 10.8789-10.7617L10.8789-7.87109L7.98828-7.87109C7.48047-7.87109 7.14844-7.5293 7.14844-7.04102C7.14844-6.5625 7.49023-6.23047 7.98828-6.23047Z"/>
  </g>
  <g id="" transform="matrix(1 0 0 1 304.924 1933)">
   <path d="M14.9707 5.66406C21.9336 5.66406 27.6953-0.0976562 27.6953-7.05078C27.6953-14.0137 21.9238-19.7754 14.9609-19.7754C8.00781-19.7754 2.25586-14.0137 2.25586-7.05078C2.25586-0.0976562 8.01758 5.66406 14.9707 5.66406ZM14.9707 3.84766C8.93555 3.84766 4.08203-1.01562 4.08203-7.05078C4.08203-13.0957 8.92578-17.9492 14.9609-17.9492C21.0059-17.9492 25.8594-13.0957 25.8691-7.05078C25.8789-1.01562 21.0156 3.84766 14.9707 3.84766ZM10.0586-6.14258L14.0625-6.14258L14.0625-2.12891C14.0625-1.5918 14.4336-1.2207 14.9512-1.2207C15.4883-1.2207 15.8594-1.5918 15.8594-2.12891L15.8594-6.14258L19.8828-6.14258C20.4102-6.14258 20.791-6.51367 20.791-7.03125C20.791-7.56836 20.4199-7.94922 19.8828-7.94922L15.8594-7.94922L15.8594-11.9531C15.8594-12.5098 15.4883-12.8809 14.9512-12.8809C14.4336-12.8809 14.0625-12.5 14.0625-11.9531L14.0625-7.94922L10.0586-7.94922C9.50195-7.94922 9.13086-7.56836 9.13086-7.03125C9.13086-6.51367 9.51172-6.14258 10.0586-6.14258Z"/>
  </g>
  <text style="stroke:none;fill:black;font-family:-apple-system,&quot;SF Pro Display&quot;,&quot;SF Pro Text&quot;,Helvetica,sans-serif;font-weight:bold;" transform="matrix(1 0 0 1 263 1953)">Design Variations</text>
  <text style="stroke:none;fill:black;font-family:-apple-system,&quot;SF Pro Display&quot;,&quot;SF Pro Text&quot;,Helvetica,sans-serif;" transform="matrix(1 0 0 1 263 1971)">Symbols are supported in up to nine weights and three scales.</text>
  <text style="stroke:none;fill:black;font-family:-apple-system,&quot;SF Pro Display&quot;,&quot;SF Pro Text&quot;,Helvetica,sans-serif;" transform="matrix(1 0 0 1 263 1989)">For optimal layout with text and other symbols, vertically align</text>
  <text style="stroke:none;fill:black;font-family:-apple-system,&quot;SF Pro Display&quot;,&quot;SF Pro Text&quot;,Helvetica,sans-serif;" transform="matrix(1 0 0 1 263 2007)">symbols with the adjacent text.</text>
  <line id="" style="fill:none;stroke:#00AEEF;stroke-width:0.5;opacity:1.0;" x1="776" x2="776" y1="1919" y2="1933"/>
  <g id="" transform="matrix(1 0 0 1 776 1933)">
   <path d="M3.31055 0.126953C3.82812 0.126953 4.08203-0.0683594 4.26758-0.605469L5.52734-4.0625L11.2891-4.0625L12.5488-0.605469C12.7344-0.0683594 12.9883 0.126953 13.4961 0.126953C14.0137 0.126953 14.3457-0.185547 14.3457-0.673828C14.3457-0.839844 14.3164-0.986328 14.2383-1.20117L9.6582-13.3887C9.43359-13.9941 9.0332-14.2871 8.4082-14.2871C7.80273-14.2871 7.39258-13.9941 7.17773-13.3984L2.59766-1.19141C2.51953-0.976562 2.49023-0.830078 2.49023-0.664062C2.49023-0.175781 2.80273 0.126953 3.31055 0.126953ZM6.00586-5.53711L8.37891-12.1094L8.42773-12.1094L10.8008-5.53711Z"/>
  </g>
  <line id="" style="fill:none;stroke:#00AEEF;stroke-width:0.5;opacity:1.0;" x1="792.836" x2="792.836" y1="1919" y2="1933"/>
  <text style="stroke:none;fill:black;font-family:-apple-system,&quot;SF Pro Display&quot;,&quot;SF Pro Text&quot;,Helvetica,sans-serif;font-weight:bold;" transform="matrix(1 0 0 1 776 1953)">Margins</text>
  <text style="stroke:none;fill:black;font-family:-apple-system,&quot;SF Pro Display&quot;,&quot;SF Pro Text&quot;,Helvetica,sans-serif;" transform="matrix(1 0 0 1 776 1971)">Leading and trailing margins on the left and right side of each symbol</text>
  <text style="stroke:none;fill:black;font-family:-apple-system,&quot;SF Pro Display&quot;,&quot;SF Pro Text&quot;,Helvetica,sans-serif;" transform="matrix(1 0 0 1 776 1989)">can be adjusted by modifying the x-location of the margin guidelines.</text>
  <text style="stroke:none;fill:black;font-family:-apple-system,&quot;SF Pro Display&quot;,&quot;SF Pro Text&quot;,Helvetica,sans-serif;" transform="matrix(1 0 0 1 776 2007)">Modifications are automatically applied proportionally to all</text>
  <text style="stroke:none;fill:black;font-family:-apple-system,&quot;SF Pro Display&quot;,&quot;SF Pro Text&quot;,Helvetica,sans-serif;" transform="matrix(1 0 0 1 776 2025)">scales and weights.</text>
  <g id="" transform="matrix(1 0 0 1 1289 1933)">
   <path d="M2.8418 1.86523L4.54102 3.57422C5.40039 4.44336 6.38672 4.38477 7.31445 3.35938L17.4902-7.85156C17.7539-7.76367 18.0273-7.7832 18.3398-7.8418L19.4043-8.03711L20.0684-7.36328L20.0293-6.80664C19.9902-6.30859 20.1172-5.92773 20.6055-5.44922L21.3672-4.70703C21.8457-4.22852 22.4609-4.19922 22.9297-4.66797L25.8398-7.58789C26.3086-8.05664 26.2891-8.65234 25.8105-9.13086L25.0391-9.89258C24.5605-10.3711 24.1895-10.5273 23.7109-10.4883L23.1348-10.4395L22.4902-11.0742L22.7344-12.1973C22.8613-12.7637 22.7051-13.2031 22.1191-13.7891L19.9219-15.9766C16.582-19.2969 12.1484-19.2188 9.25781-16.3281C8.83789-15.918 8.80859-15.3418 9.04297-14.9512C9.27734-14.5898 9.73633-14.3555 10.3809-14.5215C11.8457-14.8633 13.3691-14.9219 14.7949-13.9844L14.209-12.5293C14.0137-12.0508 13.9844-11.6504 14.1113-11.2891L3.04688-0.898438C2.06055 0.0195312 1.98242 0.996094 2.8418 1.86523ZM10.752-15.957C13.1836-17.7344 16.4746-17.4316 18.7012-15.2051L21.1328-12.793C21.3672-12.5586 21.4062-12.373 21.3379-12.0312L21.0156-10.5469L22.5195-9.0625L23.5059-9.12109C23.7598-9.13086 23.8379-9.11133 24.0332-8.91602L24.6094-8.33984L22.168-5.89844L21.5918-6.47461C21.3965-6.66992 21.3672-6.74805 21.377-7.01172L21.4453-7.98828L19.9512-9.47266L18.4277-9.21875C18.1055-9.15039 17.959-9.17969 17.7148-9.41406L15.7129-11.416C15.459-11.6504 15.4297-11.8164 15.5859-12.1875L16.4648-14.2773C14.9023-15.7324 12.8711-16.3574 10.8398-15.7617C10.6836-15.7227 10.625-15.8496 10.752-15.957ZM5.27344 2.30469L4.10156 1.14258C3.63281 0.683594 3.74023 0.341797 4.14062-0.0195312L14.9512-10.1953L16.416-8.71094L6.42578 2.27539C6.07422 2.67578 5.74219 2.77344 5.27344 2.30469Z"/>
  </g>
  <text style="stroke:none;fill:black;font-family:-apple-system,&quot;SF Pro Display&quot;,&quot;SF Pro Text&quot;,Helvetica,sans-serif;font-weight:bold;" transform="matrix(1 0 0 1 1289 1953)">Exporting</text>
  <text style="stroke:none;fill:black;font-family:-apple-system,&quot;SF Pro Display&quot;,&quot;SF Pro Text&quot;,Helvetica,sans-serif;" transform="matrix(1 0 0 1 1289 1971)">Symbols should be outlined when exporting to ensure the</text>
  <text style="stroke:none;fill:black;font-family:-apple-system,&quot;SF Pro Display&quot;,&quot;SF Pro Text&quot;,Helvetica,sans-serif;" transform="matrix(1 0 0 1 1289 1989)">design is preserved when submitting to Xcode.</text>
  <text id="template-version" style="stroke:none;fill:black;font-family:-apple-system,&quot;SF Pro Display&quot;,&quot;SF Pro Text&quot;,Helvetica,sans-serif;text-anchor:end;" transform="matrix(1 0 0 1 3036 1933)">Template v.2.0</text>
  <text style="stroke:none;fill:black;font-family:-apple-system,&quot;SF Pro Display&quot;,&quot;SF Pro Text&quot;,Helvetica,sans-serif;text-anchor:end;" transform="matrix(1 0 0 1 3036 1951)">Requires Xcode 12 or greater</text>
  <text style="stroke:none;fill:black;font-family:-apple-system,&quot;SF Pro Display&quot;,&quot;SF Pro Text&quot;,Helvetica,sans-serif;" transform="matrix(1 0 0 1 263 726)">Small</text>
  <text style="stroke:none;fill:black;font-family:-apple-system,&quot;SF Pro Display&quot;,&quot;SF Pro Text&quot;,Helvetica,sans-serif;" transform="matrix(1 0 0 1 263 1156)">Medium</text>
  <text style="stroke:none;fill:black;font-family:-apple-system,&quot;SF Pro Display&quot;,&quot;SF Pro Text&quot;,Helvetica,sans-serif;" transform="matrix(1 0 0 1 263 1586)">Large</text>
 </g>
 <g id="Guides">
  <g id="H-reference" style="fill:#27AAE1;stroke:none;" transform="matrix(1 0 0 1 339 696)">
   <path d="M0.976562 0L3.66211 0L12.9883-24.4629L45.752-24.4629L55.127 0L57.7637 0L30.6152-70.459L28.125-70.459ZM29.3457-67.1387L29.4434-67.1387L44.873-26.709L13.8672-26.709Z"/>
  </g>
  <line id="Baseline-S" style="fill:none;stroke:#27AAE1;opacity:1;stroke-width:0.5;" x1="263" x2="3036" y1="696" y2="696"/>
  <line id="Capline-S" style="fill:none;stroke:#27AAE1;opacity:1;stroke-width:0.5;" x1="263" x2="3036" y1="625.541" y2="625.541"/>
  <g id="H-reference" style="fill:#27AAE1;stroke:none;" transform="matrix(1 0 0 1 339 1126)">
   <path d="M0.976562 0L3.66211 0L12.9883-24.4629L45.752-24.4629L55.127 0L57.7637 0L30.6152-70.459L28.125-70.459ZM29.3457-67.1387L29.4434-67.1387L44.873-26.709L13.8672-26.709Z"/>
  </g>
  <line id="Baseline-M" style="fill:none;stroke:#27AAE1;opacity:1;stroke-width:0.5;" x1="263" x2="3036" y1="1126" y2="1126"/>
  <line id="Capline-M" style="fill:none;stroke:#27AAE1;opacity:1;stroke-width:0.5;" x1="263" x2="3036" y1="1055.54" y2="1055.54"/>
  <g id="H-reference" style="fill:#27AAE1;stroke:none;" transform="matrix(1 0 0 1 339 1556)">
   <path d="M0.976562 0L3.66211 0L12.9883-24.4629L45.752-24.4629L55.127 0L57.7637 0L30.6152-70.459L28.125-70.459ZM29.3457-67.1387L29.4434-67.1387L44.873-26.709L13.8672-26.709Z"/>
  </g>
  <line id="Baseline-L" style="fill:none;stroke:#27AAE1;opacity:1;stroke-width:0.5;" x1="263" x2="3036" y1="1556" y2="1556"/>
  <line id="Capline-L" style="fill:none;stroke:#27AAE1;opacity:1;stroke-width:0.5;" x1="263" x2="3036" y1="1485.54" y2="1485.54"/>
  <line id="left-margin" x1="1414.608451872096" x2="1414.608451872096" y1="1030.79" y2="1150.12" style="fill:none;stroke:#00AEEF;stroke-width:0.5;opacity:1.0;"/>
  <line id="right-margin" x1="1487.7833948720477" x2="1487.7833948720477" y1="1030.79" y2="1150.12" style="fill:none;stroke:#00AEEF;stroke-width:0.5;opacity:1.0;"/>
 </g>
 <g id="Symbols">
  <g id="Black-L" transform="matrix(1.0,0.0,0.0,1.0,2892.1594250135413,1480.210083952873)">  <path stroke-width="1px" stroke-linejoin="miter" fill="#000000" stroke-miterlimit="4" stroke="none" fill-rule="nonzero" fill-opacity="1" stroke-dasharray="none" stroke-opacity="1" stroke-linecap="butt" d="M44.96,0.572C46.649,1.41,46.962,1.972,48.751,5.983L56.935,24.345L57,24.491L57.163,24.51L77.156,26.621C81.525,27.082,82.154,27.206,83.474,28.554C84.674,29.78,85.231,31.497,84.981,33.194C84.707,35.06,84.272,35.528,81.006,38.472L66.072,51.93L65.951,52.037L65.985,52.197L70.157,71.864C71.069,76.163,71.145,76.799,70.271,78.469C69.475,79.99,68.015,81.051,66.322,81.338C64.463,81.652,63.88,81.383,60.075,79.188L42.66,69.143L42.52,69.063L42.38,69.144L24.965,79.188C21.16,81.382,20.577,81.652,18.718,81.338C17.025,81.051,15.564,79.99,14.77,78.47C13.895,76.799,13.972,76.163,14.884,71.864L19.055,52.198L19.086,52.037L18.968,51.931L4.034,38.472C0.768,35.529,0.334,35.06,0.059,33.195C-0.192,31.497,0.366,29.78,1.567,28.553C2.886,27.206,3.515,27.082,7.885,26.621L27.878,24.51L28.037,24.494L28.104,24.346L36.289,5.983C38.078,1.972,38.391,1.41,40.08,0.572C41.617,-0.191,43.423,-0.191,44.96,0.572ZM44.96,0.572"/>
</g>
  <g id="Heavy-L" transform="matrix(1.0,0.0,0.0,1.0,2595.4494250135413,1480.210083952873)">  <path stroke-miterlimit="4" stroke="none" stroke-linecap="butt" fill-opacity="1" stroke-width="1px" stroke-dasharray="none" fill-rule="nonzero" stroke-linejoin="miter" stroke-opacity="1" fill="#000000" d="M44.96,0.572C46.649,1.41,46.962,1.972,48.751,5.983L56.935,24.345L57,24.491L57.163,24.51L77.156,26.621C81.525,27.082,82.154,27.206,83.474,28.554C84.674,29.78,85.231,31.497,84.981,33.194C84.707,35.06,84.272,35.528,81.006,38.472L66.072,51.93L65.951,52.037L65.985,52.197L70.157,71.864C71.069,76.163,71.145,76.799,70.271,78.469C69.475,79.99,68.015,81.051,66.322,81.338C64.463,81.652,63.88,81.383,60.075,79.188L42.66,69.143L42.52,69.063L42.38,69.144L24.965,79.188C21.16,81.382,20.577,81.652,18.718,81.338C17.025,81.051,15.564,79.99,14.77,78.47C13.895,76.799,13.972,76.163,14.884,71.864L19.055,52.198L19.086,52.037L18.968,51.931L4.034,38.472C0.768,35.529,0.334,35.06,0.059,33.195C-0.192,31.497,0.366,29.78,1.567,28.553C2.886,27.206,3.515,27.082,7.885,26.621L27.878,24.51L28.037,24.494L28.104,24.346L36.289,5.983C38.078,1.972,38.391,1.41,40.08,0.572C41.617,-0.191,43.423,-0.191,44.96,0.572ZM44.96,0.572"/>
</g>
  <g id="Bold-L" transform="matrix(1.0,0.0,0.0,1.0,2298.739425013541,1480.210083952873)">  <path stroke-linecap="butt" fill-rule="nonzero" stroke="none" stroke-dasharray="none" fill-opacity="1" fill="#000000" stroke-linejoin="miter" stroke-miterlimit="4" stroke-opacity="1" stroke-width="1px" d="M44.96,0.572C46.649,1.41,46.962,1.972,48.751,5.983L56.935,24.345L57,24.491L57.163,24.51L77.156,26.621C81.525,27.082,82.154,27.206,83.474,28.554C84.674,29.78,85.231,31.497,84.981,33.194C84.707,35.06,84.272,35.528,81.006,38.472L66.072,51.93L65.951,52.037L65.985,52.197L70.157,71.864C71.069,76.163,71.145,76.799,70.271,78.469C69.475,79.99,68.015,81.051,66.322,81.338C64.463,81.652,63.88,81.383,60.075,79.188L42.66,69.143L42.52,69.063L42.38,69.144L24.965,79.188C21.16,81.382,20.577,81.652,18.718,81.338C17.025,81.051,15.564,79.99,14.77,78.47C13.895,76.799,13.972,76.163,14.884,71.864L19.055,52.198L19.086,52.037L18.968,51.931L4.034,38.472C0.768,35.529,0.334,35.06,0.059,33.195C-0.192,31.497,0.366,29.78,1.567,28.553C2.886,27.206,3.515,27.082,7.885,26.621L27.878,24.51L28.037,24.494L28.104,24.346L36.289,5.983C38.078,1.972,38.391,1.41,40.08,0.572C41.617,-0.191,43.423,-0.191,44.96,0.572ZM44.96,0.572"/>
</g>
  <g id="Semibold-L" transform="matrix(1.0,0.0,0.0,1.0,2002.0294250135416,1480.210083952873)">  <path stroke="none" fill-rule="nonzero" stroke-linecap="butt" stroke-opacity="1" stroke-miterlimit="4" stroke-width="1px" stroke-dasharray="none" fill="#000000" fill-opacity="1" stroke-linejoin="miter" d="M44.96,0.572C46.649,1.41,46.962,1.972,48.751,5.983L56.935,24.345L57,24.491L57.163,24.51L77.156,26.621C81.525,27.082,82.154,27.206,83.474,28.554C84.674,29.78,85.231,31.497,84.981,33.194C84.707,35.06,84.272,35.528,81.006,38.472L66.072,51.93L65.951,52.037L65.985,52.197L70.157,71.864C71.069,76.163,71.145,76.799,70.271,78.469C69.475,79.99,68.015,81.051,66.322,81.338C64.463,81.652,63.88,81.383,60.075,79.188L42.66,69.143L42.52,69.063L42.38,69.144L24.965,79.188C21.16,81.382,20.577,81.652,18.718,81.338C17.025,81.051,15.564,79.99,14.77,78.47C13.895,76.799,13.972,76.163,14.884,71.864L19.055,52.198L19.086,52.037L18.968,51.931L4.034,38.472C0.768,35.529,0.334,35.06,0.059,33.195C-0.192,31.497,0.366,29.78,1.567,28.553C2.886,27.206,3.515,27.082,7.885,26.621L27.878,24.51L28.037,24.494L28.104,24.346L36.289,5.983C38.078,1.972,38.391,1.41,40.08,0.572C41.617,-0.191,43.423,-0.191,44.96,0.572ZM44.96,0.572"/>
</g>
  <g id="Medium-L" transform="matrix(1.0,0.0,0.0,1.0,1705.3194250135416,1480.210083952873)">  <path stroke-dasharray="none" stroke-linejoin="miter" fill="#000000" fill-opacity="1" stroke-linecap="butt" stroke-width="1px" stroke-miterlimit="4" stroke-opacity="1" stroke="none" fill-rule="nonzero" d="M44.96,0.572C46.649,1.41,46.962,1.972,48.751,5.983L56.935,24.345L57,24.491L57.163,24.51L77.156,26.621C81.525,27.082,82.154,27.206,83.474,28.554C84.674,29.78,85.231,31.497,84.981,33.194C84.707,35.06,84.272,35.528,81.006,38.472L66.072,51.93L65.951,52.037L65.985,52.197L70.157,71.864C71.069,76.163,71.145,76.799,70.271,78.469C69.475,79.99,68.015,81.051,66.322,81.338C64.463,81.652,63.88,81.383,60.075,79.188L42.66,69.143L42.52,69.063L42.38,69.144L24.965,79.188C21.16,81.382,20.577,81.652,18.718,81.338C17.025,81.051,15.564,79.99,14.77,78.47C13.895,76.799,13.972,76.163,14.884,71.864L19.055,52.198L19.086,52.037L18.968,51.931L4.034,38.472C0.768,35.529,0.334,35.06,0.059,33.195C-0.192,31.497,0.366,29.78,1.567,28.553C2.886,27.206,3.515,27.082,7.885,26.621L27.878,24.51L28.037,24.494L28.104,24.346L36.289,5.983C38.078,1.972,38.391,1.41,40.08,0.572C41.617,-0.191,43.423,-0.191,44.96,0.572ZM44.96,0.572"/>
</g>
  <g id="Regular-L" transform="matrix(1.0,0.0,0.0,1.0,1408.6094250135416,1480.210083952873)">  <path stroke-linejoin="miter" stroke="none" fill-rule="nonzero" stroke-opacity="1" fill-opacity="1" stroke-width="1px" stroke-miterlimit="4" stroke-linecap="butt" stroke-dasharray="none" fill="#000000" d="M44.96,0.572C46.649,1.41,46.962,1.972,48.751,5.983L56.935,24.345L57,24.491L57.163,24.51L77.156,26.621C81.525,27.082,82.154,27.206,83.474,28.554C84.674,29.78,85.231,31.497,84.981,33.194C84.707,35.06,84.272,35.528,81.006,38.472L66.072,51.93L65.951,52.037L65.985,52.197L70.157,71.864C71.069,76.163,71.145,76.799,70.271,78.469C69.475,79.99,68.015,81.051,66.322,81.338C64.463,81.652,63.88,81.383,60.075,79.188L42.66,69.143L42.52,69.063L42.38,69.144L24.965,79.188C21.16,81.382,20.577,81.652,18.718,81.338C17.025,81.051,15.564,79.99,14.77,78.47C13.895,76.799,13.972,76.163,14.884,71.864L19.055,52.198L19.086,52.037L18.968,51.931L4.034,38.472C0.768,35.529,0.334,35.06,0.059,33.195C-0.192,31.497,0.366,29.78,1.567,28.553C2.886,27.206,3.515,27.082,7.885,26.621L27.878,24.51L28.037,24.494L28.104,24.346L36.289,5.983C38.078,1.972,38.391,1.41,40.08,0.572C41.617,-0.191,43.423,-0.191,44.96,0.572ZM44.96,0.572"/>
</g>
  <g id="Light-L" transform="matrix(1.0,0.0,0.0,1.0,1111.8994250135418,1480.210083952873)">  <path stroke-linecap="butt" fill="#000000" stroke-miterlimit="4" stroke-linejoin="miter" stroke-opacity="1" fill-opacity="1" fill-rule="nonzero" stroke-width="1px" stroke-dasharray="none" stroke="none" d="M44.96,0.572C46.649,1.41,46.962,1.972,48.751,5.983L56.935,24.345L57,24.491L57.163,24.51L77.156,26.621C81.525,27.082,82.154,27.206,83.474,28.554C84.674,29.78,85.231,31.497,84.981,33.194C84.707,35.06,84.272,35.528,81.006,38.472L66.072,51.93L65.951,52.037L65.985,52.197L70.157,71.864C71.069,76.163,71.145,76.799,70.271,78.469C69.475,79.99,68.015,81.051,66.322,81.338C64.463,81.652,63.88,81.383,60.075,79.188L42.66,69.143L42.52,69.063L42.38,69.144L24.965,79.188C21.16,81.382,20.577,81.652,18.718,81.338C17.025,81.051,15.564,79.99,14.77,78.47C13.895,76.799,13.972,76.163,14.884,71.864L19.055,52.198L19.086,52.037L18.968,51.931L4.034,38.472C0.768,35.529,0.334,35.06,0.059,33.195C-0.192,31.497,0.366,29.78,1.567,28.553C2.886,27.206,3.515,27.082,7.885,26.621L27.878,24.51L28.037,24.494L28.104,24.346L36.289,5.983C38.078,1.972,38.391,1.41,40.08,0.572C41.617,-0.191,43.423,-0.191,44.96,0.572ZM44.96,0.572"/>
</g>
  <g id="Thin-L" transform="matrix(1.0,0.0,0.0,1.0,815.1894250135416,1480.210083952873)">  <path fill="#000000" fill-rule="nonzero" fill-opacity="1" stroke="none" stroke-opacity="1" stroke-linecap="butt" stroke-miterlimit="4" stroke-linejoin="miter" stroke-width="1px" stroke-dasharray="none" d="M44.96,0.572C46.649,1.41,46.962,1.972,48.751,5.983L56.935,24.345L57,24.491L57.163,24.51L77.156,26.621C81.525,27.082,82.154,27.206,83.474,28.554C84.674,29.78,85.231,31.497,84.981,33.194C84.707,35.06,84.272,35.528,81.006,38.472L66.072,51.93L65.951,52.037L65.985,52.197L70.157,71.864C71.069,76.163,71.145,76.799,70.271,78.469C69.475,79.99,68.015,81.051,66.322,81.338C64.463,81.652,63.88,81.383,60.075,79.188L42.66,69.143L42.52,69.063L42.38,69.144L24.965,79.188C21.16,81.382,20.577,81.652,18.718,81.338C17.025,81.051,15.564,79.99,14.77,78.47C13.895,76.799,13.972,76.163,14.884,71.864L19.055,52.198L19.086,52.037L18.968,51.931L4.034,38.472C0.768,35.529,0.334,35.06,0.059,33.195C-0.192,31.497,0.366,29.78,1.567,28.553C2.886,27.206,3.515,27.082,7.885,26.621L27.878,24.51L28.037,24.494L28.104,24.346L36.289,5.983C38.078,1.972,38.391,1.41,40.08,0.572C41.617,-0.191,43.423,-0.191,44.96,0.572ZM44.96,0.572"/>
</g>
  <g id="Ultralight-L" transform="matrix(1.0,0.0,0.0,1.0,518.4794250135416,1480.210083952873)">  <path fill="#000000" fill-opacity="1" stroke-miterlimit="4" stroke-dasharray="none" fill-rule="nonzero" stroke="none" stroke-opacity="1" stroke-linecap="butt" stroke-width="1px" stroke-linejoin="miter" d="M44.96,0.572C46.649,1.41,46.962,1.972,48.751,5.983L56.935,24.345L57,24.491L57.163,24.51L77.156,26.621C81.525,27.082,82.154,27.206,83.474,28.554C84.674,29.78,85.231,31.497,84.981,33.194C84.707,35.06,84.272,35.528,81.006,38.472L66.072,51.93L65.951,52.037L65.985,52.197L70.157,71.864C71.069,76.163,71.145,76.799,70.271,78.469C69.475,79.99,68.015,81.051,66.322,81.338C64.463,81.652,63.88,81.383,60.075,79.188L42.66,69.143L42.52,69.063L42.38,69.144L24.965,79.188C21.16,81.382,20.577,81.652,18.718,81.338C17.025,81.051,15.564,79.99,14.77,78.47C13.895,76.799,13.972,76.163,14.884,71.864L19.055,52.198L19.086,52.037L18.968,51.931L4.034,38.472C0.768,35.529,0.334,35.06,0.059,33.195C-0.192,31.497,0.366,29.78,1.567,28.553C2.886,27.206,3.515,27.082,7.885,26.621L27.878,24.51L28.037,24.494L28.104,24.346L36.289,5.983C38.078,1.972,38.391,1.41,40.08,0.572C41.617,-0.191,43.423,-0.191,44.96,0.572ZM44.96,0.572"/>
</g>
  <g id="Black-M" transform="matrix(1.0,0.0,0.0,1.0,2901.7183139639856,1059.3282090053763)">  <path stroke-width="1px" stroke-linejoin="miter" fill="#000000" stroke-miterlimit="4" stroke="none" fill-rule="nonzero" fill-opacity="1" stroke-dasharray="none" stroke-opacity="1" stroke-linecap="butt" d="M34.853,0.443C36.162,1.093,36.405,1.528,37.791,4.638L44.136,18.872L44.186,18.985L44.312,19L59.811,20.636C63.198,20.994,63.685,21.09,64.708,22.135C65.639,23.085,66.071,24.416,65.877,25.732C65.664,27.178,65.327,27.541,62.796,29.823L51.219,40.256L51.125,40.339L51.151,40.463L54.385,55.708C55.092,59.041,55.151,59.534,54.473,60.829C53.857,62.008,52.725,62.831,51.412,63.053C49.971,63.296,49.519,63.087,46.57,61.386L33.07,53.6L32.961,53.537L32.853,53.6L19.353,61.386C16.403,63.087,15.951,63.296,14.51,63.053C13.198,62.831,12.065,62.008,11.449,60.829C10.772,59.534,10.831,59.041,11.538,55.708L14.771,40.463L14.796,40.339L14.704,40.256L3.127,29.823C0.596,27.542,0.259,27.179,0.046,25.732C-0.148,24.416,0.284,23.085,1.215,22.134C2.237,21.09,2.725,20.994,6.112,20.636L21.611,19L21.734,18.987L21.786,18.873L28.131,4.638C29.518,1.528,29.76,1.093,31.07,0.444C32.261,-0.148,33.661,-0.148,34.853,0.443ZM34.853,0.443"/>
</g>
  <g id="Heavy-M" transform="matrix(1.0,0.0,0.0,1.0,2605.0083139639855,1059.3282090053763)">  <path stroke-miterlimit="4" stroke="none" stroke-linecap="butt" fill-opacity="1" stroke-width="1px" stroke-dasharray="none" fill-rule="nonzero" stroke-linejoin="miter" stroke-opacity="1" fill="#000000" d="M34.853,0.443C36.162,1.093,36.405,1.528,37.791,4.638L44.136,18.872L44.186,18.985L44.312,19L59.811,20.636C63.198,20.994,63.685,21.09,64.708,22.135C65.639,23.085,66.071,24.416,65.877,25.732C65.664,27.178,65.327,27.541,62.796,29.823L51.219,40.256L51.125,40.339L51.151,40.463L54.385,55.708C55.092,59.041,55.151,59.534,54.473,60.829C53.857,62.008,52.725,62.831,51.412,63.053C49.971,63.296,49.519,63.087,46.57,61.386L33.07,53.6L32.961,53.537L32.853,53.6L19.353,61.386C16.403,63.087,15.951,63.296,14.51,63.053C13.198,62.831,12.065,62.008,11.449,60.829C10.772,59.534,10.831,59.041,11.538,55.708L14.771,40.463L14.796,40.339L14.704,40.256L3.127,29.823C0.596,27.542,0.259,27.179,0.046,25.732C-0.148,24.416,0.284,23.085,1.215,22.134C2.237,21.09,2.725,20.994,6.112,20.636L21.611,19L21.734,18.987L21.786,18.873L28.131,4.638C29.518,1.528,29.76,1.093,31.07,0.444C32.261,-0.148,33.661,-0.148,34.853,0.443ZM34.853,0.443"/>
</g>
  <g id="Bold-M" transform="matrix(1.0,0.0,0.0,1.0,2308.2983139639855,1059.3282090053763)">  <path stroke-linecap="butt" fill-rule="nonzero" stroke="none" stroke-dasharray="none" fill-opacity="1" fill="#000000" stroke-linejoin="miter" stroke-miterlimit="4" stroke-opacity="1" stroke-width="1px" d="M34.853,0.443C36.162,1.093,36.405,1.528,37.791,4.638L44.136,18.872L44.186,18.985L44.312,19L59.811,20.636C63.198,20.994,63.685,21.09,64.708,22.135C65.639,23.085,66.071,24.416,65.877,25.732C65.664,27.178,65.327,27.541,62.796,29.823L51.219,40.256L51.125,40.339L51.151,40.463L54.385,55.708C55.092,59.041,55.151,59.534,54.473,60.829C53.857,62.008,52.725,62.831,51.412,63.053C49.971,63.296,49.519,63.087,46.57,61.386L33.07,53.6L32.961,53.537L32.853,53.6L19.353,61.386C16.403,63.087,15.951,63.296,14.51,63.053C13.198,62.831,12.065,62.008,11.449,60.829C10.772,59.534,10.831,59.041,11.538,55.708L14.771,40.463L14.796,40.339L14.704,40.256L3.127,29.823C0.596,27.542,0.259,27.179,0.046,25.732C-0.148,24.416,0.284,23.085,1.215,22.134C2.237,21.09,2.725,20.994,6.112,20.636L21.611,19L21.734,18.987L21.786,18.873L28.131,4.638C29.518,1.528,29.76,1.093,31.07,0.444C32.261,-0.148,33.661,-0.148,34.853,0.443ZM34.853,0.443"/>
</g>
  <g id="Semibold-M" transform="matrix(1.0,0.0,0.0,1.0,2011.5883139639857,1059.3282090053763)">  <path stroke="none" fill-rule="nonzero" stroke-linecap="butt" stroke-opacity="1" stroke-miterlimit="4" stroke-width="1px" stroke-dasharray="none" fill="#000000" fill-opacity="1" stroke-linejoin="miter" d="M34.853,0.443C36.162,1.093,36.405,1.528,37.791,4.638L44.136,18.872L44.186,18.985L44.312,19L59.811,20.636C63.198,20.994,63.685,21.09,64.708,22.135C65.639,23.085,66.071,24.416,65.877,25.732C65.664,27.178,65.327,27.541,62.796,29.823L51.219,40.256L51.125,40.339L51.151,40.463L54.385,55.708C55.092,59.041,55.151,59.534,54.473,60.829C53.857,62.008,52.725,62.831,51.412,63.053C49.971,63.296,49.519,63.087,46.57,61.386L33.07,53.6L32.961,53.537L32.853,53.6L19.353,61.386C16.403,63.087,15.951,63.296,14.51,63.053C13.198,62.831,12.065,62.008,11.449,60.829C10.772,59.534,10.831,59.041,11.538,55.708L14.771,40.463L14.796,40.339L14.704,40.256L3.127,29.823C0.596,27.542,0.259,27.179,0.046,25.732C-0.148,24.416,0.284,23.085,1.215,22.134C2.237,21.09,2.725,20.994,6.112,20.636L21.611,19L21.734,18.987L21.786,18.873L28.131,4.638C29.518,1.528,29.76,1.093,31.07,0.444C32.261,-0.148,33.661,-0.148,34.853,0.443ZM34.853,0.443"/>
</g>
  <g id="Medium-M" transform="matrix(1.0,0.0,0.0,1.0,1714.8783139639856,1059.3282090053763)">  <path stroke-dasharray="none" stroke-linejoin="miter" fill="#000000" fill-opacity="1" stroke-linecap="butt" stroke-width="1px" stroke-miterlimit="4" stroke-opacity="1" stroke="none" fill-rule="nonzero" d="M34.853,0.443C36.162,1.093,36.405,1.528,37.791,4.638L44.136,18.872L44.186,18.985L44.312,19L59.811,20.636C63.198,20.994,63.685,21.09,64.708,22.135C65.639,23.085,66.071,24.416,65.877,25.732C65.664,27.178,65.327,27.541,62.796,29.823L51.219,40.256L51.125,40.339L51.151,40.463L54.385,55.708C55.092,59.041,55.151,59.534,54.473,60.829C53.857,62.008,52.725,62.831,51.412,63.053C49.971,63.296,49.519,63.087,46.57,61.386L33.07,53.6L32.961,53.537L32.853,53.6L19.353,61.386C16.403,63.087,15.951,63.296,14.51,63.053C13.198,62.831,12.065,62.008,11.449,60.829C10.772,59.534,10.831,59.041,11.538,55.708L14.771,40.463L14.796,40.339L14.704,40.256L3.127,29.823C0.596,27.542,0.259,27.179,0.046,25.732C-0.148,24.416,0.284,23.085,1.215,22.134C2.237,21.09,2.725,20.994,6.112,20.636L21.611,19L21.734,18.987L21.786,18.873L28.131,4.638C29.518,1.528,29.76,1.093,31.07,0.444C32.261,-0.148,33.661,-0.148,34.853,0.443ZM34.853,0.443"/>
</g>
  <g id="Regular-M" transform="matrix(1.0,0.0,0.0,1.0,1418.1683139639856,1059.3282090053763)">  <path stroke-linejoin="miter" stroke="none" fill-rule="nonzero" stroke-opacity="1" fill-opacity="1" stroke-width="1px" stroke-miterlimit="4" stroke-linecap="butt" stroke-dasharray="none" fill="#000000" d="M34.853,0.443C36.162,1.093,36.405,1.528,37.791,4.638L44.136,18.872L44.186,18.985L44.312,19L59.811,20.636C63.198,20.994,63.685,21.09,64.708,22.135C65.639,23.085,66.071,24.416,65.877,25.732C65.664,27.178,65.327,27.541,62.796,29.823L51.219,40.256L51.125,40.339L51.151,40.463L54.385,55.708C55.092,59.041,55.151,59.534,54.473,60.829C53.857,62.008,52.725,62.831,51.412,63.053C49.971,63.296,49.519,63.087,46.57,61.386L33.07,53.6L32.961,53.537L32.853,53.6L19.353,61.386C16.403,63.087,15.951,63.296,14.51,63.053C13.198,62.831,12.065,62.008,11.449,60.829C10.772,59.534,10.831,59.041,11.538,55.708L14.771,40.463L14.796,40.339L14.704,40.256L3.127,29.823C0.596,27.542,0.259,27.179,0.046,25.732C-0.148,24.416,0.284,23.085,1.215,22.134C2.237,21.09,2.725,20.994,6.112,20.636L21.611,19L21.734,18.987L21.786,18.873L28.131,4.638C29.518,1.528,29.76,1.093,31.07,0.444C32.261,-0.148,33.661,-0.148,34.853,0.443ZM34.853,0.443"/>
</g>
  <g id="Light-M" transform="matrix(1.0,0.0,0.0,1.0,1121.4583139639858,1059.3282090053763)">  <path stroke-linecap="butt" fill="#000000" stroke-miterlimit="4" stroke-linejoin="miter" stroke-opacity="1" fill-opacity="1" fill-rule="nonzero" stroke-width="1px" stroke-dasharray="none" stroke="none" d="M34.853,0.443C36.162,1.093,36.405,1.528,37.791,4.638L44.136,18.872L44.186,18.985L44.312,19L59.811,20.636C63.198,20.994,63.685,21.09,64.708,22.135C65.639,23.085,66.071,24.416,65.877,25.732C65.664,27.178,65.327,27.541,62.796,29.823L51.219,40.256L51.125,40.339L51.151,40.463L54.385,55.708C55.092,59.041,55.151,59.534,54.473,60.829C53.857,62.008,52.725,62.831,51.412,63.053C49.971,63.296,49.519,63.087,46.57,61.386L33.07,53.6L32.961,53.537L32.853,53.6L19.353,61.386C16.403,63.087,15.951,63.296,14.51,63.053C13.198,62.831,12.065,62.008,11.449,60.829C10.772,59.534,10.831,59.041,11.538,55.708L14.771,40.463L14.796,40.339L14.704,40.256L3.127,29.823C0.596,27.542,0.259,27.179,0.046,25.732C-0.148,24.416,0.284,23.085,1.215,22.134C2.237,21.09,2.725,20.994,6.112,20.636L21.611,19L21.734,18.987L21.786,18.873L28.131,4.638C29.518,1.528,29.76,1.093,31.07,0.444C32.261,-0.148,33.661,-0.148,34.853,0.443ZM34.853,0.443"/>
</g>
  <g id="Thin-M" transform="matrix(1.0,0.0,0.0,1.0,824.7483139639858,1059.3282090053763)">  <path fill="#000000" fill-rule="nonzero" fill-opacity="1" stroke="none" stroke-opacity="1" stroke-linecap="butt" stroke-miterlimit="4" stroke-linejoin="miter" stroke-width="1px" stroke-dasharray="none" d="M34.853,0.443C36.162,1.093,36.405,1.528,37.791,4.638L44.136,18.872L44.186,18.985L44.312,19L59.811,20.636C63.198,20.994,63.685,21.09,64.708,22.135C65.639,23.085,66.071,24.416,65.877,25.732C65.664,27.178,65.327,27.541,62.796,29.823L51.219,40.256L51.125,40.339L51.151,40.463L54.385,55.708C55.092,59.041,55.151,59.534,54.473,60.829C53.857,62.008,52.725,62.831,51.412,63.053C49.971,63.296,49.519,63.087,46.57,61.386L33.07,53.6L32.961,53.537L32.853,53.6L19.353,61.386C16.403,63.087,15.951,63.296,14.51,63.053C13.198,62.831,12.065,62.008,11.449,60.829C10.772,59.534,10.831,59.041,11.538,55.708L14.771,40.463L14.796,40.339L14.704,40.256L3.127,29.823C0.596,27.542,0.259,27.179,0.046,25.732C-0.148,24.416,0.284,23.085,1.215,22.134C2.237,21.09,2.725,20.994,6.112,20.636L21.611,19L21.734,18.987L21.786,18.873L28.131,4.638C29.518,1.528,29.76,1.093,31.07,0.444C32.261,-0.148,33.661,-0.148,34.853,0.443ZM34.853,0.443"/>
</g>
  <g id="Ultralight-M" transform="matrix(1.0,0.0,0.0,1.0,528.0383139639857,1059.3282090053763)">  <path fill="#000000" fill-opacity="1" stroke-miterlimit="4" stroke-dasharray="none" fill-rule="nonzero" stroke="none" stroke-opacity="1" stroke-linecap="butt" stroke-width="1px" stroke-linejoin="miter" d="M34.853,0.443C36.162,1.093,36.405,1.528,37.791,4.638L44.136,18.872L44.186,18.985L44.312,19L59.811,20.636C63.198,20.994,63.685,21.09,64.708,22.135C65.639,23.085,66.071,24.416,65.877,25.732C65.664,27.178,65.327,27.541,62.796,29.823L51.219,40.256L51.125,40.339L51.151,40.463L54.385,55.708C55.092,59.041,55.151,59.534,54.473,60.829C53.857,62.008,52.725,62.831,51.412,63.053C49.971,63.296,49.519,63.087,46.57,61.386L33.07,53.6L32.961,53.537L32.853,53.6L19.353,61.386C16.403,63.087,15.951,63.296,14.51,63.053C13.198,62.831,12.065,62.008,11.449,60.829C10.772,59.534,10.831,59.041,11.538,55.708L14.771,40.463L14.796,40.339L14.704,40.256L3.127,29.823C0.596,27.542,0.259,27.179,0.046,25.732C-0.148,24.416,0.284,23.085,1.215,22.134C2.237,21.09,2.725,20.994,6.112,20.636L21.611,19L21.734,18.987L21.786,18.873L28.131,4.638C29.518,1.528,29.76,1.093,31.07,0.444C32.261,-0.148,33.661,-0.148,34.853,0.443ZM34.853,0.443"/>
</g>
  <g id="Black-S" transform="matrix(1.0,0.0,0.0,1.0,2908.870999833801,636.1510818894909)">  <path stroke-width="1px" stroke-linejoin="miter" fill="#000000" stroke-miterlimit="4" stroke="none" fill-rule="nonzero" fill-opacity="1" stroke-dasharray="none" stroke-opacity="1" stroke-linecap="butt" d="M27.29,0.347C28.315,0.856,28.505,1.197,29.59,3.632L34.558,14.777L34.598,14.866L34.696,14.877L46.832,16.158C49.484,16.438,49.866,16.513,50.667,17.331C51.395,18.076,51.734,19.118,51.582,20.148C51.415,21.281,51.151,21.565,49.169,23.351L40.104,31.521L40.031,31.585L40.051,31.683L42.583,43.62C43.137,46.229,43.183,46.615,42.653,47.629C42.17,48.552,41.283,49.196,40.256,49.37C39.128,49.561,38.774,49.397,36.464,48.065L25.894,41.968L25.809,41.92L25.724,41.969L15.153,48.065C12.844,49.397,12.49,49.561,11.361,49.37C10.334,49.196,9.447,48.552,8.965,47.629C8.434,46.615,8.481,46.229,9.034,43.62L11.566,31.683L11.585,31.585L11.513,31.521L2.448,23.351C0.466,21.565,0.203,21.281,0.036,20.148C-0.116,19.118,0.222,18.076,0.951,17.331C1.752,16.513,2.133,16.438,4.786,16.158L16.921,14.877L17.018,14.867L17.059,14.777L22.027,3.632C23.112,1.197,23.302,0.856,24.328,0.347C25.261,-0.116,26.357,-0.116,27.29,0.347ZM27.29,0.347"/>
</g>
  <g id="Heavy-S" transform="matrix(1.0,0.0,0.0,1.0,2612.160999833801,636.1510818894909)">  <path stroke-miterlimit="4" stroke="none" stroke-linecap="butt" fill-opacity="1" stroke-width="1px" stroke-dasharray="none" fill-rule="nonzero" stroke-linejoin="miter" stroke-opacity="1" fill="#000000" d="M27.29,0.347C28.315,0.856,28.505,1.197,29.59,3.632L34.558,14.777L34.598,14.866L34.696,14.877L46.832,16.158C49.484,16.438,49.866,16.513,50.667,17.331C51.395,18.076,51.734,19.118,51.582,20.148C51.415,21.281,51.151,21.565,49.169,23.351L40.104,31.521L40.031,31.585L40.051,31.683L42.583,43.62C43.137,46.229,43.183,46.615,42.653,47.629C42.17,48.552,41.283,49.196,40.256,49.37C39.128,49.561,38.774,49.397,36.464,48.065L25.894,41.968L25.809,41.92L25.724,41.969L15.153,48.065C12.844,49.397,12.49,49.561,11.361,49.37C10.334,49.196,9.447,48.552,8.965,47.629C8.434,46.615,8.481,46.229,9.034,43.62L11.566,31.683L11.585,31.585L11.513,31.521L2.448,23.351C0.466,21.565,0.203,21.281,0.036,20.148C-0.116,19.118,0.222,18.076,0.951,17.331C1.752,16.513,2.133,16.438,4.786,16.158L16.921,14.877L17.018,14.867L17.059,14.777L22.027,3.632C23.112,1.197,23.302,0.856,24.328,0.347C25.261,-0.116,26.357,-0.116,27.29,0.347ZM27.29,0.347"/>
</g>
  <g id="Bold-S" transform="matrix(1.0,0.0,0.0,1.0,2315.450999833801,636.1510818894909)">  <path stroke-linecap="butt" fill-rule="nonzero" stroke="none" stroke-dasharray="none" fill-opacity="1" fill="#000000" stroke-linejoin="miter" stroke-miterlimit="4" stroke-opacity="1" stroke-width="1px" d="M27.29,0.347C28.315,0.856,28.505,1.197,29.59,3.632L34.558,14.777L34.598,14.866L34.696,14.877L46.832,16.158C49.484,16.438,49.866,16.513,50.667,17.331C51.395,18.076,51.734,19.118,51.582,20.148C51.415,21.281,51.151,21.565,49.169,23.351L40.104,31.521L40.031,31.585L40.051,31.683L42.583,43.62C43.137,46.229,43.183,46.615,42.653,47.629C42.17,48.552,41.283,49.196,40.256,49.37C39.128,49.561,38.774,49.397,36.464,48.065L25.894,41.968L25.809,41.92L25.724,41.969L15.153,48.065C12.844,49.397,12.49,49.561,11.361,49.37C10.334,49.196,9.447,48.552,8.965,47.629C8.434,46.615,8.481,46.229,9.034,43.62L11.566,31.683L11.585,31.585L11.513,31.521L2.448,23.351C0.466,21.565,0.203,21.281,0.036,20.148C-0.116,19.118,0.222,18.076,0.951,17.331C1.752,16.513,2.133,16.438,4.786,16.158L16.921,14.877L17.018,14.867L17.059,14.777L22.027,3.632C23.112,1.197,23.302,0.856,24.328,0.347C25.261,-0.116,26.357,-0.116,27.29,0.347ZM27.29,0.347"/>
</g>
  <g id="Semibold-S" transform="matrix(1.0,0.0,0.0,1.0,2018.7409998338007,636.1510818894909)">  <path stroke="none" fill-rule="nonzero" stroke-linecap="butt" stroke-opacity="1" stroke-miterlimit="4" stroke-width="1px" stroke-dasharray="none" fill="#000000" fill-opacity="1" stroke-linejoin="miter" d="M27.29,0.347C28.315,0.856,28.505,1.197,29.59,3.632L34.558,14.777L34.598,14.866L34.696,14.877L46.832,16.158C49.484,16.438,49.866,16.513,50.667,17.331C51.395,18.076,51.734,19.118,51.582,20.148C51.415,21.281,51.151,21.565,49.169,23.351L40.104,31.521L40.031,31.585L40.051,31.683L42.583,43.62C43.137,46.229,43.183,46.615,42.653,47.629C42.17,48.552,41.283,49.196,40.256,49.37C39.128,49.561,38.774,49.397,36.464,48.065L25.894,41.968L25.809,41.92L25.724,41.969L15.153,48.065C12.844,49.397,12.49,49.561,11.361,49.37C10.334,49.196,9.447,48.552,8.965,47.629C8.434,46.615,8.481,46.229,9.034,43.62L11.566,31.683L11.585,31.585L11.513,31.521L2.448,23.351C0.466,21.565,0.203,21.281,0.036,20.148C-0.116,19.118,0.222,18.076,0.951,17.331C1.752,16.513,2.133,16.438,4.786,16.158L16.921,14.877L17.018,14.867L17.059,14.777L22.027,3.632C23.112,1.197,23.302,0.856,24.328,0.347C25.261,-0.116,26.357,-0.116,27.29,0.347ZM27.29,0.347"/>
</g>
  <g id="Medium-S" transform="matrix(1.0,0.0,0.0,1.0,1722.0309998338007,636.1510818894909)">  <path stroke-dasharray="none" stroke-linejoin="miter" fill="#000000" fill-opacity="1" stroke-linecap="butt" stroke-width="1px" stroke-miterlimit="4" stroke-opacity="1" stroke="none" fill-rule="nonzero" d="M27.29,0.347C28.315,0.856,28.505,1.197,29.59,3.632L34.558,14.777L34.598,14.866L34.696,14.877L46.832,16.158C49.484,16.438,49.866,16.513,50.667,17.331C51.395,18.076,51.734,19.118,51.582,20.148C51.415,21.281,51.151,21.565,49.169,23.351L40.104,31.521L40.031,31.585L40.051,31.683L42.583,43.62C43.137,46.229,43.183,46.615,42.653,47.629C42.17,48.552,41.283,49.196,40.256,49.37C39.128,49.561,38.774,49.397,36.464,48.065L25.894,41.968L25.809,41.92L25.724,41.969L15.153,48.065C12.844,49.397,12.49,49.561,11.361,49.37C10.334,49.196,9.447,48.552,8.965,47.629C8.434,46.615,8.481,46.229,9.034,43.62L11.566,31.683L11.585,31.585L11.513,31.521L2.448,23.351C0.466,21.565,0.203,21.281,0.036,20.148C-0.116,19.118,0.222,18.076,0.951,17.331C1.752,16.513,2.133,16.438,4.786,16.158L16.921,14.877L17.018,14.867L17.059,14.777L22.027,3.632C23.112,1.197,23.302,0.856,24.328,0.347C25.261,-0.116,26.357,-0.116,27.29,0.347ZM27.29,0.347"/>
</g>
  <g id="Regular-S" transform="matrix(1.0,0.0,0.0,1.0,1425.3209998338007,636.1510818894909)">  <path stroke-linejoin="miter" stroke="none" fill-rule="nonzero" stroke-opacity="1" fill-opacity="1" stroke-width="1px" stroke-miterlimit="4" stroke-linecap="butt" stroke-dasharray="none" fill="#000000" d="M27.29,0.347C28.315,0.856,28.505,1.197,29.59,3.632L34.558,14.777L34.598,14.866L34.696,14.877L46.832,16.158C49.484,16.438,49.866,16.513,50.667,17.331C51.395,18.076,51.734,19.118,51.582,20.148C51.415,21.281,51.151,21.565,49.169,23.351L40.104,31.521L40.031,31.585L40.051,31.683L42.583,43.62C43.137,46.229,43.183,46.615,42.653,47.629C42.17,48.552,41.283,49.196,40.256,49.37C39.128,49.561,38.774,49.397,36.464,48.065L25.894,41.968L25.809,41.92L25.724,41.969L15.153,48.065C12.844,49.397,12.49,49.561,11.361,49.37C10.334,49.196,9.447,48.552,8.965,47.629C8.434,46.615,8.481,46.229,9.034,43.62L11.566,31.683L11.585,31.585L11.513,31.521L2.448,23.351C0.466,21.565,0.203,21.281,0.036,20.148C-0.116,19.118,0.222,18.076,0.951,17.331C1.752,16.513,2.133,16.438,4.786,16.158L16.921,14.877L17.018,14.867L17.059,14.777L22.027,3.632C23.112,1.197,23.302,0.856,24.328,0.347C25.261,-0.116,26.357,-0.116,27.29,0.347ZM27.29,0.347"/>
</g>
  <g id="Light-S" transform="matrix(1.0,0.0,0.0,1.0,1128.6109998338009,636.1510818894909)">  <path stroke-linecap="butt" fill="#000000" stroke-miterlimit="4" stroke-linejoin="miter" stroke-opacity="1" fill-opacity="1" fill-rule="nonzero" stroke-width="1px" stroke-dasharray="none" stroke="none" d="M27.29,0.347C28.315,0.856,28.505,1.197,29.59,3.632L34.558,14.777L34.598,14.866L34.696,14.877L46.832,16.158C49.484,16.438,49.866,16.513,50.667,17.331C51.395,18.076,51.734,19.118,51.582,20.148C51.415,21.281,51.151,21.565,49.169,23.351L40.104,31.521L40.031,31.585L40.051,31.683L42.583,43.62C43.137,46.229,43.183,46.615,42.653,47.629C42.17,48.552,41.283,49.196,40.256,49.37C39.128,49.561,38.774,49.397,36.464,48.065L25.894,41.968L25.809,41.92L25.724,41.969L15.153,48.065C12.844,49.397,12.49,49.561,11.361,49.37C10.334,49.196,9.447,48.552,8.965,47.629C8.434,46.615,8.481,46.229,9.034,43.62L11.566,31.683L11.585,31.585L11.513,31.521L2.448,23.351C0.466,21.565,0.203,21.281,0.036,20.148C-0.116,19.118,0.222,18.076,0.951,17.331C1.752,16.513,2.133,16.438,4.786,16.158L16.921,14.877L17.018,14.867L17.059,14.777L22.027,3.632C23.112,1.197,23.302,0.856,24.328,0.347C25.261,-0.116,26.357,-0.116,27.29,0.347ZM27.29,0.347"/>
</g>
  <g id="Thin-S" transform="matrix(1.0,0.0,0.0,1.0,831.9009998338008,636.1510818894909)">  <path fill="#000000" fill-rule="nonzero" fill-opacity="1" stroke="none" stroke-opacity="1" stroke-linecap="butt" stroke-miterlimit="4" stroke-linejoin="miter" stroke-width="1px" stroke-dasharray="none" d="M27.29,0.347C28.315,0.856,28.505,1.197,29.59,3.632L34.558,14.777L34.598,14.866L34.696,14.877L46.832,16.158C49.484,16.438,49.866,16.513,50.667,17.331C51.395,18.076,51.734,19.118,51.582,20.148C51.415,21.281,51.151,21.565,49.169,23.351L40.104,31.521L40.031,31.585L40.051,31.683L42.583,43.62C43.137,46.229,43.183,46.615,42.653,47.629C42.17,48.552,41.283,49.196,40.256,49.37C39.128,49.561,38.774,49.397,36.464,48.065L25.894,41.968L25.809,41.92L25.724,41.969L15.153,48.065C12.844,49.397,12.49,49.561,11.361,49.37C10.334,49.196,9.447,48.552,8.965,47.629C8.434,46.615,8.481,46.229,9.034,43.62L11.566,31.683L11.585,31.585L11.513,31.521L2.448,23.351C0.466,21.565,0.203,21.281,0.036,20.148C-0.116,19.118,0.222,18.076,0.951,17.331C1.752,16.513,2.133,16.438,4.786,16.158L16.921,14.877L17.018,14.867L17.059,14.777L22.027,3.632C23.112,1.197,23.302,0.856,24.328,0.347C25.261,-0.116,26.357,-0.116,27.29,0.347ZM27.29,0.347"/>
</g>
  <g id="Ultralight-S" transform="matrix(1.0,0.0,0.0,1.0,535.1909998338008,636.1510818894909)">  <path fill="#000000" fill-opacity="1" stroke-miterlimit="4" stroke-dasharray="none" fill-rule="nonzero" stroke="none" stroke-opacity="1" stroke-linecap="butt" stroke-width="1px" stroke-linejoin="miter" d="M27.29,0.347C28.315,0.856,28.505,1.197,29.59,3.632L34.558,14.777L34.598,14.866L34.696,14.877L46.832,16.158C49.484,16.438,49.866,16.513,50.667,17.331C51.395,18.076,51.734,19.118,51.582,20.148C51.415,21.281,51.151,21.565,49.169,23.351L40.104,31.521L40.031,31.585L40.051,31.683L42.583,43.62C43.137,46.229,43.183,46.615,42.653,47.629C42.17,48.552,41.283,49.196,40.256,49.37C39.128,49.561,38.774,49.397,36.464,48.065L25.894,41.968L25.809,41.92L25.724,41.969L15.153,48.065C12.844,49.397,12.49,49.561,11.361,49.37C10.334,49.196,9.447,48.552,8.965,47.629C8.434,46.615,8.481,46.229,9.034,43.62L11.566,31.683L11.585,31.585L11.513,31.521L2.448,23.351C0.466,21.565,0.203,21.281,0.036,20.148C-0.116,19.118,0.222,18.076,0.951,17.331C1.752,16.513,2.133,16.438,4.786,16.158L16.921,14.877L17.018,14.867L17.059,14.777L22.027,3.632C23.112,1.197,23.302,0.856,24.328,0.347C25.261,-0.116,26.357,-0.116,27.29,0.347ZM27.29,0.347"/>
</g>
 </g>
</svg>
