<?xml version="1.0" encoding="UTF-8"?>
<!-- Generator: CustomSymbols v2.6.7.45 by @serious_bret https://bretlester.com/app_content/CustomSymbols/ -->
<!-- Guides: Left/Right -0.05400000000000003/-0.05599999999999998 Cap/Base -0.06/-0.05599999999999998 -->
<!-- Settings: RefScale 0.0 Min/Max Stroke Scales 0.5/0.3 -->
<!DOCTYPE svg
PUBLIC "-//W3C//DTD SVG 1.1//EN"
       "http://www.w3.org/Graphics/SVG/1.1/DTD/svg11.dtd">
<svg version="1.1" xmlns="http://www.w3.org/2000/svg" xmlns:xlink="http://www.w3.org/1999/xlink" width="3300" height="2200">
<![CDATA[<svg xmlns="http://www.w3.org/2000/svg" width="21.046" height="22" viewBox="0 0 21.046 22"><path fill="#BBB" fill-rule="evenodd" d="M85.9686267,19.4908816 L83.481917,17.0041605 C83.004617,16.5268582 83.004617,15.7529838 83.481917,15.2756816 C83.9592171,14.7983671 84.7330879,14.7983671 85.2103879,15.2756816 L103.5436,33.6090149 C104.020998,34.0862927 104.020998,34.8602038 103.5436,35.3374816 C103.066324,35.8147593 102.292417,35.8147593 101.815141,35.3374816 L99.2578974,32.780226 C99.1917755,33.1082705 99.1257758,33.4082038 99.0620983,33.6788038 C98.6823556,35.293726 97.2279179,36.2695482 95.6963583,36.2695482 C94.778107,36.2695482 93.8933444,35.9253705 93.2164809,35.3048482 L89.6363641,32.0231816 C89.1856107,31.6099482 88.5962212,31.3806593 87.9846484,31.3806593 L87.7442507,31.3806593 C85.0442031,31.3806593 82.8553844,29.1917816 82.8553844,26.4917705 L82.8553844,24.047326 C82.8553844,21.9736427 84.1464484,20.2014938 85.9686267,19.4908816 Z M88.079688,21.6019527 L97.1437072,30.666026 C96.9983856,31.6611593 96.8317975,32.4848149 96.6825649,33.1191482 C96.5911431,33.5080593 96.2235003,33.8251038 95.6963583,33.8251038 C95.3897042,33.8251038 95.0942944,33.7102149 94.8681844,33.502926 L91.2881898,30.2212593 C90.3865607,29.3946705 89.207855,28.9362149 87.9846484,28.9362149 L87.7442507,28.9362149 C86.3942269,28.9362149 85.2998175,27.8418371 85.2998175,26.4917705 L85.2998175,24.047326 C85.2998175,22.697296 86.3942269,21.6028816 87.7442507,21.6028816 L87.9846484,21.6028816 C88.0163527,21.6028816 88.0480448,21.602576 88.079688,21.6019527 Z M95.6963583,14.2695482 C97.2279179,14.2695482 98.6823556,15.245346 99.0620983,16.8603416 C99.4657964,18.576696 99.9664163,21.4707838 99.9664163,25.2695482 C99.9664163,26.0103371 99.9473498,26.7166593 99.9137388,27.3865593 L97.5210054,24.9938149 C97.4976611,21.5462071 97.0400632,18.9396593 96.6825649,17.4199605 C96.5911431,17.0310005 96.2235003,16.7139927 95.6963583,16.7139927 C95.3897042,16.7139927 95.0942944,16.8289305 94.8681844,17.0361338 L92.1004749,19.5732349 L90.3704274,17.8431182 L93.2164809,15.2341993 C93.8933444,14.6137382 94.778107,14.2695482 95.6963583,14.2695482 Z" transform="translate(-82.855 -14.27)"/></svg>]]>
 <g id="Notes">
  <rect height="2200" id="artboard" style="fill:white;opacity:1" width="3300" x="0" y="0"/>
  <line id="" style="fill:none;stroke:black;opacity:1;stroke-width:0.5;" x1="263" x2="3036" y1="292" y2="292"/>
  <text id="reftext1" style="stroke:none;fill:black;font-family:-apple-system,&quot;SF Pro Display&quot;,&quot;SF Pro Text&quot;,Helvetica,sans-serif;font-weight:bold;" transform="matrix(1 0 0 1 263 322)">Weight/Scale Variations</text>
  <text id="reftext2" style="stroke:none;fill:black;font-family:-apple-system,&quot;SF Pro Display&quot;,&quot;SF Pro Text&quot;,Helvetica,sans-serif;text-anchor:middle;" transform="matrix(1 0 0 1 559.711 322)">Ultralight</text>
  <text style="stroke:none;fill:black;font-family:-apple-system,&quot;SF Pro Display&quot;,&quot;SF Pro Text&quot;,Helvetica,sans-serif;text-anchor:middle;" transform="matrix(1 0 0 1 856.422 322)">Thin</text>
  <text style="stroke:none;fill:black;font-family:-apple-system,&quot;SF Pro Display&quot;,&quot;SF Pro Text&quot;,Helvetica,sans-serif;text-anchor:middle;" transform="matrix(1 0 0 1 1153.13 322)">Light</text>
  <text style="stroke:none;fill:black;font-family:-apple-system,&quot;SF Pro Display&quot;,&quot;SF Pro Text&quot;,Helvetica,sans-serif;text-anchor:middle;" transform="matrix(1 0 0 1 1449.84 322)">Regular</text>
  <text style="stroke:none;fill:black;font-family:-apple-system,&quot;SF Pro Display&quot;,&quot;SF Pro Text&quot;,Helvetica,sans-serif;text-anchor:middle;" transform="matrix(1 0 0 1 1746.56 322)">Medium</text>
  <text style="stroke:none;fill:black;font-family:-apple-system,&quot;SF Pro Display&quot;,&quot;SF Pro Text&quot;,Helvetica,sans-serif;text-anchor:middle;" transform="matrix(1 0 0 1 2043.27 322)">Semibold</text>
  <text style="stroke:none;fill:black;font-family:-apple-system,&quot;SF Pro Display&quot;,&quot;SF Pro Text&quot;,Helvetica,sans-serif;text-anchor:middle;" transform="matrix(1 0 0 1 2339.98 322)">Bold</text>
  <text style="stroke:none;fill:black;font-family:-apple-system,&quot;SF Pro Display&quot;,&quot;SF Pro Text&quot;,Helvetica,sans-serif;text-anchor:middle;" transform="matrix(1 0 0 1 2636.69 322)">Heavy</text>
  <text style="stroke:none;fill:black;font-family:-apple-system,&quot;SF Pro Display&quot;,&quot;SF Pro Text&quot;,Helvetica,sans-serif;text-anchor:middle;" transform="matrix(1 0 0 1 2933.4 322)">Black</text>
  <line id="" style="fill:none;stroke:black;opacity:1;stroke-width:0.5;" x1="263" x2="3036" y1="1903" y2="1903"/>
  <g id="" transform="matrix(1 0 0 1 263 1933)">
   <path d="M9.24805 0.830078C13.5547 0.830078 17.1387-2.74414 17.1387-7.05078C17.1387-11.3574 13.5449-14.9316 9.23828-14.9316C4.94141-14.9316 1.36719-11.3574 1.36719-7.05078C1.36719-2.74414 4.95117 0.830078 9.24805 0.830078ZM9.24805-0.654297C5.70312-0.654297 2.87109-3.49609 2.87109-7.05078C2.87109-10.6055 5.69336-13.4473 9.23828-13.4473C12.793-13.4473 15.6348-10.6055 15.6445-7.05078C15.6543-3.49609 12.8027-0.654297 9.24805-0.654297ZM6.39648-6.31836L8.50586-6.31836L8.50586-4.19922C8.50586-3.75977 8.79883-3.45703 9.22852-3.45703C9.67773-3.45703 9.9707-3.75977 9.9707-4.19922L9.9707-6.31836L12.0996-6.31836C12.5391-6.31836 12.8418-6.61133 12.8418-7.04102C12.8418-7.48047 12.5391-7.7832 12.0996-7.7832L9.9707-7.7832L9.9707-9.89258C9.9707-10.3418 9.67773-10.6445 9.22852-10.6445C8.79883-10.6445 8.50586-10.3418 8.50586-9.89258L8.50586-7.7832L6.39648-7.7832C5.94727-7.7832 5.64453-7.48047 5.64453-7.04102C5.64453-6.61133 5.94727-6.31836 6.39648-6.31836Z"/>
  </g>
  <g id="" transform="matrix(1 0 0 1 281.506 1933)">
   <path d="M11.709 2.91016C17.1582 2.91016 21.6699-1.61133 21.6699-7.05078C21.6699-12.5 17.1484-17.0117 11.6992-17.0117C6.25977-17.0117 1.74805-12.5 1.74805-7.05078C1.74805-1.61133 6.26953 2.91016 11.709 2.91016ZM11.709 1.25C7.09961 1.25 3.41797-2.44141 3.41797-7.05078C3.41797-11.6602 7.08984-15.3516 11.6992-15.3516C16.3086-15.3516 20-11.6602 20.0098-7.05078C20.0195-2.44141 16.3184 1.25 11.709 1.25ZM7.98828-6.23047L10.8789-6.23047L10.8789-3.32031C10.8789-2.83203 11.2109-2.5 11.6895-2.5C12.1777-2.5 12.5195-2.83203 12.5195-3.32031L12.5195-6.23047L15.4297-6.23047C15.918-6.23047 16.25-6.5625 16.25-7.04102C16.25-7.5293 15.918-7.87109 15.4297-7.87109L12.5195-7.87109L12.5195-10.7617C12.5195-11.2695 12.1777-11.6016 11.6895-11.6016C11.2109-11.6016 10.8789-11.2598 10.8789-10.7617L10.8789-7.87109L7.98828-7.87109C7.48047-7.87109 7.14844-7.5293 7.14844-7.04102C7.14844-6.5625 7.49023-6.23047 7.98828-6.23047Z"/>
  </g>
  <g id="" transform="matrix(1 0 0 1 304.924 1933)">
   <path d="M14.9707 5.66406C21.9336 5.66406 27.6953-0.0976562 27.6953-7.05078C27.6953-14.0137 21.9238-19.7754 14.9609-19.7754C8.00781-19.7754 2.25586-14.0137 2.25586-7.05078C2.25586-0.0976562 8.01758 5.66406 14.9707 5.66406ZM14.9707 3.84766C8.93555 3.84766 4.08203-1.01562 4.08203-7.05078C4.08203-13.0957 8.92578-17.9492 14.9609-17.9492C21.0059-17.9492 25.8594-13.0957 25.8691-7.05078C25.8789-1.01562 21.0156 3.84766 14.9707 3.84766ZM10.0586-6.14258L14.0625-6.14258L14.0625-2.12891C14.0625-1.5918 14.4336-1.2207 14.9512-1.2207C15.4883-1.2207 15.8594-1.5918 15.8594-2.12891L15.8594-6.14258L19.8828-6.14258C20.4102-6.14258 20.791-6.51367 20.791-7.03125C20.791-7.56836 20.4199-7.94922 19.8828-7.94922L15.8594-7.94922L15.8594-11.9531C15.8594-12.5098 15.4883-12.8809 14.9512-12.8809C14.4336-12.8809 14.0625-12.5 14.0625-11.9531L14.0625-7.94922L10.0586-7.94922C9.50195-7.94922 9.13086-7.56836 9.13086-7.03125C9.13086-6.51367 9.51172-6.14258 10.0586-6.14258Z"/>
  </g>
  <text style="stroke:none;fill:black;font-family:-apple-system,&quot;SF Pro Display&quot;,&quot;SF Pro Text&quot;,Helvetica,sans-serif;font-weight:bold;" transform="matrix(1 0 0 1 263 1953)">Design Variations</text>
  <text style="stroke:none;fill:black;font-family:-apple-system,&quot;SF Pro Display&quot;,&quot;SF Pro Text&quot;,Helvetica,sans-serif;" transform="matrix(1 0 0 1 263 1971)">Symbols are supported in up to nine weights and three scales.</text>
  <text style="stroke:none;fill:black;font-family:-apple-system,&quot;SF Pro Display&quot;,&quot;SF Pro Text&quot;,Helvetica,sans-serif;" transform="matrix(1 0 0 1 263 1989)">For optimal layout with text and other symbols, vertically align</text>
  <text style="stroke:none;fill:black;font-family:-apple-system,&quot;SF Pro Display&quot;,&quot;SF Pro Text&quot;,Helvetica,sans-serif;" transform="matrix(1 0 0 1 263 2007)">symbols with the adjacent text.</text>
  <line id="" style="fill:none;stroke:#00AEEF;stroke-width:0.5;opacity:1.0;" x1="776" x2="776" y1="1919" y2="1933"/>
  <g id="" transform="matrix(1 0 0 1 776 1933)">
   <path d="M3.31055 0.126953C3.82812 0.126953 4.08203-0.0683594 4.26758-0.605469L5.52734-4.0625L11.2891-4.0625L12.5488-0.605469C12.7344-0.0683594 12.9883 0.126953 13.4961 0.126953C14.0137 0.126953 14.3457-0.185547 14.3457-0.673828C14.3457-0.839844 14.3164-0.986328 14.2383-1.20117L9.6582-13.3887C9.43359-13.9941 9.0332-14.2871 8.4082-14.2871C7.80273-14.2871 7.39258-13.9941 7.17773-13.3984L2.59766-1.19141C2.51953-0.976562 2.49023-0.830078 2.49023-0.664062C2.49023-0.175781 2.80273 0.126953 3.31055 0.126953ZM6.00586-5.53711L8.37891-12.1094L8.42773-12.1094L10.8008-5.53711Z"/>
  </g>
  <line id="" style="fill:none;stroke:#00AEEF;stroke-width:0.5;opacity:1.0;" x1="792.836" x2="792.836" y1="1919" y2="1933"/>
  <text style="stroke:none;fill:black;font-family:-apple-system,&quot;SF Pro Display&quot;,&quot;SF Pro Text&quot;,Helvetica,sans-serif;font-weight:bold;" transform="matrix(1 0 0 1 776 1953)">Margins</text>
  <text style="stroke:none;fill:black;font-family:-apple-system,&quot;SF Pro Display&quot;,&quot;SF Pro Text&quot;,Helvetica,sans-serif;" transform="matrix(1 0 0 1 776 1971)">Leading and trailing margins on the left and right side of each symbol</text>
  <text style="stroke:none;fill:black;font-family:-apple-system,&quot;SF Pro Display&quot;,&quot;SF Pro Text&quot;,Helvetica,sans-serif;" transform="matrix(1 0 0 1 776 1989)">can be adjusted by modifying the x-location of the margin guidelines.</text>
  <text style="stroke:none;fill:black;font-family:-apple-system,&quot;SF Pro Display&quot;,&quot;SF Pro Text&quot;,Helvetica,sans-serif;" transform="matrix(1 0 0 1 776 2007)">Modifications are automatically applied proportionally to all</text>
  <text style="stroke:none;fill:black;font-family:-apple-system,&quot;SF Pro Display&quot;,&quot;SF Pro Text&quot;,Helvetica,sans-serif;" transform="matrix(1 0 0 1 776 2025)">scales and weights.</text>
  <g id="" transform="matrix(1 0 0 1 1289 1933)">
   <path d="M2.8418 1.86523L4.54102 3.57422C5.40039 4.44336 6.38672 4.38477 7.31445 3.35938L17.4902-7.85156C17.7539-7.76367 18.0273-7.7832 18.3398-7.8418L19.4043-8.03711L20.0684-7.36328L20.0293-6.80664C19.9902-6.30859 20.1172-5.92773 20.6055-5.44922L21.3672-4.70703C21.8457-4.22852 22.4609-4.19922 22.9297-4.66797L25.8398-7.58789C26.3086-8.05664 26.2891-8.65234 25.8105-9.13086L25.0391-9.89258C24.5605-10.3711 24.1895-10.5273 23.7109-10.4883L23.1348-10.4395L22.4902-11.0742L22.7344-12.1973C22.8613-12.7637 22.7051-13.2031 22.1191-13.7891L19.9219-15.9766C16.582-19.2969 12.1484-19.2188 9.25781-16.3281C8.83789-15.918 8.80859-15.3418 9.04297-14.9512C9.27734-14.5898 9.73633-14.3555 10.3809-14.5215C11.8457-14.8633 13.3691-14.9219 14.7949-13.9844L14.209-12.5293C14.0137-12.0508 13.9844-11.6504 14.1113-11.2891L3.04688-0.898438C2.06055 0.0195312 1.98242 0.996094 2.8418 1.86523ZM10.752-15.957C13.1836-17.7344 16.4746-17.4316 18.7012-15.2051L21.1328-12.793C21.3672-12.5586 21.4062-12.373 21.3379-12.0312L21.0156-10.5469L22.5195-9.0625L23.5059-9.12109C23.7598-9.13086 23.8379-9.11133 24.0332-8.91602L24.6094-8.33984L22.168-5.89844L21.5918-6.47461C21.3965-6.66992 21.3672-6.74805 21.377-7.01172L21.4453-7.98828L19.9512-9.47266L18.4277-9.21875C18.1055-9.15039 17.959-9.17969 17.7148-9.41406L15.7129-11.416C15.459-11.6504 15.4297-11.8164 15.5859-12.1875L16.4648-14.2773C14.9023-15.7324 12.8711-16.3574 10.8398-15.7617C10.6836-15.7227 10.625-15.8496 10.752-15.957ZM5.27344 2.30469L4.10156 1.14258C3.63281 0.683594 3.74023 0.341797 4.14062-0.0195312L14.9512-10.1953L16.416-8.71094L6.42578 2.27539C6.07422 2.67578 5.74219 2.77344 5.27344 2.30469Z"/>
  </g>
  <text style="stroke:none;fill:black;font-family:-apple-system,&quot;SF Pro Display&quot;,&quot;SF Pro Text&quot;,Helvetica,sans-serif;font-weight:bold;" transform="matrix(1 0 0 1 1289 1953)">Exporting</text>
  <text style="stroke:none;fill:black;font-family:-apple-system,&quot;SF Pro Display&quot;,&quot;SF Pro Text&quot;,Helvetica,sans-serif;" transform="matrix(1 0 0 1 1289 1971)">Symbols should be outlined when exporting to ensure the</text>
  <text style="stroke:none;fill:black;font-family:-apple-system,&quot;SF Pro Display&quot;,&quot;SF Pro Text&quot;,Helvetica,sans-serif;" transform="matrix(1 0 0 1 1289 1989)">design is preserved when submitting to Xcode.</text>
  <text id="template-version" style="stroke:none;fill:black;font-family:-apple-system,&quot;SF Pro Display&quot;,&quot;SF Pro Text&quot;,Helvetica,sans-serif;text-anchor:end;" transform="matrix(1 0 0 1 3036 1933)">Template v.2.0</text>
  <text style="stroke:none;fill:black;font-family:-apple-system,&quot;SF Pro Display&quot;,&quot;SF Pro Text&quot;,Helvetica,sans-serif;text-anchor:end;" transform="matrix(1 0 0 1 3036 1951)">Requires Xcode 12 or greater</text>
  <text style="stroke:none;fill:black;font-family:-apple-system,&quot;SF Pro Display&quot;,&quot;SF Pro Text&quot;,Helvetica,sans-serif;" transform="matrix(1 0 0 1 263 726)">Small</text>
  <text style="stroke:none;fill:black;font-family:-apple-system,&quot;SF Pro Display&quot;,&quot;SF Pro Text&quot;,Helvetica,sans-serif;" transform="matrix(1 0 0 1 263 1156)">Medium</text>
  <text style="stroke:none;fill:black;font-family:-apple-system,&quot;SF Pro Display&quot;,&quot;SF Pro Text&quot;,Helvetica,sans-serif;" transform="matrix(1 0 0 1 263 1586)">Large</text>
 </g>
 <g id="Guides">
  <g id="H-reference" style="fill:#27AAE1;stroke:none;" transform="matrix(1 0 0 1 339 696)">
   <path d="M0.976562 0L3.66211 0L12.9883-24.4629L45.752-24.4629L55.127 0L57.7637 0L30.6152-70.459L28.125-70.459ZM29.3457-67.1387L29.4434-67.1387L44.873-26.709L13.8672-26.709Z"/>
  </g>
  <line id="Baseline-S" style="fill:none;stroke:#27AAE1;opacity:1;stroke-width:0.5;" x1="263" x2="3036" y1="696" y2="696"/>
  <line id="Capline-S" style="fill:none;stroke:#27AAE1;opacity:1;stroke-width:0.5;" x1="263" x2="3036" y1="625.541" y2="625.541"/>
  <g id="H-reference" style="fill:#27AAE1;stroke:none;" transform="matrix(1 0 0 1 339 1126)">
   <path d="M0.976562 0L3.66211 0L12.9883-24.4629L45.752-24.4629L55.127 0L57.7637 0L30.6152-70.459L28.125-70.459ZM29.3457-67.1387L29.4434-67.1387L44.873-26.709L13.8672-26.709Z"/>
  </g>
  <line id="Baseline-M" style="fill:none;stroke:#27AAE1;opacity:1;stroke-width:0.5;" x1="263" x2="3036" y1="1126" y2="1126"/>
  <line id="Capline-M" style="fill:none;stroke:#27AAE1;opacity:1;stroke-width:0.5;" x1="263" x2="3036" y1="1055.54" y2="1055.54"/>
  <g id="H-reference" style="fill:#27AAE1;stroke:none;" transform="matrix(1 0 0 1 339 1556)">
   <path d="M0.976562 0L3.66211 0L12.9883-24.4629L45.752-24.4629L55.127 0L57.7637 0L30.6152-70.459L28.125-70.459ZM29.3457-67.1387L29.4434-67.1387L44.873-26.709L13.8672-26.709Z"/>
  </g>
  <line id="Baseline-L" style="fill:none;stroke:#27AAE1;opacity:1;stroke-width:0.5;" x1="263" x2="3036" y1="1556" y2="1556"/>
  <line id="Capline-L" style="fill:none;stroke:#27AAE1;opacity:1;stroke-width:0.5;" x1="263" x2="3036" y1="1485.54" y2="1485.54"/>
  <line id="left-margin" x1="1417.6693130013275" x2="1417.6693130013275" y1="1030.79" y2="1150.12" style="fill:none;stroke:#00AEEF;stroke-width:0.5;opacity:1.0;"/>
  <line id="right-margin" x1="1484.7114837026386" x2="1484.7114837026386" y1="1030.79" y2="1150.12" style="fill:none;stroke:#00AEEF;stroke-width:0.5;opacity:1.0;"/>
 </g>
 <g id="Symbols">
  <g id="Black-L" transform="matrix(1.0,0.0,0.0,1.0,2895.7230629708597,1480.210083952873)">  <path stroke="none" fill-rule="evenodd" fill="#000000" stroke-linecap="butt" stroke-linejoin="miter" stroke-width="1px" fill-opacity="1" stroke-opacity="1" stroke-miterlimit="4" stroke-dasharray="none" d="M11.527,19.328L2.321,10.122C0.554,8.355,0.554,5.49,2.321,3.723C4.088,1.956,6.953,1.956,8.72,3.723L76.591,71.594C78.358,73.361,78.358,76.226,76.591,77.993C74.824,79.76,71.959,79.76,70.192,77.993L60.725,68.526C60.48,69.741,60.236,70.851,60,71.853C58.594,77.831,53.21,81.444,47.54,81.444C44.14,81.444,40.865,80.17,38.359,77.873L25.105,65.724C23.436,64.194,21.254,63.345,18.99,63.345L18.1,63.345C8.105,63.345,0.001,55.242,0.001,45.246L0.001,36.196C0.001,28.519,4.781,21.959,11.527,19.328ZM19.342,27.143L52.898,60.699C52.36,64.383,51.743,67.433,51.191,69.781C50.852,71.221,49.491,72.394,47.54,72.394C46.404,72.394,45.311,71.969,44.474,71.202L31.22,59.053C27.882,55.993,23.519,54.295,18.99,54.295L18.1,54.295C13.102,54.295,9.051,50.244,9.051,45.246L9.051,36.196C9.051,31.198,13.102,27.147,18.1,27.147L18.99,27.147C19.108,27.147,19.225,27.146,19.342,27.143ZM47.54,-0.002C53.21,-0.002,58.594,3.611,60,9.59C61.494,15.944,63.348,26.658,63.348,40.721C63.348,43.464,63.277,46.078,63.153,48.558L54.295,39.7C54.208,26.937,52.514,17.287,51.191,11.661C50.852,10.221,49.491,9.048,47.54,9.048C46.404,9.048,45.311,9.473,44.474,10.24L34.227,19.633L27.823,13.228L38.359,3.57C40.865,1.273,44.14,-0.002,47.54,-0.002ZM47.54,-0.002"/>
</g>
  <g id="Heavy-L" transform="matrix(1.0,0.0,0.0,1.0,2599.0130629708597,1480.210083952873)">  <path fill="#000000" fill-opacity="1" stroke-linecap="butt" stroke-opacity="1" stroke-miterlimit="4" stroke-width="1px" stroke-dasharray="none" fill-rule="evenodd" stroke-linejoin="miter" stroke="none" d="M11.527,19.328L2.321,10.122C0.554,8.355,0.554,5.49,2.321,3.723C4.088,1.956,6.953,1.956,8.72,3.723L76.591,71.594C78.358,73.361,78.358,76.226,76.591,77.993C74.824,79.76,71.959,79.76,70.192,77.993L60.725,68.526C60.48,69.741,60.236,70.851,60,71.853C58.594,77.831,53.21,81.444,47.54,81.444C44.14,81.444,40.865,80.17,38.359,77.873L25.105,65.724C23.436,64.194,21.254,63.345,18.99,63.345L18.1,63.345C8.105,63.345,0.001,55.242,0.001,45.246L0.001,36.196C0.001,28.519,4.781,21.959,11.527,19.328ZM19.342,27.143L52.898,60.699C52.36,64.383,51.743,67.433,51.191,69.781C50.852,71.221,49.491,72.394,47.54,72.394C46.404,72.394,45.311,71.969,44.474,71.202L31.22,59.053C27.882,55.993,23.519,54.295,18.99,54.295L18.1,54.295C13.102,54.295,9.051,50.244,9.051,45.246L9.051,36.196C9.051,31.198,13.102,27.147,18.1,27.147L18.99,27.147C19.108,27.147,19.225,27.146,19.342,27.143ZM47.54,-0.002C53.21,-0.002,58.594,3.611,60,9.59C61.494,15.944,63.348,26.658,63.348,40.721C63.348,43.464,63.277,46.078,63.153,48.558L54.295,39.7C54.208,26.937,52.514,17.287,51.191,11.661C50.852,10.221,49.491,9.048,47.54,9.048C46.404,9.048,45.311,9.473,44.474,10.24L34.227,19.633L27.823,13.228L38.359,3.57C40.865,1.273,44.14,-0.002,47.54,-0.002ZM47.54,-0.002"/>
</g>
  <g id="Bold-L" transform="matrix(1.0,0.0,0.0,1.0,2302.3030629708596,1480.210083952873)">  <path stroke-miterlimit="4" stroke="none" stroke-opacity="1" fill="#000000" stroke-width="1px" fill-opacity="1" stroke-linecap="butt" stroke-linejoin="miter" fill-rule="evenodd" stroke-dasharray="none" d="M11.527,19.328L2.321,10.122C0.554,8.355,0.554,5.49,2.321,3.723C4.088,1.956,6.953,1.956,8.72,3.723L76.591,71.594C78.358,73.361,78.358,76.226,76.591,77.993C74.824,79.76,71.959,79.76,70.192,77.993L60.725,68.526C60.48,69.741,60.236,70.851,60,71.853C58.594,77.831,53.21,81.444,47.54,81.444C44.14,81.444,40.865,80.17,38.359,77.873L25.105,65.724C23.436,64.194,21.254,63.345,18.99,63.345L18.1,63.345C8.105,63.345,0.001,55.242,0.001,45.246L0.001,36.196C0.001,28.519,4.781,21.959,11.527,19.328ZM19.342,27.143L52.898,60.699C52.36,64.383,51.743,67.433,51.191,69.781C50.852,71.221,49.491,72.394,47.54,72.394C46.404,72.394,45.311,71.969,44.474,71.202L31.22,59.053C27.882,55.993,23.519,54.295,18.99,54.295L18.1,54.295C13.102,54.295,9.051,50.244,9.051,45.246L9.051,36.196C9.051,31.198,13.102,27.147,18.1,27.147L18.99,27.147C19.108,27.147,19.225,27.146,19.342,27.143ZM47.54,-0.002C53.21,-0.002,58.594,3.611,60,9.59C61.494,15.944,63.348,26.658,63.348,40.721C63.348,43.464,63.277,46.078,63.153,48.558L54.295,39.7C54.208,26.937,52.514,17.287,51.191,11.661C50.852,10.221,49.491,9.048,47.54,9.048C46.404,9.048,45.311,9.473,44.474,10.24L34.227,19.633L27.823,13.228L38.359,3.57C40.865,1.273,44.14,-0.002,47.54,-0.002ZM47.54,-0.002"/>
</g>
  <g id="Semibold-L" transform="matrix(1.0,0.0,0.0,1.0,2005.5930629708596,1480.210083952873)">  <path fill-opacity="1" stroke-width="1px" stroke="none" stroke-linecap="butt" stroke-opacity="1" stroke-linejoin="miter" stroke-dasharray="none" fill-rule="evenodd" fill="#000000" stroke-miterlimit="4" d="M11.527,19.328L2.321,10.122C0.554,8.355,0.554,5.49,2.321,3.723C4.088,1.956,6.953,1.956,8.72,3.723L76.591,71.594C78.358,73.361,78.358,76.226,76.591,77.993C74.824,79.76,71.959,79.76,70.192,77.993L60.725,68.526C60.48,69.741,60.236,70.851,60,71.853C58.594,77.831,53.21,81.444,47.54,81.444C44.14,81.444,40.865,80.17,38.359,77.873L25.105,65.724C23.436,64.194,21.254,63.345,18.99,63.345L18.1,63.345C8.105,63.345,0.001,55.242,0.001,45.246L0.001,36.196C0.001,28.519,4.781,21.959,11.527,19.328ZM19.342,27.143L52.898,60.699C52.36,64.383,51.743,67.433,51.191,69.781C50.852,71.221,49.491,72.394,47.54,72.394C46.404,72.394,45.311,71.969,44.474,71.202L31.22,59.053C27.882,55.993,23.519,54.295,18.99,54.295L18.1,54.295C13.102,54.295,9.051,50.244,9.051,45.246L9.051,36.196C9.051,31.198,13.102,27.147,18.1,27.147L18.99,27.147C19.108,27.147,19.225,27.146,19.342,27.143ZM47.54,-0.002C53.21,-0.002,58.594,3.611,60,9.59C61.494,15.944,63.348,26.658,63.348,40.721C63.348,43.464,63.277,46.078,63.153,48.558L54.295,39.7C54.208,26.937,52.514,17.287,51.191,11.661C50.852,10.221,49.491,9.048,47.54,9.048C46.404,9.048,45.311,9.473,44.474,10.24L34.227,19.633L27.823,13.228L38.359,3.57C40.865,1.273,44.14,-0.002,47.54,-0.002ZM47.54,-0.002"/>
</g>
  <g id="Medium-L" transform="matrix(1.0,0.0,0.0,1.0,1708.8830629708596,1480.210083952873)">  <path stroke-width="1px" stroke-dasharray="none" stroke-miterlimit="4" stroke-linejoin="miter" fill="#000000" stroke="none" stroke-opacity="1" stroke-linecap="butt" fill-rule="evenodd" fill-opacity="1" d="M11.527,19.328L2.321,10.122C0.554,8.355,0.554,5.49,2.321,3.723C4.088,1.956,6.953,1.956,8.72,3.723L76.591,71.594C78.358,73.361,78.358,76.226,76.591,77.993C74.824,79.76,71.959,79.76,70.192,77.993L60.725,68.526C60.48,69.741,60.236,70.851,60,71.853C58.594,77.831,53.21,81.444,47.54,81.444C44.14,81.444,40.865,80.17,38.359,77.873L25.105,65.724C23.436,64.194,21.254,63.345,18.99,63.345L18.1,63.345C8.105,63.345,0.001,55.242,0.001,45.246L0.001,36.196C0.001,28.519,4.781,21.959,11.527,19.328ZM19.342,27.143L52.898,60.699C52.36,64.383,51.743,67.433,51.191,69.781C50.852,71.221,49.491,72.394,47.54,72.394C46.404,72.394,45.311,71.969,44.474,71.202L31.22,59.053C27.882,55.993,23.519,54.295,18.99,54.295L18.1,54.295C13.102,54.295,9.051,50.244,9.051,45.246L9.051,36.196C9.051,31.198,13.102,27.147,18.1,27.147L18.99,27.147C19.108,27.147,19.225,27.146,19.342,27.143ZM47.54,-0.002C53.21,-0.002,58.594,3.611,60,9.59C61.494,15.944,63.348,26.658,63.348,40.721C63.348,43.464,63.277,46.078,63.153,48.558L54.295,39.7C54.208,26.937,52.514,17.287,51.191,11.661C50.852,10.221,49.491,9.048,47.54,9.048C46.404,9.048,45.311,9.473,44.474,10.24L34.227,19.633L27.823,13.228L38.359,3.57C40.865,1.273,44.14,-0.002,47.54,-0.002ZM47.54,-0.002"/>
</g>
  <g id="Regular-L" transform="matrix(1.0,0.0,0.0,1.0,1412.1730629708595,1480.210083952873)">  <path fill-opacity="1" stroke-dasharray="none" stroke="none" stroke-linejoin="miter" fill="#000000" stroke-miterlimit="4" stroke-linecap="butt" fill-rule="evenodd" stroke-width="1px" stroke-opacity="1" d="M11.527,19.328L2.321,10.122C0.554,8.355,0.554,5.49,2.321,3.723C4.088,1.956,6.953,1.956,8.72,3.723L76.591,71.594C78.358,73.361,78.358,76.226,76.591,77.993C74.824,79.76,71.959,79.76,70.192,77.993L60.725,68.526C60.48,69.741,60.236,70.851,60,71.853C58.594,77.831,53.21,81.444,47.54,81.444C44.14,81.444,40.865,80.17,38.359,77.873L25.105,65.724C23.436,64.194,21.254,63.345,18.99,63.345L18.1,63.345C8.105,63.345,0.001,55.242,0.001,45.246L0.001,36.196C0.001,28.519,4.781,21.959,11.527,19.328ZM19.342,27.143L52.898,60.699C52.36,64.383,51.743,67.433,51.191,69.781C50.852,71.221,49.491,72.394,47.54,72.394C46.404,72.394,45.311,71.969,44.474,71.202L31.22,59.053C27.882,55.993,23.519,54.295,18.99,54.295L18.1,54.295C13.102,54.295,9.051,50.244,9.051,45.246L9.051,36.196C9.051,31.198,13.102,27.147,18.1,27.147L18.99,27.147C19.108,27.147,19.225,27.146,19.342,27.143ZM47.54,-0.002C53.21,-0.002,58.594,3.611,60,9.59C61.494,15.944,63.348,26.658,63.348,40.721C63.348,43.464,63.277,46.078,63.153,48.558L54.295,39.7C54.208,26.937,52.514,17.287,51.191,11.661C50.852,10.221,49.491,9.048,47.54,9.048C46.404,9.048,45.311,9.473,44.474,10.24L34.227,19.633L27.823,13.228L38.359,3.57C40.865,1.273,44.14,-0.002,47.54,-0.002ZM47.54,-0.002"/>
</g>
  <g id="Light-L" transform="matrix(1.0,0.0,0.0,1.0,1115.4630629708597,1480.210083952873)">  <path stroke-linejoin="miter" fill-opacity="1" stroke-miterlimit="4" stroke-opacity="1" fill="#000000" fill-rule="evenodd" stroke-width="1px" stroke-linecap="butt" stroke-dasharray="none" stroke="none" d="M11.527,19.328L2.321,10.122C0.554,8.355,0.554,5.49,2.321,3.723C4.088,1.956,6.953,1.956,8.72,3.723L76.591,71.594C78.358,73.361,78.358,76.226,76.591,77.993C74.824,79.76,71.959,79.76,70.192,77.993L60.725,68.526C60.48,69.741,60.236,70.851,60,71.853C58.594,77.831,53.21,81.444,47.54,81.444C44.14,81.444,40.865,80.17,38.359,77.873L25.105,65.724C23.436,64.194,21.254,63.345,18.99,63.345L18.1,63.345C8.105,63.345,0.001,55.242,0.001,45.246L0.001,36.196C0.001,28.519,4.781,21.959,11.527,19.328ZM19.342,27.143L52.898,60.699C52.36,64.383,51.743,67.433,51.191,69.781C50.852,71.221,49.491,72.394,47.54,72.394C46.404,72.394,45.311,71.969,44.474,71.202L31.22,59.053C27.882,55.993,23.519,54.295,18.99,54.295L18.1,54.295C13.102,54.295,9.051,50.244,9.051,45.246L9.051,36.196C9.051,31.198,13.102,27.147,18.1,27.147L18.99,27.147C19.108,27.147,19.225,27.146,19.342,27.143ZM47.54,-0.002C53.21,-0.002,58.594,3.611,60,9.59C61.494,15.944,63.348,26.658,63.348,40.721C63.348,43.464,63.277,46.078,63.153,48.558L54.295,39.7C54.208,26.937,52.514,17.287,51.191,11.661C50.852,10.221,49.491,9.048,47.54,9.048C46.404,9.048,45.311,9.473,44.474,10.24L34.227,19.633L27.823,13.228L38.359,3.57C40.865,1.273,44.14,-0.002,47.54,-0.002ZM47.54,-0.002"/>
</g>
  <g id="Thin-L" transform="matrix(1.0,0.0,0.0,1.0,818.7530629708597,1480.210083952873)">  <path stroke-linecap="butt" fill-opacity="1" fill-rule="evenodd" fill="#000000" stroke-linejoin="miter" stroke-opacity="1" stroke="none" stroke-width="1px" stroke-dasharray="none" stroke-miterlimit="4" d="M11.527,19.328L2.321,10.122C0.554,8.355,0.554,5.49,2.321,3.723C4.088,1.956,6.953,1.956,8.72,3.723L76.591,71.594C78.358,73.361,78.358,76.226,76.591,77.993C74.824,79.76,71.959,79.76,70.192,77.993L60.725,68.526C60.48,69.741,60.236,70.851,60,71.853C58.594,77.831,53.21,81.444,47.54,81.444C44.14,81.444,40.865,80.17,38.359,77.873L25.105,65.724C23.436,64.194,21.254,63.345,18.99,63.345L18.1,63.345C8.105,63.345,0.001,55.242,0.001,45.246L0.001,36.196C0.001,28.519,4.781,21.959,11.527,19.328ZM19.342,27.143L52.898,60.699C52.36,64.383,51.743,67.433,51.191,69.781C50.852,71.221,49.491,72.394,47.54,72.394C46.404,72.394,45.311,71.969,44.474,71.202L31.22,59.053C27.882,55.993,23.519,54.295,18.99,54.295L18.1,54.295C13.102,54.295,9.051,50.244,9.051,45.246L9.051,36.196C9.051,31.198,13.102,27.147,18.1,27.147L18.99,27.147C19.108,27.147,19.225,27.146,19.342,27.143ZM47.54,-0.002C53.21,-0.002,58.594,3.611,60,9.59C61.494,15.944,63.348,26.658,63.348,40.721C63.348,43.464,63.277,46.078,63.153,48.558L54.295,39.7C54.208,26.937,52.514,17.287,51.191,11.661C50.852,10.221,49.491,9.048,47.54,9.048C46.404,9.048,45.311,9.473,44.474,10.24L34.227,19.633L27.823,13.228L38.359,3.57C40.865,1.273,44.14,-0.002,47.54,-0.002ZM47.54,-0.002"/>
</g>
  <g id="Ultralight-L" transform="matrix(1.0,0.0,0.0,1.0,522.0430629708596,1480.210083952873)">  <path stroke-dasharray="none" stroke-linecap="butt" fill-opacity="1" fill="#000000" fill-rule="evenodd" stroke="none" stroke-miterlimit="4" stroke-width="1px" stroke-linejoin="miter" stroke-opacity="1" d="M11.527,19.328L2.321,10.122C0.554,8.355,0.554,5.49,2.321,3.723C4.088,1.956,6.953,1.956,8.72,3.723L76.591,71.594C78.358,73.361,78.358,76.226,76.591,77.993C74.824,79.76,71.959,79.76,70.192,77.993L60.725,68.526C60.48,69.741,60.236,70.851,60,71.853C58.594,77.831,53.21,81.444,47.54,81.444C44.14,81.444,40.865,80.17,38.359,77.873L25.105,65.724C23.436,64.194,21.254,63.345,18.99,63.345L18.1,63.345C8.105,63.345,0.001,55.242,0.001,45.246L0.001,36.196C0.001,28.519,4.781,21.959,11.527,19.328ZM19.342,27.143L52.898,60.699C52.36,64.383,51.743,67.433,51.191,69.781C50.852,71.221,49.491,72.394,47.54,72.394C46.404,72.394,45.311,71.969,44.474,71.202L31.22,59.053C27.882,55.993,23.519,54.295,18.99,54.295L18.1,54.295C13.102,54.295,9.051,50.244,9.051,45.246L9.051,36.196C9.051,31.198,13.102,27.147,18.1,27.147L18.99,27.147C19.108,27.147,19.225,27.146,19.342,27.143ZM47.54,-0.002C53.21,-0.002,58.594,3.611,60,9.59C61.494,15.944,63.348,26.658,63.348,40.721C63.348,43.464,63.277,46.078,63.153,48.558L54.295,39.7C54.208,26.937,52.514,17.287,51.191,11.661C50.852,10.221,49.491,9.048,47.54,9.048C46.404,9.048,45.311,9.473,44.474,10.24L34.227,19.633L27.823,13.228L38.359,3.57C40.865,1.273,44.14,-0.002,47.54,-0.002ZM47.54,-0.002"/>
</g>
  <g id="Black-M" transform="matrix(1.0,0.0,0.0,1.0,2904.480824008418,1059.3282090053763)">  <path stroke="none" fill-rule="evenodd" fill="#000000" stroke-linecap="butt" stroke-linejoin="miter" stroke-width="1px" fill-opacity="1" stroke-opacity="1" stroke-miterlimit="4" stroke-dasharray="none" d="M8.936,14.983L1.799,7.847C0.429,6.477,0.429,4.256,1.799,2.886C3.169,1.516,5.39,1.516,6.76,2.886L59.373,55.5C60.743,56.869,60.743,59.09,59.373,60.46C58.003,61.83,55.782,61.83,54.412,60.46L47.073,53.121C46.884,54.063,46.694,54.923,46.512,55.7C45.422,60.334,41.248,63.135,36.852,63.135C34.217,63.135,31.678,62.147,29.736,60.366L19.461,50.949C18.168,49.763,16.476,49.105,14.721,49.105L14.031,49.105C6.283,49.105,0.001,42.823,0.001,35.074L0.001,28.059C0.001,22.108,3.706,17.022,8.936,14.983ZM14.994,21.041L41.006,47.054C40.589,49.91,40.111,52.273,39.683,54.094C39.42,55.21,38.365,56.12,36.852,56.12C35.972,56.12,35.125,55.79,34.476,55.195L24.202,45.777C21.614,43.405,18.232,42.089,14.721,42.089L14.031,42.089C10.157,42.089,7.016,38.949,7.016,35.074L7.016,28.059C7.016,24.185,10.157,21.044,14.031,21.044L14.721,21.044C14.812,21.044,14.903,21.043,14.994,21.041ZM36.852,-0.001C41.248,-0.001,45.422,2.799,46.512,7.434C47.67,12.359,49.107,20.665,49.107,31.567C49.107,33.693,49.052,35.72,48.956,37.642L42.089,30.775C42.022,20.881,40.709,13.401,39.683,9.04C39.42,7.924,38.365,7.014,36.852,7.014C35.972,7.014,35.125,7.344,34.476,7.938L26.533,15.219L21.568,10.254L29.736,2.767C31.678,0.986,34.217,-0.001,36.852,-0.001ZM36.852,-0.001"/>
</g>
  <g id="Heavy-M" transform="matrix(1.0,0.0,0.0,1.0,2607.770824008418,1059.3282090053763)">  <path fill="#000000" fill-opacity="1" stroke-linecap="butt" stroke-opacity="1" stroke-miterlimit="4" stroke-width="1px" stroke-dasharray="none" fill-rule="evenodd" stroke-linejoin="miter" stroke="none" d="M8.936,14.983L1.799,7.847C0.429,6.477,0.429,4.256,1.799,2.886C3.169,1.516,5.39,1.516,6.76,2.886L59.373,55.5C60.743,56.869,60.743,59.09,59.373,60.46C58.003,61.83,55.782,61.83,54.412,60.46L47.073,53.121C46.884,54.063,46.694,54.923,46.512,55.7C45.422,60.334,41.248,63.135,36.852,63.135C34.217,63.135,31.678,62.147,29.736,60.366L19.461,50.949C18.168,49.763,16.476,49.105,14.721,49.105L14.031,49.105C6.283,49.105,0.001,42.823,0.001,35.074L0.001,28.059C0.001,22.108,3.706,17.022,8.936,14.983ZM14.994,21.041L41.006,47.054C40.589,49.91,40.111,52.273,39.683,54.094C39.42,55.21,38.365,56.12,36.852,56.12C35.972,56.12,35.125,55.79,34.476,55.195L24.202,45.777C21.614,43.405,18.232,42.089,14.721,42.089L14.031,42.089C10.157,42.089,7.016,38.949,7.016,35.074L7.016,28.059C7.016,24.185,10.157,21.044,14.031,21.044L14.721,21.044C14.812,21.044,14.903,21.043,14.994,21.041ZM36.852,-0.001C41.248,-0.001,45.422,2.799,46.512,7.434C47.67,12.359,49.107,20.665,49.107,31.567C49.107,33.693,49.052,35.72,48.956,37.642L42.089,30.775C42.022,20.881,40.709,13.401,39.683,9.04C39.42,7.924,38.365,7.014,36.852,7.014C35.972,7.014,35.125,7.344,34.476,7.938L26.533,15.219L21.568,10.254L29.736,2.767C31.678,0.986,34.217,-0.001,36.852,-0.001ZM36.852,-0.001"/>
</g>
  <g id="Bold-M" transform="matrix(1.0,0.0,0.0,1.0,2311.060824008418,1059.3282090053763)">  <path stroke-miterlimit="4" stroke="none" stroke-opacity="1" fill="#000000" stroke-width="1px" fill-opacity="1" stroke-linecap="butt" stroke-linejoin="miter" fill-rule="evenodd" stroke-dasharray="none" d="M8.936,14.983L1.799,7.847C0.429,6.477,0.429,4.256,1.799,2.886C3.169,1.516,5.39,1.516,6.76,2.886L59.373,55.5C60.743,56.869,60.743,59.09,59.373,60.46C58.003,61.83,55.782,61.83,54.412,60.46L47.073,53.121C46.884,54.063,46.694,54.923,46.512,55.7C45.422,60.334,41.248,63.135,36.852,63.135C34.217,63.135,31.678,62.147,29.736,60.366L19.461,50.949C18.168,49.763,16.476,49.105,14.721,49.105L14.031,49.105C6.283,49.105,0.001,42.823,0.001,35.074L0.001,28.059C0.001,22.108,3.706,17.022,8.936,14.983ZM14.994,21.041L41.006,47.054C40.589,49.91,40.111,52.273,39.683,54.094C39.42,55.21,38.365,56.12,36.852,56.12C35.972,56.12,35.125,55.79,34.476,55.195L24.202,45.777C21.614,43.405,18.232,42.089,14.721,42.089L14.031,42.089C10.157,42.089,7.016,38.949,7.016,35.074L7.016,28.059C7.016,24.185,10.157,21.044,14.031,21.044L14.721,21.044C14.812,21.044,14.903,21.043,14.994,21.041ZM36.852,-0.001C41.248,-0.001,45.422,2.799,46.512,7.434C47.67,12.359,49.107,20.665,49.107,31.567C49.107,33.693,49.052,35.72,48.956,37.642L42.089,30.775C42.022,20.881,40.709,13.401,39.683,9.04C39.42,7.924,38.365,7.014,36.852,7.014C35.972,7.014,35.125,7.344,34.476,7.938L26.533,15.219L21.568,10.254L29.736,2.767C31.678,0.986,34.217,-0.001,36.852,-0.001ZM36.852,-0.001"/>
</g>
  <g id="Semibold-M" transform="matrix(1.0,0.0,0.0,1.0,2014.3508240084184,1059.3282090053763)">  <path fill-opacity="1" stroke-width="1px" stroke="none" stroke-linecap="butt" stroke-opacity="1" stroke-linejoin="miter" stroke-dasharray="none" fill-rule="evenodd" fill="#000000" stroke-miterlimit="4" d="M8.936,14.983L1.799,7.847C0.429,6.477,0.429,4.256,1.799,2.886C3.169,1.516,5.39,1.516,6.76,2.886L59.373,55.5C60.743,56.869,60.743,59.09,59.373,60.46C58.003,61.83,55.782,61.83,54.412,60.46L47.073,53.121C46.884,54.063,46.694,54.923,46.512,55.7C45.422,60.334,41.248,63.135,36.852,63.135C34.217,63.135,31.678,62.147,29.736,60.366L19.461,50.949C18.168,49.763,16.476,49.105,14.721,49.105L14.031,49.105C6.283,49.105,0.001,42.823,0.001,35.074L0.001,28.059C0.001,22.108,3.706,17.022,8.936,14.983ZM14.994,21.041L41.006,47.054C40.589,49.91,40.111,52.273,39.683,54.094C39.42,55.21,38.365,56.12,36.852,56.12C35.972,56.12,35.125,55.79,34.476,55.195L24.202,45.777C21.614,43.405,18.232,42.089,14.721,42.089L14.031,42.089C10.157,42.089,7.016,38.949,7.016,35.074L7.016,28.059C7.016,24.185,10.157,21.044,14.031,21.044L14.721,21.044C14.812,21.044,14.903,21.043,14.994,21.041ZM36.852,-0.001C41.248,-0.001,45.422,2.799,46.512,7.434C47.67,12.359,49.107,20.665,49.107,31.567C49.107,33.693,49.052,35.72,48.956,37.642L42.089,30.775C42.022,20.881,40.709,13.401,39.683,9.04C39.42,7.924,38.365,7.014,36.852,7.014C35.972,7.014,35.125,7.344,34.476,7.938L26.533,15.219L21.568,10.254L29.736,2.767C31.678,0.986,34.217,-0.001,36.852,-0.001ZM36.852,-0.001"/>
</g>
  <g id="Medium-M" transform="matrix(1.0,0.0,0.0,1.0,1717.6408240084183,1059.3282090053763)">  <path stroke-width="1px" stroke-dasharray="none" stroke-miterlimit="4" stroke-linejoin="miter" fill="#000000" stroke="none" stroke-opacity="1" stroke-linecap="butt" fill-rule="evenodd" fill-opacity="1" d="M8.936,14.983L1.799,7.847C0.429,6.477,0.429,4.256,1.799,2.886C3.169,1.516,5.39,1.516,6.76,2.886L59.373,55.5C60.743,56.869,60.743,59.09,59.373,60.46C58.003,61.83,55.782,61.83,54.412,60.46L47.073,53.121C46.884,54.063,46.694,54.923,46.512,55.7C45.422,60.334,41.248,63.135,36.852,63.135C34.217,63.135,31.678,62.147,29.736,60.366L19.461,50.949C18.168,49.763,16.476,49.105,14.721,49.105L14.031,49.105C6.283,49.105,0.001,42.823,0.001,35.074L0.001,28.059C0.001,22.108,3.706,17.022,8.936,14.983ZM14.994,21.041L41.006,47.054C40.589,49.91,40.111,52.273,39.683,54.094C39.42,55.21,38.365,56.12,36.852,56.12C35.972,56.12,35.125,55.79,34.476,55.195L24.202,45.777C21.614,43.405,18.232,42.089,14.721,42.089L14.031,42.089C10.157,42.089,7.016,38.949,7.016,35.074L7.016,28.059C7.016,24.185,10.157,21.044,14.031,21.044L14.721,21.044C14.812,21.044,14.903,21.043,14.994,21.041ZM36.852,-0.001C41.248,-0.001,45.422,2.799,46.512,7.434C47.67,12.359,49.107,20.665,49.107,31.567C49.107,33.693,49.052,35.72,48.956,37.642L42.089,30.775C42.022,20.881,40.709,13.401,39.683,9.04C39.42,7.924,38.365,7.014,36.852,7.014C35.972,7.014,35.125,7.344,34.476,7.938L26.533,15.219L21.568,10.254L29.736,2.767C31.678,0.986,34.217,-0.001,36.852,-0.001ZM36.852,-0.001"/>
</g>
  <g id="Regular-M" transform="matrix(1.0,0.0,0.0,1.0,1420.9308240084183,1059.3282090053763)">  <path fill-opacity="1" stroke-dasharray="none" stroke="none" stroke-linejoin="miter" fill="#000000" stroke-miterlimit="4" stroke-linecap="butt" fill-rule="evenodd" stroke-width="1px" stroke-opacity="1" d="M8.936,14.983L1.799,7.847C0.429,6.477,0.429,4.256,1.799,2.886C3.169,1.516,5.39,1.516,6.76,2.886L59.373,55.5C60.743,56.869,60.743,59.09,59.373,60.46C58.003,61.83,55.782,61.83,54.412,60.46L47.073,53.121C46.884,54.063,46.694,54.923,46.512,55.7C45.422,60.334,41.248,63.135,36.852,63.135C34.217,63.135,31.678,62.147,29.736,60.366L19.461,50.949C18.168,49.763,16.476,49.105,14.721,49.105L14.031,49.105C6.283,49.105,0.001,42.823,0.001,35.074L0.001,28.059C0.001,22.108,3.706,17.022,8.936,14.983ZM14.994,21.041L41.006,47.054C40.589,49.91,40.111,52.273,39.683,54.094C39.42,55.21,38.365,56.12,36.852,56.12C35.972,56.12,35.125,55.79,34.476,55.195L24.202,45.777C21.614,43.405,18.232,42.089,14.721,42.089L14.031,42.089C10.157,42.089,7.016,38.949,7.016,35.074L7.016,28.059C7.016,24.185,10.157,21.044,14.031,21.044L14.721,21.044C14.812,21.044,14.903,21.043,14.994,21.041ZM36.852,-0.001C41.248,-0.001,45.422,2.799,46.512,7.434C47.67,12.359,49.107,20.665,49.107,31.567C49.107,33.693,49.052,35.72,48.956,37.642L42.089,30.775C42.022,20.881,40.709,13.401,39.683,9.04C39.42,7.924,38.365,7.014,36.852,7.014C35.972,7.014,35.125,7.344,34.476,7.938L26.533,15.219L21.568,10.254L29.736,2.767C31.678,0.986,34.217,-0.001,36.852,-0.001ZM36.852,-0.001"/>
</g>
  <g id="Light-M" transform="matrix(1.0,0.0,0.0,1.0,1124.2208240084185,1059.3282090053763)">  <path stroke-linejoin="miter" fill-opacity="1" stroke-miterlimit="4" stroke-opacity="1" fill="#000000" fill-rule="evenodd" stroke-width="1px" stroke-linecap="butt" stroke-dasharray="none" stroke="none" d="M8.936,14.983L1.799,7.847C0.429,6.477,0.429,4.256,1.799,2.886C3.169,1.516,5.39,1.516,6.76,2.886L59.373,55.5C60.743,56.869,60.743,59.09,59.373,60.46C58.003,61.83,55.782,61.83,54.412,60.46L47.073,53.121C46.884,54.063,46.694,54.923,46.512,55.7C45.422,60.334,41.248,63.135,36.852,63.135C34.217,63.135,31.678,62.147,29.736,60.366L19.461,50.949C18.168,49.763,16.476,49.105,14.721,49.105L14.031,49.105C6.283,49.105,0.001,42.823,0.001,35.074L0.001,28.059C0.001,22.108,3.706,17.022,8.936,14.983ZM14.994,21.041L41.006,47.054C40.589,49.91,40.111,52.273,39.683,54.094C39.42,55.21,38.365,56.12,36.852,56.12C35.972,56.12,35.125,55.79,34.476,55.195L24.202,45.777C21.614,43.405,18.232,42.089,14.721,42.089L14.031,42.089C10.157,42.089,7.016,38.949,7.016,35.074L7.016,28.059C7.016,24.185,10.157,21.044,14.031,21.044L14.721,21.044C14.812,21.044,14.903,21.043,14.994,21.041ZM36.852,-0.001C41.248,-0.001,45.422,2.799,46.512,7.434C47.67,12.359,49.107,20.665,49.107,31.567C49.107,33.693,49.052,35.72,48.956,37.642L42.089,30.775C42.022,20.881,40.709,13.401,39.683,9.04C39.42,7.924,38.365,7.014,36.852,7.014C35.972,7.014,35.125,7.344,34.476,7.938L26.533,15.219L21.568,10.254L29.736,2.767C31.678,0.986,34.217,-0.001,36.852,-0.001ZM36.852,-0.001"/>
</g>
  <g id="Thin-M" transform="matrix(1.0,0.0,0.0,1.0,827.5108240084184,1059.3282090053763)">  <path stroke-linecap="butt" fill-opacity="1" fill-rule="evenodd" fill="#000000" stroke-linejoin="miter" stroke-opacity="1" stroke="none" stroke-width="1px" stroke-dasharray="none" stroke-miterlimit="4" d="M8.936,14.983L1.799,7.847C0.429,6.477,0.429,4.256,1.799,2.886C3.169,1.516,5.39,1.516,6.76,2.886L59.373,55.5C60.743,56.869,60.743,59.09,59.373,60.46C58.003,61.83,55.782,61.83,54.412,60.46L47.073,53.121C46.884,54.063,46.694,54.923,46.512,55.7C45.422,60.334,41.248,63.135,36.852,63.135C34.217,63.135,31.678,62.147,29.736,60.366L19.461,50.949C18.168,49.763,16.476,49.105,14.721,49.105L14.031,49.105C6.283,49.105,0.001,42.823,0.001,35.074L0.001,28.059C0.001,22.108,3.706,17.022,8.936,14.983ZM14.994,21.041L41.006,47.054C40.589,49.91,40.111,52.273,39.683,54.094C39.42,55.21,38.365,56.12,36.852,56.12C35.972,56.12,35.125,55.79,34.476,55.195L24.202,45.777C21.614,43.405,18.232,42.089,14.721,42.089L14.031,42.089C10.157,42.089,7.016,38.949,7.016,35.074L7.016,28.059C7.016,24.185,10.157,21.044,14.031,21.044L14.721,21.044C14.812,21.044,14.903,21.043,14.994,21.041ZM36.852,-0.001C41.248,-0.001,45.422,2.799,46.512,7.434C47.67,12.359,49.107,20.665,49.107,31.567C49.107,33.693,49.052,35.72,48.956,37.642L42.089,30.775C42.022,20.881,40.709,13.401,39.683,9.04C39.42,7.924,38.365,7.014,36.852,7.014C35.972,7.014,35.125,7.344,34.476,7.938L26.533,15.219L21.568,10.254L29.736,2.767C31.678,0.986,34.217,-0.001,36.852,-0.001ZM36.852,-0.001"/>
</g>
  <g id="Ultralight-M" transform="matrix(1.0,0.0,0.0,1.0,530.8008240084183,1059.3282090053763)">  <path stroke-dasharray="none" stroke-linecap="butt" fill-opacity="1" fill="#000000" fill-rule="evenodd" stroke="none" stroke-miterlimit="4" stroke-width="1px" stroke-linejoin="miter" stroke-opacity="1" d="M8.936,14.983L1.799,7.847C0.429,6.477,0.429,4.256,1.799,2.886C3.169,1.516,5.39,1.516,6.76,2.886L59.373,55.5C60.743,56.869,60.743,59.09,59.373,60.46C58.003,61.83,55.782,61.83,54.412,60.46L47.073,53.121C46.884,54.063,46.694,54.923,46.512,55.7C45.422,60.334,41.248,63.135,36.852,63.135C34.217,63.135,31.678,62.147,29.736,60.366L19.461,50.949C18.168,49.763,16.476,49.105,14.721,49.105L14.031,49.105C6.283,49.105,0.001,42.823,0.001,35.074L0.001,28.059C0.001,22.108,3.706,17.022,8.936,14.983ZM14.994,21.041L41.006,47.054C40.589,49.91,40.111,52.273,39.683,54.094C39.42,55.21,38.365,56.12,36.852,56.12C35.972,56.12,35.125,55.79,34.476,55.195L24.202,45.777C21.614,43.405,18.232,42.089,14.721,42.089L14.031,42.089C10.157,42.089,7.016,38.949,7.016,35.074L7.016,28.059C7.016,24.185,10.157,21.044,14.031,21.044L14.721,21.044C14.812,21.044,14.903,21.043,14.994,21.041ZM36.852,-0.001C41.248,-0.001,45.422,2.799,46.512,7.434C47.67,12.359,49.107,20.665,49.107,31.567C49.107,33.693,49.052,35.72,48.956,37.642L42.089,30.775C42.022,20.881,40.709,13.401,39.683,9.04C39.42,7.924,38.365,7.014,36.852,7.014C35.972,7.014,35.125,7.344,34.476,7.938L26.533,15.219L21.568,10.254L29.736,2.767C31.678,0.986,34.217,-0.001,36.852,-0.001ZM36.852,-0.001"/>
</g>
  <g id="Black-S" transform="matrix(1.0,0.0,0.0,1.0,2911.0340451985912,636.1510818894909)">  <path stroke="none" fill-rule="evenodd" fill="#000000" stroke-linecap="butt" stroke-linejoin="miter" stroke-width="1px" fill-opacity="1" stroke-opacity="1" stroke-miterlimit="4" stroke-dasharray="none" d="M6.997,11.732L1.409,6.144C0.336,5.071,0.336,3.332,1.409,2.26C2.481,1.187,4.22,1.187,5.293,2.26L46.489,43.456C47.562,44.529,47.562,46.268,46.489,47.34C45.416,48.413,43.677,48.413,42.605,47.34L36.859,41.594C36.71,42.331,36.562,43.005,36.419,43.613C35.565,47.242,32.297,49.435,28.855,49.435C26.792,49.435,24.804,48.661,23.283,47.267L15.238,39.893C14.225,38.964,12.901,38.449,11.527,38.449L10.986,38.449C4.919,38.449,0.001,33.53,0.001,27.463L0.001,21.97C0.001,17.311,2.902,13.329,6.997,11.732ZM11.74,16.475L32.108,36.843C31.781,39.079,31.407,40.93,31.072,42.355C30.866,43.229,30.04,43.942,28.855,43.942C28.166,43.942,27.503,43.684,26.995,43.218L18.95,35.844C16.924,33.986,14.275,32.956,11.527,32.956L10.986,32.956C7.953,32.956,5.494,30.497,5.494,27.463L5.494,21.97C5.494,18.937,7.953,16.478,10.986,16.478L11.527,16.478C11.598,16.478,11.669,16.477,11.74,16.475ZM28.855,-0.001C32.297,-0.001,35.565,2.192,36.419,5.821C37.326,9.677,38.451,16.181,38.451,24.717C38.451,26.381,38.408,27.969,38.332,29.474L32.956,24.097C32.903,16.35,31.875,10.493,31.072,7.078C30.866,6.204,30.04,5.492,28.855,5.492C28.166,5.492,27.503,5.75,26.995,6.216L20.775,11.917L16.888,8.029L23.283,2.167C24.804,0.772,26.792,-0.001,28.855,-0.001ZM28.855,-0.001"/>
</g>
  <g id="Heavy-S" transform="matrix(1.0,0.0,0.0,1.0,2614.324045198591,636.1510818894909)">  <path fill="#000000" fill-opacity="1" stroke-linecap="butt" stroke-opacity="1" stroke-miterlimit="4" stroke-width="1px" stroke-dasharray="none" fill-rule="evenodd" stroke-linejoin="miter" stroke="none" d="M6.997,11.732L1.409,6.144C0.336,5.071,0.336,3.332,1.409,2.26C2.481,1.187,4.22,1.187,5.293,2.26L46.489,43.456C47.562,44.529,47.562,46.268,46.489,47.34C45.416,48.413,43.677,48.413,42.605,47.34L36.859,41.594C36.71,42.331,36.562,43.005,36.419,43.613C35.565,47.242,32.297,49.435,28.855,49.435C26.792,49.435,24.804,48.661,23.283,47.267L15.238,39.893C14.225,38.964,12.901,38.449,11.527,38.449L10.986,38.449C4.919,38.449,0.001,33.53,0.001,27.463L0.001,21.97C0.001,17.311,2.902,13.329,6.997,11.732ZM11.74,16.475L32.108,36.843C31.781,39.079,31.407,40.93,31.072,42.355C30.866,43.229,30.04,43.942,28.855,43.942C28.166,43.942,27.503,43.684,26.995,43.218L18.95,35.844C16.924,33.986,14.275,32.956,11.527,32.956L10.986,32.956C7.953,32.956,5.494,30.497,5.494,27.463L5.494,21.97C5.494,18.937,7.953,16.478,10.986,16.478L11.527,16.478C11.598,16.478,11.669,16.477,11.74,16.475ZM28.855,-0.001C32.297,-0.001,35.565,2.192,36.419,5.821C37.326,9.677,38.451,16.181,38.451,24.717C38.451,26.381,38.408,27.969,38.332,29.474L32.956,24.097C32.903,16.35,31.875,10.493,31.072,7.078C30.866,6.204,30.04,5.492,28.855,5.492C28.166,5.492,27.503,5.75,26.995,6.216L20.775,11.917L16.888,8.029L23.283,2.167C24.804,0.772,26.792,-0.001,28.855,-0.001ZM28.855,-0.001"/>
</g>
  <g id="Bold-S" transform="matrix(1.0,0.0,0.0,1.0,2317.614045198591,636.1510818894909)">  <path stroke-miterlimit="4" stroke="none" stroke-opacity="1" fill="#000000" stroke-width="1px" fill-opacity="1" stroke-linecap="butt" stroke-linejoin="miter" fill-rule="evenodd" stroke-dasharray="none" d="M6.997,11.732L1.409,6.144C0.336,5.071,0.336,3.332,1.409,2.26C2.481,1.187,4.22,1.187,5.293,2.26L46.489,43.456C47.562,44.529,47.562,46.268,46.489,47.34C45.416,48.413,43.677,48.413,42.605,47.34L36.859,41.594C36.71,42.331,36.562,43.005,36.419,43.613C35.565,47.242,32.297,49.435,28.855,49.435C26.792,49.435,24.804,48.661,23.283,47.267L15.238,39.893C14.225,38.964,12.901,38.449,11.527,38.449L10.986,38.449C4.919,38.449,0.001,33.53,0.001,27.463L0.001,21.97C0.001,17.311,2.902,13.329,6.997,11.732ZM11.74,16.475L32.108,36.843C31.781,39.079,31.407,40.93,31.072,42.355C30.866,43.229,30.04,43.942,28.855,43.942C28.166,43.942,27.503,43.684,26.995,43.218L18.95,35.844C16.924,33.986,14.275,32.956,11.527,32.956L10.986,32.956C7.953,32.956,5.494,30.497,5.494,27.463L5.494,21.97C5.494,18.937,7.953,16.478,10.986,16.478L11.527,16.478C11.598,16.478,11.669,16.477,11.74,16.475ZM28.855,-0.001C32.297,-0.001,35.565,2.192,36.419,5.821C37.326,9.677,38.451,16.181,38.451,24.717C38.451,26.381,38.408,27.969,38.332,29.474L32.956,24.097C32.903,16.35,31.875,10.493,31.072,7.078C30.866,6.204,30.04,5.492,28.855,5.492C28.166,5.492,27.503,5.75,26.995,6.216L20.775,11.917L16.888,8.029L23.283,2.167C24.804,0.772,26.792,-0.001,28.855,-0.001ZM28.855,-0.001"/>
</g>
  <g id="Semibold-S" transform="matrix(1.0,0.0,0.0,1.0,2020.9040451985916,636.1510818894909)">  <path fill-opacity="1" stroke-width="1px" stroke="none" stroke-linecap="butt" stroke-opacity="1" stroke-linejoin="miter" stroke-dasharray="none" fill-rule="evenodd" fill="#000000" stroke-miterlimit="4" d="M6.997,11.732L1.409,6.144C0.336,5.071,0.336,3.332,1.409,2.26C2.481,1.187,4.22,1.187,5.293,2.26L46.489,43.456C47.562,44.529,47.562,46.268,46.489,47.34C45.416,48.413,43.677,48.413,42.605,47.34L36.859,41.594C36.71,42.331,36.562,43.005,36.419,43.613C35.565,47.242,32.297,49.435,28.855,49.435C26.792,49.435,24.804,48.661,23.283,47.267L15.238,39.893C14.225,38.964,12.901,38.449,11.527,38.449L10.986,38.449C4.919,38.449,0.001,33.53,0.001,27.463L0.001,21.97C0.001,17.311,2.902,13.329,6.997,11.732ZM11.74,16.475L32.108,36.843C31.781,39.079,31.407,40.93,31.072,42.355C30.866,43.229,30.04,43.942,28.855,43.942C28.166,43.942,27.503,43.684,26.995,43.218L18.95,35.844C16.924,33.986,14.275,32.956,11.527,32.956L10.986,32.956C7.953,32.956,5.494,30.497,5.494,27.463L5.494,21.97C5.494,18.937,7.953,16.478,10.986,16.478L11.527,16.478C11.598,16.478,11.669,16.477,11.74,16.475ZM28.855,-0.001C32.297,-0.001,35.565,2.192,36.419,5.821C37.326,9.677,38.451,16.181,38.451,24.717C38.451,26.381,38.408,27.969,38.332,29.474L32.956,24.097C32.903,16.35,31.875,10.493,31.072,7.078C30.866,6.204,30.04,5.492,28.855,5.492C28.166,5.492,27.503,5.75,26.995,6.216L20.775,11.917L16.888,8.029L23.283,2.167C24.804,0.772,26.792,-0.001,28.855,-0.001ZM28.855,-0.001"/>
</g>
  <g id="Medium-S" transform="matrix(1.0,0.0,0.0,1.0,1724.1940451985915,636.1510818894909)">  <path stroke-width="1px" stroke-dasharray="none" stroke-miterlimit="4" stroke-linejoin="miter" fill="#000000" stroke="none" stroke-opacity="1" stroke-linecap="butt" fill-rule="evenodd" fill-opacity="1" d="M6.997,11.732L1.409,6.144C0.336,5.071,0.336,3.332,1.409,2.26C2.481,1.187,4.22,1.187,5.293,2.26L46.489,43.456C47.562,44.529,47.562,46.268,46.489,47.34C45.416,48.413,43.677,48.413,42.605,47.34L36.859,41.594C36.71,42.331,36.562,43.005,36.419,43.613C35.565,47.242,32.297,49.435,28.855,49.435C26.792,49.435,24.804,48.661,23.283,47.267L15.238,39.893C14.225,38.964,12.901,38.449,11.527,38.449L10.986,38.449C4.919,38.449,0.001,33.53,0.001,27.463L0.001,21.97C0.001,17.311,2.902,13.329,6.997,11.732ZM11.74,16.475L32.108,36.843C31.781,39.079,31.407,40.93,31.072,42.355C30.866,43.229,30.04,43.942,28.855,43.942C28.166,43.942,27.503,43.684,26.995,43.218L18.95,35.844C16.924,33.986,14.275,32.956,11.527,32.956L10.986,32.956C7.953,32.956,5.494,30.497,5.494,27.463L5.494,21.97C5.494,18.937,7.953,16.478,10.986,16.478L11.527,16.478C11.598,16.478,11.669,16.477,11.74,16.475ZM28.855,-0.001C32.297,-0.001,35.565,2.192,36.419,5.821C37.326,9.677,38.451,16.181,38.451,24.717C38.451,26.381,38.408,27.969,38.332,29.474L32.956,24.097C32.903,16.35,31.875,10.493,31.072,7.078C30.866,6.204,30.04,5.492,28.855,5.492C28.166,5.492,27.503,5.75,26.995,6.216L20.775,11.917L16.888,8.029L23.283,2.167C24.804,0.772,26.792,-0.001,28.855,-0.001ZM28.855,-0.001"/>
</g>
  <g id="Regular-S" transform="matrix(1.0,0.0,0.0,1.0,1427.4840451985915,636.1510818894909)">  <path fill-opacity="1" stroke-dasharray="none" stroke="none" stroke-linejoin="miter" fill="#000000" stroke-miterlimit="4" stroke-linecap="butt" fill-rule="evenodd" stroke-width="1px" stroke-opacity="1" d="M6.997,11.732L1.409,6.144C0.336,5.071,0.336,3.332,1.409,2.26C2.481,1.187,4.22,1.187,5.293,2.26L46.489,43.456C47.562,44.529,47.562,46.268,46.489,47.34C45.416,48.413,43.677,48.413,42.605,47.34L36.859,41.594C36.71,42.331,36.562,43.005,36.419,43.613C35.565,47.242,32.297,49.435,28.855,49.435C26.792,49.435,24.804,48.661,23.283,47.267L15.238,39.893C14.225,38.964,12.901,38.449,11.527,38.449L10.986,38.449C4.919,38.449,0.001,33.53,0.001,27.463L0.001,21.97C0.001,17.311,2.902,13.329,6.997,11.732ZM11.74,16.475L32.108,36.843C31.781,39.079,31.407,40.93,31.072,42.355C30.866,43.229,30.04,43.942,28.855,43.942C28.166,43.942,27.503,43.684,26.995,43.218L18.95,35.844C16.924,33.986,14.275,32.956,11.527,32.956L10.986,32.956C7.953,32.956,5.494,30.497,5.494,27.463L5.494,21.97C5.494,18.937,7.953,16.478,10.986,16.478L11.527,16.478C11.598,16.478,11.669,16.477,11.74,16.475ZM28.855,-0.001C32.297,-0.001,35.565,2.192,36.419,5.821C37.326,9.677,38.451,16.181,38.451,24.717C38.451,26.381,38.408,27.969,38.332,29.474L32.956,24.097C32.903,16.35,31.875,10.493,31.072,7.078C30.866,6.204,30.04,5.492,28.855,5.492C28.166,5.492,27.503,5.75,26.995,6.216L20.775,11.917L16.888,8.029L23.283,2.167C24.804,0.772,26.792,-0.001,28.855,-0.001ZM28.855,-0.001"/>
</g>
  <g id="Light-S" transform="matrix(1.0,0.0,0.0,1.0,1130.7740451985917,636.1510818894909)">  <path stroke-linejoin="miter" fill-opacity="1" stroke-miterlimit="4" stroke-opacity="1" fill="#000000" fill-rule="evenodd" stroke-width="1px" stroke-linecap="butt" stroke-dasharray="none" stroke="none" d="M6.997,11.732L1.409,6.144C0.336,5.071,0.336,3.332,1.409,2.26C2.481,1.187,4.22,1.187,5.293,2.26L46.489,43.456C47.562,44.529,47.562,46.268,46.489,47.34C45.416,48.413,43.677,48.413,42.605,47.34L36.859,41.594C36.71,42.331,36.562,43.005,36.419,43.613C35.565,47.242,32.297,49.435,28.855,49.435C26.792,49.435,24.804,48.661,23.283,47.267L15.238,39.893C14.225,38.964,12.901,38.449,11.527,38.449L10.986,38.449C4.919,38.449,0.001,33.53,0.001,27.463L0.001,21.97C0.001,17.311,2.902,13.329,6.997,11.732ZM11.74,16.475L32.108,36.843C31.781,39.079,31.407,40.93,31.072,42.355C30.866,43.229,30.04,43.942,28.855,43.942C28.166,43.942,27.503,43.684,26.995,43.218L18.95,35.844C16.924,33.986,14.275,32.956,11.527,32.956L10.986,32.956C7.953,32.956,5.494,30.497,5.494,27.463L5.494,21.97C5.494,18.937,7.953,16.478,10.986,16.478L11.527,16.478C11.598,16.478,11.669,16.477,11.74,16.475ZM28.855,-0.001C32.297,-0.001,35.565,2.192,36.419,5.821C37.326,9.677,38.451,16.181,38.451,24.717C38.451,26.381,38.408,27.969,38.332,29.474L32.956,24.097C32.903,16.35,31.875,10.493,31.072,7.078C30.866,6.204,30.04,5.492,28.855,5.492C28.166,5.492,27.503,5.75,26.995,6.216L20.775,11.917L16.888,8.029L23.283,2.167C24.804,0.772,26.792,-0.001,28.855,-0.001ZM28.855,-0.001"/>
</g>
  <g id="Thin-S" transform="matrix(1.0,0.0,0.0,1.0,834.0640451985917,636.1510818894909)">  <path stroke-linecap="butt" fill-opacity="1" fill-rule="evenodd" fill="#000000" stroke-linejoin="miter" stroke-opacity="1" stroke="none" stroke-width="1px" stroke-dasharray="none" stroke-miterlimit="4" d="M6.997,11.732L1.409,6.144C0.336,5.071,0.336,3.332,1.409,2.26C2.481,1.187,4.22,1.187,5.293,2.26L46.489,43.456C47.562,44.529,47.562,46.268,46.489,47.34C45.416,48.413,43.677,48.413,42.605,47.34L36.859,41.594C36.71,42.331,36.562,43.005,36.419,43.613C35.565,47.242,32.297,49.435,28.855,49.435C26.792,49.435,24.804,48.661,23.283,47.267L15.238,39.893C14.225,38.964,12.901,38.449,11.527,38.449L10.986,38.449C4.919,38.449,0.001,33.53,0.001,27.463L0.001,21.97C0.001,17.311,2.902,13.329,6.997,11.732ZM11.74,16.475L32.108,36.843C31.781,39.079,31.407,40.93,31.072,42.355C30.866,43.229,30.04,43.942,28.855,43.942C28.166,43.942,27.503,43.684,26.995,43.218L18.95,35.844C16.924,33.986,14.275,32.956,11.527,32.956L10.986,32.956C7.953,32.956,5.494,30.497,5.494,27.463L5.494,21.97C5.494,18.937,7.953,16.478,10.986,16.478L11.527,16.478C11.598,16.478,11.669,16.477,11.74,16.475ZM28.855,-0.001C32.297,-0.001,35.565,2.192,36.419,5.821C37.326,9.677,38.451,16.181,38.451,24.717C38.451,26.381,38.408,27.969,38.332,29.474L32.956,24.097C32.903,16.35,31.875,10.493,31.072,7.078C30.866,6.204,30.04,5.492,28.855,5.492C28.166,5.492,27.503,5.75,26.995,6.216L20.775,11.917L16.888,8.029L23.283,2.167C24.804,0.772,26.792,-0.001,28.855,-0.001ZM28.855,-0.001"/>
</g>
  <g id="Ultralight-S" transform="matrix(1.0,0.0,0.0,1.0,537.3540451985916,636.1510818894909)">  <path stroke-dasharray="none" stroke-linecap="butt" fill-opacity="1" fill="#000000" fill-rule="evenodd" stroke="none" stroke-miterlimit="4" stroke-width="1px" stroke-linejoin="miter" stroke-opacity="1" d="M6.997,11.732L1.409,6.144C0.336,5.071,0.336,3.332,1.409,2.26C2.481,1.187,4.22,1.187,5.293,2.26L46.489,43.456C47.562,44.529,47.562,46.268,46.489,47.34C45.416,48.413,43.677,48.413,42.605,47.34L36.859,41.594C36.71,42.331,36.562,43.005,36.419,43.613C35.565,47.242,32.297,49.435,28.855,49.435C26.792,49.435,24.804,48.661,23.283,47.267L15.238,39.893C14.225,38.964,12.901,38.449,11.527,38.449L10.986,38.449C4.919,38.449,0.001,33.53,0.001,27.463L0.001,21.97C0.001,17.311,2.902,13.329,6.997,11.732ZM11.74,16.475L32.108,36.843C31.781,39.079,31.407,40.93,31.072,42.355C30.866,43.229,30.04,43.942,28.855,43.942C28.166,43.942,27.503,43.684,26.995,43.218L18.95,35.844C16.924,33.986,14.275,32.956,11.527,32.956L10.986,32.956C7.953,32.956,5.494,30.497,5.494,27.463L5.494,21.97C5.494,18.937,7.953,16.478,10.986,16.478L11.527,16.478C11.598,16.478,11.669,16.477,11.74,16.475ZM28.855,-0.001C32.297,-0.001,35.565,2.192,36.419,5.821C37.326,9.677,38.451,16.181,38.451,24.717C38.451,26.381,38.408,27.969,38.332,29.474L32.956,24.097C32.903,16.35,31.875,10.493,31.072,7.078C30.866,6.204,30.04,5.492,28.855,5.492C28.166,5.492,27.503,5.75,26.995,6.216L20.775,11.917L16.888,8.029L23.283,2.167C24.804,0.772,26.792,-0.001,28.855,-0.001ZM28.855,-0.001"/>
</g>
 </g>
</svg>
