<?xml version="1.0" encoding="UTF-8"?>
<!-- Generator: CustomSymbols v2.6.7.45 by @serious_bret https://bretlester.com/app_content/CustomSymbols/ -->
<!-- Guides: Left/Right -0.05400000000000003/-0.05599999999999998 Cap/Base -0.06/-0.05599999999999998 -->
<!-- Settings: RefScale 0.0 Min/Max Stroke Scales 0.5/0.3 -->
<!DOCTYPE svg
PUBLIC "-//W3C//DTD SVG 1.1//EN"
       "http://www.w3.org/Graphics/SVG/1.1/DTD/svg11.dtd">
<svg version="1.1" xmlns="http://www.w3.org/2000/svg" xmlns:xlink="http://www.w3.org/1999/xlink" width="3300" height="2200">
<![CDATA[<svg xmlns="http://www.w3.org/2000/svg" width="24.6" height="24.6" viewBox="0 0 24.6 24.6"><path fill="#BBB" d="M99.1132297,26.1802796 L99.2459562,26.1900662 C99.9584088,26.2789053 100.463948,26.9284806 100.375108,27.6409333 C100.325191,28.0412475 100.3,28.4463802 100.3,28.8550758 C100.3,34.2122582 104.642825,38.5550758 110,38.5550758 C111.844722,38.5550758 113.604556,38.0380033 115.113739,37.1000619 L115.221,37.0300758 L114.125,37.0300758 C113.451903,37.0300758 112.898285,36.5185262 112.831712,35.8629933 L112.825,35.7300758 C112.825,35.0121057 113.40703,34.4300758 114.125,34.4300758 L118.25,34.4300758 C118.96797,34.4300758 119.55,35.0121057 119.55,35.7300758 L119.55,36.1310258 L119.55,39.8550758 C119.55,40.573046 118.96797,41.1550758 118.25,41.1550758 C117.53203,41.1550758 116.95,40.573046 116.95,39.8550758 L116.95,39.0030758 L116.884861,39.0497147 C114.980232,40.3382339 112.728628,41.0820554 110.356668,41.1499738 L110,41.1550758 C103.206886,41.1550758 97.7,35.6481995 97.7,28.8550758 C97.7,28.3387682 97.7318722,27.8261915 97.7950891,27.3192184 C97.8839282,26.6067658 98.5335035,26.1012271 99.2459562,26.1900662 L99.1132297,26.1802796 Z M110,16.5550758 C116.793124,16.5550758 122.3,22.0619617 122.3,28.8550758 C122.3,29.3717645 122.268135,29.8844137 122.204873,30.3911271 C122.115927,31.1035664 121.466275,31.6090075 120.753836,31.5200613 C120.041397,31.4311151 119.535956,30.7814638 119.624902,30.0690245 C119.674821,29.6691812 119.7,29.264107 119.7,28.8550758 C119.7,23.497901 115.357182,19.1550758 110,19.1550758 C108.207148,19.1550758 106.495375,19.643865 105.017022,20.5302193 L104.775,20.6800758 L105.599755,20.6800758 C106.272852,20.6800915 106.826459,21.1916541 106.893016,21.8471886 L106.899725,21.9801062 C106.899708,22.6980763 106.317665,23.2800926 105.599695,23.2800758 L101.474695,23.2799796 C100.756736,23.2799628 100.174725,22.6979379 100.174725,21.9799796 L100.174725,21.9032958 L100.174725,17.8550758 C100.174725,17.1371057 100.756755,16.5550758 101.474725,16.5550758 C102.192695,16.5550758 102.774725,17.1371057 102.774725,17.8550758 L102.774,18.9000758 L103.042886,18.70956 C104.959451,17.3932878 107.236407,16.6300201 109.638739,16.5603127 L110,16.5550758 Z" transform="translate(-97.7 -16.555)"/></svg>]]>
 <g id="Notes">
  <rect height="2200" id="artboard" style="fill:white;opacity:1" width="3300" x="0" y="0"/>
  <line id="" style="fill:none;stroke:black;opacity:1;stroke-width:0.5;" x1="263" x2="3036" y1="292" y2="292"/>
  <text id="reftext1" style="stroke:none;fill:black;font-family:-apple-system,&quot;SF Pro Display&quot;,&quot;SF Pro Text&quot;,Helvetica,sans-serif;font-weight:bold;" transform="matrix(1 0 0 1 263 322)">Weight/Scale Variations</text>
  <text id="reftext2" style="stroke:none;fill:black;font-family:-apple-system,&quot;SF Pro Display&quot;,&quot;SF Pro Text&quot;,Helvetica,sans-serif;text-anchor:middle;" transform="matrix(1 0 0 1 559.711 322)">Ultralight</text>
  <text style="stroke:none;fill:black;font-family:-apple-system,&quot;SF Pro Display&quot;,&quot;SF Pro Text&quot;,Helvetica,sans-serif;text-anchor:middle;" transform="matrix(1 0 0 1 856.422 322)">Thin</text>
  <text style="stroke:none;fill:black;font-family:-apple-system,&quot;SF Pro Display&quot;,&quot;SF Pro Text&quot;,Helvetica,sans-serif;text-anchor:middle;" transform="matrix(1 0 0 1 1153.13 322)">Light</text>
  <text style="stroke:none;fill:black;font-family:-apple-system,&quot;SF Pro Display&quot;,&quot;SF Pro Text&quot;,Helvetica,sans-serif;text-anchor:middle;" transform="matrix(1 0 0 1 1449.84 322)">Regular</text>
  <text style="stroke:none;fill:black;font-family:-apple-system,&quot;SF Pro Display&quot;,&quot;SF Pro Text&quot;,Helvetica,sans-serif;text-anchor:middle;" transform="matrix(1 0 0 1 1746.56 322)">Medium</text>
  <text style="stroke:none;fill:black;font-family:-apple-system,&quot;SF Pro Display&quot;,&quot;SF Pro Text&quot;,Helvetica,sans-serif;text-anchor:middle;" transform="matrix(1 0 0 1 2043.27 322)">Semibold</text>
  <text style="stroke:none;fill:black;font-family:-apple-system,&quot;SF Pro Display&quot;,&quot;SF Pro Text&quot;,Helvetica,sans-serif;text-anchor:middle;" transform="matrix(1 0 0 1 2339.98 322)">Bold</text>
  <text style="stroke:none;fill:black;font-family:-apple-system,&quot;SF Pro Display&quot;,&quot;SF Pro Text&quot;,Helvetica,sans-serif;text-anchor:middle;" transform="matrix(1 0 0 1 2636.69 322)">Heavy</text>
  <text style="stroke:none;fill:black;font-family:-apple-system,&quot;SF Pro Display&quot;,&quot;SF Pro Text&quot;,Helvetica,sans-serif;text-anchor:middle;" transform="matrix(1 0 0 1 2933.4 322)">Black</text>
  <line id="" style="fill:none;stroke:black;opacity:1;stroke-width:0.5;" x1="263" x2="3036" y1="1903" y2="1903"/>
  <g id="" transform="matrix(1 0 0 1 263 1933)">
   <path d="M9.24805 0.830078C13.5547 0.830078 17.1387-2.74414 17.1387-7.05078C17.1387-11.3574 13.5449-14.9316 9.23828-14.9316C4.94141-14.9316 1.36719-11.3574 1.36719-7.05078C1.36719-2.74414 4.95117 0.830078 9.24805 0.830078ZM9.24805-0.654297C5.70312-0.654297 2.87109-3.49609 2.87109-7.05078C2.87109-10.6055 5.69336-13.4473 9.23828-13.4473C12.793-13.4473 15.6348-10.6055 15.6445-7.05078C15.6543-3.49609 12.8027-0.654297 9.24805-0.654297ZM6.39648-6.31836L8.50586-6.31836L8.50586-4.19922C8.50586-3.75977 8.79883-3.45703 9.22852-3.45703C9.67773-3.45703 9.9707-3.75977 9.9707-4.19922L9.9707-6.31836L12.0996-6.31836C12.5391-6.31836 12.8418-6.61133 12.8418-7.04102C12.8418-7.48047 12.5391-7.7832 12.0996-7.7832L9.9707-7.7832L9.9707-9.89258C9.9707-10.3418 9.67773-10.6445 9.22852-10.6445C8.79883-10.6445 8.50586-10.3418 8.50586-9.89258L8.50586-7.7832L6.39648-7.7832C5.94727-7.7832 5.64453-7.48047 5.64453-7.04102C5.64453-6.61133 5.94727-6.31836 6.39648-6.31836Z"/>
  </g>
  <g id="" transform="matrix(1 0 0 1 281.506 1933)">
   <path d="M11.709 2.91016C17.1582 2.91016 21.6699-1.61133 21.6699-7.05078C21.6699-12.5 17.1484-17.0117 11.6992-17.0117C6.25977-17.0117 1.74805-12.5 1.74805-7.05078C1.74805-1.61133 6.26953 2.91016 11.709 2.91016ZM11.709 1.25C7.09961 1.25 3.41797-2.44141 3.41797-7.05078C3.41797-11.6602 7.08984-15.3516 11.6992-15.3516C16.3086-15.3516 20-11.6602 20.0098-7.05078C20.0195-2.44141 16.3184 1.25 11.709 1.25ZM7.98828-6.23047L10.8789-6.23047L10.8789-3.32031C10.8789-2.83203 11.2109-2.5 11.6895-2.5C12.1777-2.5 12.5195-2.83203 12.5195-3.32031L12.5195-6.23047L15.4297-6.23047C15.918-6.23047 16.25-6.5625 16.25-7.04102C16.25-7.5293 15.918-7.87109 15.4297-7.87109L12.5195-7.87109L12.5195-10.7617C12.5195-11.2695 12.1777-11.6016 11.6895-11.6016C11.2109-11.6016 10.8789-11.2598 10.8789-10.7617L10.8789-7.87109L7.98828-7.87109C7.48047-7.87109 7.14844-7.5293 7.14844-7.04102C7.14844-6.5625 7.49023-6.23047 7.98828-6.23047Z"/>
  </g>
  <g id="" transform="matrix(1 0 0 1 304.924 1933)">
   <path d="M14.9707 5.66406C21.9336 5.66406 27.6953-0.0976562 27.6953-7.05078C27.6953-14.0137 21.9238-19.7754 14.9609-19.7754C8.00781-19.7754 2.25586-14.0137 2.25586-7.05078C2.25586-0.0976562 8.01758 5.66406 14.9707 5.66406ZM14.9707 3.84766C8.93555 3.84766 4.08203-1.01562 4.08203-7.05078C4.08203-13.0957 8.92578-17.9492 14.9609-17.9492C21.0059-17.9492 25.8594-13.0957 25.8691-7.05078C25.8789-1.01562 21.0156 3.84766 14.9707 3.84766ZM10.0586-6.14258L14.0625-6.14258L14.0625-2.12891C14.0625-1.5918 14.4336-1.2207 14.9512-1.2207C15.4883-1.2207 15.8594-1.5918 15.8594-2.12891L15.8594-6.14258L19.8828-6.14258C20.4102-6.14258 20.791-6.51367 20.791-7.03125C20.791-7.56836 20.4199-7.94922 19.8828-7.94922L15.8594-7.94922L15.8594-11.9531C15.8594-12.5098 15.4883-12.8809 14.9512-12.8809C14.4336-12.8809 14.0625-12.5 14.0625-11.9531L14.0625-7.94922L10.0586-7.94922C9.50195-7.94922 9.13086-7.56836 9.13086-7.03125C9.13086-6.51367 9.51172-6.14258 10.0586-6.14258Z"/>
  </g>
  <text style="stroke:none;fill:black;font-family:-apple-system,&quot;SF Pro Display&quot;,&quot;SF Pro Text&quot;,Helvetica,sans-serif;font-weight:bold;" transform="matrix(1 0 0 1 263 1953)">Design Variations</text>
  <text style="stroke:none;fill:black;font-family:-apple-system,&quot;SF Pro Display&quot;,&quot;SF Pro Text&quot;,Helvetica,sans-serif;" transform="matrix(1 0 0 1 263 1971)">Symbols are supported in up to nine weights and three scales.</text>
  <text style="stroke:none;fill:black;font-family:-apple-system,&quot;SF Pro Display&quot;,&quot;SF Pro Text&quot;,Helvetica,sans-serif;" transform="matrix(1 0 0 1 263 1989)">For optimal layout with text and other symbols, vertically align</text>
  <text style="stroke:none;fill:black;font-family:-apple-system,&quot;SF Pro Display&quot;,&quot;SF Pro Text&quot;,Helvetica,sans-serif;" transform="matrix(1 0 0 1 263 2007)">symbols with the adjacent text.</text>
  <line id="" style="fill:none;stroke:#00AEEF;stroke-width:0.5;opacity:1.0;" x1="776" x2="776" y1="1919" y2="1933"/>
  <g id="" transform="matrix(1 0 0 1 776 1933)">
   <path d="M3.31055 0.126953C3.82812 0.126953 4.08203-0.0683594 4.26758-0.605469L5.52734-4.0625L11.2891-4.0625L12.5488-0.605469C12.7344-0.0683594 12.9883 0.126953 13.4961 0.126953C14.0137 0.126953 14.3457-0.185547 14.3457-0.673828C14.3457-0.839844 14.3164-0.986328 14.2383-1.20117L9.6582-13.3887C9.43359-13.9941 9.0332-14.2871 8.4082-14.2871C7.80273-14.2871 7.39258-13.9941 7.17773-13.3984L2.59766-1.19141C2.51953-0.976562 2.49023-0.830078 2.49023-0.664062C2.49023-0.175781 2.80273 0.126953 3.31055 0.126953ZM6.00586-5.53711L8.37891-12.1094L8.42773-12.1094L10.8008-5.53711Z"/>
  </g>
  <line id="" style="fill:none;stroke:#00AEEF;stroke-width:0.5;opacity:1.0;" x1="792.836" x2="792.836" y1="1919" y2="1933"/>
  <text style="stroke:none;fill:black;font-family:-apple-system,&quot;SF Pro Display&quot;,&quot;SF Pro Text&quot;,Helvetica,sans-serif;font-weight:bold;" transform="matrix(1 0 0 1 776 1953)">Margins</text>
  <text style="stroke:none;fill:black;font-family:-apple-system,&quot;SF Pro Display&quot;,&quot;SF Pro Text&quot;,Helvetica,sans-serif;" transform="matrix(1 0 0 1 776 1971)">Leading and trailing margins on the left and right side of each symbol</text>
  <text style="stroke:none;fill:black;font-family:-apple-system,&quot;SF Pro Display&quot;,&quot;SF Pro Text&quot;,Helvetica,sans-serif;" transform="matrix(1 0 0 1 776 1989)">can be adjusted by modifying the x-location of the margin guidelines.</text>
  <text style="stroke:none;fill:black;font-family:-apple-system,&quot;SF Pro Display&quot;,&quot;SF Pro Text&quot;,Helvetica,sans-serif;" transform="matrix(1 0 0 1 776 2007)">Modifications are automatically applied proportionally to all</text>
  <text style="stroke:none;fill:black;font-family:-apple-system,&quot;SF Pro Display&quot;,&quot;SF Pro Text&quot;,Helvetica,sans-serif;" transform="matrix(1 0 0 1 776 2025)">scales and weights.</text>
  <g id="" transform="matrix(1 0 0 1 1289 1933)">
   <path d="M2.8418 1.86523L4.54102 3.57422C5.40039 4.44336 6.38672 4.38477 7.31445 3.35938L17.4902-7.85156C17.7539-7.76367 18.0273-7.7832 18.3398-7.8418L19.4043-8.03711L20.0684-7.36328L20.0293-6.80664C19.9902-6.30859 20.1172-5.92773 20.6055-5.44922L21.3672-4.70703C21.8457-4.22852 22.4609-4.19922 22.9297-4.66797L25.8398-7.58789C26.3086-8.05664 26.2891-8.65234 25.8105-9.13086L25.0391-9.89258C24.5605-10.3711 24.1895-10.5273 23.7109-10.4883L23.1348-10.4395L22.4902-11.0742L22.7344-12.1973C22.8613-12.7637 22.7051-13.2031 22.1191-13.7891L19.9219-15.9766C16.582-19.2969 12.1484-19.2188 9.25781-16.3281C8.83789-15.918 8.80859-15.3418 9.04297-14.9512C9.27734-14.5898 9.73633-14.3555 10.3809-14.5215C11.8457-14.8633 13.3691-14.9219 14.7949-13.9844L14.209-12.5293C14.0137-12.0508 13.9844-11.6504 14.1113-11.2891L3.04688-0.898438C2.06055 0.0195312 1.98242 0.996094 2.8418 1.86523ZM10.752-15.957C13.1836-17.7344 16.4746-17.4316 18.7012-15.2051L21.1328-12.793C21.3672-12.5586 21.4062-12.373 21.3379-12.0312L21.0156-10.5469L22.5195-9.0625L23.5059-9.12109C23.7598-9.13086 23.8379-9.11133 24.0332-8.91602L24.6094-8.33984L22.168-5.89844L21.5918-6.47461C21.3965-6.66992 21.3672-6.74805 21.377-7.01172L21.4453-7.98828L19.9512-9.47266L18.4277-9.21875C18.1055-9.15039 17.959-9.17969 17.7148-9.41406L15.7129-11.416C15.459-11.6504 15.4297-11.8164 15.5859-12.1875L16.4648-14.2773C14.9023-15.7324 12.8711-16.3574 10.8398-15.7617C10.6836-15.7227 10.625-15.8496 10.752-15.957ZM5.27344 2.30469L4.10156 1.14258C3.63281 0.683594 3.74023 0.341797 4.14062-0.0195312L14.9512-10.1953L16.416-8.71094L6.42578 2.27539C6.07422 2.67578 5.74219 2.77344 5.27344 2.30469Z"/>
  </g>
  <text style="stroke:none;fill:black;font-family:-apple-system,&quot;SF Pro Display&quot;,&quot;SF Pro Text&quot;,Helvetica,sans-serif;font-weight:bold;" transform="matrix(1 0 0 1 1289 1953)">Exporting</text>
  <text style="stroke:none;fill:black;font-family:-apple-system,&quot;SF Pro Display&quot;,&quot;SF Pro Text&quot;,Helvetica,sans-serif;" transform="matrix(1 0 0 1 1289 1971)">Symbols should be outlined when exporting to ensure the</text>
  <text style="stroke:none;fill:black;font-family:-apple-system,&quot;SF Pro Display&quot;,&quot;SF Pro Text&quot;,Helvetica,sans-serif;" transform="matrix(1 0 0 1 1289 1989)">design is preserved when submitting to Xcode.</text>
  <text id="template-version" style="stroke:none;fill:black;font-family:-apple-system,&quot;SF Pro Display&quot;,&quot;SF Pro Text&quot;,Helvetica,sans-serif;text-anchor:end;" transform="matrix(1 0 0 1 3036 1933)">Template v.2.0</text>
  <text style="stroke:none;fill:black;font-family:-apple-system,&quot;SF Pro Display&quot;,&quot;SF Pro Text&quot;,Helvetica,sans-serif;text-anchor:end;" transform="matrix(1 0 0 1 3036 1951)">Requires Xcode 12 or greater</text>
  <text style="stroke:none;fill:black;font-family:-apple-system,&quot;SF Pro Display&quot;,&quot;SF Pro Text&quot;,Helvetica,sans-serif;" transform="matrix(1 0 0 1 263 726)">Small</text>
  <text style="stroke:none;fill:black;font-family:-apple-system,&quot;SF Pro Display&quot;,&quot;SF Pro Text&quot;,Helvetica,sans-serif;" transform="matrix(1 0 0 1 263 1156)">Medium</text>
  <text style="stroke:none;fill:black;font-family:-apple-system,&quot;SF Pro Display&quot;,&quot;SF Pro Text&quot;,Helvetica,sans-serif;" transform="matrix(1 0 0 1 263 1586)">Large</text>
 </g>
 <g id="Guides">
  <g id="H-reference" style="fill:#27AAE1;stroke:none;" transform="matrix(1 0 0 1 339 696)">
   <path d="M0.976562 0L3.66211 0L12.9883-24.4629L45.752-24.4629L55.127 0L57.7637 0L30.6152-70.459L28.125-70.459ZM29.3457-67.1387L29.4434-67.1387L44.873-26.709L13.8672-26.709Z"/>
  </g>
  <line id="Baseline-S" style="fill:none;stroke:#27AAE1;opacity:1;stroke-width:0.5;" x1="263" x2="3036" y1="696" y2="696"/>
  <line id="Capline-S" style="fill:none;stroke:#27AAE1;opacity:1;stroke-width:0.5;" x1="263" x2="3036" y1="625.541" y2="625.541"/>
  <g id="H-reference" style="fill:#27AAE1;stroke:none;" transform="matrix(1 0 0 1 339 1126)">
   <path d="M0.976562 0L3.66211 0L12.9883-24.4629L45.752-24.4629L55.127 0L57.7637 0L30.6152-70.459L28.125-70.459ZM29.3457-67.1387L29.4434-67.1387L44.873-26.709L13.8672-26.709Z"/>
  </g>
  <line id="Baseline-M" style="fill:none;stroke:#27AAE1;opacity:1;stroke-width:0.5;" x1="263" x2="3036" y1="1126" y2="1126"/>
  <line id="Capline-M" style="fill:none;stroke:#27AAE1;opacity:1;stroke-width:0.5;" x1="263" x2="3036" y1="1055.54" y2="1055.54"/>
  <g id="H-reference" style="fill:#27AAE1;stroke:none;" transform="matrix(1 0 0 1 339 1556)">
   <path d="M0.976562 0L3.66211 0L12.9883-24.4629L45.752-24.4629L55.127 0L57.7637 0L30.6152-70.459L28.125-70.459ZM29.3457-67.1387L29.4434-67.1387L44.873-26.709L13.8672-26.709Z"/>
  </g>
  <line id="Baseline-L" style="fill:none;stroke:#27AAE1;opacity:1;stroke-width:0.5;" x1="263" x2="3036" y1="1556" y2="1556"/>
  <line id="Capline-L" style="fill:none;stroke:#27AAE1;opacity:1;stroke-width:0.5;" x1="263" x2="3036" y1="1485.54" y2="1485.54"/>
  <line id="left-margin" x1="1416.1525641941082" x2="1416.1525641941082" y1="1030.79" y2="1150.12" style="fill:none;stroke:#00AEEF;stroke-width:0.5;opacity:1.0;"/>
  <line id="right-margin" x1="1486.2337081373207" x2="1486.2337081373207" y1="1030.79" y2="1150.12" style="fill:none;stroke:#00AEEF;stroke-width:0.5;opacity:1.0;"/>
 </g>
 <g id="Symbols">
  <g id="Black-L" transform="matrix(1.0,0.0,0.0,1.0,2893.957173114079,1480.210083952873)">  <path stroke-opacity="1" stroke="none" stroke-linecap="butt" stroke-linejoin="miter" fill="#000000" fill-opacity="1" stroke-width="1px" fill-rule="nonzero" stroke-miterlimit="4" stroke-dasharray="none" d="M4.679,31.867L5.118,31.9C7.477,32.194,9.151,34.345,8.857,36.703C8.691,38.029,8.608,39.37,8.608,40.723C8.608,58.46,22.986,72.838,40.723,72.838C46.83,72.838,52.657,71.126,57.653,68.021L58.009,67.789L54.38,67.789C52.151,67.789,50.318,66.095,50.098,63.925L50.076,63.485C50.076,61.108,52.003,59.181,54.38,59.181L68.037,59.181C70.414,59.181,72.341,61.108,72.341,63.485L72.341,64.812L72.341,77.142C72.341,79.519,70.414,81.446,68.037,81.446C65.66,81.446,63.733,79.519,63.733,77.142L63.733,74.321L63.517,74.475C57.211,78.742,49.757,81.204,41.904,81.429L40.723,81.446C18.232,81.446,0,63.214,0,40.723C0,39.014,0.106,37.317,0.315,35.638C0.609,33.279,2.76,31.606,5.118,31.9L4.679,31.867ZM40.723,0C63.213,0,81.446,18.232,81.446,40.723C81.446,42.434,81.34,44.131,81.131,45.809C80.836,48.167,78.685,49.841,76.327,49.546C73.968,49.252,72.294,47.101,72.589,44.742C72.754,43.418,72.838,42.077,72.838,40.723C72.838,22.987,58.459,8.608,40.723,8.608C34.787,8.608,29.12,10.227,24.225,13.161L23.424,13.657L26.155,13.657C28.383,13.657,30.216,15.351,30.436,17.521L30.458,17.961C30.458,20.338,28.531,22.265,26.154,22.265L12.497,22.265C10.12,22.265,8.193,20.338,8.193,17.961L8.193,17.707L8.193,4.304C8.193,1.927,10.12,0,12.497,0C14.874,0,16.801,1.927,16.801,4.304L16.799,7.764L17.689,7.133C24.035,2.775,31.573,0.248,39.527,0.018L40.723,0ZM40.723,0"/>
</g>
  <g id="Heavy-L" transform="matrix(1.0,0.0,0.0,1.0,2597.247173114079,1480.210083952873)">  <path fill-opacity="1" stroke-dasharray="none" stroke-width="1px" stroke-opacity="1" stroke="none" fill-rule="nonzero" stroke-linecap="butt" fill="#000000" stroke-miterlimit="4" stroke-linejoin="miter" d="M4.679,31.867L5.118,31.9C7.477,32.194,9.151,34.345,8.857,36.703C8.691,38.029,8.608,39.37,8.608,40.723C8.608,58.46,22.986,72.838,40.723,72.838C46.83,72.838,52.657,71.126,57.653,68.021L58.009,67.789L54.38,67.789C52.151,67.789,50.318,66.095,50.098,63.925L50.076,63.485C50.076,61.108,52.003,59.181,54.38,59.181L68.037,59.181C70.414,59.181,72.341,61.108,72.341,63.485L72.341,64.812L72.341,77.142C72.341,79.519,70.414,81.446,68.037,81.446C65.66,81.446,63.733,79.519,63.733,77.142L63.733,74.321L63.517,74.475C57.211,78.742,49.757,81.204,41.904,81.429L40.723,81.446C18.232,81.446,0,63.214,0,40.723C0,39.014,0.106,37.317,0.315,35.638C0.609,33.279,2.76,31.606,5.118,31.9L4.679,31.867ZM40.723,0C63.213,0,81.446,18.232,81.446,40.723C81.446,42.434,81.34,44.131,81.131,45.809C80.836,48.167,78.685,49.841,76.327,49.546C73.968,49.252,72.294,47.101,72.589,44.742C72.754,43.418,72.838,42.077,72.838,40.723C72.838,22.987,58.459,8.608,40.723,8.608C34.787,8.608,29.12,10.227,24.225,13.161L23.424,13.657L26.155,13.657C28.383,13.657,30.216,15.351,30.436,17.521L30.458,17.961C30.458,20.338,28.531,22.265,26.154,22.265L12.497,22.265C10.12,22.265,8.193,20.338,8.193,17.961L8.193,17.707L8.193,4.304C8.193,1.927,10.12,0,12.497,0C14.874,0,16.801,1.927,16.801,4.304L16.799,7.764L17.689,7.133C24.035,2.775,31.573,0.248,39.527,0.018L40.723,0ZM40.723,0"/>
</g>
  <g id="Bold-L" transform="matrix(1.0,0.0,0.0,1.0,2300.537173114079,1480.210083952873)">  <path stroke-opacity="1" fill="#000000" stroke-miterlimit="4" stroke="none" stroke-linejoin="miter" fill-rule="nonzero" fill-opacity="1" stroke-dasharray="none" stroke-linecap="butt" stroke-width="1px" d="M4.679,31.867L5.118,31.9C7.477,32.194,9.151,34.345,8.857,36.703C8.691,38.029,8.608,39.37,8.608,40.723C8.608,58.46,22.986,72.838,40.723,72.838C46.83,72.838,52.657,71.126,57.653,68.021L58.009,67.789L54.38,67.789C52.151,67.789,50.318,66.095,50.098,63.925L50.076,63.485C50.076,61.108,52.003,59.181,54.38,59.181L68.037,59.181C70.414,59.181,72.341,61.108,72.341,63.485L72.341,64.812L72.341,77.142C72.341,79.519,70.414,81.446,68.037,81.446C65.66,81.446,63.733,79.519,63.733,77.142L63.733,74.321L63.517,74.475C57.211,78.742,49.757,81.204,41.904,81.429L40.723,81.446C18.232,81.446,0,63.214,0,40.723C0,39.014,0.106,37.317,0.315,35.638C0.609,33.279,2.76,31.606,5.118,31.9L4.679,31.867ZM40.723,0C63.213,0,81.446,18.232,81.446,40.723C81.446,42.434,81.34,44.131,81.131,45.809C80.836,48.167,78.685,49.841,76.327,49.546C73.968,49.252,72.294,47.101,72.589,44.742C72.754,43.418,72.838,42.077,72.838,40.723C72.838,22.987,58.459,8.608,40.723,8.608C34.787,8.608,29.12,10.227,24.225,13.161L23.424,13.657L26.155,13.657C28.383,13.657,30.216,15.351,30.436,17.521L30.458,17.961C30.458,20.338,28.531,22.265,26.154,22.265L12.497,22.265C10.12,22.265,8.193,20.338,8.193,17.961L8.193,17.707L8.193,4.304C8.193,1.927,10.12,0,12.497,0C14.874,0,16.801,1.927,16.801,4.304L16.799,7.764L17.689,7.133C24.035,2.775,31.573,0.248,39.527,0.018L40.723,0ZM40.723,0"/>
</g>
  <g id="Semibold-L" transform="matrix(1.0,0.0,0.0,1.0,2003.8271731140792,1480.210083952873)">  <path stroke="none" stroke-opacity="1" fill-opacity="1" stroke-miterlimit="4" stroke-linecap="butt" fill-rule="nonzero" stroke-width="1px" stroke-linejoin="miter" stroke-dasharray="none" fill="#000000" d="M4.679,31.867L5.118,31.9C7.477,32.194,9.151,34.345,8.857,36.703C8.691,38.029,8.608,39.37,8.608,40.723C8.608,58.46,22.986,72.838,40.723,72.838C46.83,72.838,52.657,71.126,57.653,68.021L58.009,67.789L54.38,67.789C52.151,67.789,50.318,66.095,50.098,63.925L50.076,63.485C50.076,61.108,52.003,59.181,54.38,59.181L68.037,59.181C70.414,59.181,72.341,61.108,72.341,63.485L72.341,64.812L72.341,77.142C72.341,79.519,70.414,81.446,68.037,81.446C65.66,81.446,63.733,79.519,63.733,77.142L63.733,74.321L63.517,74.475C57.211,78.742,49.757,81.204,41.904,81.429L40.723,81.446C18.232,81.446,0,63.214,0,40.723C0,39.014,0.106,37.317,0.315,35.638C0.609,33.279,2.76,31.606,5.118,31.9L4.679,31.867ZM40.723,0C63.213,0,81.446,18.232,81.446,40.723C81.446,42.434,81.34,44.131,81.131,45.809C80.836,48.167,78.685,49.841,76.327,49.546C73.968,49.252,72.294,47.101,72.589,44.742C72.754,43.418,72.838,42.077,72.838,40.723C72.838,22.987,58.459,8.608,40.723,8.608C34.787,8.608,29.12,10.227,24.225,13.161L23.424,13.657L26.155,13.657C28.383,13.657,30.216,15.351,30.436,17.521L30.458,17.961C30.458,20.338,28.531,22.265,26.154,22.265L12.497,22.265C10.12,22.265,8.193,20.338,8.193,17.961L8.193,17.707L8.193,4.304C8.193,1.927,10.12,0,12.497,0C14.874,0,16.801,1.927,16.801,4.304L16.799,7.764L17.689,7.133C24.035,2.775,31.573,0.248,39.527,0.018L40.723,0ZM40.723,0"/>
</g>
  <g id="Medium-L" transform="matrix(1.0,0.0,0.0,1.0,1707.1171731140792,1480.210083952873)">  <path stroke-opacity="1" fill="#000000" fill-rule="nonzero" stroke-width="1px" stroke-linecap="butt" stroke-dasharray="none" fill-opacity="1" stroke-miterlimit="4" stroke-linejoin="miter" stroke="none" d="M4.679,31.867L5.118,31.9C7.477,32.194,9.151,34.345,8.857,36.703C8.691,38.029,8.608,39.37,8.608,40.723C8.608,58.46,22.986,72.838,40.723,72.838C46.83,72.838,52.657,71.126,57.653,68.021L58.009,67.789L54.38,67.789C52.151,67.789,50.318,66.095,50.098,63.925L50.076,63.485C50.076,61.108,52.003,59.181,54.38,59.181L68.037,59.181C70.414,59.181,72.341,61.108,72.341,63.485L72.341,64.812L72.341,77.142C72.341,79.519,70.414,81.446,68.037,81.446C65.66,81.446,63.733,79.519,63.733,77.142L63.733,74.321L63.517,74.475C57.211,78.742,49.757,81.204,41.904,81.429L40.723,81.446C18.232,81.446,0,63.214,0,40.723C0,39.014,0.106,37.317,0.315,35.638C0.609,33.279,2.76,31.606,5.118,31.9L4.679,31.867ZM40.723,0C63.213,0,81.446,18.232,81.446,40.723C81.446,42.434,81.34,44.131,81.131,45.809C80.836,48.167,78.685,49.841,76.327,49.546C73.968,49.252,72.294,47.101,72.589,44.742C72.754,43.418,72.838,42.077,72.838,40.723C72.838,22.987,58.459,8.608,40.723,8.608C34.787,8.608,29.12,10.227,24.225,13.161L23.424,13.657L26.155,13.657C28.383,13.657,30.216,15.351,30.436,17.521L30.458,17.961C30.458,20.338,28.531,22.265,26.154,22.265L12.497,22.265C10.12,22.265,8.193,20.338,8.193,17.961L8.193,17.707L8.193,4.304C8.193,1.927,10.12,0,12.497,0C14.874,0,16.801,1.927,16.801,4.304L16.799,7.764L17.689,7.133C24.035,2.775,31.573,0.248,39.527,0.018L40.723,0ZM40.723,0"/>
</g>
  <g id="Regular-L" transform="matrix(1.0,0.0,0.0,1.0,1410.4071731140791,1480.210083952873)">  <path stroke-linecap="butt" stroke-opacity="1" stroke-width="1px" fill-opacity="1" stroke="none" fill="#000000" fill-rule="nonzero" stroke-linejoin="miter" stroke-dasharray="none" stroke-miterlimit="4" d="M4.679,31.867L5.118,31.9C7.477,32.194,9.151,34.345,8.857,36.703C8.691,38.029,8.608,39.37,8.608,40.723C8.608,58.46,22.986,72.838,40.723,72.838C46.83,72.838,52.657,71.126,57.653,68.021L58.009,67.789L54.38,67.789C52.151,67.789,50.318,66.095,50.098,63.925L50.076,63.485C50.076,61.108,52.003,59.181,54.38,59.181L68.037,59.181C70.414,59.181,72.341,61.108,72.341,63.485L72.341,64.812L72.341,77.142C72.341,79.519,70.414,81.446,68.037,81.446C65.66,81.446,63.733,79.519,63.733,77.142L63.733,74.321L63.517,74.475C57.211,78.742,49.757,81.204,41.904,81.429L40.723,81.446C18.232,81.446,0,63.214,0,40.723C0,39.014,0.106,37.317,0.315,35.638C0.609,33.279,2.76,31.606,5.118,31.9L4.679,31.867ZM40.723,0C63.213,0,81.446,18.232,81.446,40.723C81.446,42.434,81.34,44.131,81.131,45.809C80.836,48.167,78.685,49.841,76.327,49.546C73.968,49.252,72.294,47.101,72.589,44.742C72.754,43.418,72.838,42.077,72.838,40.723C72.838,22.987,58.459,8.608,40.723,8.608C34.787,8.608,29.12,10.227,24.225,13.161L23.424,13.657L26.155,13.657C28.383,13.657,30.216,15.351,30.436,17.521L30.458,17.961C30.458,20.338,28.531,22.265,26.154,22.265L12.497,22.265C10.12,22.265,8.193,20.338,8.193,17.961L8.193,17.707L8.193,4.304C8.193,1.927,10.12,0,12.497,0C14.874,0,16.801,1.927,16.801,4.304L16.799,7.764L17.689,7.133C24.035,2.775,31.573,0.248,39.527,0.018L40.723,0ZM40.723,0"/>
</g>
  <g id="Light-L" transform="matrix(1.0,0.0,0.0,1.0,1113.6971731140793,1480.210083952873)">  <path stroke="none" fill-opacity="1" fill="#000000" stroke-dasharray="none" stroke-linecap="butt" stroke-width="1px" fill-rule="nonzero" stroke-opacity="1" stroke-linejoin="miter" stroke-miterlimit="4" d="M4.679,31.867L5.118,31.9C7.477,32.194,9.151,34.345,8.857,36.703C8.691,38.029,8.608,39.37,8.608,40.723C8.608,58.46,22.986,72.838,40.723,72.838C46.83,72.838,52.657,71.126,57.653,68.021L58.009,67.789L54.38,67.789C52.151,67.789,50.318,66.095,50.098,63.925L50.076,63.485C50.076,61.108,52.003,59.181,54.38,59.181L68.037,59.181C70.414,59.181,72.341,61.108,72.341,63.485L72.341,64.812L72.341,77.142C72.341,79.519,70.414,81.446,68.037,81.446C65.66,81.446,63.733,79.519,63.733,77.142L63.733,74.321L63.517,74.475C57.211,78.742,49.757,81.204,41.904,81.429L40.723,81.446C18.232,81.446,0,63.214,0,40.723C0,39.014,0.106,37.317,0.315,35.638C0.609,33.279,2.76,31.606,5.118,31.9L4.679,31.867ZM40.723,0C63.213,0,81.446,18.232,81.446,40.723C81.446,42.434,81.34,44.131,81.131,45.809C80.836,48.167,78.685,49.841,76.327,49.546C73.968,49.252,72.294,47.101,72.589,44.742C72.754,43.418,72.838,42.077,72.838,40.723C72.838,22.987,58.459,8.608,40.723,8.608C34.787,8.608,29.12,10.227,24.225,13.161L23.424,13.657L26.155,13.657C28.383,13.657,30.216,15.351,30.436,17.521L30.458,17.961C30.458,20.338,28.531,22.265,26.154,22.265L12.497,22.265C10.12,22.265,8.193,20.338,8.193,17.961L8.193,17.707L8.193,4.304C8.193,1.927,10.12,0,12.497,0C14.874,0,16.801,1.927,16.801,4.304L16.799,7.764L17.689,7.133C24.035,2.775,31.573,0.248,39.527,0.018L40.723,0ZM40.723,0"/>
</g>
  <g id="Thin-L" transform="matrix(1.0,0.0,0.0,1.0,816.9871731140794,1480.210083952873)">  <path stroke-width="1px" stroke-miterlimit="4" stroke-dasharray="none" stroke-linejoin="miter" fill="#000000" stroke-opacity="1" stroke-linecap="butt" stroke="none" fill-rule="nonzero" fill-opacity="1" d="M4.679,31.867L5.118,31.9C7.477,32.194,9.151,34.345,8.857,36.703C8.691,38.029,8.608,39.37,8.608,40.723C8.608,58.46,22.986,72.838,40.723,72.838C46.83,72.838,52.657,71.126,57.653,68.021L58.009,67.789L54.38,67.789C52.151,67.789,50.318,66.095,50.098,63.925L50.076,63.485C50.076,61.108,52.003,59.181,54.38,59.181L68.037,59.181C70.414,59.181,72.341,61.108,72.341,63.485L72.341,64.812L72.341,77.142C72.341,79.519,70.414,81.446,68.037,81.446C65.66,81.446,63.733,79.519,63.733,77.142L63.733,74.321L63.517,74.475C57.211,78.742,49.757,81.204,41.904,81.429L40.723,81.446C18.232,81.446,0,63.214,0,40.723C0,39.014,0.106,37.317,0.315,35.638C0.609,33.279,2.76,31.606,5.118,31.9L4.679,31.867ZM40.723,0C63.213,0,81.446,18.232,81.446,40.723C81.446,42.434,81.34,44.131,81.131,45.809C80.836,48.167,78.685,49.841,76.327,49.546C73.968,49.252,72.294,47.101,72.589,44.742C72.754,43.418,72.838,42.077,72.838,40.723C72.838,22.987,58.459,8.608,40.723,8.608C34.787,8.608,29.12,10.227,24.225,13.161L23.424,13.657L26.155,13.657C28.383,13.657,30.216,15.351,30.436,17.521L30.458,17.961C30.458,20.338,28.531,22.265,26.154,22.265L12.497,22.265C10.12,22.265,8.193,20.338,8.193,17.961L8.193,17.707L8.193,4.304C8.193,1.927,10.12,0,12.497,0C14.874,0,16.801,1.927,16.801,4.304L16.799,7.764L17.689,7.133C24.035,2.775,31.573,0.248,39.527,0.018L40.723,0ZM40.723,0"/>
</g>
  <g id="Ultralight-L" transform="matrix(1.0,0.0,0.0,1.0,520.2771731140793,1480.210083952873)">  <path stroke-linecap="butt" stroke="none" fill="#000000" stroke-opacity="1" stroke-dasharray="none" stroke-linejoin="miter" fill-opacity="1" stroke-miterlimit="4" fill-rule="nonzero" stroke-width="1px" d="M4.679,31.867L5.118,31.9C7.477,32.194,9.151,34.345,8.857,36.703C8.691,38.029,8.608,39.37,8.608,40.723C8.608,58.46,22.986,72.838,40.723,72.838C46.83,72.838,52.657,71.126,57.653,68.021L58.009,67.789L54.38,67.789C52.151,67.789,50.318,66.095,50.098,63.925L50.076,63.485C50.076,61.108,52.003,59.181,54.38,59.181L68.037,59.181C70.414,59.181,72.341,61.108,72.341,63.485L72.341,64.812L72.341,77.142C72.341,79.519,70.414,81.446,68.037,81.446C65.66,81.446,63.733,79.519,63.733,77.142L63.733,74.321L63.517,74.475C57.211,78.742,49.757,81.204,41.904,81.429L40.723,81.446C18.232,81.446,0,63.214,0,40.723C0,39.014,0.106,37.317,0.315,35.638C0.609,33.279,2.76,31.606,5.118,31.9L4.679,31.867ZM40.723,0C63.213,0,81.446,18.232,81.446,40.723C81.446,42.434,81.34,44.131,81.131,45.809C80.836,48.167,78.685,49.841,76.327,49.546C73.968,49.252,72.294,47.101,72.589,44.742C72.754,43.418,72.838,42.077,72.838,40.723C72.838,22.987,58.459,8.608,40.723,8.608C34.787,8.608,29.12,10.227,24.225,13.161L23.424,13.657L26.155,13.657C28.383,13.657,30.216,15.351,30.436,17.521L30.458,17.961C30.458,20.338,28.531,22.265,26.154,22.265L12.497,22.265C10.12,22.265,8.193,20.338,8.193,17.961L8.193,17.707L8.193,4.304C8.193,1.927,10.12,0,12.497,0C14.874,0,16.801,1.927,16.801,4.304L16.799,7.764L17.689,7.133C24.035,2.775,31.573,0.248,39.527,0.018L40.723,0ZM40.723,0"/>
</g>
  <g id="Black-M" transform="matrix(1.0,0.0,0.0,1.0,2903.111917142697,1059.3282090053763)">  <path stroke-opacity="1" stroke="none" stroke-linecap="butt" stroke-linejoin="miter" fill="#000000" fill-opacity="1" stroke-width="1px" fill-rule="nonzero" stroke-miterlimit="4" stroke-dasharray="none" d="M3.627,24.703L3.968,24.728C5.796,24.957,7.094,26.624,6.866,28.452C6.738,29.48,6.673,30.519,6.673,31.568C6.673,45.318,17.819,56.463,31.568,56.463C36.303,56.463,40.819,55.136,44.693,52.729L44.968,52.55L42.155,52.55C40.427,52.55,39.007,51.237,38.836,49.554L38.818,49.213C38.818,47.37,40.312,45.877,42.155,45.877L52.742,45.877C54.584,45.877,56.078,47.37,56.078,49.213L56.078,50.242L56.078,59.8C56.078,61.643,54.584,63.136,52.742,63.136C50.899,63.136,49.405,61.643,49.405,59.8L49.405,57.613L49.238,57.733C44.35,61.04,38.571,62.949,32.483,63.123L31.568,63.136C14.133,63.136,0,49.003,0,31.568C0,30.243,0.082,28.928,0.244,27.626C0.472,25.798,2.139,24.5,3.968,24.728L3.627,24.703ZM31.568,0C49.003,0,63.136,14.134,63.136,31.568C63.136,32.894,63.054,34.21,62.892,35.511C62.664,37.339,60.996,38.636,59.168,38.408C57.339,38.18,56.042,36.512,56.271,34.684C56.399,33.658,56.463,32.618,56.463,31.568C56.463,17.819,45.317,6.673,31.568,6.673C26.967,6.673,22.573,7.928,18.779,10.202L18.158,10.587L20.275,10.587C22.002,10.587,23.423,11.9,23.594,13.582L23.611,13.924C23.611,15.766,22.117,17.26,20.275,17.26L9.688,17.26C7.845,17.26,6.351,15.766,6.351,13.923L6.351,13.726L6.351,3.337C6.351,1.494,7.845,0,9.688,0C11.531,0,13.024,1.494,13.024,3.337L13.022,6.019L13.713,5.53C18.631,2.151,24.475,0.193,30.641,0.014L31.568,0ZM31.568,0"/>
</g>
  <g id="Heavy-M" transform="matrix(1.0,0.0,0.0,1.0,2606.401917142697,1059.3282090053763)">  <path fill-opacity="1" stroke-dasharray="none" stroke-width="1px" stroke-opacity="1" stroke="none" fill-rule="nonzero" stroke-linecap="butt" fill="#000000" stroke-miterlimit="4" stroke-linejoin="miter" d="M3.627,24.703L3.968,24.728C5.796,24.957,7.094,26.624,6.866,28.452C6.738,29.48,6.673,30.519,6.673,31.568C6.673,45.318,17.819,56.463,31.568,56.463C36.303,56.463,40.819,55.136,44.693,52.729L44.968,52.55L42.155,52.55C40.427,52.55,39.007,51.237,38.836,49.554L38.818,49.213C38.818,47.37,40.312,45.877,42.155,45.877L52.742,45.877C54.584,45.877,56.078,47.37,56.078,49.213L56.078,50.242L56.078,59.8C56.078,61.643,54.584,63.136,52.742,63.136C50.899,63.136,49.405,61.643,49.405,59.8L49.405,57.613L49.238,57.733C44.35,61.04,38.571,62.949,32.483,63.123L31.568,63.136C14.133,63.136,0,49.003,0,31.568C0,30.243,0.082,28.928,0.244,27.626C0.472,25.798,2.139,24.5,3.968,24.728L3.627,24.703ZM31.568,0C49.003,0,63.136,14.134,63.136,31.568C63.136,32.894,63.054,34.21,62.892,35.511C62.664,37.339,60.996,38.636,59.168,38.408C57.339,38.18,56.042,36.512,56.271,34.684C56.399,33.658,56.463,32.618,56.463,31.568C56.463,17.819,45.317,6.673,31.568,6.673C26.967,6.673,22.573,7.928,18.779,10.202L18.158,10.587L20.275,10.587C22.002,10.587,23.423,11.9,23.594,13.582L23.611,13.924C23.611,15.766,22.117,17.26,20.275,17.26L9.688,17.26C7.845,17.26,6.351,15.766,6.351,13.923L6.351,13.726L6.351,3.337C6.351,1.494,7.845,0,9.688,0C11.531,0,13.024,1.494,13.024,3.337L13.022,6.019L13.713,5.53C18.631,2.151,24.475,0.193,30.641,0.014L31.568,0ZM31.568,0"/>
</g>
  <g id="Bold-M" transform="matrix(1.0,0.0,0.0,1.0,2309.691917142697,1059.3282090053763)">  <path stroke-opacity="1" fill="#000000" stroke-miterlimit="4" stroke="none" stroke-linejoin="miter" fill-rule="nonzero" fill-opacity="1" stroke-dasharray="none" stroke-linecap="butt" stroke-width="1px" d="M3.627,24.703L3.968,24.728C5.796,24.957,7.094,26.624,6.866,28.452C6.738,29.48,6.673,30.519,6.673,31.568C6.673,45.318,17.819,56.463,31.568,56.463C36.303,56.463,40.819,55.136,44.693,52.729L44.968,52.55L42.155,52.55C40.427,52.55,39.007,51.237,38.836,49.554L38.818,49.213C38.818,47.37,40.312,45.877,42.155,45.877L52.742,45.877C54.584,45.877,56.078,47.37,56.078,49.213L56.078,50.242L56.078,59.8C56.078,61.643,54.584,63.136,52.742,63.136C50.899,63.136,49.405,61.643,49.405,59.8L49.405,57.613L49.238,57.733C44.35,61.04,38.571,62.949,32.483,63.123L31.568,63.136C14.133,63.136,0,49.003,0,31.568C0,30.243,0.082,28.928,0.244,27.626C0.472,25.798,2.139,24.5,3.968,24.728L3.627,24.703ZM31.568,0C49.003,0,63.136,14.134,63.136,31.568C63.136,32.894,63.054,34.21,62.892,35.511C62.664,37.339,60.996,38.636,59.168,38.408C57.339,38.18,56.042,36.512,56.271,34.684C56.399,33.658,56.463,32.618,56.463,31.568C56.463,17.819,45.317,6.673,31.568,6.673C26.967,6.673,22.573,7.928,18.779,10.202L18.158,10.587L20.275,10.587C22.002,10.587,23.423,11.9,23.594,13.582L23.611,13.924C23.611,15.766,22.117,17.26,20.275,17.26L9.688,17.26C7.845,17.26,6.351,15.766,6.351,13.923L6.351,13.726L6.351,3.337C6.351,1.494,7.845,0,9.688,0C11.531,0,13.024,1.494,13.024,3.337L13.022,6.019L13.713,5.53C18.631,2.151,24.475,0.193,30.641,0.014L31.568,0ZM31.568,0"/>
</g>
  <g id="Semibold-M" transform="matrix(1.0,0.0,0.0,1.0,2012.981917142697,1059.3282090053763)">  <path stroke="none" stroke-opacity="1" fill-opacity="1" stroke-miterlimit="4" stroke-linecap="butt" fill-rule="nonzero" stroke-width="1px" stroke-linejoin="miter" stroke-dasharray="none" fill="#000000" d="M3.627,24.703L3.968,24.728C5.796,24.957,7.094,26.624,6.866,28.452C6.738,29.48,6.673,30.519,6.673,31.568C6.673,45.318,17.819,56.463,31.568,56.463C36.303,56.463,40.819,55.136,44.693,52.729L44.968,52.55L42.155,52.55C40.427,52.55,39.007,51.237,38.836,49.554L38.818,49.213C38.818,47.37,40.312,45.877,42.155,45.877L52.742,45.877C54.584,45.877,56.078,47.37,56.078,49.213L56.078,50.242L56.078,59.8C56.078,61.643,54.584,63.136,52.742,63.136C50.899,63.136,49.405,61.643,49.405,59.8L49.405,57.613L49.238,57.733C44.35,61.04,38.571,62.949,32.483,63.123L31.568,63.136C14.133,63.136,0,49.003,0,31.568C0,30.243,0.082,28.928,0.244,27.626C0.472,25.798,2.139,24.5,3.968,24.728L3.627,24.703ZM31.568,0C49.003,0,63.136,14.134,63.136,31.568C63.136,32.894,63.054,34.21,62.892,35.511C62.664,37.339,60.996,38.636,59.168,38.408C57.339,38.18,56.042,36.512,56.271,34.684C56.399,33.658,56.463,32.618,56.463,31.568C56.463,17.819,45.317,6.673,31.568,6.673C26.967,6.673,22.573,7.928,18.779,10.202L18.158,10.587L20.275,10.587C22.002,10.587,23.423,11.9,23.594,13.582L23.611,13.924C23.611,15.766,22.117,17.26,20.275,17.26L9.688,17.26C7.845,17.26,6.351,15.766,6.351,13.923L6.351,13.726L6.351,3.337C6.351,1.494,7.845,0,9.688,0C11.531,0,13.024,1.494,13.024,3.337L13.022,6.019L13.713,5.53C18.631,2.151,24.475,0.193,30.641,0.014L31.568,0ZM31.568,0"/>
</g>
  <g id="Medium-M" transform="matrix(1.0,0.0,0.0,1.0,1716.271917142697,1059.3282090053763)">  <path stroke-opacity="1" fill="#000000" fill-rule="nonzero" stroke-width="1px" stroke-linecap="butt" stroke-dasharray="none" fill-opacity="1" stroke-miterlimit="4" stroke-linejoin="miter" stroke="none" d="M3.627,24.703L3.968,24.728C5.796,24.957,7.094,26.624,6.866,28.452C6.738,29.48,6.673,30.519,6.673,31.568C6.673,45.318,17.819,56.463,31.568,56.463C36.303,56.463,40.819,55.136,44.693,52.729L44.968,52.55L42.155,52.55C40.427,52.55,39.007,51.237,38.836,49.554L38.818,49.213C38.818,47.37,40.312,45.877,42.155,45.877L52.742,45.877C54.584,45.877,56.078,47.37,56.078,49.213L56.078,50.242L56.078,59.8C56.078,61.643,54.584,63.136,52.742,63.136C50.899,63.136,49.405,61.643,49.405,59.8L49.405,57.613L49.238,57.733C44.35,61.04,38.571,62.949,32.483,63.123L31.568,63.136C14.133,63.136,0,49.003,0,31.568C0,30.243,0.082,28.928,0.244,27.626C0.472,25.798,2.139,24.5,3.968,24.728L3.627,24.703ZM31.568,0C49.003,0,63.136,14.134,63.136,31.568C63.136,32.894,63.054,34.21,62.892,35.511C62.664,37.339,60.996,38.636,59.168,38.408C57.339,38.18,56.042,36.512,56.271,34.684C56.399,33.658,56.463,32.618,56.463,31.568C56.463,17.819,45.317,6.673,31.568,6.673C26.967,6.673,22.573,7.928,18.779,10.202L18.158,10.587L20.275,10.587C22.002,10.587,23.423,11.9,23.594,13.582L23.611,13.924C23.611,15.766,22.117,17.26,20.275,17.26L9.688,17.26C7.845,17.26,6.351,15.766,6.351,13.923L6.351,13.726L6.351,3.337C6.351,1.494,7.845,0,9.688,0C11.531,0,13.024,1.494,13.024,3.337L13.022,6.019L13.713,5.53C18.631,2.151,24.475,0.193,30.641,0.014L31.568,0ZM31.568,0"/>
</g>
  <g id="Regular-M" transform="matrix(1.0,0.0,0.0,1.0,1419.561917142697,1059.3282090053763)">  <path stroke-linecap="butt" stroke-opacity="1" stroke-width="1px" fill-opacity="1" stroke="none" fill="#000000" fill-rule="nonzero" stroke-linejoin="miter" stroke-dasharray="none" stroke-miterlimit="4" d="M3.627,24.703L3.968,24.728C5.796,24.957,7.094,26.624,6.866,28.452C6.738,29.48,6.673,30.519,6.673,31.568C6.673,45.318,17.819,56.463,31.568,56.463C36.303,56.463,40.819,55.136,44.693,52.729L44.968,52.55L42.155,52.55C40.427,52.55,39.007,51.237,38.836,49.554L38.818,49.213C38.818,47.37,40.312,45.877,42.155,45.877L52.742,45.877C54.584,45.877,56.078,47.37,56.078,49.213L56.078,50.242L56.078,59.8C56.078,61.643,54.584,63.136,52.742,63.136C50.899,63.136,49.405,61.643,49.405,59.8L49.405,57.613L49.238,57.733C44.35,61.04,38.571,62.949,32.483,63.123L31.568,63.136C14.133,63.136,0,49.003,0,31.568C0,30.243,0.082,28.928,0.244,27.626C0.472,25.798,2.139,24.5,3.968,24.728L3.627,24.703ZM31.568,0C49.003,0,63.136,14.134,63.136,31.568C63.136,32.894,63.054,34.21,62.892,35.511C62.664,37.339,60.996,38.636,59.168,38.408C57.339,38.18,56.042,36.512,56.271,34.684C56.399,33.658,56.463,32.618,56.463,31.568C56.463,17.819,45.317,6.673,31.568,6.673C26.967,6.673,22.573,7.928,18.779,10.202L18.158,10.587L20.275,10.587C22.002,10.587,23.423,11.9,23.594,13.582L23.611,13.924C23.611,15.766,22.117,17.26,20.275,17.26L9.688,17.26C7.845,17.26,6.351,15.766,6.351,13.923L6.351,13.726L6.351,3.337C6.351,1.494,7.845,0,9.688,0C11.531,0,13.024,1.494,13.024,3.337L13.022,6.019L13.713,5.53C18.631,2.151,24.475,0.193,30.641,0.014L31.568,0ZM31.568,0"/>
</g>
  <g id="Light-M" transform="matrix(1.0,0.0,0.0,1.0,1122.8519171426972,1059.3282090053763)">  <path stroke="none" fill-opacity="1" fill="#000000" stroke-dasharray="none" stroke-linecap="butt" stroke-width="1px" fill-rule="nonzero" stroke-opacity="1" stroke-linejoin="miter" stroke-miterlimit="4" d="M3.627,24.703L3.968,24.728C5.796,24.957,7.094,26.624,6.866,28.452C6.738,29.48,6.673,30.519,6.673,31.568C6.673,45.318,17.819,56.463,31.568,56.463C36.303,56.463,40.819,55.136,44.693,52.729L44.968,52.55L42.155,52.55C40.427,52.55,39.007,51.237,38.836,49.554L38.818,49.213C38.818,47.37,40.312,45.877,42.155,45.877L52.742,45.877C54.584,45.877,56.078,47.37,56.078,49.213L56.078,50.242L56.078,59.8C56.078,61.643,54.584,63.136,52.742,63.136C50.899,63.136,49.405,61.643,49.405,59.8L49.405,57.613L49.238,57.733C44.35,61.04,38.571,62.949,32.483,63.123L31.568,63.136C14.133,63.136,0,49.003,0,31.568C0,30.243,0.082,28.928,0.244,27.626C0.472,25.798,2.139,24.5,3.968,24.728L3.627,24.703ZM31.568,0C49.003,0,63.136,14.134,63.136,31.568C63.136,32.894,63.054,34.21,62.892,35.511C62.664,37.339,60.996,38.636,59.168,38.408C57.339,38.18,56.042,36.512,56.271,34.684C56.399,33.658,56.463,32.618,56.463,31.568C56.463,17.819,45.317,6.673,31.568,6.673C26.967,6.673,22.573,7.928,18.779,10.202L18.158,10.587L20.275,10.587C22.002,10.587,23.423,11.9,23.594,13.582L23.611,13.924C23.611,15.766,22.117,17.26,20.275,17.26L9.688,17.26C7.845,17.26,6.351,15.766,6.351,13.923L6.351,13.726L6.351,3.337C6.351,1.494,7.845,0,9.688,0C11.531,0,13.024,1.494,13.024,3.337L13.022,6.019L13.713,5.53C18.631,2.151,24.475,0.193,30.641,0.014L31.568,0ZM31.568,0"/>
</g>
  <g id="Thin-M" transform="matrix(1.0,0.0,0.0,1.0,826.1419171426971,1059.3282090053763)">  <path stroke-width="1px" stroke-miterlimit="4" stroke-dasharray="none" stroke-linejoin="miter" fill="#000000" stroke-opacity="1" stroke-linecap="butt" stroke="none" fill-rule="nonzero" fill-opacity="1" d="M3.627,24.703L3.968,24.728C5.796,24.957,7.094,26.624,6.866,28.452C6.738,29.48,6.673,30.519,6.673,31.568C6.673,45.318,17.819,56.463,31.568,56.463C36.303,56.463,40.819,55.136,44.693,52.729L44.968,52.55L42.155,52.55C40.427,52.55,39.007,51.237,38.836,49.554L38.818,49.213C38.818,47.37,40.312,45.877,42.155,45.877L52.742,45.877C54.584,45.877,56.078,47.37,56.078,49.213L56.078,50.242L56.078,59.8C56.078,61.643,54.584,63.136,52.742,63.136C50.899,63.136,49.405,61.643,49.405,59.8L49.405,57.613L49.238,57.733C44.35,61.04,38.571,62.949,32.483,63.123L31.568,63.136C14.133,63.136,0,49.003,0,31.568C0,30.243,0.082,28.928,0.244,27.626C0.472,25.798,2.139,24.5,3.968,24.728L3.627,24.703ZM31.568,0C49.003,0,63.136,14.134,63.136,31.568C63.136,32.894,63.054,34.21,62.892,35.511C62.664,37.339,60.996,38.636,59.168,38.408C57.339,38.18,56.042,36.512,56.271,34.684C56.399,33.658,56.463,32.618,56.463,31.568C56.463,17.819,45.317,6.673,31.568,6.673C26.967,6.673,22.573,7.928,18.779,10.202L18.158,10.587L20.275,10.587C22.002,10.587,23.423,11.9,23.594,13.582L23.611,13.924C23.611,15.766,22.117,17.26,20.275,17.26L9.688,17.26C7.845,17.26,6.351,15.766,6.351,13.923L6.351,13.726L6.351,3.337C6.351,1.494,7.845,0,9.688,0C11.531,0,13.024,1.494,13.024,3.337L13.022,6.019L13.713,5.53C18.631,2.151,24.475,0.193,30.641,0.014L31.568,0ZM31.568,0"/>
</g>
  <g id="Ultralight-M" transform="matrix(1.0,0.0,0.0,1.0,529.4319171426971,1059.3282090053763)">  <path stroke-linecap="butt" stroke="none" fill="#000000" stroke-opacity="1" stroke-dasharray="none" stroke-linejoin="miter" fill-opacity="1" stroke-miterlimit="4" fill-rule="nonzero" stroke-width="1px" d="M3.627,24.703L3.968,24.728C5.796,24.957,7.094,26.624,6.866,28.452C6.738,29.48,6.673,30.519,6.673,31.568C6.673,45.318,17.819,56.463,31.568,56.463C36.303,56.463,40.819,55.136,44.693,52.729L44.968,52.55L42.155,52.55C40.427,52.55,39.007,51.237,38.836,49.554L38.818,49.213C38.818,47.37,40.312,45.877,42.155,45.877L52.742,45.877C54.584,45.877,56.078,47.37,56.078,49.213L56.078,50.242L56.078,59.8C56.078,61.643,54.584,63.136,52.742,63.136C50.899,63.136,49.405,61.643,49.405,59.8L49.405,57.613L49.238,57.733C44.35,61.04,38.571,62.949,32.483,63.123L31.568,63.136C14.133,63.136,0,49.003,0,31.568C0,30.243,0.082,28.928,0.244,27.626C0.472,25.798,2.139,24.5,3.968,24.728L3.627,24.703ZM31.568,0C49.003,0,63.136,14.134,63.136,31.568C63.136,32.894,63.054,34.21,62.892,35.511C62.664,37.339,60.996,38.636,59.168,38.408C57.339,38.18,56.042,36.512,56.271,34.684C56.399,33.658,56.463,32.618,56.463,31.568C56.463,17.819,45.317,6.673,31.568,6.673C26.967,6.673,22.573,7.928,18.779,10.202L18.158,10.587L20.275,10.587C22.002,10.587,23.423,11.9,23.594,13.582L23.611,13.924C23.611,15.766,22.117,17.26,20.275,17.26L9.688,17.26C7.845,17.26,6.351,15.766,6.351,13.923L6.351,13.726L6.351,3.337C6.351,1.494,7.845,0,9.688,0C11.531,0,13.024,1.494,13.024,3.337L13.022,6.019L13.713,5.53C18.631,2.151,24.475,0.193,30.641,0.014L31.568,0ZM31.568,0"/>
</g>
  <g id="Black-S" transform="matrix(1.0,0.0,0.0,1.0,2909.962191122732,636.1510818894909)">  <path stroke-opacity="1" stroke="none" stroke-linecap="butt" stroke-linejoin="miter" fill="#000000" fill-opacity="1" stroke-width="1px" fill-rule="nonzero" stroke-miterlimit="4" stroke-dasharray="none" d="M2.84,19.343L3.107,19.362C4.538,19.541,5.554,20.846,5.376,22.278C5.276,23.083,5.225,23.897,5.225,24.718C5.225,35.484,13.952,44.211,24.718,44.211C28.425,44.211,31.961,43.172,34.994,41.287L35.21,41.146L33.007,41.146C31.655,41.146,30.542,40.118,30.408,38.801L30.395,38.534C30.395,37.091,31.565,35.921,33.007,35.921L41.297,35.921C42.74,35.921,43.909,37.091,43.909,38.534L43.909,39.34L43.909,46.823C43.909,48.266,42.74,49.436,41.297,49.436C39.854,49.436,38.684,48.266,38.684,46.823L38.684,45.111L38.553,45.205C34.726,47.794,30.201,49.289,25.435,49.426L24.718,49.436C11.067,49.436,0,38.369,0,24.718C0,23.68,0.064,22.65,0.191,21.632C0.37,20.2,1.675,19.184,3.107,19.362L2.84,19.343ZM24.718,0C38.369,0,49.436,11.067,49.436,24.718C49.436,25.756,49.372,26.786,49.244,27.805C49.066,29.236,47.76,30.252,46.328,30.073C44.897,29.895,43.881,28.589,44.06,27.157C44.16,26.354,44.211,25.54,44.211,24.718C44.211,13.952,35.483,5.225,24.718,5.225C21.115,5.225,17.675,6.207,14.704,7.989L14.218,8.29L15.875,8.29C17.228,8.29,18.34,9.318,18.474,10.635L18.488,10.902C18.488,12.345,17.318,13.515,15.875,13.515L7.586,13.514C6.143,13.514,4.973,12.345,4.973,10.902L4.973,10.748L4.973,2.613C4.973,1.17,6.143,0,7.586,0C9.028,0,10.198,1.17,10.198,2.613L10.197,4.713L10.737,4.33C14.588,1.685,19.164,0.151,23.992,0.011L24.718,0ZM24.718,0"/>
</g>
  <g id="Heavy-S" transform="matrix(1.0,0.0,0.0,1.0,2613.252191122732,636.1510818894909)">  <path fill-opacity="1" stroke-dasharray="none" stroke-width="1px" stroke-opacity="1" stroke="none" fill-rule="nonzero" stroke-linecap="butt" fill="#000000" stroke-miterlimit="4" stroke-linejoin="miter" d="M2.84,19.343L3.107,19.362C4.538,19.541,5.554,20.846,5.376,22.278C5.276,23.083,5.225,23.897,5.225,24.718C5.225,35.484,13.952,44.211,24.718,44.211C28.425,44.211,31.961,43.172,34.994,41.287L35.21,41.146L33.007,41.146C31.655,41.146,30.542,40.118,30.408,38.801L30.395,38.534C30.395,37.091,31.565,35.921,33.007,35.921L41.297,35.921C42.74,35.921,43.909,37.091,43.909,38.534L43.909,39.34L43.909,46.823C43.909,48.266,42.74,49.436,41.297,49.436C39.854,49.436,38.684,48.266,38.684,46.823L38.684,45.111L38.553,45.205C34.726,47.794,30.201,49.289,25.435,49.426L24.718,49.436C11.067,49.436,0,38.369,0,24.718C0,23.68,0.064,22.65,0.191,21.632C0.37,20.2,1.675,19.184,3.107,19.362L2.84,19.343ZM24.718,0C38.369,0,49.436,11.067,49.436,24.718C49.436,25.756,49.372,26.786,49.244,27.805C49.066,29.236,47.76,30.252,46.328,30.073C44.897,29.895,43.881,28.589,44.06,27.157C44.16,26.354,44.211,25.54,44.211,24.718C44.211,13.952,35.483,5.225,24.718,5.225C21.115,5.225,17.675,6.207,14.704,7.989L14.218,8.29L15.875,8.29C17.228,8.29,18.34,9.318,18.474,10.635L18.488,10.902C18.488,12.345,17.318,13.515,15.875,13.515L7.586,13.514C6.143,13.514,4.973,12.345,4.973,10.902L4.973,10.748L4.973,2.613C4.973,1.17,6.143,0,7.586,0C9.028,0,10.198,1.17,10.198,2.613L10.197,4.713L10.737,4.33C14.588,1.685,19.164,0.151,23.992,0.011L24.718,0ZM24.718,0"/>
</g>
  <g id="Bold-S" transform="matrix(1.0,0.0,0.0,1.0,2316.5421911227318,636.1510818894909)">  <path stroke-opacity="1" fill="#000000" stroke-miterlimit="4" stroke="none" stroke-linejoin="miter" fill-rule="nonzero" fill-opacity="1" stroke-dasharray="none" stroke-linecap="butt" stroke-width="1px" d="M2.84,19.343L3.107,19.362C4.538,19.541,5.554,20.846,5.376,22.278C5.276,23.083,5.225,23.897,5.225,24.718C5.225,35.484,13.952,44.211,24.718,44.211C28.425,44.211,31.961,43.172,34.994,41.287L35.21,41.146L33.007,41.146C31.655,41.146,30.542,40.118,30.408,38.801L30.395,38.534C30.395,37.091,31.565,35.921,33.007,35.921L41.297,35.921C42.74,35.921,43.909,37.091,43.909,38.534L43.909,39.34L43.909,46.823C43.909,48.266,42.74,49.436,41.297,49.436C39.854,49.436,38.684,48.266,38.684,46.823L38.684,45.111L38.553,45.205C34.726,47.794,30.201,49.289,25.435,49.426L24.718,49.436C11.067,49.436,0,38.369,0,24.718C0,23.68,0.064,22.65,0.191,21.632C0.37,20.2,1.675,19.184,3.107,19.362L2.84,19.343ZM24.718,0C38.369,0,49.436,11.067,49.436,24.718C49.436,25.756,49.372,26.786,49.244,27.805C49.066,29.236,47.76,30.252,46.328,30.073C44.897,29.895,43.881,28.589,44.06,27.157C44.16,26.354,44.211,25.54,44.211,24.718C44.211,13.952,35.483,5.225,24.718,5.225C21.115,5.225,17.675,6.207,14.704,7.989L14.218,8.29L15.875,8.29C17.228,8.29,18.34,9.318,18.474,10.635L18.488,10.902C18.488,12.345,17.318,13.515,15.875,13.515L7.586,13.514C6.143,13.514,4.973,12.345,4.973,10.902L4.973,10.748L4.973,2.613C4.973,1.17,6.143,0,7.586,0C9.028,0,10.198,1.17,10.198,2.613L10.197,4.713L10.737,4.33C14.588,1.685,19.164,0.151,23.992,0.011L24.718,0ZM24.718,0"/>
</g>
  <g id="Semibold-S" transform="matrix(1.0,0.0,0.0,1.0,2019.8321911227317,636.1510818894909)">  <path stroke="none" stroke-opacity="1" fill-opacity="1" stroke-miterlimit="4" stroke-linecap="butt" fill-rule="nonzero" stroke-width="1px" stroke-linejoin="miter" stroke-dasharray="none" fill="#000000" d="M2.84,19.343L3.107,19.362C4.538,19.541,5.554,20.846,5.376,22.278C5.276,23.083,5.225,23.897,5.225,24.718C5.225,35.484,13.952,44.211,24.718,44.211C28.425,44.211,31.961,43.172,34.994,41.287L35.21,41.146L33.007,41.146C31.655,41.146,30.542,40.118,30.408,38.801L30.395,38.534C30.395,37.091,31.565,35.921,33.007,35.921L41.297,35.921C42.74,35.921,43.909,37.091,43.909,38.534L43.909,39.34L43.909,46.823C43.909,48.266,42.74,49.436,41.297,49.436C39.854,49.436,38.684,48.266,38.684,46.823L38.684,45.111L38.553,45.205C34.726,47.794,30.201,49.289,25.435,49.426L24.718,49.436C11.067,49.436,0,38.369,0,24.718C0,23.68,0.064,22.65,0.191,21.632C0.37,20.2,1.675,19.184,3.107,19.362L2.84,19.343ZM24.718,0C38.369,0,49.436,11.067,49.436,24.718C49.436,25.756,49.372,26.786,49.244,27.805C49.066,29.236,47.76,30.252,46.328,30.073C44.897,29.895,43.881,28.589,44.06,27.157C44.16,26.354,44.211,25.54,44.211,24.718C44.211,13.952,35.483,5.225,24.718,5.225C21.115,5.225,17.675,6.207,14.704,7.989L14.218,8.29L15.875,8.29C17.228,8.29,18.34,9.318,18.474,10.635L18.488,10.902C18.488,12.345,17.318,13.515,15.875,13.515L7.586,13.514C6.143,13.514,4.973,12.345,4.973,10.902L4.973,10.748L4.973,2.613C4.973,1.17,6.143,0,7.586,0C9.028,0,10.198,1.17,10.198,2.613L10.197,4.713L10.737,4.33C14.588,1.685,19.164,0.151,23.992,0.011L24.718,0ZM24.718,0"/>
</g>
  <g id="Medium-S" transform="matrix(1.0,0.0,0.0,1.0,1723.1221911227317,636.1510818894909)">  <path stroke-opacity="1" fill="#000000" fill-rule="nonzero" stroke-width="1px" stroke-linecap="butt" stroke-dasharray="none" fill-opacity="1" stroke-miterlimit="4" stroke-linejoin="miter" stroke="none" d="M2.84,19.343L3.107,19.362C4.538,19.541,5.554,20.846,5.376,22.278C5.276,23.083,5.225,23.897,5.225,24.718C5.225,35.484,13.952,44.211,24.718,44.211C28.425,44.211,31.961,43.172,34.994,41.287L35.21,41.146L33.007,41.146C31.655,41.146,30.542,40.118,30.408,38.801L30.395,38.534C30.395,37.091,31.565,35.921,33.007,35.921L41.297,35.921C42.74,35.921,43.909,37.091,43.909,38.534L43.909,39.34L43.909,46.823C43.909,48.266,42.74,49.436,41.297,49.436C39.854,49.436,38.684,48.266,38.684,46.823L38.684,45.111L38.553,45.205C34.726,47.794,30.201,49.289,25.435,49.426L24.718,49.436C11.067,49.436,0,38.369,0,24.718C0,23.68,0.064,22.65,0.191,21.632C0.37,20.2,1.675,19.184,3.107,19.362L2.84,19.343ZM24.718,0C38.369,0,49.436,11.067,49.436,24.718C49.436,25.756,49.372,26.786,49.244,27.805C49.066,29.236,47.76,30.252,46.328,30.073C44.897,29.895,43.881,28.589,44.06,27.157C44.16,26.354,44.211,25.54,44.211,24.718C44.211,13.952,35.483,5.225,24.718,5.225C21.115,5.225,17.675,6.207,14.704,7.989L14.218,8.29L15.875,8.29C17.228,8.29,18.34,9.318,18.474,10.635L18.488,10.902C18.488,12.345,17.318,13.515,15.875,13.515L7.586,13.514C6.143,13.514,4.973,12.345,4.973,10.902L4.973,10.748L4.973,2.613C4.973,1.17,6.143,0,7.586,0C9.028,0,10.198,1.17,10.198,2.613L10.197,4.713L10.737,4.33C14.588,1.685,19.164,0.151,23.992,0.011L24.718,0ZM24.718,0"/>
</g>
  <g id="Regular-S" transform="matrix(1.0,0.0,0.0,1.0,1426.4121911227317,636.1510818894909)">  <path stroke-linecap="butt" stroke-opacity="1" stroke-width="1px" fill-opacity="1" stroke="none" fill="#000000" fill-rule="nonzero" stroke-linejoin="miter" stroke-dasharray="none" stroke-miterlimit="4" d="M2.84,19.343L3.107,19.362C4.538,19.541,5.554,20.846,5.376,22.278C5.276,23.083,5.225,23.897,5.225,24.718C5.225,35.484,13.952,44.211,24.718,44.211C28.425,44.211,31.961,43.172,34.994,41.287L35.21,41.146L33.007,41.146C31.655,41.146,30.542,40.118,30.408,38.801L30.395,38.534C30.395,37.091,31.565,35.921,33.007,35.921L41.297,35.921C42.74,35.921,43.909,37.091,43.909,38.534L43.909,39.34L43.909,46.823C43.909,48.266,42.74,49.436,41.297,49.436C39.854,49.436,38.684,48.266,38.684,46.823L38.684,45.111L38.553,45.205C34.726,47.794,30.201,49.289,25.435,49.426L24.718,49.436C11.067,49.436,0,38.369,0,24.718C0,23.68,0.064,22.65,0.191,21.632C0.37,20.2,1.675,19.184,3.107,19.362L2.84,19.343ZM24.718,0C38.369,0,49.436,11.067,49.436,24.718C49.436,25.756,49.372,26.786,49.244,27.805C49.066,29.236,47.76,30.252,46.328,30.073C44.897,29.895,43.881,28.589,44.06,27.157C44.16,26.354,44.211,25.54,44.211,24.718C44.211,13.952,35.483,5.225,24.718,5.225C21.115,5.225,17.675,6.207,14.704,7.989L14.218,8.29L15.875,8.29C17.228,8.29,18.34,9.318,18.474,10.635L18.488,10.902C18.488,12.345,17.318,13.515,15.875,13.515L7.586,13.514C6.143,13.514,4.973,12.345,4.973,10.902L4.973,10.748L4.973,2.613C4.973,1.17,6.143,0,7.586,0C9.028,0,10.198,1.17,10.198,2.613L10.197,4.713L10.737,4.33C14.588,1.685,19.164,0.151,23.992,0.011L24.718,0ZM24.718,0"/>
</g>
  <g id="Light-S" transform="matrix(1.0,0.0,0.0,1.0,1129.7021911227318,636.1510818894909)">  <path stroke="none" fill-opacity="1" fill="#000000" stroke-dasharray="none" stroke-linecap="butt" stroke-width="1px" fill-rule="nonzero" stroke-opacity="1" stroke-linejoin="miter" stroke-miterlimit="4" d="M2.84,19.343L3.107,19.362C4.538,19.541,5.554,20.846,5.376,22.278C5.276,23.083,5.225,23.897,5.225,24.718C5.225,35.484,13.952,44.211,24.718,44.211C28.425,44.211,31.961,43.172,34.994,41.287L35.21,41.146L33.007,41.146C31.655,41.146,30.542,40.118,30.408,38.801L30.395,38.534C30.395,37.091,31.565,35.921,33.007,35.921L41.297,35.921C42.74,35.921,43.909,37.091,43.909,38.534L43.909,39.34L43.909,46.823C43.909,48.266,42.74,49.436,41.297,49.436C39.854,49.436,38.684,48.266,38.684,46.823L38.684,45.111L38.553,45.205C34.726,47.794,30.201,49.289,25.435,49.426L24.718,49.436C11.067,49.436,0,38.369,0,24.718C0,23.68,0.064,22.65,0.191,21.632C0.37,20.2,1.675,19.184,3.107,19.362L2.84,19.343ZM24.718,0C38.369,0,49.436,11.067,49.436,24.718C49.436,25.756,49.372,26.786,49.244,27.805C49.066,29.236,47.76,30.252,46.328,30.073C44.897,29.895,43.881,28.589,44.06,27.157C44.16,26.354,44.211,25.54,44.211,24.718C44.211,13.952,35.483,5.225,24.718,5.225C21.115,5.225,17.675,6.207,14.704,7.989L14.218,8.29L15.875,8.29C17.228,8.29,18.34,9.318,18.474,10.635L18.488,10.902C18.488,12.345,17.318,13.515,15.875,13.515L7.586,13.514C6.143,13.514,4.973,12.345,4.973,10.902L4.973,10.748L4.973,2.613C4.973,1.17,6.143,0,7.586,0C9.028,0,10.198,1.17,10.198,2.613L10.197,4.713L10.737,4.33C14.588,1.685,19.164,0.151,23.992,0.011L24.718,0ZM24.718,0"/>
</g>
  <g id="Thin-S" transform="matrix(1.0,0.0,0.0,1.0,832.9921911227319,636.1510818894909)">  <path stroke-width="1px" stroke-miterlimit="4" stroke-dasharray="none" stroke-linejoin="miter" fill="#000000" stroke-opacity="1" stroke-linecap="butt" stroke="none" fill-rule="nonzero" fill-opacity="1" d="M2.84,19.343L3.107,19.362C4.538,19.541,5.554,20.846,5.376,22.278C5.276,23.083,5.225,23.897,5.225,24.718C5.225,35.484,13.952,44.211,24.718,44.211C28.425,44.211,31.961,43.172,34.994,41.287L35.21,41.146L33.007,41.146C31.655,41.146,30.542,40.118,30.408,38.801L30.395,38.534C30.395,37.091,31.565,35.921,33.007,35.921L41.297,35.921C42.74,35.921,43.909,37.091,43.909,38.534L43.909,39.34L43.909,46.823C43.909,48.266,42.74,49.436,41.297,49.436C39.854,49.436,38.684,48.266,38.684,46.823L38.684,45.111L38.553,45.205C34.726,47.794,30.201,49.289,25.435,49.426L24.718,49.436C11.067,49.436,0,38.369,0,24.718C0,23.68,0.064,22.65,0.191,21.632C0.37,20.2,1.675,19.184,3.107,19.362L2.84,19.343ZM24.718,0C38.369,0,49.436,11.067,49.436,24.718C49.436,25.756,49.372,26.786,49.244,27.805C49.066,29.236,47.76,30.252,46.328,30.073C44.897,29.895,43.881,28.589,44.06,27.157C44.16,26.354,44.211,25.54,44.211,24.718C44.211,13.952,35.483,5.225,24.718,5.225C21.115,5.225,17.675,6.207,14.704,7.989L14.218,8.29L15.875,8.29C17.228,8.29,18.34,9.318,18.474,10.635L18.488,10.902C18.488,12.345,17.318,13.515,15.875,13.515L7.586,13.514C6.143,13.514,4.973,12.345,4.973,10.902L4.973,10.748L4.973,2.613C4.973,1.17,6.143,0,7.586,0C9.028,0,10.198,1.17,10.198,2.613L10.197,4.713L10.737,4.33C14.588,1.685,19.164,0.151,23.992,0.011L24.718,0ZM24.718,0"/>
</g>
  <g id="Ultralight-S" transform="matrix(1.0,0.0,0.0,1.0,536.2821911227319,636.1510818894909)">  <path stroke-linecap="butt" stroke="none" fill="#000000" stroke-opacity="1" stroke-dasharray="none" stroke-linejoin="miter" fill-opacity="1" stroke-miterlimit="4" fill-rule="nonzero" stroke-width="1px" d="M2.84,19.343L3.107,19.362C4.538,19.541,5.554,20.846,5.376,22.278C5.276,23.083,5.225,23.897,5.225,24.718C5.225,35.484,13.952,44.211,24.718,44.211C28.425,44.211,31.961,43.172,34.994,41.287L35.21,41.146L33.007,41.146C31.655,41.146,30.542,40.118,30.408,38.801L30.395,38.534C30.395,37.091,31.565,35.921,33.007,35.921L41.297,35.921C42.74,35.921,43.909,37.091,43.909,38.534L43.909,39.34L43.909,46.823C43.909,48.266,42.74,49.436,41.297,49.436C39.854,49.436,38.684,48.266,38.684,46.823L38.684,45.111L38.553,45.205C34.726,47.794,30.201,49.289,25.435,49.426L24.718,49.436C11.067,49.436,0,38.369,0,24.718C0,23.68,0.064,22.65,0.191,21.632C0.37,20.2,1.675,19.184,3.107,19.362L2.84,19.343ZM24.718,0C38.369,0,49.436,11.067,49.436,24.718C49.436,25.756,49.372,26.786,49.244,27.805C49.066,29.236,47.76,30.252,46.328,30.073C44.897,29.895,43.881,28.589,44.06,27.157C44.16,26.354,44.211,25.54,44.211,24.718C44.211,13.952,35.483,5.225,24.718,5.225C21.115,5.225,17.675,6.207,14.704,7.989L14.218,8.29L15.875,8.29C17.228,8.29,18.34,9.318,18.474,10.635L18.488,10.902C18.488,12.345,17.318,13.515,15.875,13.515L7.586,13.514C6.143,13.514,4.973,12.345,4.973,10.902L4.973,10.748L4.973,2.613C4.973,1.17,6.143,0,7.586,0C9.028,0,10.198,1.17,10.198,2.613L10.197,4.713L10.737,4.33C14.588,1.685,19.164,0.151,23.992,0.011L24.718,0ZM24.718,0"/>
</g>
 </g>
</svg>
