<?xml version="1.0" encoding="UTF-8"?>
<!-- Generator: CustomSymbols v2.6.7.45 by @serious_bret https://bretlester.com/app_content/CustomSymbols/ -->
<!-- Guides: Left/Right -0.05400000000000003/-0.05599999999999998 Cap/Base -0.06/-0.05599999999999998 -->
<!-- Settings: RefScale 0.0 Min/Max Stroke Scales 0.5/0.3 -->
<!DOCTYPE svg
PUBLIC "-//W3C//DTD SVG 1.1//EN"
       "http://www.w3.org/Graphics/SVG/1.1/DTD/svg11.dtd">
<svg version="1.1" xmlns="http://www.w3.org/2000/svg" xmlns:xlink="http://www.w3.org/1999/xlink" width="3300" height="2200">
<![CDATA[<svg xmlns="http://www.w3.org/2000/svg" width="18.285" height="22.85" viewBox="0 0 18.285 22.85"><path fill="#BBB" d="M15.3135474,7.28518643 C13.5520971,5.72964173 12.5515805,3.48681703 12.5708225,1.13691142 C12.5686609,0.717666076 12.3371076,0.333262952 11.9675109,0.135349867 C11.5979142,-0.0625632178 11.1496192,-0.042207857 10.7994793,0.188385718 C7.94471288,1.88676024 5.88738673,4.65592124 5.08546911,7.87944349 C4.85468951,7.47506506 4.68159298,7.04040044 4.57120819,6.58807718 C4.48449237,6.15924982 4.16055904,5.81756672 3.73696269,5.7081196 C3.33250932,5.58456488 2.89288787,5.69447024 2.59416065,5.99382011 C1.14280205,7.51374684 0,11.4221298 0,13.7077339 C0,19.5131683 3.33698198,22.8501503 9.14241637,22.8501503 C14.9478508,22.8501503 18.2848327,19.4217442 18.2848327,13.7077339 C18.2848327,10.5307442 16.7077659,8.80511315 15.3135474,7.28518643 Z"/></svg>]]>
 <g id="Notes">
  <rect height="2200" id="artboard" style="fill:white;opacity:1" width="3300" x="0" y="0"/>
  <line id="" style="fill:none;stroke:black;opacity:1;stroke-width:0.5;" x1="263" x2="3036" y1="292" y2="292"/>
  <text id="reftext1" style="stroke:none;fill:black;font-family:-apple-system,&quot;SF Pro Display&quot;,&quot;SF Pro Text&quot;,Helvetica,sans-serif;font-weight:bold;" transform="matrix(1 0 0 1 263 322)">Weight/Scale Variations</text>
  <text id="reftext2" style="stroke:none;fill:black;font-family:-apple-system,&quot;SF Pro Display&quot;,&quot;SF Pro Text&quot;,Helvetica,sans-serif;text-anchor:middle;" transform="matrix(1 0 0 1 559.711 322)">Ultralight</text>
  <text style="stroke:none;fill:black;font-family:-apple-system,&quot;SF Pro Display&quot;,&quot;SF Pro Text&quot;,Helvetica,sans-serif;text-anchor:middle;" transform="matrix(1 0 0 1 856.422 322)">Thin</text>
  <text style="stroke:none;fill:black;font-family:-apple-system,&quot;SF Pro Display&quot;,&quot;SF Pro Text&quot;,Helvetica,sans-serif;text-anchor:middle;" transform="matrix(1 0 0 1 1153.13 322)">Light</text>
  <text style="stroke:none;fill:black;font-family:-apple-system,&quot;SF Pro Display&quot;,&quot;SF Pro Text&quot;,Helvetica,sans-serif;text-anchor:middle;" transform="matrix(1 0 0 1 1449.84 322)">Regular</text>
  <text style="stroke:none;fill:black;font-family:-apple-system,&quot;SF Pro Display&quot;,&quot;SF Pro Text&quot;,Helvetica,sans-serif;text-anchor:middle;" transform="matrix(1 0 0 1 1746.56 322)">Medium</text>
  <text style="stroke:none;fill:black;font-family:-apple-system,&quot;SF Pro Display&quot;,&quot;SF Pro Text&quot;,Helvetica,sans-serif;text-anchor:middle;" transform="matrix(1 0 0 1 2043.27 322)">Semibold</text>
  <text style="stroke:none;fill:black;font-family:-apple-system,&quot;SF Pro Display&quot;,&quot;SF Pro Text&quot;,Helvetica,sans-serif;text-anchor:middle;" transform="matrix(1 0 0 1 2339.98 322)">Bold</text>
  <text style="stroke:none;fill:black;font-family:-apple-system,&quot;SF Pro Display&quot;,&quot;SF Pro Text&quot;,Helvetica,sans-serif;text-anchor:middle;" transform="matrix(1 0 0 1 2636.69 322)">Heavy</text>
  <text style="stroke:none;fill:black;font-family:-apple-system,&quot;SF Pro Display&quot;,&quot;SF Pro Text&quot;,Helvetica,sans-serif;text-anchor:middle;" transform="matrix(1 0 0 1 2933.4 322)">Black</text>
  <line id="" style="fill:none;stroke:black;opacity:1;stroke-width:0.5;" x1="263" x2="3036" y1="1903" y2="1903"/>
  <g id="" transform="matrix(1 0 0 1 263 1933)">
   <path d="M9.24805 0.830078C13.5547 0.830078 17.1387-2.74414 17.1387-7.05078C17.1387-11.3574 13.5449-14.9316 9.23828-14.9316C4.94141-14.9316 1.36719-11.3574 1.36719-7.05078C1.36719-2.74414 4.95117 0.830078 9.24805 0.830078ZM9.24805-0.654297C5.70312-0.654297 2.87109-3.49609 2.87109-7.05078C2.87109-10.6055 5.69336-13.4473 9.23828-13.4473C12.793-13.4473 15.6348-10.6055 15.6445-7.05078C15.6543-3.49609 12.8027-0.654297 9.24805-0.654297ZM6.39648-6.31836L8.50586-6.31836L8.50586-4.19922C8.50586-3.75977 8.79883-3.45703 9.22852-3.45703C9.67773-3.45703 9.9707-3.75977 9.9707-4.19922L9.9707-6.31836L12.0996-6.31836C12.5391-6.31836 12.8418-6.61133 12.8418-7.04102C12.8418-7.48047 12.5391-7.7832 12.0996-7.7832L9.9707-7.7832L9.9707-9.89258C9.9707-10.3418 9.67773-10.6445 9.22852-10.6445C8.79883-10.6445 8.50586-10.3418 8.50586-9.89258L8.50586-7.7832L6.39648-7.7832C5.94727-7.7832 5.64453-7.48047 5.64453-7.04102C5.64453-6.61133 5.94727-6.31836 6.39648-6.31836Z"/>
  </g>
  <g id="" transform="matrix(1 0 0 1 281.506 1933)">
   <path d="M11.709 2.91016C17.1582 2.91016 21.6699-1.61133 21.6699-7.05078C21.6699-12.5 17.1484-17.0117 11.6992-17.0117C6.25977-17.0117 1.74805-12.5 1.74805-7.05078C1.74805-1.61133 6.26953 2.91016 11.709 2.91016ZM11.709 1.25C7.09961 1.25 3.41797-2.44141 3.41797-7.05078C3.41797-11.6602 7.08984-15.3516 11.6992-15.3516C16.3086-15.3516 20-11.6602 20.0098-7.05078C20.0195-2.44141 16.3184 1.25 11.709 1.25ZM7.98828-6.23047L10.8789-6.23047L10.8789-3.32031C10.8789-2.83203 11.2109-2.5 11.6895-2.5C12.1777-2.5 12.5195-2.83203 12.5195-3.32031L12.5195-6.23047L15.4297-6.23047C15.918-6.23047 16.25-6.5625 16.25-7.04102C16.25-7.5293 15.918-7.87109 15.4297-7.87109L12.5195-7.87109L12.5195-10.7617C12.5195-11.2695 12.1777-11.6016 11.6895-11.6016C11.2109-11.6016 10.8789-11.2598 10.8789-10.7617L10.8789-7.87109L7.98828-7.87109C7.48047-7.87109 7.14844-7.5293 7.14844-7.04102C7.14844-6.5625 7.49023-6.23047 7.98828-6.23047Z"/>
  </g>
  <g id="" transform="matrix(1 0 0 1 304.924 1933)">
   <path d="M14.9707 5.66406C21.9336 5.66406 27.6953-0.0976562 27.6953-7.05078C27.6953-14.0137 21.9238-19.7754 14.9609-19.7754C8.00781-19.7754 2.25586-14.0137 2.25586-7.05078C2.25586-0.0976562 8.01758 5.66406 14.9707 5.66406ZM14.9707 3.84766C8.93555 3.84766 4.08203-1.01562 4.08203-7.05078C4.08203-13.0957 8.92578-17.9492 14.9609-17.9492C21.0059-17.9492 25.8594-13.0957 25.8691-7.05078C25.8789-1.01562 21.0156 3.84766 14.9707 3.84766ZM10.0586-6.14258L14.0625-6.14258L14.0625-2.12891C14.0625-1.5918 14.4336-1.2207 14.9512-1.2207C15.4883-1.2207 15.8594-1.5918 15.8594-2.12891L15.8594-6.14258L19.8828-6.14258C20.4102-6.14258 20.791-6.51367 20.791-7.03125C20.791-7.56836 20.4199-7.94922 19.8828-7.94922L15.8594-7.94922L15.8594-11.9531C15.8594-12.5098 15.4883-12.8809 14.9512-12.8809C14.4336-12.8809 14.0625-12.5 14.0625-11.9531L14.0625-7.94922L10.0586-7.94922C9.50195-7.94922 9.13086-7.56836 9.13086-7.03125C9.13086-6.51367 9.51172-6.14258 10.0586-6.14258Z"/>
  </g>
  <text style="stroke:none;fill:black;font-family:-apple-system,&quot;SF Pro Display&quot;,&quot;SF Pro Text&quot;,Helvetica,sans-serif;font-weight:bold;" transform="matrix(1 0 0 1 263 1953)">Design Variations</text>
  <text style="stroke:none;fill:black;font-family:-apple-system,&quot;SF Pro Display&quot;,&quot;SF Pro Text&quot;,Helvetica,sans-serif;" transform="matrix(1 0 0 1 263 1971)">Symbols are supported in up to nine weights and three scales.</text>
  <text style="stroke:none;fill:black;font-family:-apple-system,&quot;SF Pro Display&quot;,&quot;SF Pro Text&quot;,Helvetica,sans-serif;" transform="matrix(1 0 0 1 263 1989)">For optimal layout with text and other symbols, vertically align</text>
  <text style="stroke:none;fill:black;font-family:-apple-system,&quot;SF Pro Display&quot;,&quot;SF Pro Text&quot;,Helvetica,sans-serif;" transform="matrix(1 0 0 1 263 2007)">symbols with the adjacent text.</text>
  <line id="" style="fill:none;stroke:#00AEEF;stroke-width:0.5;opacity:1.0;" x1="776" x2="776" y1="1919" y2="1933"/>
  <g id="" transform="matrix(1 0 0 1 776 1933)">
   <path d="M3.31055 0.126953C3.82812 0.126953 4.08203-0.0683594 4.26758-0.605469L5.52734-4.0625L11.2891-4.0625L12.5488-0.605469C12.7344-0.0683594 12.9883 0.126953 13.4961 0.126953C14.0137 0.126953 14.3457-0.185547 14.3457-0.673828C14.3457-0.839844 14.3164-0.986328 14.2383-1.20117L9.6582-13.3887C9.43359-13.9941 9.0332-14.2871 8.4082-14.2871C7.80273-14.2871 7.39258-13.9941 7.17773-13.3984L2.59766-1.19141C2.51953-0.976562 2.49023-0.830078 2.49023-0.664062C2.49023-0.175781 2.80273 0.126953 3.31055 0.126953ZM6.00586-5.53711L8.37891-12.1094L8.42773-12.1094L10.8008-5.53711Z"/>
  </g>
  <line id="" style="fill:none;stroke:#00AEEF;stroke-width:0.5;opacity:1.0;" x1="792.836" x2="792.836" y1="1919" y2="1933"/>
  <text style="stroke:none;fill:black;font-family:-apple-system,&quot;SF Pro Display&quot;,&quot;SF Pro Text&quot;,Helvetica,sans-serif;font-weight:bold;" transform="matrix(1 0 0 1 776 1953)">Margins</text>
  <text style="stroke:none;fill:black;font-family:-apple-system,&quot;SF Pro Display&quot;,&quot;SF Pro Text&quot;,Helvetica,sans-serif;" transform="matrix(1 0 0 1 776 1971)">Leading and trailing margins on the left and right side of each symbol</text>
  <text style="stroke:none;fill:black;font-family:-apple-system,&quot;SF Pro Display&quot;,&quot;SF Pro Text&quot;,Helvetica,sans-serif;" transform="matrix(1 0 0 1 776 1989)">can be adjusted by modifying the x-location of the margin guidelines.</text>
  <text style="stroke:none;fill:black;font-family:-apple-system,&quot;SF Pro Display&quot;,&quot;SF Pro Text&quot;,Helvetica,sans-serif;" transform="matrix(1 0 0 1 776 2007)">Modifications are automatically applied proportionally to all</text>
  <text style="stroke:none;fill:black;font-family:-apple-system,&quot;SF Pro Display&quot;,&quot;SF Pro Text&quot;,Helvetica,sans-serif;" transform="matrix(1 0 0 1 776 2025)">scales and weights.</text>
  <g id="" transform="matrix(1 0 0 1 1289 1933)">
   <path d="M2.8418 1.86523L4.54102 3.57422C5.40039 4.44336 6.38672 4.38477 7.31445 3.35938L17.4902-7.85156C17.7539-7.76367 18.0273-7.7832 18.3398-7.8418L19.4043-8.03711L20.0684-7.36328L20.0293-6.80664C19.9902-6.30859 20.1172-5.92773 20.6055-5.44922L21.3672-4.70703C21.8457-4.22852 22.4609-4.19922 22.9297-4.66797L25.8398-7.58789C26.3086-8.05664 26.2891-8.65234 25.8105-9.13086L25.0391-9.89258C24.5605-10.3711 24.1895-10.5273 23.7109-10.4883L23.1348-10.4395L22.4902-11.0742L22.7344-12.1973C22.8613-12.7637 22.7051-13.2031 22.1191-13.7891L19.9219-15.9766C16.582-19.2969 12.1484-19.2188 9.25781-16.3281C8.83789-15.918 8.80859-15.3418 9.04297-14.9512C9.27734-14.5898 9.73633-14.3555 10.3809-14.5215C11.8457-14.8633 13.3691-14.9219 14.7949-13.9844L14.209-12.5293C14.0137-12.0508 13.9844-11.6504 14.1113-11.2891L3.04688-0.898438C2.06055 0.0195312 1.98242 0.996094 2.8418 1.86523ZM10.752-15.957C13.1836-17.7344 16.4746-17.4316 18.7012-15.2051L21.1328-12.793C21.3672-12.5586 21.4062-12.373 21.3379-12.0312L21.0156-10.5469L22.5195-9.0625L23.5059-9.12109C23.7598-9.13086 23.8379-9.11133 24.0332-8.91602L24.6094-8.33984L22.168-5.89844L21.5918-6.47461C21.3965-6.66992 21.3672-6.74805 21.377-7.01172L21.4453-7.98828L19.9512-9.47266L18.4277-9.21875C18.1055-9.15039 17.959-9.17969 17.7148-9.41406L15.7129-11.416C15.459-11.6504 15.4297-11.8164 15.5859-12.1875L16.4648-14.2773C14.9023-15.7324 12.8711-16.3574 10.8398-15.7617C10.6836-15.7227 10.625-15.8496 10.752-15.957ZM5.27344 2.30469L4.10156 1.14258C3.63281 0.683594 3.74023 0.341797 4.14062-0.0195312L14.9512-10.1953L16.416-8.71094L6.42578 2.27539C6.07422 2.67578 5.74219 2.77344 5.27344 2.30469Z"/>
  </g>
  <text style="stroke:none;fill:black;font-family:-apple-system,&quot;SF Pro Display&quot;,&quot;SF Pro Text&quot;,Helvetica,sans-serif;font-weight:bold;" transform="matrix(1 0 0 1 1289 1953)">Exporting</text>
  <text style="stroke:none;fill:black;font-family:-apple-system,&quot;SF Pro Display&quot;,&quot;SF Pro Text&quot;,Helvetica,sans-serif;" transform="matrix(1 0 0 1 1289 1971)">Symbols should be outlined when exporting to ensure the</text>
  <text style="stroke:none;fill:black;font-family:-apple-system,&quot;SF Pro Display&quot;,&quot;SF Pro Text&quot;,Helvetica,sans-serif;" transform="matrix(1 0 0 1 1289 1989)">design is preserved when submitting to Xcode.</text>
  <text id="template-version" style="stroke:none;fill:black;font-family:-apple-system,&quot;SF Pro Display&quot;,&quot;SF Pro Text&quot;,Helvetica,sans-serif;text-anchor:end;" transform="matrix(1 0 0 1 3036 1933)">Template v.2.0</text>
  <text style="stroke:none;fill:black;font-family:-apple-system,&quot;SF Pro Display&quot;,&quot;SF Pro Text&quot;,Helvetica,sans-serif;text-anchor:end;" transform="matrix(1 0 0 1 3036 1951)">Requires Xcode 12 or greater</text>
  <text style="stroke:none;fill:black;font-family:-apple-system,&quot;SF Pro Display&quot;,&quot;SF Pro Text&quot;,Helvetica,sans-serif;" transform="matrix(1 0 0 1 263 726)">Small</text>
  <text style="stroke:none;fill:black;font-family:-apple-system,&quot;SF Pro Display&quot;,&quot;SF Pro Text&quot;,Helvetica,sans-serif;" transform="matrix(1 0 0 1 263 1156)">Medium</text>
  <text style="stroke:none;fill:black;font-family:-apple-system,&quot;SF Pro Display&quot;,&quot;SF Pro Text&quot;,Helvetica,sans-serif;" transform="matrix(1 0 0 1 263 1586)">Large</text>
 </g>
 <g id="Guides">
  <g id="H-reference" style="fill:#27AAE1;stroke:none;" transform="matrix(1 0 0 1 339 696)">
   <path d="M0.976562 0L3.66211 0L12.9883-24.4629L45.752-24.4629L55.127 0L57.7637 0L30.6152-70.459L28.125-70.459ZM29.3457-67.1387L29.4434-67.1387L44.873-26.709L13.8672-26.709Z"/>
  </g>
  <line id="Baseline-S" style="fill:none;stroke:#27AAE1;opacity:1;stroke-width:0.5;" x1="263" x2="3036" y1="696" y2="696"/>
  <line id="Capline-S" style="fill:none;stroke:#27AAE1;opacity:1;stroke-width:0.5;" x1="263" x2="3036" y1="625.541" y2="625.541"/>
  <g id="H-reference" style="fill:#27AAE1;stroke:none;" transform="matrix(1 0 0 1 339 1126)">
   <path d="M0.976562 0L3.66211 0L12.9883-24.4629L45.752-24.4629L55.127 0L57.7637 0L30.6152-70.459L28.125-70.459ZM29.3457-67.1387L29.4434-67.1387L44.873-26.709L13.8672-26.709Z"/>
  </g>
  <line id="Baseline-M" style="fill:none;stroke:#27AAE1;opacity:1;stroke-width:0.5;" x1="263" x2="3036" y1="1126" y2="1126"/>
  <line id="Capline-M" style="fill:none;stroke:#27AAE1;opacity:1;stroke-width:0.5;" x1="263" x2="3036" y1="1055.54" y2="1055.54"/>
  <g id="H-reference" style="fill:#27AAE1;stroke:none;" transform="matrix(1 0 0 1 339 1556)">
   <path d="M0.976562 0L3.66211 0L12.9883-24.4629L45.752-24.4629L55.127 0L57.7637 0L30.6152-70.459L28.125-70.459ZM29.3457-67.1387L29.4434-67.1387L44.873-26.709L13.8672-26.709Z"/>
  </g>
  <line id="Baseline-L" style="fill:none;stroke:#27AAE1;opacity:1;stroke-width:0.5;" x1="263" x2="3036" y1="1556" y2="1556"/>
  <line id="Capline-L" style="fill:none;stroke:#27AAE1;opacity:1;stroke-width:0.5;" x1="263" x2="3036" y1="1485.54" y2="1485.54"/>
  <line id="left-margin" x1="1423.140397649421" x2="1423.140397649421" y1="1030.79" y2="1150.12" style="fill:none;stroke:#00AEEF;stroke-width:0.5;opacity:1.0;"/>
  <line id="right-margin" x1="1479.2206478464293" x2="1479.2206478464293" y1="1030.79" y2="1150.12" style="fill:none;stroke:#00AEEF;stroke-width:0.5;opacity:1.0;"/>
 </g>
 <g id="Symbols">
  <g id="Black-L" transform="matrix(1.0,0.0,0.0,1.0,2902.0928275882247,1480.210083952873)">  <path fill="#000000" stroke-dasharray="none" stroke-width="1px" stroke-opacity="1" stroke="none" stroke-linecap="butt" fill-opacity="1" fill-rule="nonzero" stroke-miterlimit="4" stroke-linejoin="miter" d="M54.583,25.967C48.305,20.423,44.738,12.428,44.807,4.052C44.799,2.558,43.974,1.188,42.657,0.482C41.339,-0.223,39.741,-0.15,38.493,0.671C28.318,6.725,20.985,16.595,18.126,28.085C17.304,26.644,16.687,25.095,16.293,23.482C15.984,21.954,14.83,20.736,13.32,20.346C11.878,19.905,10.311,20.297,9.247,21.364C4.073,26.782,0,40.713,0,48.859C0,69.552,11.894,81.446,32.587,81.446C53.28,81.446,65.174,69.226,65.174,48.859C65.174,37.535,59.553,31.385,54.583,25.967ZM54.583,25.967"/>
</g>
  <g id="Heavy-L" transform="matrix(1.0,0.0,0.0,1.0,2605.3828275882247,1480.210083952873)">  <path stroke-linecap="butt" stroke-linejoin="miter" stroke-opacity="1" stroke-dasharray="none" stroke-width="1px" stroke="none" fill-rule="nonzero" fill="#000000" stroke-miterlimit="4" fill-opacity="1" d="M54.583,25.967C48.305,20.423,44.738,12.428,44.807,4.052C44.799,2.558,43.974,1.188,42.657,0.482C41.339,-0.223,39.741,-0.15,38.493,0.671C28.318,6.725,20.985,16.595,18.126,28.085C17.304,26.644,16.687,25.095,16.293,23.482C15.984,21.954,14.83,20.736,13.32,20.346C11.878,19.905,10.311,20.297,9.247,21.364C4.073,26.782,0,40.713,0,48.859C0,69.552,11.894,81.446,32.587,81.446C53.28,81.446,65.174,69.226,65.174,48.859C65.174,37.535,59.553,31.385,54.583,25.967ZM54.583,25.967"/>
</g>
  <g id="Bold-L" transform="matrix(1.0,0.0,0.0,1.0,2308.6728275882247,1480.210083952873)">  <path stroke-miterlimit="4" stroke-linecap="butt" stroke="none" fill-rule="nonzero" stroke-dasharray="none" stroke-opacity="1" stroke-width="1px" fill-opacity="1" fill="#000000" stroke-linejoin="miter" d="M54.583,25.967C48.305,20.423,44.738,12.428,44.807,4.052C44.799,2.558,43.974,1.188,42.657,0.482C41.339,-0.223,39.741,-0.15,38.493,0.671C28.318,6.725,20.985,16.595,18.126,28.085C17.304,26.644,16.687,25.095,16.293,23.482C15.984,21.954,14.83,20.736,13.32,20.346C11.878,19.905,10.311,20.297,9.247,21.364C4.073,26.782,0,40.713,0,48.859C0,69.552,11.894,81.446,32.587,81.446C53.28,81.446,65.174,69.226,65.174,48.859C65.174,37.535,59.553,31.385,54.583,25.967ZM54.583,25.967"/>
</g>
  <g id="Semibold-L" transform="matrix(1.0,0.0,0.0,1.0,2011.9628275882249,1480.210083952873)">  <path stroke-opacity="1" stroke="none" stroke-linecap="butt" fill="#000000" stroke-width="1px" stroke-miterlimit="4" stroke-linejoin="miter" stroke-dasharray="none" fill-rule="nonzero" fill-opacity="1" d="M54.583,25.967C48.305,20.423,44.738,12.428,44.807,4.052C44.799,2.558,43.974,1.188,42.657,0.482C41.339,-0.223,39.741,-0.15,38.493,0.671C28.318,6.725,20.985,16.595,18.126,28.085C17.304,26.644,16.687,25.095,16.293,23.482C15.984,21.954,14.83,20.736,13.32,20.346C11.878,19.905,10.311,20.297,9.247,21.364C4.073,26.782,0,40.713,0,48.859C0,69.552,11.894,81.446,32.587,81.446C53.28,81.446,65.174,69.226,65.174,48.859C65.174,37.535,59.553,31.385,54.583,25.967ZM54.583,25.967"/>
</g>
  <g id="Medium-L" transform="matrix(1.0,0.0,0.0,1.0,1715.2528275882248,1480.210083952873)">  <path stroke-opacity="1" stroke-width="1px" fill-opacity="1" stroke-dasharray="none" stroke-linejoin="miter" stroke-linecap="butt" stroke="none" fill="#000000" stroke-miterlimit="4" fill-rule="nonzero" d="M54.583,25.967C48.305,20.423,44.738,12.428,44.807,4.052C44.799,2.558,43.974,1.188,42.657,0.482C41.339,-0.223,39.741,-0.15,38.493,0.671C28.318,6.725,20.985,16.595,18.126,28.085C17.304,26.644,16.687,25.095,16.293,23.482C15.984,21.954,14.83,20.736,13.32,20.346C11.878,19.905,10.311,20.297,9.247,21.364C4.073,26.782,0,40.713,0,48.859C0,69.552,11.894,81.446,32.587,81.446C53.28,81.446,65.174,69.226,65.174,48.859C65.174,37.535,59.553,31.385,54.583,25.967ZM54.583,25.967"/>
</g>
  <g id="Regular-L" transform="matrix(1.0,0.0,0.0,1.0,1418.5428275882248,1480.210083952873)">  <path fill-rule="nonzero" stroke-linejoin="miter" stroke-opacity="1" stroke-miterlimit="4" stroke-linecap="butt" fill="#000000" stroke="none" fill-opacity="1" stroke-dasharray="none" stroke-width="1px" d="M54.583,25.967C48.305,20.423,44.738,12.428,44.807,4.052C44.799,2.558,43.974,1.188,42.657,0.482C41.339,-0.223,39.741,-0.15,38.493,0.671C28.318,6.725,20.985,16.595,18.126,28.085C17.304,26.644,16.687,25.095,16.293,23.482C15.984,21.954,14.83,20.736,13.32,20.346C11.878,19.905,10.311,20.297,9.247,21.364C4.073,26.782,0,40.713,0,48.859C0,69.552,11.894,81.446,32.587,81.446C53.28,81.446,65.174,69.226,65.174,48.859C65.174,37.535,59.553,31.385,54.583,25.967ZM54.583,25.967"/>
</g>
  <g id="Light-L" transform="matrix(1.0,0.0,0.0,1.0,1121.832827588225,1480.210083952873)">  <path stroke-opacity="1" stroke-dasharray="none" stroke="none" stroke-linecap="butt" fill-rule="nonzero" fill="#000000" stroke-width="1px" fill-opacity="1" stroke-miterlimit="4" stroke-linejoin="miter" d="M54.583,25.967C48.305,20.423,44.738,12.428,44.807,4.052C44.799,2.558,43.974,1.188,42.657,0.482C41.339,-0.223,39.741,-0.15,38.493,0.671C28.318,6.725,20.985,16.595,18.126,28.085C17.304,26.644,16.687,25.095,16.293,23.482C15.984,21.954,14.83,20.736,13.32,20.346C11.878,19.905,10.311,20.297,9.247,21.364C4.073,26.782,0,40.713,0,48.859C0,69.552,11.894,81.446,32.587,81.446C53.28,81.446,65.174,69.226,65.174,48.859C65.174,37.535,59.553,31.385,54.583,25.967ZM54.583,25.967"/>
</g>
  <g id="Thin-L" transform="matrix(1.0,0.0,0.0,1.0,825.1228275882249,1480.210083952873)">  <path stroke-dasharray="none" stroke="none" stroke-linecap="butt" stroke-miterlimit="4" stroke-width="1px" fill-rule="nonzero" fill-opacity="1" fill="#000000" stroke-opacity="1" stroke-linejoin="miter" d="M54.583,25.967C48.305,20.423,44.738,12.428,44.807,4.052C44.799,2.558,43.974,1.188,42.657,0.482C41.339,-0.223,39.741,-0.15,38.493,0.671C28.318,6.725,20.985,16.595,18.126,28.085C17.304,26.644,16.687,25.095,16.293,23.482C15.984,21.954,14.83,20.736,13.32,20.346C11.878,19.905,10.311,20.297,9.247,21.364C4.073,26.782,0,40.713,0,48.859C0,69.552,11.894,81.446,32.587,81.446C53.28,81.446,65.174,69.226,65.174,48.859C65.174,37.535,59.553,31.385,54.583,25.967ZM54.583,25.967"/>
</g>
  <g id="Ultralight-L" transform="matrix(1.0,0.0,0.0,1.0,528.4128275882249,1480.210083952873)">  <path fill-rule="nonzero" fill-opacity="1" stroke-opacity="1" stroke="none" stroke-linejoin="miter" stroke-miterlimit="4" stroke-width="1px" fill="#000000" stroke-dasharray="none" stroke-linecap="butt" d="M54.583,25.967C48.305,20.423,44.738,12.428,44.807,4.052C44.799,2.558,43.974,1.188,42.657,0.482C41.339,-0.223,39.741,-0.15,38.493,0.671C28.318,6.725,20.985,16.595,18.126,28.085C17.304,26.644,16.687,25.095,16.293,23.482C15.984,21.954,14.83,20.736,13.32,20.346C11.878,19.905,10.311,20.297,9.247,21.364C4.073,26.782,0,40.713,0,48.859C0,69.552,11.894,81.446,32.587,81.446C53.28,81.446,65.174,69.226,65.174,48.859C65.174,37.535,59.553,31.385,54.583,25.967ZM54.583,25.967"/>
</g>
  <g id="Black-M" transform="matrix(1.0,0.0,0.0,1.0,2909.4186260373835,1059.3282090053763)">  <path fill="#000000" stroke-dasharray="none" stroke-width="1px" stroke-opacity="1" stroke="none" stroke-linecap="butt" fill-opacity="1" fill-rule="nonzero" stroke-miterlimit="4" stroke-linejoin="miter" d="M42.312,20.129C37.445,15.831,34.681,9.634,34.734,3.141C34.728,1.983,34.088,0.921,33.067,0.374C32.046,-0.173,30.807,-0.117,29.84,0.521C21.952,5.213,16.267,12.865,14.052,21.771C13.414,20.654,12.936,19.453,12.631,18.203C12.391,17.018,11.496,16.074,10.325,15.772C9.208,15.431,7.993,15.734,7.168,16.561C3.158,20.761,0,31.56,0,37.875C0,53.916,9.22,63.137,25.261,63.137C41.302,63.137,50.522,53.664,50.522,37.875C50.522,29.097,46.165,24.329,42.312,20.129ZM42.312,20.129"/>
</g>
  <g id="Heavy-M" transform="matrix(1.0,0.0,0.0,1.0,2612.7086260373835,1059.3282090053763)">  <path stroke-linecap="butt" stroke-linejoin="miter" stroke-opacity="1" stroke-dasharray="none" stroke-width="1px" stroke="none" fill-rule="nonzero" fill="#000000" stroke-miterlimit="4" fill-opacity="1" d="M42.312,20.129C37.445,15.831,34.681,9.634,34.734,3.141C34.728,1.983,34.088,0.921,33.067,0.374C32.046,-0.173,30.807,-0.117,29.84,0.521C21.952,5.213,16.267,12.865,14.052,21.771C13.414,20.654,12.936,19.453,12.631,18.203C12.391,17.018,11.496,16.074,10.325,15.772C9.208,15.431,7.993,15.734,7.168,16.561C3.158,20.761,0,31.56,0,37.875C0,53.916,9.22,63.137,25.261,63.137C41.302,63.137,50.522,53.664,50.522,37.875C50.522,29.097,46.165,24.329,42.312,20.129ZM42.312,20.129"/>
</g>
  <g id="Bold-M" transform="matrix(1.0,0.0,0.0,1.0,2315.9986260373835,1059.3282090053763)">  <path stroke-miterlimit="4" stroke-linecap="butt" stroke="none" fill-rule="nonzero" stroke-dasharray="none" stroke-opacity="1" stroke-width="1px" fill-opacity="1" fill="#000000" stroke-linejoin="miter" d="M42.312,20.129C37.445,15.831,34.681,9.634,34.734,3.141C34.728,1.983,34.088,0.921,33.067,0.374C32.046,-0.173,30.807,-0.117,29.84,0.521C21.952,5.213,16.267,12.865,14.052,21.771C13.414,20.654,12.936,19.453,12.631,18.203C12.391,17.018,11.496,16.074,10.325,15.772C9.208,15.431,7.993,15.734,7.168,16.561C3.158,20.761,0,31.56,0,37.875C0,53.916,9.22,63.137,25.261,63.137C41.302,63.137,50.522,53.664,50.522,37.875C50.522,29.097,46.165,24.329,42.312,20.129ZM42.312,20.129"/>
</g>
  <g id="Semibold-M" transform="matrix(1.0,0.0,0.0,1.0,2019.2886260373837,1059.3282090053763)">  <path stroke-opacity="1" stroke="none" stroke-linecap="butt" fill="#000000" stroke-width="1px" stroke-miterlimit="4" stroke-linejoin="miter" stroke-dasharray="none" fill-rule="nonzero" fill-opacity="1" d="M42.312,20.129C37.445,15.831,34.681,9.634,34.734,3.141C34.728,1.983,34.088,0.921,33.067,0.374C32.046,-0.173,30.807,-0.117,29.84,0.521C21.952,5.213,16.267,12.865,14.052,21.771C13.414,20.654,12.936,19.453,12.631,18.203C12.391,17.018,11.496,16.074,10.325,15.772C9.208,15.431,7.993,15.734,7.168,16.561C3.158,20.761,0,31.56,0,37.875C0,53.916,9.22,63.137,25.261,63.137C41.302,63.137,50.522,53.664,50.522,37.875C50.522,29.097,46.165,24.329,42.312,20.129ZM42.312,20.129"/>
</g>
  <g id="Medium-M" transform="matrix(1.0,0.0,0.0,1.0,1722.5786260373836,1059.3282090053763)">  <path stroke-opacity="1" stroke-width="1px" fill-opacity="1" stroke-dasharray="none" stroke-linejoin="miter" stroke-linecap="butt" stroke="none" fill="#000000" stroke-miterlimit="4" fill-rule="nonzero" d="M42.312,20.129C37.445,15.831,34.681,9.634,34.734,3.141C34.728,1.983,34.088,0.921,33.067,0.374C32.046,-0.173,30.807,-0.117,29.84,0.521C21.952,5.213,16.267,12.865,14.052,21.771C13.414,20.654,12.936,19.453,12.631,18.203C12.391,17.018,11.496,16.074,10.325,15.772C9.208,15.431,7.993,15.734,7.168,16.561C3.158,20.761,0,31.56,0,37.875C0,53.916,9.22,63.137,25.261,63.137C41.302,63.137,50.522,53.664,50.522,37.875C50.522,29.097,46.165,24.329,42.312,20.129ZM42.312,20.129"/>
</g>
  <g id="Regular-M" transform="matrix(1.0,0.0,0.0,1.0,1425.8686260373836,1059.3282090053763)">  <path fill-rule="nonzero" stroke-linejoin="miter" stroke-opacity="1" stroke-miterlimit="4" stroke-linecap="butt" fill="#000000" stroke="none" fill-opacity="1" stroke-dasharray="none" stroke-width="1px" d="M42.312,20.129C37.445,15.831,34.681,9.634,34.734,3.141C34.728,1.983,34.088,0.921,33.067,0.374C32.046,-0.173,30.807,-0.117,29.84,0.521C21.952,5.213,16.267,12.865,14.052,21.771C13.414,20.654,12.936,19.453,12.631,18.203C12.391,17.018,11.496,16.074,10.325,15.772C9.208,15.431,7.993,15.734,7.168,16.561C3.158,20.761,0,31.56,0,37.875C0,53.916,9.22,63.137,25.261,63.137C41.302,63.137,50.522,53.664,50.522,37.875C50.522,29.097,46.165,24.329,42.312,20.129ZM42.312,20.129"/>
</g>
  <g id="Light-M" transform="matrix(1.0,0.0,0.0,1.0,1129.1586260373838,1059.3282090053763)">  <path stroke-opacity="1" stroke-dasharray="none" stroke="none" stroke-linecap="butt" fill-rule="nonzero" fill="#000000" stroke-width="1px" fill-opacity="1" stroke-miterlimit="4" stroke-linejoin="miter" d="M42.312,20.129C37.445,15.831,34.681,9.634,34.734,3.141C34.728,1.983,34.088,0.921,33.067,0.374C32.046,-0.173,30.807,-0.117,29.84,0.521C21.952,5.213,16.267,12.865,14.052,21.771C13.414,20.654,12.936,19.453,12.631,18.203C12.391,17.018,11.496,16.074,10.325,15.772C9.208,15.431,7.993,15.734,7.168,16.561C3.158,20.761,0,31.56,0,37.875C0,53.916,9.22,63.137,25.261,63.137C41.302,63.137,50.522,53.664,50.522,37.875C50.522,29.097,46.165,24.329,42.312,20.129ZM42.312,20.129"/>
</g>
  <g id="Thin-M" transform="matrix(1.0,0.0,0.0,1.0,832.4486260373837,1059.3282090053763)">  <path stroke-dasharray="none" stroke="none" stroke-linecap="butt" stroke-miterlimit="4" stroke-width="1px" fill-rule="nonzero" fill-opacity="1" fill="#000000" stroke-opacity="1" stroke-linejoin="miter" d="M42.312,20.129C37.445,15.831,34.681,9.634,34.734,3.141C34.728,1.983,34.088,0.921,33.067,0.374C32.046,-0.173,30.807,-0.117,29.84,0.521C21.952,5.213,16.267,12.865,14.052,21.771C13.414,20.654,12.936,19.453,12.631,18.203C12.391,17.018,11.496,16.074,10.325,15.772C9.208,15.431,7.993,15.734,7.168,16.561C3.158,20.761,0,31.56,0,37.875C0,53.916,9.22,63.137,25.261,63.137C41.302,63.137,50.522,53.664,50.522,37.875C50.522,29.097,46.165,24.329,42.312,20.129ZM42.312,20.129"/>
</g>
  <g id="Ultralight-M" transform="matrix(1.0,0.0,0.0,1.0,535.7386260373837,1059.3282090053763)">  <path fill-rule="nonzero" fill-opacity="1" stroke-opacity="1" stroke="none" stroke-linejoin="miter" stroke-miterlimit="4" stroke-width="1px" fill="#000000" stroke-dasharray="none" stroke-linecap="butt" d="M42.312,20.129C37.445,15.831,34.681,9.634,34.734,3.141C34.728,1.983,34.088,0.921,33.067,0.374C32.046,-0.173,30.807,-0.117,29.84,0.521C21.952,5.213,16.267,12.865,14.052,21.771C13.414,20.654,12.936,19.453,12.631,18.203C12.391,17.018,11.496,16.074,10.325,15.772C9.208,15.431,7.993,15.734,7.168,16.561C3.158,20.761,0,31.56,0,37.875C0,53.916,9.22,63.137,25.261,63.137C41.302,63.137,50.522,53.664,50.522,37.875C50.522,29.097,46.165,24.329,42.312,20.129ZM42.312,20.129"/>
</g>
  <g id="Black-S" transform="matrix(1.0,0.0,0.0,1.0,2914.9003441872715,636.1510818894909)">  <path fill="#000000" stroke-dasharray="none" stroke-width="1px" stroke-opacity="1" stroke="none" stroke-linecap="butt" fill-opacity="1" fill-rule="nonzero" stroke-miterlimit="4" stroke-linejoin="miter" d="M33.131,15.761C29.32,12.396,27.155,7.544,27.197,2.46C27.192,1.553,26.691,0.721,25.892,0.293C25.092,-0.135,24.122,-0.091,23.365,0.408C17.188,4.082,12.737,10.073,11.002,17.047C10.503,16.172,10.129,15.232,9.89,14.253C9.702,13.325,9.001,12.586,8.085,12.349C7.21,12.082,6.259,12.32,5.612,12.968C2.472,16.256,0,24.712,0,29.656C0,42.216,7.22,49.436,19.779,49.436C32.339,49.436,39.559,42.019,39.559,29.656C39.559,22.783,36.147,19.05,33.131,15.761ZM33.131,15.761"/>
</g>
  <g id="Heavy-S" transform="matrix(1.0,0.0,0.0,1.0,2618.1903441872714,636.1510818894909)">  <path stroke-linecap="butt" stroke-linejoin="miter" stroke-opacity="1" stroke-dasharray="none" stroke-width="1px" stroke="none" fill-rule="nonzero" fill="#000000" stroke-miterlimit="4" fill-opacity="1" d="M33.131,15.761C29.32,12.396,27.155,7.544,27.197,2.46C27.192,1.553,26.691,0.721,25.892,0.293C25.092,-0.135,24.122,-0.091,23.365,0.408C17.188,4.082,12.737,10.073,11.002,17.047C10.503,16.172,10.129,15.232,9.89,14.253C9.702,13.325,9.001,12.586,8.085,12.349C7.21,12.082,6.259,12.32,5.612,12.968C2.472,16.256,0,24.712,0,29.656C0,42.216,7.22,49.436,19.779,49.436C32.339,49.436,39.559,42.019,39.559,29.656C39.559,22.783,36.147,19.05,33.131,15.761ZM33.131,15.761"/>
</g>
  <g id="Bold-S" transform="matrix(1.0,0.0,0.0,1.0,2321.4803441872714,636.1510818894909)">  <path stroke-miterlimit="4" stroke-linecap="butt" stroke="none" fill-rule="nonzero" stroke-dasharray="none" stroke-opacity="1" stroke-width="1px" fill-opacity="1" fill="#000000" stroke-linejoin="miter" d="M33.131,15.761C29.32,12.396,27.155,7.544,27.197,2.46C27.192,1.553,26.691,0.721,25.892,0.293C25.092,-0.135,24.122,-0.091,23.365,0.408C17.188,4.082,12.737,10.073,11.002,17.047C10.503,16.172,10.129,15.232,9.89,14.253C9.702,13.325,9.001,12.586,8.085,12.349C7.21,12.082,6.259,12.32,5.612,12.968C2.472,16.256,0,24.712,0,29.656C0,42.216,7.22,49.436,19.779,49.436C32.339,49.436,39.559,42.019,39.559,29.656C39.559,22.783,36.147,19.05,33.131,15.761ZM33.131,15.761"/>
</g>
  <g id="Semibold-S" transform="matrix(1.0,0.0,0.0,1.0,2024.7703441872713,636.1510818894909)">  <path stroke-opacity="1" stroke="none" stroke-linecap="butt" fill="#000000" stroke-width="1px" stroke-miterlimit="4" stroke-linejoin="miter" stroke-dasharray="none" fill-rule="nonzero" fill-opacity="1" d="M33.131,15.761C29.32,12.396,27.155,7.544,27.197,2.46C27.192,1.553,26.691,0.721,25.892,0.293C25.092,-0.135,24.122,-0.091,23.365,0.408C17.188,4.082,12.737,10.073,11.002,17.047C10.503,16.172,10.129,15.232,9.89,14.253C9.702,13.325,9.001,12.586,8.085,12.349C7.21,12.082,6.259,12.32,5.612,12.968C2.472,16.256,0,24.712,0,29.656C0,42.216,7.22,49.436,19.779,49.436C32.339,49.436,39.559,42.019,39.559,29.656C39.559,22.783,36.147,19.05,33.131,15.761ZM33.131,15.761"/>
</g>
  <g id="Medium-S" transform="matrix(1.0,0.0,0.0,1.0,1728.0603441872713,636.1510818894909)">  <path stroke-opacity="1" stroke-width="1px" fill-opacity="1" stroke-dasharray="none" stroke-linejoin="miter" stroke-linecap="butt" stroke="none" fill="#000000" stroke-miterlimit="4" fill-rule="nonzero" d="M33.131,15.761C29.32,12.396,27.155,7.544,27.197,2.46C27.192,1.553,26.691,0.721,25.892,0.293C25.092,-0.135,24.122,-0.091,23.365,0.408C17.188,4.082,12.737,10.073,11.002,17.047C10.503,16.172,10.129,15.232,9.89,14.253C9.702,13.325,9.001,12.586,8.085,12.349C7.21,12.082,6.259,12.32,5.612,12.968C2.472,16.256,0,24.712,0,29.656C0,42.216,7.22,49.436,19.779,49.436C32.339,49.436,39.559,42.019,39.559,29.656C39.559,22.783,36.147,19.05,33.131,15.761ZM33.131,15.761"/>
</g>
  <g id="Regular-S" transform="matrix(1.0,0.0,0.0,1.0,1431.3503441872713,636.1510818894909)">  <path fill-rule="nonzero" stroke-linejoin="miter" stroke-opacity="1" stroke-miterlimit="4" stroke-linecap="butt" fill="#000000" stroke="none" fill-opacity="1" stroke-dasharray="none" stroke-width="1px" d="M33.131,15.761C29.32,12.396,27.155,7.544,27.197,2.46C27.192,1.553,26.691,0.721,25.892,0.293C25.092,-0.135,24.122,-0.091,23.365,0.408C17.188,4.082,12.737,10.073,11.002,17.047C10.503,16.172,10.129,15.232,9.89,14.253C9.702,13.325,9.001,12.586,8.085,12.349C7.21,12.082,6.259,12.32,5.612,12.968C2.472,16.256,0,24.712,0,29.656C0,42.216,7.22,49.436,19.779,49.436C32.339,49.436,39.559,42.019,39.559,29.656C39.559,22.783,36.147,19.05,33.131,15.761ZM33.131,15.761"/>
</g>
  <g id="Light-S" transform="matrix(1.0,0.0,0.0,1.0,1134.6403441872715,636.1510818894909)">  <path stroke-opacity="1" stroke-dasharray="none" stroke="none" stroke-linecap="butt" fill-rule="nonzero" fill="#000000" stroke-width="1px" fill-opacity="1" stroke-miterlimit="4" stroke-linejoin="miter" d="M33.131,15.761C29.32,12.396,27.155,7.544,27.197,2.46C27.192,1.553,26.691,0.721,25.892,0.293C25.092,-0.135,24.122,-0.091,23.365,0.408C17.188,4.082,12.737,10.073,11.002,17.047C10.503,16.172,10.129,15.232,9.89,14.253C9.702,13.325,9.001,12.586,8.085,12.349C7.21,12.082,6.259,12.32,5.612,12.968C2.472,16.256,0,24.712,0,29.656C0,42.216,7.22,49.436,19.779,49.436C32.339,49.436,39.559,42.019,39.559,29.656C39.559,22.783,36.147,19.05,33.131,15.761ZM33.131,15.761"/>
</g>
  <g id="Thin-S" transform="matrix(1.0,0.0,0.0,1.0,837.9303441872714,636.1510818894909)">  <path stroke-dasharray="none" stroke="none" stroke-linecap="butt" stroke-miterlimit="4" stroke-width="1px" fill-rule="nonzero" fill-opacity="1" fill="#000000" stroke-opacity="1" stroke-linejoin="miter" d="M33.131,15.761C29.32,12.396,27.155,7.544,27.197,2.46C27.192,1.553,26.691,0.721,25.892,0.293C25.092,-0.135,24.122,-0.091,23.365,0.408C17.188,4.082,12.737,10.073,11.002,17.047C10.503,16.172,10.129,15.232,9.89,14.253C9.702,13.325,9.001,12.586,8.085,12.349C7.21,12.082,6.259,12.32,5.612,12.968C2.472,16.256,0,24.712,0,29.656C0,42.216,7.22,49.436,19.779,49.436C32.339,49.436,39.559,42.019,39.559,29.656C39.559,22.783,36.147,19.05,33.131,15.761ZM33.131,15.761"/>
</g>
  <g id="Ultralight-S" transform="matrix(1.0,0.0,0.0,1.0,541.2203441872714,636.1510818894909)">  <path fill-rule="nonzero" fill-opacity="1" stroke-opacity="1" stroke="none" stroke-linejoin="miter" stroke-miterlimit="4" stroke-width="1px" fill="#000000" stroke-dasharray="none" stroke-linecap="butt" d="M33.131,15.761C29.32,12.396,27.155,7.544,27.197,2.46C27.192,1.553,26.691,0.721,25.892,0.293C25.092,-0.135,24.122,-0.091,23.365,0.408C17.188,4.082,12.737,10.073,11.002,17.047C10.503,16.172,10.129,15.232,9.89,14.253C9.702,13.325,9.001,12.586,8.085,12.349C7.21,12.082,6.259,12.32,5.612,12.968C2.472,16.256,0,24.712,0,29.656C0,42.216,7.22,49.436,19.779,49.436C32.339,49.436,39.559,42.019,39.559,29.656C39.559,22.783,36.147,19.05,33.131,15.761ZM33.131,15.761"/>
</g>
 </g>
</svg>
