<?xml version="1.0" encoding="UTF-8"?>
<!-- Generator: CustomSymbols v2.6.7.45 by @serious_bret https://bretlester.com/app_content/CustomSymbols/ -->
<!-- Guides: Left/Right -0.054000000000000006/-0.055999999999999994 Cap/Base -0.06/-0.055999999999999994 -->
<!-- Settings: RefScale 0.0 Min/Max Stroke Scales 0.5/0.3 -->
<!DOCTYPE svg
PUBLIC "-//W3C//DTD SVG 1.1//EN"
       "http://www.w3.org/Graphics/SVG/1.1/DTD/svg11.dtd">
<svg version="1.1" xmlns="http://www.w3.org/2000/svg" xmlns:xlink="http://www.w3.org/1999/xlink" width="3300" height="2200">
<![CDATA[<svg xmlns="http://www.w3.org/2000/svg" width="32.415" height="17.281" viewBox="0 0 32.415 17.281"><path fill="#BBB" d="M24.3514776,0 C26.3797311,0 27.6932433,0.324889639 28.833984,0.934964463 C29.9747248,1.54503929 30.8699848,2.4402993 31.4800596,3.58104004 C32.0901344,4.72178078 32.4150241,6.03529295 32.4150241,8.0635465 L32.4150241,9.21765399 C32.4150241,11.2459075 32.0901344,12.5594197 31.4800596,13.7001605 C30.8699848,14.8409012 29.9747248,15.7361612 28.833984,16.346236 C27.6932433,16.9563109 26.3797311,17.2812005 24.3514776,17.2812005 L8.0635465,17.2812005 C6.03529295,17.2812005 4.72178078,16.9563109 3.58104004,16.346236 C2.4402993,15.7361612 1.54503929,14.8409012 0.934964463,13.7001605 C0.324889639,12.5594197 0,11.2459075 0,9.21765399 L0,8.0635465 C0,6.03529295 0.324889639,4.72178078 0.934964463,3.58104004 C1.54503929,2.4402993 2.4402993,1.54503929 3.58104004,0.934964463 C4.72178078,0.324889639 6.03529295,0 8.0635465,0 L24.3514776,0 Z M14.444696,2.00030079 L8.0635465,2 C6.43638948,2 5.41560241,2.22188382 4.52423776,2.69859086 C3.73203396,3.12226608 3.12226608,3.73203396 2.69859086,4.52423776 C2.22188382,5.41560241 2,6.43638948 2,8.0635465 L2,9.21765399 C2,10.844811 2.22188382,11.8655981 2.69859086,12.7569627 C3.12226608,13.5491665 3.73203396,14.1589344 4.52423776,14.5826096 C5.41560241,15.0593167 6.43638948,15.2812005 8.0635465,15.2812005 L14.4485887,15.2818475 C14.0888589,15.1944442 13.8143433,15.0762281 13.5388849,14.9289114 C12.887033,14.5802972 12.3754559,14.06872 12.0268417,13.4168682 C11.6782275,12.7650163 11.4925763,12.1184438 11.4925763,10.3354064 L11.4925763,6.94579412 C11.4925763,5.16275664 11.6782275,4.51618417 12.0268417,3.86433232 C12.3754559,3.21248046 12.887033,2.70090332 13.5388849,2.35228913 C13.8133488,2.20550421 14.0868768,2.08761023 14.444696,2.00030079 Z"/></svg>]]>
 <g id="Notes">
  <rect height="2200" id="artboard" style="fill:white;opacity:1" width="3300" x="0" y="0"/>
  <line id="" style="fill:none;stroke:black;opacity:1;stroke-width:0.5;" x1="263" x2="3036" y1="292" y2="292"/>
  <text id="reftext1" style="stroke:none;fill:black;font-family:-apple-system,&quot;SF Pro Display&quot;,&quot;SF Pro Text&quot;,Helvetica,sans-serif;font-weight:bold;" transform="matrix(1 0 0 1 263 322)">Weight/Scale Variations</text>
  <text id="reftext2" style="stroke:none;fill:black;font-family:-apple-system,&quot;SF Pro Display&quot;,&quot;SF Pro Text&quot;,Helvetica,sans-serif;text-anchor:middle;" transform="matrix(1 0 0 1 559.711 322)">Ultralight</text>
  <text style="stroke:none;fill:black;font-family:-apple-system,&quot;SF Pro Display&quot;,&quot;SF Pro Text&quot;,Helvetica,sans-serif;text-anchor:middle;" transform="matrix(1 0 0 1 856.422 322)">Thin</text>
  <text style="stroke:none;fill:black;font-family:-apple-system,&quot;SF Pro Display&quot;,&quot;SF Pro Text&quot;,Helvetica,sans-serif;text-anchor:middle;" transform="matrix(1 0 0 1 1153.13 322)">Light</text>
  <text style="stroke:none;fill:black;font-family:-apple-system,&quot;SF Pro Display&quot;,&quot;SF Pro Text&quot;,Helvetica,sans-serif;text-anchor:middle;" transform="matrix(1 0 0 1 1449.84 322)">Regular</text>
  <text style="stroke:none;fill:black;font-family:-apple-system,&quot;SF Pro Display&quot;,&quot;SF Pro Text&quot;,Helvetica,sans-serif;text-anchor:middle;" transform="matrix(1 0 0 1 1746.56 322)">Medium</text>
  <text style="stroke:none;fill:black;font-family:-apple-system,&quot;SF Pro Display&quot;,&quot;SF Pro Text&quot;,Helvetica,sans-serif;text-anchor:middle;" transform="matrix(1 0 0 1 2043.27 322)">Semibold</text>
  <text style="stroke:none;fill:black;font-family:-apple-system,&quot;SF Pro Display&quot;,&quot;SF Pro Text&quot;,Helvetica,sans-serif;text-anchor:middle;" transform="matrix(1 0 0 1 2339.98 322)">Bold</text>
  <text style="stroke:none;fill:black;font-family:-apple-system,&quot;SF Pro Display&quot;,&quot;SF Pro Text&quot;,Helvetica,sans-serif;text-anchor:middle;" transform="matrix(1 0 0 1 2636.69 322)">Heavy</text>
  <text style="stroke:none;fill:black;font-family:-apple-system,&quot;SF Pro Display&quot;,&quot;SF Pro Text&quot;,Helvetica,sans-serif;text-anchor:middle;" transform="matrix(1 0 0 1 2933.4 322)">Black</text>
  <line id="" style="fill:none;stroke:black;opacity:1;stroke-width:0.5;" x1="263" x2="3036" y1="1903" y2="1903"/>
  <g id="" transform="matrix(1 0 0 1 263 1933)">
   <path d="M9.24805 0.830078C13.5547 0.830078 17.1387-2.74414 17.1387-7.05078C17.1387-11.3574 13.5449-14.9316 9.23828-14.9316C4.94141-14.9316 1.36719-11.3574 1.36719-7.05078C1.36719-2.74414 4.95117 0.830078 9.24805 0.830078ZM9.24805-0.654297C5.70312-0.654297 2.87109-3.49609 2.87109-7.05078C2.87109-10.6055 5.69336-13.4473 9.23828-13.4473C12.793-13.4473 15.6348-10.6055 15.6445-7.05078C15.6543-3.49609 12.8027-0.654297 9.24805-0.654297ZM6.39648-6.31836L8.50586-6.31836L8.50586-4.19922C8.50586-3.75977 8.79883-3.45703 9.22852-3.45703C9.67773-3.45703 9.9707-3.75977 9.9707-4.19922L9.9707-6.31836L12.0996-6.31836C12.5391-6.31836 12.8418-6.61133 12.8418-7.04102C12.8418-7.48047 12.5391-7.7832 12.0996-7.7832L9.9707-7.7832L9.9707-9.89258C9.9707-10.3418 9.67773-10.6445 9.22852-10.6445C8.79883-10.6445 8.50586-10.3418 8.50586-9.89258L8.50586-7.7832L6.39648-7.7832C5.94727-7.7832 5.64453-7.48047 5.64453-7.04102C5.64453-6.61133 5.94727-6.31836 6.39648-6.31836Z"/>
  </g>
  <g id="" transform="matrix(1 0 0 1 281.506 1933)">
   <path d="M11.709 2.91016C17.1582 2.91016 21.6699-1.61133 21.6699-7.05078C21.6699-12.5 17.1484-17.0117 11.6992-17.0117C6.25977-17.0117 1.74805-12.5 1.74805-7.05078C1.74805-1.61133 6.26953 2.91016 11.709 2.91016ZM11.709 1.25C7.09961 1.25 3.41797-2.44141 3.41797-7.05078C3.41797-11.6602 7.08984-15.3516 11.6992-15.3516C16.3086-15.3516 20-11.6602 20.0098-7.05078C20.0195-2.44141 16.3184 1.25 11.709 1.25ZM7.98828-6.23047L10.8789-6.23047L10.8789-3.32031C10.8789-2.83203 11.2109-2.5 11.6895-2.5C12.1777-2.5 12.5195-2.83203 12.5195-3.32031L12.5195-6.23047L15.4297-6.23047C15.918-6.23047 16.25-6.5625 16.25-7.04102C16.25-7.5293 15.918-7.87109 15.4297-7.87109L12.5195-7.87109L12.5195-10.7617C12.5195-11.2695 12.1777-11.6016 11.6895-11.6016C11.2109-11.6016 10.8789-11.2598 10.8789-10.7617L10.8789-7.87109L7.98828-7.87109C7.48047-7.87109 7.14844-7.5293 7.14844-7.04102C7.14844-6.5625 7.49023-6.23047 7.98828-6.23047Z"/>
  </g>
  <g id="" transform="matrix(1 0 0 1 304.924 1933)">
   <path d="M14.9707 5.66406C21.9336 5.66406 27.6953-0.0976562 27.6953-7.05078C27.6953-14.0137 21.9238-19.7754 14.9609-19.7754C8.00781-19.7754 2.25586-14.0137 2.25586-7.05078C2.25586-0.0976562 8.01758 5.66406 14.9707 5.66406ZM14.9707 3.84766C8.93555 3.84766 4.08203-1.01562 4.08203-7.05078C4.08203-13.0957 8.92578-17.9492 14.9609-17.9492C21.0059-17.9492 25.8594-13.0957 25.8691-7.05078C25.8789-1.01562 21.0156 3.84766 14.9707 3.84766ZM10.0586-6.14258L14.0625-6.14258L14.0625-2.12891C14.0625-1.5918 14.4336-1.2207 14.9512-1.2207C15.4883-1.2207 15.8594-1.5918 15.8594-2.12891L15.8594-6.14258L19.8828-6.14258C20.4102-6.14258 20.791-6.51367 20.791-7.03125C20.791-7.56836 20.4199-7.94922 19.8828-7.94922L15.8594-7.94922L15.8594-11.9531C15.8594-12.5098 15.4883-12.8809 14.9512-12.8809C14.4336-12.8809 14.0625-12.5 14.0625-11.9531L14.0625-7.94922L10.0586-7.94922C9.50195-7.94922 9.13086-7.56836 9.13086-7.03125C9.13086-6.51367 9.51172-6.14258 10.0586-6.14258Z"/>
  </g>
  <text style="stroke:none;fill:black;font-family:-apple-system,&quot;SF Pro Display&quot;,&quot;SF Pro Text&quot;,Helvetica,sans-serif;font-weight:bold;" transform="matrix(1 0 0 1 263 1953)">Design Variations</text>
  <text style="stroke:none;fill:black;font-family:-apple-system,&quot;SF Pro Display&quot;,&quot;SF Pro Text&quot;,Helvetica,sans-serif;" transform="matrix(1 0 0 1 263 1971)">Symbols are supported in up to nine weights and three scales.</text>
  <text style="stroke:none;fill:black;font-family:-apple-system,&quot;SF Pro Display&quot;,&quot;SF Pro Text&quot;,Helvetica,sans-serif;" transform="matrix(1 0 0 1 263 1989)">For optimal layout with text and other symbols, vertically align</text>
  <text style="stroke:none;fill:black;font-family:-apple-system,&quot;SF Pro Display&quot;,&quot;SF Pro Text&quot;,Helvetica,sans-serif;" transform="matrix(1 0 0 1 263 2007)">symbols with the adjacent text.</text>
  <line id="" style="fill:none;stroke:#00AEEF;stroke-width:0.5;opacity:1.0;" x1="776" x2="776" y1="1919" y2="1933"/>
  <g id="" transform="matrix(1 0 0 1 776 1933)">
   <path d="M3.31055 0.126953C3.82812 0.126953 4.08203-0.0683594 4.26758-0.605469L5.52734-4.0625L11.2891-4.0625L12.5488-0.605469C12.7344-0.0683594 12.9883 0.126953 13.4961 0.126953C14.0137 0.126953 14.3457-0.185547 14.3457-0.673828C14.3457-0.839844 14.3164-0.986328 14.2383-1.20117L9.6582-13.3887C9.43359-13.9941 9.0332-14.2871 8.4082-14.2871C7.80273-14.2871 7.39258-13.9941 7.17773-13.3984L2.59766-1.19141C2.51953-0.976562 2.49023-0.830078 2.49023-0.664062C2.49023-0.175781 2.80273 0.126953 3.31055 0.126953ZM6.00586-5.53711L8.37891-12.1094L8.42773-12.1094L10.8008-5.53711Z"/>
  </g>
  <line id="" style="fill:none;stroke:#00AEEF;stroke-width:0.5;opacity:1.0;" x1="792.836" x2="792.836" y1="1919" y2="1933"/>
  <text style="stroke:none;fill:black;font-family:-apple-system,&quot;SF Pro Display&quot;,&quot;SF Pro Text&quot;,Helvetica,sans-serif;font-weight:bold;" transform="matrix(1 0 0 1 776 1953)">Margins</text>
  <text style="stroke:none;fill:black;font-family:-apple-system,&quot;SF Pro Display&quot;,&quot;SF Pro Text&quot;,Helvetica,sans-serif;" transform="matrix(1 0 0 1 776 1971)">Leading and trailing margins on the left and right side of each symbol</text>
  <text style="stroke:none;fill:black;font-family:-apple-system,&quot;SF Pro Display&quot;,&quot;SF Pro Text&quot;,Helvetica,sans-serif;" transform="matrix(1 0 0 1 776 1989)">can be adjusted by modifying the x-location of the margin guidelines.</text>
  <text style="stroke:none;fill:black;font-family:-apple-system,&quot;SF Pro Display&quot;,&quot;SF Pro Text&quot;,Helvetica,sans-serif;" transform="matrix(1 0 0 1 776 2007)">Modifications are automatically applied proportionally to all</text>
  <text style="stroke:none;fill:black;font-family:-apple-system,&quot;SF Pro Display&quot;,&quot;SF Pro Text&quot;,Helvetica,sans-serif;" transform="matrix(1 0 0 1 776 2025)">scales and weights.</text>
  <g id="" transform="matrix(1 0 0 1 1289 1933)">
   <path d="M2.8418 1.86523L4.54102 3.57422C5.40039 4.44336 6.38672 4.38477 7.31445 3.35938L17.4902-7.85156C17.7539-7.76367 18.0273-7.7832 18.3398-7.8418L19.4043-8.03711L20.0684-7.36328L20.0293-6.80664C19.9902-6.30859 20.1172-5.92773 20.6055-5.44922L21.3672-4.70703C21.8457-4.22852 22.4609-4.19922 22.9297-4.66797L25.8398-7.58789C26.3086-8.05664 26.2891-8.65234 25.8105-9.13086L25.0391-9.89258C24.5605-10.3711 24.1895-10.5273 23.7109-10.4883L23.1348-10.4395L22.4902-11.0742L22.7344-12.1973C22.8613-12.7637 22.7051-13.2031 22.1191-13.7891L19.9219-15.9766C16.582-19.2969 12.1484-19.2188 9.25781-16.3281C8.83789-15.918 8.80859-15.3418 9.04297-14.9512C9.27734-14.5898 9.73633-14.3555 10.3809-14.5215C11.8457-14.8633 13.3691-14.9219 14.7949-13.9844L14.209-12.5293C14.0137-12.0508 13.9844-11.6504 14.1113-11.2891L3.04688-0.898438C2.06055 0.0195312 1.98242 0.996094 2.8418 1.86523ZM10.752-15.957C13.1836-17.7344 16.4746-17.4316 18.7012-15.2051L21.1328-12.793C21.3672-12.5586 21.4062-12.373 21.3379-12.0312L21.0156-10.5469L22.5195-9.0625L23.5059-9.12109C23.7598-9.13086 23.8379-9.11133 24.0332-8.91602L24.6094-8.33984L22.168-5.89844L21.5918-6.47461C21.3965-6.66992 21.3672-6.74805 21.377-7.01172L21.4453-7.98828L19.9512-9.47266L18.4277-9.21875C18.1055-9.15039 17.959-9.17969 17.7148-9.41406L15.7129-11.416C15.459-11.6504 15.4297-11.8164 15.5859-12.1875L16.4648-14.2773C14.9023-15.7324 12.8711-16.3574 10.8398-15.7617C10.6836-15.7227 10.625-15.8496 10.752-15.957ZM5.27344 2.30469L4.10156 1.14258C3.63281 0.683594 3.74023 0.341797 4.14062-0.0195312L14.9512-10.1953L16.416-8.71094L6.42578 2.27539C6.07422 2.67578 5.74219 2.77344 5.27344 2.30469Z"/>
  </g>
  <text style="stroke:none;fill:black;font-family:-apple-system,&quot;SF Pro Display&quot;,&quot;SF Pro Text&quot;,Helvetica,sans-serif;font-weight:bold;" transform="matrix(1 0 0 1 1289 1953)">Exporting</text>
  <text style="stroke:none;fill:black;font-family:-apple-system,&quot;SF Pro Display&quot;,&quot;SF Pro Text&quot;,Helvetica,sans-serif;" transform="matrix(1 0 0 1 1289 1971)">Symbols should be outlined when exporting to ensure the</text>
  <text style="stroke:none;fill:black;font-family:-apple-system,&quot;SF Pro Display&quot;,&quot;SF Pro Text&quot;,Helvetica,sans-serif;" transform="matrix(1 0 0 1 1289 1989)">design is preserved when submitting to Xcode.</text>
  <text id="template-version" style="stroke:none;fill:black;font-family:-apple-system,&quot;SF Pro Display&quot;,&quot;SF Pro Text&quot;,Helvetica,sans-serif;text-anchor:end;" transform="matrix(1 0 0 1 3036 1933)">Template v.2.0</text>
  <text style="stroke:none;fill:black;font-family:-apple-system,&quot;SF Pro Display&quot;,&quot;SF Pro Text&quot;,Helvetica,sans-serif;text-anchor:end;" transform="matrix(1 0 0 1 3036 1951)">Requires Xcode 12 or greater</text>
  <text style="stroke:none;fill:black;font-family:-apple-system,&quot;SF Pro Display&quot;,&quot;SF Pro Text&quot;,Helvetica,sans-serif;" transform="matrix(1 0 0 1 263 726)">Small</text>
  <text style="stroke:none;fill:black;font-family:-apple-system,&quot;SF Pro Display&quot;,&quot;SF Pro Text&quot;,Helvetica,sans-serif;" transform="matrix(1 0 0 1 263 1156)">Medium</text>
  <text style="stroke:none;fill:black;font-family:-apple-system,&quot;SF Pro Display&quot;,&quot;SF Pro Text&quot;,Helvetica,sans-serif;" transform="matrix(1 0 0 1 263 1586)">Large</text>
 </g>
 <g id="Guides">
  <g id="H-reference" style="fill:#27AAE1;stroke:none;" transform="matrix(1 0 0 1 339 696)">
   <path d="M0.976562 0L3.66211 0L12.9883-24.4629L45.752-24.4629L55.127 0L57.7637 0L30.6152-70.459L28.125-70.459ZM29.3457-67.1387L29.4434-67.1387L44.873-26.709L13.8672-26.709Z"/>
  </g>
  <line id="Baseline-S" style="fill:none;stroke:#27AAE1;opacity:1;stroke-width:0.5;" x1="263" x2="3036" y1="696" y2="696"/>
  <line id="Capline-S" style="fill:none;stroke:#27AAE1;opacity:1;stroke-width:0.5;" x1="263" x2="3036" y1="625.541" y2="625.541"/>
  <g id="H-reference" style="fill:#27AAE1;stroke:none;" transform="matrix(1 0 0 1 339 1126)">
   <path d="M0.976562 0L3.66211 0L12.9883-24.4629L45.752-24.4629L55.127 0L57.7637 0L30.6152-70.459L28.125-70.459ZM29.3457-67.1387L29.4434-67.1387L44.873-26.709L13.8672-26.709Z"/>
  </g>
  <line id="Baseline-M" style="fill:none;stroke:#27AAE1;opacity:1;stroke-width:0.5;" x1="263" x2="3036" y1="1126" y2="1126"/>
  <line id="Capline-M" style="fill:none;stroke:#27AAE1;opacity:1;stroke-width:0.5;" x1="263" x2="3036" y1="1055.54" y2="1055.54"/>
  <g id="H-reference" style="fill:#27AAE1;stroke:none;" transform="matrix(1 0 0 1 339 1556)">
   <path d="M0.976562 0L3.66211 0L12.9883-24.4629L45.752-24.4629L55.127 0L57.7637 0L30.6152-70.459L28.125-70.459ZM29.3457-67.1387L29.4434-67.1387L44.873-26.709L13.8672-26.709Z"/>
  </g>
  <line id="Baseline-L" style="fill:none;stroke:#27AAE1;opacity:1;stroke-width:0.5;" x1="263" x2="3036" y1="1556" y2="1556"/>
  <line id="Capline-L" style="fill:none;stroke:#27AAE1;opacity:1;stroke-width:0.5;" x1="263" x2="3036" y1="1485.54" y2="1485.54"/>
  <line id="left-margin" x1="1385.5207423385234" x2="1385.5207423385234" y1="1030.79" y2="1150.12" style="fill:none;stroke:#00AEEF;stroke-width:0.5;opacity:1.0;"/>
  <line id="right-margin" x1="1516.97611418733" x2="1516.97611418733" y1="1030.79" y2="1150.12" style="fill:none;stroke:#00AEEF;stroke-width:0.5;opacity:1.0;"/>
 </g>
 <g id="Symbols">
  <g id="Black-L" transform="matrix(1.0,0.0,0.0,1.0,2858.2937704121796,1480.210083952873)">  <path stroke-miterlimit="4" fill-opacity="1" stroke-dasharray="none" stroke-linecap="butt" fill="#000000" stroke-width="1px" stroke="none" stroke-linejoin="miter" stroke-opacity="1" fill-rule="nonzero" d="M114.769,0C124.328,0,130.519,1.531,135.895,4.407C141.271,7.282,145.491,11.501,148.366,16.878C151.241,22.254,152.773,28.444,152.773,38.004L152.773,43.443C152.773,53.002,151.241,59.193,148.366,64.569C145.491,69.945,141.271,74.165,135.895,77.04C130.519,79.915,124.328,81.447,114.769,81.447L38.004,81.447C28.444,81.447,22.254,79.915,16.878,77.04C11.501,74.165,7.282,69.945,4.407,64.569C1.531,59.193,0,53.002,0,43.443L0,38.004C0,28.444,1.531,22.254,4.407,16.878C7.282,11.501,11.501,7.282,16.878,4.407C22.254,1.531,28.444,0,38.004,0L114.769,0ZM68.078,9.427L38.004,9.426C30.335,9.426,25.524,10.472,21.323,12.719C17.589,14.715,14.715,17.589,12.719,21.323C10.472,25.524,9.426,30.335,9.426,38.004L9.426,43.443C9.426,51.112,10.472,55.923,12.719,60.124C14.715,63.857,17.589,66.731,21.323,68.728C25.524,70.975,30.335,72.021,38.004,72.021L68.096,72.024C66.401,71.612,65.107,71.055,63.809,70.36C60.737,68.717,58.326,66.306,56.683,63.234C55.04,60.162,54.165,57.114,54.165,48.711L54.165,32.736C54.165,24.332,55.04,21.285,56.683,18.213C58.326,15.14,60.737,12.729,63.809,11.086C65.103,10.395,66.392,9.839,68.078,9.427ZM68.078,9.427"/>
</g>
  <g id="Heavy-L" transform="matrix(1.0,0.0,0.0,1.0,2561.5837704121795,1480.210083952873)">  <path stroke-miterlimit="4" stroke-width="1px" stroke-linecap="butt" fill-rule="nonzero" stroke-linejoin="miter" fill-opacity="1" stroke-dasharray="none" stroke-opacity="1" stroke="none" fill="#000000" d="M114.769,0C124.328,0,130.519,1.531,135.895,4.407C141.271,7.282,145.491,11.501,148.366,16.878C151.241,22.254,152.773,28.444,152.773,38.004L152.773,43.443C152.773,53.002,151.241,59.193,148.366,64.569C145.491,69.945,141.271,74.165,135.895,77.04C130.519,79.915,124.328,81.447,114.769,81.447L38.004,81.447C28.444,81.447,22.254,79.915,16.878,77.04C11.501,74.165,7.282,69.945,4.407,64.569C1.531,59.193,0,53.002,0,43.443L0,38.004C0,28.444,1.531,22.254,4.407,16.878C7.282,11.501,11.501,7.282,16.878,4.407C22.254,1.531,28.444,0,38.004,0L114.769,0ZM68.078,9.427L38.004,9.426C30.335,9.426,25.524,10.472,21.323,12.719C17.589,14.715,14.715,17.589,12.719,21.323C10.472,25.524,9.426,30.335,9.426,38.004L9.426,43.443C9.426,51.112,10.472,55.923,12.719,60.124C14.715,63.857,17.589,66.731,21.323,68.728C25.524,70.975,30.335,72.021,38.004,72.021L68.096,72.024C66.401,71.612,65.107,71.055,63.809,70.36C60.737,68.717,58.326,66.306,56.683,63.234C55.04,60.162,54.165,57.114,54.165,48.711L54.165,32.736C54.165,24.332,55.04,21.285,56.683,18.213C58.326,15.14,60.737,12.729,63.809,11.086C65.103,10.395,66.392,9.839,68.078,9.427ZM68.078,9.427"/>
</g>
  <g id="Bold-L" transform="matrix(1.0,0.0,0.0,1.0,2264.8737704121795,1480.210083952873)">  <path stroke-miterlimit="4" stroke-opacity="1" stroke-linejoin="miter" stroke-dasharray="none" stroke="none" stroke-linecap="butt" fill-rule="nonzero" stroke-width="1px" fill-opacity="1" fill="#000000" d="M114.769,0C124.328,0,130.519,1.531,135.895,4.407C141.271,7.282,145.491,11.501,148.366,16.878C151.241,22.254,152.773,28.444,152.773,38.004L152.773,43.443C152.773,53.002,151.241,59.193,148.366,64.569C145.491,69.945,141.271,74.165,135.895,77.04C130.519,79.915,124.328,81.447,114.769,81.447L38.004,81.447C28.444,81.447,22.254,79.915,16.878,77.04C11.501,74.165,7.282,69.945,4.407,64.569C1.531,59.193,0,53.002,0,43.443L0,38.004C0,28.444,1.531,22.254,4.407,16.878C7.282,11.501,11.501,7.282,16.878,4.407C22.254,1.531,28.444,0,38.004,0L114.769,0ZM68.078,9.427L38.004,9.426C30.335,9.426,25.524,10.472,21.323,12.719C17.589,14.715,14.715,17.589,12.719,21.323C10.472,25.524,9.426,30.335,9.426,38.004L9.426,43.443C9.426,51.112,10.472,55.923,12.719,60.124C14.715,63.857,17.589,66.731,21.323,68.728C25.524,70.975,30.335,72.021,38.004,72.021L68.096,72.024C66.401,71.612,65.107,71.055,63.809,70.36C60.737,68.717,58.326,66.306,56.683,63.234C55.04,60.162,54.165,57.114,54.165,48.711L54.165,32.736C54.165,24.332,55.04,21.285,56.683,18.213C58.326,15.14,60.737,12.729,63.809,11.086C65.103,10.395,66.392,9.839,68.078,9.427ZM68.078,9.427"/>
</g>
  <g id="Semibold-L" transform="matrix(1.0,0.0,0.0,1.0,1968.16377041218,1480.210083952873)">  <path stroke-linejoin="miter" stroke-width="1px" stroke-dasharray="none" fill-opacity="1" stroke="none" stroke-miterlimit="4" stroke-opacity="1" fill="#000000" stroke-linecap="butt" fill-rule="nonzero" d="M114.769,0C124.328,0,130.519,1.531,135.895,4.407C141.271,7.282,145.491,11.501,148.366,16.878C151.241,22.254,152.773,28.444,152.773,38.004L152.773,43.443C152.773,53.002,151.241,59.193,148.366,64.569C145.491,69.945,141.271,74.165,135.895,77.04C130.519,79.915,124.328,81.447,114.769,81.447L38.004,81.447C28.444,81.447,22.254,79.915,16.878,77.04C11.501,74.165,7.282,69.945,4.407,64.569C1.531,59.193,0,53.002,0,43.443L0,38.004C0,28.444,1.531,22.254,4.407,16.878C7.282,11.501,11.501,7.282,16.878,4.407C22.254,1.531,28.444,0,38.004,0L114.769,0ZM68.078,9.427L38.004,9.426C30.335,9.426,25.524,10.472,21.323,12.719C17.589,14.715,14.715,17.589,12.719,21.323C10.472,25.524,9.426,30.335,9.426,38.004L9.426,43.443C9.426,51.112,10.472,55.923,12.719,60.124C14.715,63.857,17.589,66.731,21.323,68.728C25.524,70.975,30.335,72.021,38.004,72.021L68.096,72.024C66.401,71.612,65.107,71.055,63.809,70.36C60.737,68.717,58.326,66.306,56.683,63.234C55.04,60.162,54.165,57.114,54.165,48.711L54.165,32.736C54.165,24.332,55.04,21.285,56.683,18.213C58.326,15.14,60.737,12.729,63.809,11.086C65.103,10.395,66.392,9.839,68.078,9.427ZM68.078,9.427"/>
</g>
  <g id="Medium-L" transform="matrix(1.0,0.0,0.0,1.0,1671.45377041218,1480.210083952873)">  <path stroke-miterlimit="4" fill="#000000" stroke-linejoin="miter" stroke-opacity="1" stroke-linecap="butt" stroke="none" stroke-dasharray="none" fill-opacity="1" fill-rule="nonzero" stroke-width="1px" d="M114.769,0C124.328,0,130.519,1.531,135.895,4.407C141.271,7.282,145.491,11.501,148.366,16.878C151.241,22.254,152.773,28.444,152.773,38.004L152.773,43.443C152.773,53.002,151.241,59.193,148.366,64.569C145.491,69.945,141.271,74.165,135.895,77.04C130.519,79.915,124.328,81.447,114.769,81.447L38.004,81.447C28.444,81.447,22.254,79.915,16.878,77.04C11.501,74.165,7.282,69.945,4.407,64.569C1.531,59.193,0,53.002,0,43.443L0,38.004C0,28.444,1.531,22.254,4.407,16.878C7.282,11.501,11.501,7.282,16.878,4.407C22.254,1.531,28.444,0,38.004,0L114.769,0ZM68.078,9.427L38.004,9.426C30.335,9.426,25.524,10.472,21.323,12.719C17.589,14.715,14.715,17.589,12.719,21.323C10.472,25.524,9.426,30.335,9.426,38.004L9.426,43.443C9.426,51.112,10.472,55.923,12.719,60.124C14.715,63.857,17.589,66.731,21.323,68.728C25.524,70.975,30.335,72.021,38.004,72.021L68.096,72.024C66.401,71.612,65.107,71.055,63.809,70.36C60.737,68.717,58.326,66.306,56.683,63.234C55.04,60.162,54.165,57.114,54.165,48.711L54.165,32.736C54.165,24.332,55.04,21.285,56.683,18.213C58.326,15.14,60.737,12.729,63.809,11.086C65.103,10.395,66.392,9.839,68.078,9.427ZM68.078,9.427"/>
</g>
  <g id="Regular-L" transform="matrix(1.0,0.0,0.0,1.0,1374.7437704121799,1480.210083952873)">  <path stroke="none" stroke-opacity="1" fill-opacity="1" stroke-width="1px" stroke-miterlimit="4" fill="#000000" fill-rule="nonzero" stroke-linecap="butt" stroke-linejoin="miter" stroke-dasharray="none" d="M114.769,0C124.328,0,130.519,1.531,135.895,4.407C141.271,7.282,145.491,11.501,148.366,16.878C151.241,22.254,152.773,28.444,152.773,38.004L152.773,43.443C152.773,53.002,151.241,59.193,148.366,64.569C145.491,69.945,141.271,74.165,135.895,77.04C130.519,79.915,124.328,81.447,114.769,81.447L38.004,81.447C28.444,81.447,22.254,79.915,16.878,77.04C11.501,74.165,7.282,69.945,4.407,64.569C1.531,59.193,0,53.002,0,43.443L0,38.004C0,28.444,1.531,22.254,4.407,16.878C7.282,11.501,11.501,7.282,16.878,4.407C22.254,1.531,28.444,0,38.004,0L114.769,0ZM68.078,9.427L38.004,9.426C30.335,9.426,25.524,10.472,21.323,12.719C17.589,14.715,14.715,17.589,12.719,21.323C10.472,25.524,9.426,30.335,9.426,38.004L9.426,43.443C9.426,51.112,10.472,55.923,12.719,60.124C14.715,63.857,17.589,66.731,21.323,68.728C25.524,70.975,30.335,72.021,38.004,72.021L68.096,72.024C66.401,71.612,65.107,71.055,63.809,70.36C60.737,68.717,58.326,66.306,56.683,63.234C55.04,60.162,54.165,57.114,54.165,48.711L54.165,32.736C54.165,24.332,55.04,21.285,56.683,18.213C58.326,15.14,60.737,12.729,63.809,11.086C65.103,10.395,66.392,9.839,68.078,9.427ZM68.078,9.427"/>
</g>
  <g id="Light-L" transform="matrix(1.0,0.0,0.0,1.0,1078.03377041218,1480.210083952873)">  <path fill-opacity="1" stroke-dasharray="none" stroke-linecap="butt" stroke-linejoin="miter" fill="#000000" stroke-opacity="1" fill-rule="nonzero" stroke-width="1px" stroke-miterlimit="4" stroke="none" d="M114.769,0C124.328,0,130.519,1.531,135.895,4.407C141.271,7.282,145.491,11.501,148.366,16.878C151.241,22.254,152.773,28.444,152.773,38.004L152.773,43.443C152.773,53.002,151.241,59.193,148.366,64.569C145.491,69.945,141.271,74.165,135.895,77.04C130.519,79.915,124.328,81.447,114.769,81.447L38.004,81.447C28.444,81.447,22.254,79.915,16.878,77.04C11.501,74.165,7.282,69.945,4.407,64.569C1.531,59.193,0,53.002,0,43.443L0,38.004C0,28.444,1.531,22.254,4.407,16.878C7.282,11.501,11.501,7.282,16.878,4.407C22.254,1.531,28.444,0,38.004,0L114.769,0ZM68.078,9.427L38.004,9.426C30.335,9.426,25.524,10.472,21.323,12.719C17.589,14.715,14.715,17.589,12.719,21.323C10.472,25.524,9.426,30.335,9.426,38.004L9.426,43.443C9.426,51.112,10.472,55.923,12.719,60.124C14.715,63.857,17.589,66.731,21.323,68.728C25.524,70.975,30.335,72.021,38.004,72.021L68.096,72.024C66.401,71.612,65.107,71.055,63.809,70.36C60.737,68.717,58.326,66.306,56.683,63.234C55.04,60.162,54.165,57.114,54.165,48.711L54.165,32.736C54.165,24.332,55.04,21.285,56.683,18.213C58.326,15.14,60.737,12.729,63.809,11.086C65.103,10.395,66.392,9.839,68.078,9.427ZM68.078,9.427"/>
</g>
  <g id="Thin-L" transform="matrix(1.0,0.0,0.0,1.0,781.3237704121799,1480.210083952873)">  <path stroke-dasharray="none" stroke-miterlimit="4" fill="#000000" stroke="none" stroke-width="1px" stroke-opacity="1" stroke-linecap="butt" fill-opacity="1" fill-rule="nonzero" stroke-linejoin="miter" d="M114.769,0C124.328,0,130.519,1.531,135.895,4.407C141.271,7.282,145.491,11.501,148.366,16.878C151.241,22.254,152.773,28.444,152.773,38.004L152.773,43.443C152.773,53.002,151.241,59.193,148.366,64.569C145.491,69.945,141.271,74.165,135.895,77.04C130.519,79.915,124.328,81.447,114.769,81.447L38.004,81.447C28.444,81.447,22.254,79.915,16.878,77.04C11.501,74.165,7.282,69.945,4.407,64.569C1.531,59.193,0,53.002,0,43.443L0,38.004C0,28.444,1.531,22.254,4.407,16.878C7.282,11.501,11.501,7.282,16.878,4.407C22.254,1.531,28.444,0,38.004,0L114.769,0ZM68.078,9.427L38.004,9.426C30.335,9.426,25.524,10.472,21.323,12.719C17.589,14.715,14.715,17.589,12.719,21.323C10.472,25.524,9.426,30.335,9.426,38.004L9.426,43.443C9.426,51.112,10.472,55.923,12.719,60.124C14.715,63.857,17.589,66.731,21.323,68.728C25.524,70.975,30.335,72.021,38.004,72.021L68.096,72.024C66.401,71.612,65.107,71.055,63.809,70.36C60.737,68.717,58.326,66.306,56.683,63.234C55.04,60.162,54.165,57.114,54.165,48.711L54.165,32.736C54.165,24.332,55.04,21.285,56.683,18.213C58.326,15.14,60.737,12.729,63.809,11.086C65.103,10.395,66.392,9.839,68.078,9.427ZM68.078,9.427"/>
</g>
  <g id="Ultralight-L" transform="matrix(1.0,0.0,0.0,1.0,484.61377041217986,1480.210083952873)">  <path fill="#000000" stroke-opacity="1" stroke-dasharray="none" fill-opacity="1" stroke-miterlimit="4" stroke-linecap="butt" stroke-linejoin="miter" stroke="none" fill-rule="nonzero" stroke-width="1px" d="M114.769,0C124.328,0,130.519,1.531,135.895,4.407C141.271,7.282,145.491,11.501,148.366,16.878C151.241,22.254,152.773,28.444,152.773,38.004L152.773,43.443C152.773,53.002,151.241,59.193,148.366,64.569C145.491,69.945,141.271,74.165,135.895,77.04C130.519,79.915,124.328,81.447,114.769,81.447L38.004,81.447C28.444,81.447,22.254,79.915,16.878,77.04C11.501,74.165,7.282,69.945,4.407,64.569C1.531,59.193,0,53.002,0,43.443L0,38.004C0,28.444,1.531,22.254,4.407,16.878C7.282,11.501,11.501,7.282,16.878,4.407C22.254,1.531,28.444,0,38.004,0L114.769,0ZM68.078,9.427L38.004,9.426C30.335,9.426,25.524,10.472,21.323,12.719C17.589,14.715,14.715,17.589,12.719,21.323C10.472,25.524,9.426,30.335,9.426,38.004L9.426,43.443C9.426,51.112,10.472,55.923,12.719,60.124C14.715,63.857,17.589,66.731,21.323,68.728C25.524,70.975,30.335,72.021,38.004,72.021L68.096,72.024C66.401,71.612,65.107,71.055,63.809,70.36C60.737,68.717,58.326,66.306,56.683,63.234C55.04,60.162,54.165,57.114,54.165,48.711L54.165,32.736C54.165,24.332,55.04,21.285,56.683,18.213C58.326,15.14,60.737,12.729,63.809,11.086C65.103,10.395,66.392,9.839,68.078,9.427ZM68.078,9.427"/>
</g>
  <g id="Black-M" transform="matrix(1.0,0.0,0.0,1.0,2875.4658685365735,1059.3282090053763)">  <path stroke-miterlimit="4" fill-opacity="1" stroke-dasharray="none" stroke-linecap="butt" fill="#000000" stroke-width="1px" stroke="none" stroke-linejoin="miter" stroke-opacity="1" fill-rule="nonzero" d="M88.968,0C96.378,0,101.177,1.187,105.345,3.416C109.513,5.645,112.784,8.916,115.012,13.083C117.241,17.251,118.428,22.05,118.428,29.46L118.428,33.677C118.428,41.087,117.241,45.886,115.012,50.054C112.784,54.221,109.513,57.492,105.345,59.721C101.177,61.95,96.378,63.137,88.968,63.137L29.46,63.137C22.05,63.137,17.251,61.95,13.083,59.721C8.916,57.492,5.645,54.221,3.416,50.054C1.187,45.886,0,41.087,0,33.677L0,29.46C0,22.05,1.187,17.251,3.416,13.083C5.645,8.916,8.916,5.645,13.083,3.416C17.251,1.187,22.05,0,29.46,0L88.968,0ZM52.774,7.308L29.46,7.307C23.515,7.307,19.786,8.118,16.529,9.859C13.635,11.407,11.407,13.635,9.859,16.529C8.118,19.786,7.307,23.515,7.307,29.46L7.307,33.677C7.307,39.622,8.118,43.351,9.859,46.608C11.407,49.502,13.635,51.73,16.529,53.278C19.786,55.019,23.515,55.83,29.46,55.83L52.788,55.832C51.474,55.513,50.471,55.081,49.464,54.543C47.083,53.269,45.214,51.4,43.94,49.019C42.666,46.637,41.988,44.275,41.988,37.76L41.988,25.376C41.988,18.862,42.666,16.5,43.94,14.118C45.214,11.737,47.083,9.868,49.464,8.594C50.467,8.058,51.466,7.627,52.774,7.308ZM52.774,7.308"/>
</g>
  <g id="Heavy-M" transform="matrix(1.0,0.0,0.0,1.0,2578.7558685365734,1059.3282090053763)">  <path stroke-miterlimit="4" stroke-width="1px" stroke-linecap="butt" fill-rule="nonzero" stroke-linejoin="miter" fill-opacity="1" stroke-dasharray="none" stroke-opacity="1" stroke="none" fill="#000000" d="M88.968,0C96.378,0,101.177,1.187,105.345,3.416C109.513,5.645,112.784,8.916,115.012,13.083C117.241,17.251,118.428,22.05,118.428,29.46L118.428,33.677C118.428,41.087,117.241,45.886,115.012,50.054C112.784,54.221,109.513,57.492,105.345,59.721C101.177,61.95,96.378,63.137,88.968,63.137L29.46,63.137C22.05,63.137,17.251,61.95,13.083,59.721C8.916,57.492,5.645,54.221,3.416,50.054C1.187,45.886,0,41.087,0,33.677L0,29.46C0,22.05,1.187,17.251,3.416,13.083C5.645,8.916,8.916,5.645,13.083,3.416C17.251,1.187,22.05,0,29.46,0L88.968,0ZM52.774,7.308L29.46,7.307C23.515,7.307,19.786,8.118,16.529,9.859C13.635,11.407,11.407,13.635,9.859,16.529C8.118,19.786,7.307,23.515,7.307,29.46L7.307,33.677C7.307,39.622,8.118,43.351,9.859,46.608C11.407,49.502,13.635,51.73,16.529,53.278C19.786,55.019,23.515,55.83,29.46,55.83L52.788,55.832C51.474,55.513,50.471,55.081,49.464,54.543C47.083,53.269,45.214,51.4,43.94,49.019C42.666,46.637,41.988,44.275,41.988,37.76L41.988,25.376C41.988,18.862,42.666,16.5,43.94,14.118C45.214,11.737,47.083,9.868,49.464,8.594C50.467,8.058,51.466,7.627,52.774,7.308ZM52.774,7.308"/>
</g>
  <g id="Bold-M" transform="matrix(1.0,0.0,0.0,1.0,2282.0458685365734,1059.3282090053763)">  <path stroke-miterlimit="4" stroke-opacity="1" stroke-linejoin="miter" stroke-dasharray="none" stroke="none" stroke-linecap="butt" fill-rule="nonzero" stroke-width="1px" fill-opacity="1" fill="#000000" d="M88.968,0C96.378,0,101.177,1.187,105.345,3.416C109.513,5.645,112.784,8.916,115.012,13.083C117.241,17.251,118.428,22.05,118.428,29.46L118.428,33.677C118.428,41.087,117.241,45.886,115.012,50.054C112.784,54.221,109.513,57.492,105.345,59.721C101.177,61.95,96.378,63.137,88.968,63.137L29.46,63.137C22.05,63.137,17.251,61.95,13.083,59.721C8.916,57.492,5.645,54.221,3.416,50.054C1.187,45.886,0,41.087,0,33.677L0,29.46C0,22.05,1.187,17.251,3.416,13.083C5.645,8.916,8.916,5.645,13.083,3.416C17.251,1.187,22.05,0,29.46,0L88.968,0ZM52.774,7.308L29.46,7.307C23.515,7.307,19.786,8.118,16.529,9.859C13.635,11.407,11.407,13.635,9.859,16.529C8.118,19.786,7.307,23.515,7.307,29.46L7.307,33.677C7.307,39.622,8.118,43.351,9.859,46.608C11.407,49.502,13.635,51.73,16.529,53.278C19.786,55.019,23.515,55.83,29.46,55.83L52.788,55.832C51.474,55.513,50.471,55.081,49.464,54.543C47.083,53.269,45.214,51.4,43.94,49.019C42.666,46.637,41.988,44.275,41.988,37.76L41.988,25.376C41.988,18.862,42.666,16.5,43.94,14.118C45.214,11.737,47.083,9.868,49.464,8.594C50.467,8.058,51.466,7.627,52.774,7.308ZM52.774,7.308"/>
</g>
  <g id="Semibold-M" transform="matrix(1.0,0.0,0.0,1.0,1985.3358685365736,1059.3282090053763)">  <path stroke-linejoin="miter" stroke-width="1px" stroke-dasharray="none" fill-opacity="1" stroke="none" stroke-miterlimit="4" stroke-opacity="1" fill="#000000" stroke-linecap="butt" fill-rule="nonzero" d="M88.968,0C96.378,0,101.177,1.187,105.345,3.416C109.513,5.645,112.784,8.916,115.012,13.083C117.241,17.251,118.428,22.05,118.428,29.46L118.428,33.677C118.428,41.087,117.241,45.886,115.012,50.054C112.784,54.221,109.513,57.492,105.345,59.721C101.177,61.95,96.378,63.137,88.968,63.137L29.46,63.137C22.05,63.137,17.251,61.95,13.083,59.721C8.916,57.492,5.645,54.221,3.416,50.054C1.187,45.886,0,41.087,0,33.677L0,29.46C0,22.05,1.187,17.251,3.416,13.083C5.645,8.916,8.916,5.645,13.083,3.416C17.251,1.187,22.05,0,29.46,0L88.968,0ZM52.774,7.308L29.46,7.307C23.515,7.307,19.786,8.118,16.529,9.859C13.635,11.407,11.407,13.635,9.859,16.529C8.118,19.786,7.307,23.515,7.307,29.46L7.307,33.677C7.307,39.622,8.118,43.351,9.859,46.608C11.407,49.502,13.635,51.73,16.529,53.278C19.786,55.019,23.515,55.83,29.46,55.83L52.788,55.832C51.474,55.513,50.471,55.081,49.464,54.543C47.083,53.269,45.214,51.4,43.94,49.019C42.666,46.637,41.988,44.275,41.988,37.76L41.988,25.376C41.988,18.862,42.666,16.5,43.94,14.118C45.214,11.737,47.083,9.868,49.464,8.594C50.467,8.058,51.466,7.627,52.774,7.308ZM52.774,7.308"/>
</g>
  <g id="Medium-M" transform="matrix(1.0,0.0,0.0,1.0,1688.6258685365735,1059.3282090053763)">  <path stroke-miterlimit="4" fill="#000000" stroke-linejoin="miter" stroke-opacity="1" stroke-linecap="butt" stroke="none" stroke-dasharray="none" fill-opacity="1" fill-rule="nonzero" stroke-width="1px" d="M88.968,0C96.378,0,101.177,1.187,105.345,3.416C109.513,5.645,112.784,8.916,115.012,13.083C117.241,17.251,118.428,22.05,118.428,29.46L118.428,33.677C118.428,41.087,117.241,45.886,115.012,50.054C112.784,54.221,109.513,57.492,105.345,59.721C101.177,61.95,96.378,63.137,88.968,63.137L29.46,63.137C22.05,63.137,17.251,61.95,13.083,59.721C8.916,57.492,5.645,54.221,3.416,50.054C1.187,45.886,0,41.087,0,33.677L0,29.46C0,22.05,1.187,17.251,3.416,13.083C5.645,8.916,8.916,5.645,13.083,3.416C17.251,1.187,22.05,0,29.46,0L88.968,0ZM52.774,7.308L29.46,7.307C23.515,7.307,19.786,8.118,16.529,9.859C13.635,11.407,11.407,13.635,9.859,16.529C8.118,19.786,7.307,23.515,7.307,29.46L7.307,33.677C7.307,39.622,8.118,43.351,9.859,46.608C11.407,49.502,13.635,51.73,16.529,53.278C19.786,55.019,23.515,55.83,29.46,55.83L52.788,55.832C51.474,55.513,50.471,55.081,49.464,54.543C47.083,53.269,45.214,51.4,43.94,49.019C42.666,46.637,41.988,44.275,41.988,37.76L41.988,25.376C41.988,18.862,42.666,16.5,43.94,14.118C45.214,11.737,47.083,9.868,49.464,8.594C50.467,8.058,51.466,7.627,52.774,7.308ZM52.774,7.308"/>
</g>
  <g id="Regular-M" transform="matrix(1.0,0.0,0.0,1.0,1391.9158685365735,1059.3282090053763)">  <path stroke="none" stroke-opacity="1" fill-opacity="1" stroke-width="1px" stroke-miterlimit="4" fill="#000000" fill-rule="nonzero" stroke-linecap="butt" stroke-linejoin="miter" stroke-dasharray="none" d="M88.968,0C96.378,0,101.177,1.187,105.345,3.416C109.513,5.645,112.784,8.916,115.012,13.083C117.241,17.251,118.428,22.05,118.428,29.46L118.428,33.677C118.428,41.087,117.241,45.886,115.012,50.054C112.784,54.221,109.513,57.492,105.345,59.721C101.177,61.95,96.378,63.137,88.968,63.137L29.46,63.137C22.05,63.137,17.251,61.95,13.083,59.721C8.916,57.492,5.645,54.221,3.416,50.054C1.187,45.886,0,41.087,0,33.677L0,29.46C0,22.05,1.187,17.251,3.416,13.083C5.645,8.916,8.916,5.645,13.083,3.416C17.251,1.187,22.05,0,29.46,0L88.968,0ZM52.774,7.308L29.46,7.307C23.515,7.307,19.786,8.118,16.529,9.859C13.635,11.407,11.407,13.635,9.859,16.529C8.118,19.786,7.307,23.515,7.307,29.46L7.307,33.677C7.307,39.622,8.118,43.351,9.859,46.608C11.407,49.502,13.635,51.73,16.529,53.278C19.786,55.019,23.515,55.83,29.46,55.83L52.788,55.832C51.474,55.513,50.471,55.081,49.464,54.543C47.083,53.269,45.214,51.4,43.94,49.019C42.666,46.637,41.988,44.275,41.988,37.76L41.988,25.376C41.988,18.862,42.666,16.5,43.94,14.118C45.214,11.737,47.083,9.868,49.464,8.594C50.467,8.058,51.466,7.627,52.774,7.308ZM52.774,7.308"/>
</g>
  <g id="Light-M" transform="matrix(1.0,0.0,0.0,1.0,1095.2058685365737,1059.3282090053763)">  <path fill-opacity="1" stroke-dasharray="none" stroke-linecap="butt" stroke-linejoin="miter" fill="#000000" stroke-opacity="1" fill-rule="nonzero" stroke-width="1px" stroke-miterlimit="4" stroke="none" d="M88.968,0C96.378,0,101.177,1.187,105.345,3.416C109.513,5.645,112.784,8.916,115.012,13.083C117.241,17.251,118.428,22.05,118.428,29.46L118.428,33.677C118.428,41.087,117.241,45.886,115.012,50.054C112.784,54.221,109.513,57.492,105.345,59.721C101.177,61.95,96.378,63.137,88.968,63.137L29.46,63.137C22.05,63.137,17.251,61.95,13.083,59.721C8.916,57.492,5.645,54.221,3.416,50.054C1.187,45.886,0,41.087,0,33.677L0,29.46C0,22.05,1.187,17.251,3.416,13.083C5.645,8.916,8.916,5.645,13.083,3.416C17.251,1.187,22.05,0,29.46,0L88.968,0ZM52.774,7.308L29.46,7.307C23.515,7.307,19.786,8.118,16.529,9.859C13.635,11.407,11.407,13.635,9.859,16.529C8.118,19.786,7.307,23.515,7.307,29.46L7.307,33.677C7.307,39.622,8.118,43.351,9.859,46.608C11.407,49.502,13.635,51.73,16.529,53.278C19.786,55.019,23.515,55.83,29.46,55.83L52.788,55.832C51.474,55.513,50.471,55.081,49.464,54.543C47.083,53.269,45.214,51.4,43.94,49.019C42.666,46.637,41.988,44.275,41.988,37.76L41.988,25.376C41.988,18.862,42.666,16.5,43.94,14.118C45.214,11.737,47.083,9.868,49.464,8.594C50.467,8.058,51.466,7.627,52.774,7.308ZM52.774,7.308"/>
</g>
  <g id="Thin-M" transform="matrix(1.0,0.0,0.0,1.0,798.4958685365735,1059.3282090053763)">  <path stroke-dasharray="none" stroke-miterlimit="4" fill="#000000" stroke="none" stroke-width="1px" stroke-opacity="1" stroke-linecap="butt" fill-opacity="1" fill-rule="nonzero" stroke-linejoin="miter" d="M88.968,0C96.378,0,101.177,1.187,105.345,3.416C109.513,5.645,112.784,8.916,115.012,13.083C117.241,17.251,118.428,22.05,118.428,29.46L118.428,33.677C118.428,41.087,117.241,45.886,115.012,50.054C112.784,54.221,109.513,57.492,105.345,59.721C101.177,61.95,96.378,63.137,88.968,63.137L29.46,63.137C22.05,63.137,17.251,61.95,13.083,59.721C8.916,57.492,5.645,54.221,3.416,50.054C1.187,45.886,0,41.087,0,33.677L0,29.46C0,22.05,1.187,17.251,3.416,13.083C5.645,8.916,8.916,5.645,13.083,3.416C17.251,1.187,22.05,0,29.46,0L88.968,0ZM52.774,7.308L29.46,7.307C23.515,7.307,19.786,8.118,16.529,9.859C13.635,11.407,11.407,13.635,9.859,16.529C8.118,19.786,7.307,23.515,7.307,29.46L7.307,33.677C7.307,39.622,8.118,43.351,9.859,46.608C11.407,49.502,13.635,51.73,16.529,53.278C19.786,55.019,23.515,55.83,29.46,55.83L52.788,55.832C51.474,55.513,50.471,55.081,49.464,54.543C47.083,53.269,45.214,51.4,43.94,49.019C42.666,46.637,41.988,44.275,41.988,37.76L41.988,25.376C41.988,18.862,42.666,16.5,43.94,14.118C45.214,11.737,47.083,9.868,49.464,8.594C50.467,8.058,51.466,7.627,52.774,7.308ZM52.774,7.308"/>
</g>
  <g id="Ultralight-M" transform="matrix(1.0,0.0,0.0,1.0,501.78586853657356,1059.3282090053763)">  <path fill="#000000" stroke-opacity="1" stroke-dasharray="none" fill-opacity="1" stroke-miterlimit="4" stroke-linecap="butt" stroke-linejoin="miter" stroke="none" fill-rule="nonzero" stroke-width="1px" d="M88.968,0C96.378,0,101.177,1.187,105.345,3.416C109.513,5.645,112.784,8.916,115.012,13.083C117.241,17.251,118.428,22.05,118.428,29.46L118.428,33.677C118.428,41.087,117.241,45.886,115.012,50.054C112.784,54.221,109.513,57.492,105.345,59.721C101.177,61.95,96.378,63.137,88.968,63.137L29.46,63.137C22.05,63.137,17.251,61.95,13.083,59.721C8.916,57.492,5.645,54.221,3.416,50.054C1.187,45.886,0,41.087,0,33.677L0,29.46C0,22.05,1.187,17.251,3.416,13.083C5.645,8.916,8.916,5.645,13.083,3.416C17.251,1.187,22.05,0,29.46,0L88.968,0ZM52.774,7.308L29.46,7.307C23.515,7.307,19.786,8.118,16.529,9.859C13.635,11.407,11.407,13.635,9.859,16.529C8.118,19.786,7.307,23.515,7.307,29.46L7.307,33.677C7.307,39.622,8.118,43.351,9.859,46.608C11.407,49.502,13.635,51.73,16.529,53.278C19.786,55.019,23.515,55.83,29.46,55.83L52.788,55.832C51.474,55.513,50.471,55.081,49.464,54.543C47.083,53.269,45.214,51.4,43.94,49.019C42.666,46.637,41.988,44.275,41.988,37.76L41.988,25.376C41.988,18.862,42.666,16.5,43.94,14.118C45.214,11.737,47.083,9.868,49.464,8.594C50.467,8.058,51.466,7.627,52.774,7.308ZM52.774,7.308"/>
</g>
  <g id="Black-S" transform="matrix(1.0,0.0,0.0,1.0,2888.315335064137,636.1510818894909)">  <path stroke-miterlimit="4" fill-opacity="1" stroke-dasharray="none" stroke-linecap="butt" fill="#000000" stroke-width="1px" stroke="none" stroke-linejoin="miter" stroke-opacity="1" fill-rule="nonzero" d="M69.662,0C75.464,0,79.222,0.929,82.485,2.675C85.748,4.42,88.31,6.981,90.055,10.244C91.8,13.508,92.729,17.265,92.729,23.067L92.729,26.369C92.729,32.171,91.8,35.929,90.055,39.192C88.31,42.455,85.748,45.016,82.485,46.762C79.222,48.507,75.464,49.436,69.662,49.436L23.067,49.436C17.265,49.436,13.508,48.507,10.244,46.762C6.981,45.016,4.42,42.455,2.675,39.192C0.929,35.929,0,32.171,0,26.369L0,23.067C0,17.265,0.929,13.508,2.675,10.244C4.42,6.981,6.981,4.42,10.244,2.675C13.508,0.929,17.265,0,23.067,0L69.662,0ZM41.322,5.722L23.067,5.721C18.413,5.721,15.492,6.356,12.942,7.72C10.676,8.932,8.932,10.676,7.72,12.942C6.356,15.492,5.721,18.413,5.721,23.067L5.721,26.369C5.721,31.024,6.356,33.944,7.72,36.494C8.932,38.76,10.676,40.504,12.942,41.716C15.492,43.08,18.413,43.715,23.067,43.715L41.333,43.717C40.304,43.467,39.519,43.128,38.731,42.707C36.866,41.71,35.402,40.246,34.405,38.382C33.408,36.517,32.877,34.667,32.877,29.566L32.877,19.87C32.877,14.769,33.408,12.919,34.405,11.055C35.402,9.19,36.866,7.726,38.731,6.729C39.516,6.309,40.298,5.972,41.322,5.722ZM41.322,5.722"/>
</g>
  <g id="Heavy-S" transform="matrix(1.0,0.0,0.0,1.0,2591.605335064137,636.1510818894909)">  <path stroke-miterlimit="4" stroke-width="1px" stroke-linecap="butt" fill-rule="nonzero" stroke-linejoin="miter" fill-opacity="1" stroke-dasharray="none" stroke-opacity="1" stroke="none" fill="#000000" d="M69.662,0C75.464,0,79.222,0.929,82.485,2.675C85.748,4.42,88.31,6.981,90.055,10.244C91.8,13.508,92.729,17.265,92.729,23.067L92.729,26.369C92.729,32.171,91.8,35.929,90.055,39.192C88.31,42.455,85.748,45.016,82.485,46.762C79.222,48.507,75.464,49.436,69.662,49.436L23.067,49.436C17.265,49.436,13.508,48.507,10.244,46.762C6.981,45.016,4.42,42.455,2.675,39.192C0.929,35.929,0,32.171,0,26.369L0,23.067C0,17.265,0.929,13.508,2.675,10.244C4.42,6.981,6.981,4.42,10.244,2.675C13.508,0.929,17.265,0,23.067,0L69.662,0ZM41.322,5.722L23.067,5.721C18.413,5.721,15.492,6.356,12.942,7.72C10.676,8.932,8.932,10.676,7.72,12.942C6.356,15.492,5.721,18.413,5.721,23.067L5.721,26.369C5.721,31.024,6.356,33.944,7.72,36.494C8.932,38.76,10.676,40.504,12.942,41.716C15.492,43.08,18.413,43.715,23.067,43.715L41.333,43.717C40.304,43.467,39.519,43.128,38.731,42.707C36.866,41.71,35.402,40.246,34.405,38.382C33.408,36.517,32.877,34.667,32.877,29.566L32.877,19.87C32.877,14.769,33.408,12.919,34.405,11.055C35.402,9.19,36.866,7.726,38.731,6.729C39.516,6.309,40.298,5.972,41.322,5.722ZM41.322,5.722"/>
</g>
  <g id="Bold-S" transform="matrix(1.0,0.0,0.0,1.0,2294.895335064137,636.1510818894909)">  <path stroke-miterlimit="4" stroke-opacity="1" stroke-linejoin="miter" stroke-dasharray="none" stroke="none" stroke-linecap="butt" fill-rule="nonzero" stroke-width="1px" fill-opacity="1" fill="#000000" d="M69.662,0C75.464,0,79.222,0.929,82.485,2.675C85.748,4.42,88.31,6.981,90.055,10.244C91.8,13.508,92.729,17.265,92.729,23.067L92.729,26.369C92.729,32.171,91.8,35.929,90.055,39.192C88.31,42.455,85.748,45.016,82.485,46.762C79.222,48.507,75.464,49.436,69.662,49.436L23.067,49.436C17.265,49.436,13.508,48.507,10.244,46.762C6.981,45.016,4.42,42.455,2.675,39.192C0.929,35.929,0,32.171,0,26.369L0,23.067C0,17.265,0.929,13.508,2.675,10.244C4.42,6.981,6.981,4.42,10.244,2.675C13.508,0.929,17.265,0,23.067,0L69.662,0ZM41.322,5.722L23.067,5.721C18.413,5.721,15.492,6.356,12.942,7.72C10.676,8.932,8.932,10.676,7.72,12.942C6.356,15.492,5.721,18.413,5.721,23.067L5.721,26.369C5.721,31.024,6.356,33.944,7.72,36.494C8.932,38.76,10.676,40.504,12.942,41.716C15.492,43.08,18.413,43.715,23.067,43.715L41.333,43.717C40.304,43.467,39.519,43.128,38.731,42.707C36.866,41.71,35.402,40.246,34.405,38.382C33.408,36.517,32.877,34.667,32.877,29.566L32.877,19.87C32.877,14.769,33.408,12.919,34.405,11.055C35.402,9.19,36.866,7.726,38.731,6.729C39.516,6.309,40.298,5.972,41.322,5.722ZM41.322,5.722"/>
</g>
  <g id="Semibold-S" transform="matrix(1.0,0.0,0.0,1.0,1998.185335064137,636.1510818894909)">  <path stroke-linejoin="miter" stroke-width="1px" stroke-dasharray="none" fill-opacity="1" stroke="none" stroke-miterlimit="4" stroke-opacity="1" fill="#000000" stroke-linecap="butt" fill-rule="nonzero" d="M69.662,0C75.464,0,79.222,0.929,82.485,2.675C85.748,4.42,88.31,6.981,90.055,10.244C91.8,13.508,92.729,17.265,92.729,23.067L92.729,26.369C92.729,32.171,91.8,35.929,90.055,39.192C88.31,42.455,85.748,45.016,82.485,46.762C79.222,48.507,75.464,49.436,69.662,49.436L23.067,49.436C17.265,49.436,13.508,48.507,10.244,46.762C6.981,45.016,4.42,42.455,2.675,39.192C0.929,35.929,0,32.171,0,26.369L0,23.067C0,17.265,0.929,13.508,2.675,10.244C4.42,6.981,6.981,4.42,10.244,2.675C13.508,0.929,17.265,0,23.067,0L69.662,0ZM41.322,5.722L23.067,5.721C18.413,5.721,15.492,6.356,12.942,7.72C10.676,8.932,8.932,10.676,7.72,12.942C6.356,15.492,5.721,18.413,5.721,23.067L5.721,26.369C5.721,31.024,6.356,33.944,7.72,36.494C8.932,38.76,10.676,40.504,12.942,41.716C15.492,43.08,18.413,43.715,23.067,43.715L41.333,43.717C40.304,43.467,39.519,43.128,38.731,42.707C36.866,41.71,35.402,40.246,34.405,38.382C33.408,36.517,32.877,34.667,32.877,29.566L32.877,19.87C32.877,14.769,33.408,12.919,34.405,11.055C35.402,9.19,36.866,7.726,38.731,6.729C39.516,6.309,40.298,5.972,41.322,5.722ZM41.322,5.722"/>
</g>
  <g id="Medium-S" transform="matrix(1.0,0.0,0.0,1.0,1701.475335064137,636.1510818894909)">  <path stroke-miterlimit="4" fill="#000000" stroke-linejoin="miter" stroke-opacity="1" stroke-linecap="butt" stroke="none" stroke-dasharray="none" fill-opacity="1" fill-rule="nonzero" stroke-width="1px" d="M69.662,0C75.464,0,79.222,0.929,82.485,2.675C85.748,4.42,88.31,6.981,90.055,10.244C91.8,13.508,92.729,17.265,92.729,23.067L92.729,26.369C92.729,32.171,91.8,35.929,90.055,39.192C88.31,42.455,85.748,45.016,82.485,46.762C79.222,48.507,75.464,49.436,69.662,49.436L23.067,49.436C17.265,49.436,13.508,48.507,10.244,46.762C6.981,45.016,4.42,42.455,2.675,39.192C0.929,35.929,0,32.171,0,26.369L0,23.067C0,17.265,0.929,13.508,2.675,10.244C4.42,6.981,6.981,4.42,10.244,2.675C13.508,0.929,17.265,0,23.067,0L69.662,0ZM41.322,5.722L23.067,5.721C18.413,5.721,15.492,6.356,12.942,7.72C10.676,8.932,8.932,10.676,7.72,12.942C6.356,15.492,5.721,18.413,5.721,23.067L5.721,26.369C5.721,31.024,6.356,33.944,7.72,36.494C8.932,38.76,10.676,40.504,12.942,41.716C15.492,43.08,18.413,43.715,23.067,43.715L41.333,43.717C40.304,43.467,39.519,43.128,38.731,42.707C36.866,41.71,35.402,40.246,34.405,38.382C33.408,36.517,32.877,34.667,32.877,29.566L32.877,19.87C32.877,14.769,33.408,12.919,34.405,11.055C35.402,9.19,36.866,7.726,38.731,6.729C39.516,6.309,40.298,5.972,41.322,5.722ZM41.322,5.722"/>
</g>
  <g id="Regular-S" transform="matrix(1.0,0.0,0.0,1.0,1404.765335064137,636.1510818894909)">  <path stroke="none" stroke-opacity="1" fill-opacity="1" stroke-width="1px" stroke-miterlimit="4" fill="#000000" fill-rule="nonzero" stroke-linecap="butt" stroke-linejoin="miter" stroke-dasharray="none" d="M69.662,0C75.464,0,79.222,0.929,82.485,2.675C85.748,4.42,88.31,6.981,90.055,10.244C91.8,13.508,92.729,17.265,92.729,23.067L92.729,26.369C92.729,32.171,91.8,35.929,90.055,39.192C88.31,42.455,85.748,45.016,82.485,46.762C79.222,48.507,75.464,49.436,69.662,49.436L23.067,49.436C17.265,49.436,13.508,48.507,10.244,46.762C6.981,45.016,4.42,42.455,2.675,39.192C0.929,35.929,0,32.171,0,26.369L0,23.067C0,17.265,0.929,13.508,2.675,10.244C4.42,6.981,6.981,4.42,10.244,2.675C13.508,0.929,17.265,0,23.067,0L69.662,0ZM41.322,5.722L23.067,5.721C18.413,5.721,15.492,6.356,12.942,7.72C10.676,8.932,8.932,10.676,7.72,12.942C6.356,15.492,5.721,18.413,5.721,23.067L5.721,26.369C5.721,31.024,6.356,33.944,7.72,36.494C8.932,38.76,10.676,40.504,12.942,41.716C15.492,43.08,18.413,43.715,23.067,43.715L41.333,43.717C40.304,43.467,39.519,43.128,38.731,42.707C36.866,41.71,35.402,40.246,34.405,38.382C33.408,36.517,32.877,34.667,32.877,29.566L32.877,19.87C32.877,14.769,33.408,12.919,34.405,11.055C35.402,9.19,36.866,7.726,38.731,6.729C39.516,6.309,40.298,5.972,41.322,5.722ZM41.322,5.722"/>
</g>
  <g id="Light-S" transform="matrix(1.0,0.0,0.0,1.0,1108.0553350641371,636.1510818894909)">  <path fill-opacity="1" stroke-dasharray="none" stroke-linecap="butt" stroke-linejoin="miter" fill="#000000" stroke-opacity="1" fill-rule="nonzero" stroke-width="1px" stroke-miterlimit="4" stroke="none" d="M69.662,0C75.464,0,79.222,0.929,82.485,2.675C85.748,4.42,88.31,6.981,90.055,10.244C91.8,13.508,92.729,17.265,92.729,23.067L92.729,26.369C92.729,32.171,91.8,35.929,90.055,39.192C88.31,42.455,85.748,45.016,82.485,46.762C79.222,48.507,75.464,49.436,69.662,49.436L23.067,49.436C17.265,49.436,13.508,48.507,10.244,46.762C6.981,45.016,4.42,42.455,2.675,39.192C0.929,35.929,0,32.171,0,26.369L0,23.067C0,17.265,0.929,13.508,2.675,10.244C4.42,6.981,6.981,4.42,10.244,2.675C13.508,0.929,17.265,0,23.067,0L69.662,0ZM41.322,5.722L23.067,5.721C18.413,5.721,15.492,6.356,12.942,7.72C10.676,8.932,8.932,10.676,7.72,12.942C6.356,15.492,5.721,18.413,5.721,23.067L5.721,26.369C5.721,31.024,6.356,33.944,7.72,36.494C8.932,38.76,10.676,40.504,12.942,41.716C15.492,43.08,18.413,43.715,23.067,43.715L41.333,43.717C40.304,43.467,39.519,43.128,38.731,42.707C36.866,41.71,35.402,40.246,34.405,38.382C33.408,36.517,32.877,34.667,32.877,29.566L32.877,19.87C32.877,14.769,33.408,12.919,34.405,11.055C35.402,9.19,36.866,7.726,38.731,6.729C39.516,6.309,40.298,5.972,41.322,5.722ZM41.322,5.722"/>
</g>
  <g id="Thin-S" transform="matrix(1.0,0.0,0.0,1.0,811.3453350641371,636.1510818894909)">  <path stroke-dasharray="none" stroke-miterlimit="4" fill="#000000" stroke="none" stroke-width="1px" stroke-opacity="1" stroke-linecap="butt" fill-opacity="1" fill-rule="nonzero" stroke-linejoin="miter" d="M69.662,0C75.464,0,79.222,0.929,82.485,2.675C85.748,4.42,88.31,6.981,90.055,10.244C91.8,13.508,92.729,17.265,92.729,23.067L92.729,26.369C92.729,32.171,91.8,35.929,90.055,39.192C88.31,42.455,85.748,45.016,82.485,46.762C79.222,48.507,75.464,49.436,69.662,49.436L23.067,49.436C17.265,49.436,13.508,48.507,10.244,46.762C6.981,45.016,4.42,42.455,2.675,39.192C0.929,35.929,0,32.171,0,26.369L0,23.067C0,17.265,0.929,13.508,2.675,10.244C4.42,6.981,6.981,4.42,10.244,2.675C13.508,0.929,17.265,0,23.067,0L69.662,0ZM41.322,5.722L23.067,5.721C18.413,5.721,15.492,6.356,12.942,7.72C10.676,8.932,8.932,10.676,7.72,12.942C6.356,15.492,5.721,18.413,5.721,23.067L5.721,26.369C5.721,31.024,6.356,33.944,7.72,36.494C8.932,38.76,10.676,40.504,12.942,41.716C15.492,43.08,18.413,43.715,23.067,43.715L41.333,43.717C40.304,43.467,39.519,43.128,38.731,42.707C36.866,41.71,35.402,40.246,34.405,38.382C33.408,36.517,32.877,34.667,32.877,29.566L32.877,19.87C32.877,14.769,33.408,12.919,34.405,11.055C35.402,9.19,36.866,7.726,38.731,6.729C39.516,6.309,40.298,5.972,41.322,5.722ZM41.322,5.722"/>
</g>
  <g id="Ultralight-S" transform="matrix(1.0,0.0,0.0,1.0,514.635335064137,636.1510818894909)">  <path fill="#000000" stroke-opacity="1" stroke-dasharray="none" fill-opacity="1" stroke-miterlimit="4" stroke-linecap="butt" stroke-linejoin="miter" stroke="none" fill-rule="nonzero" stroke-width="1px" d="M69.662,0C75.464,0,79.222,0.929,82.485,2.675C85.748,4.42,88.31,6.981,90.055,10.244C91.8,13.508,92.729,17.265,92.729,23.067L92.729,26.369C92.729,32.171,91.8,35.929,90.055,39.192C88.31,42.455,85.748,45.016,82.485,46.762C79.222,48.507,75.464,49.436,69.662,49.436L23.067,49.436C17.265,49.436,13.508,48.507,10.244,46.762C6.981,45.016,4.42,42.455,2.675,39.192C0.929,35.929,0,32.171,0,26.369L0,23.067C0,17.265,0.929,13.508,2.675,10.244C4.42,6.981,6.981,4.42,10.244,2.675C13.508,0.929,17.265,0,23.067,0L69.662,0ZM41.322,5.722L23.067,5.721C18.413,5.721,15.492,6.356,12.942,7.72C10.676,8.932,8.932,10.676,7.72,12.942C6.356,15.492,5.721,18.413,5.721,23.067L5.721,26.369C5.721,31.024,6.356,33.944,7.72,36.494C8.932,38.76,10.676,40.504,12.942,41.716C15.492,43.08,18.413,43.715,23.067,43.715L41.333,43.717C40.304,43.467,39.519,43.128,38.731,42.707C36.866,41.71,35.402,40.246,34.405,38.382C33.408,36.517,32.877,34.667,32.877,29.566L32.877,19.87C32.877,14.769,33.408,12.919,34.405,11.055C35.402,9.19,36.866,7.726,38.731,6.729C39.516,6.309,40.298,5.972,41.322,5.722ZM41.322,5.722"/>
</g>
 </g>
</svg>
