<?xml version="1.0" encoding="UTF-8"?>
<!-- Generator: CustomSymbols v2.6.7.45 by @serious_bret https://bretlester.com/app_content/CustomSymbols/ -->
<!-- Guides: Left/Right -0.054000000000000006/-0.055999999999999994 Cap/Base -0.06/-0.055999999999999994 -->
<!-- Settings: RefScale 0.0 Min/Max Stroke Scales 0.5/0.3 -->
<!DOCTYPE svg
PUBLIC "-//W3C//DTD SVG 1.1//EN"
       "http://www.w3.org/Graphics/SVG/1.1/DTD/svg11.dtd">
<svg version="1.1" xmlns="http://www.w3.org/2000/svg" xmlns:xlink="http://www.w3.org/1999/xlink" width="3300" height="2200">
<![CDATA[<svg xmlns="http://www.w3.org/2000/svg" width="29.074" height="17.071" viewBox="0 0 29.074 17.071"><g fill="#BBB" transform="translate(1.2 1.2)"><path d="M19.3388065-1.2C24.0384329-1.2 27.8742158 2.64059724 27.8742158 7.33541236 27.8742158 12.0350402 24.0336202 15.8708247 19.3388065 15.8708247L17.3249032 15.8708247C16.6621615 15.8708247 16.1249032 15.3335664 16.1249032 14.6708247 16.1249032 14.008083 16.6621615 13.4708247 17.3249032 13.4708247L19.3388065 13.4708247C22.7088098 13.4708247 25.4742158 10.7088829 25.4742158 7.33541236 25.4742158 3.96540721 22.7122752 1.2 19.3388065 1.2L17.3249032 1.2C16.6621615 1.2 16.1249032.6627417 16.1249032-2.22044605e-16 16.1249032-.6627417 16.6621615-1.2 17.3249032-1.2L19.3388065-1.2ZM9.33597554-1.2C9.99871724-1.2 10.5359755-.6627417 10.5359755-2.22044605e-16 10.5359755.6627417 9.99871724 1.2 9.33597554 1.2L7.33540936 1.2C3.95700747 1.2 1.2 3.95700859 1.2 7.33541236 1.2 10.7054175 3.96194066 13.4708247 7.33540936 13.4708247L9.33597554 13.4708247C9.99871724 13.4708247 10.5359755 14.008083 10.5359755 14.6708247 10.5359755 15.3335664 9.99871724 15.8708247 9.33597554 15.8708247L7.33540936 15.8708247C2.6357829 15.8708247-1.2 12.0302275-1.2 7.33541236-1.2 2.63152541 2.63152385-1.2 7.33540936-1.2L9.33597554-1.2Z"/><path d="M18.6719489,6.13541236 C19.3346906,6.13541236 19.8719489,6.67267066 19.8719489,7.33541236 C19.8719489,7.99815406 19.3346906,8.53541236 18.6719489,8.53541236 L8.00226257,8.53541236 C7.33952087,8.53541236 6.80226257,7.99815406 6.80226257,7.33541236 C6.80226257,6.67267066 7.33952087,6.13541236 8.00226257,6.13541236 L18.6719489,6.13541236 Z"/></g></svg>]]>
 <g id="Notes">
  <rect height="2200" id="artboard" style="fill:white;opacity:1" width="3300" x="0" y="0"/>
  <line id="" style="fill:none;stroke:black;opacity:1;stroke-width:0.5;" x1="263" x2="3036" y1="292" y2="292"/>
  <text id="reftext1" style="stroke:none;fill:black;font-family:-apple-system,&quot;SF Pro Display&quot;,&quot;SF Pro Text&quot;,Helvetica,sans-serif;font-weight:bold;" transform="matrix(1 0 0 1 263 322)">Weight/Scale Variations</text>
  <text id="reftext2" style="stroke:none;fill:black;font-family:-apple-system,&quot;SF Pro Display&quot;,&quot;SF Pro Text&quot;,Helvetica,sans-serif;text-anchor:middle;" transform="matrix(1 0 0 1 559.711 322)">Ultralight</text>
  <text style="stroke:none;fill:black;font-family:-apple-system,&quot;SF Pro Display&quot;,&quot;SF Pro Text&quot;,Helvetica,sans-serif;text-anchor:middle;" transform="matrix(1 0 0 1 856.422 322)">Thin</text>
  <text style="stroke:none;fill:black;font-family:-apple-system,&quot;SF Pro Display&quot;,&quot;SF Pro Text&quot;,Helvetica,sans-serif;text-anchor:middle;" transform="matrix(1 0 0 1 1153.13 322)">Light</text>
  <text style="stroke:none;fill:black;font-family:-apple-system,&quot;SF Pro Display&quot;,&quot;SF Pro Text&quot;,Helvetica,sans-serif;text-anchor:middle;" transform="matrix(1 0 0 1 1449.84 322)">Regular</text>
  <text style="stroke:none;fill:black;font-family:-apple-system,&quot;SF Pro Display&quot;,&quot;SF Pro Text&quot;,Helvetica,sans-serif;text-anchor:middle;" transform="matrix(1 0 0 1 1746.56 322)">Medium</text>
  <text style="stroke:none;fill:black;font-family:-apple-system,&quot;SF Pro Display&quot;,&quot;SF Pro Text&quot;,Helvetica,sans-serif;text-anchor:middle;" transform="matrix(1 0 0 1 2043.27 322)">Semibold</text>
  <text style="stroke:none;fill:black;font-family:-apple-system,&quot;SF Pro Display&quot;,&quot;SF Pro Text&quot;,Helvetica,sans-serif;text-anchor:middle;" transform="matrix(1 0 0 1 2339.98 322)">Bold</text>
  <text style="stroke:none;fill:black;font-family:-apple-system,&quot;SF Pro Display&quot;,&quot;SF Pro Text&quot;,Helvetica,sans-serif;text-anchor:middle;" transform="matrix(1 0 0 1 2636.69 322)">Heavy</text>
  <text style="stroke:none;fill:black;font-family:-apple-system,&quot;SF Pro Display&quot;,&quot;SF Pro Text&quot;,Helvetica,sans-serif;text-anchor:middle;" transform="matrix(1 0 0 1 2933.4 322)">Black</text>
  <line id="" style="fill:none;stroke:black;opacity:1;stroke-width:0.5;" x1="263" x2="3036" y1="1903" y2="1903"/>
  <g id="" transform="matrix(1 0 0 1 263 1933)">
   <path d="M9.24805 0.830078C13.5547 0.830078 17.1387-2.74414 17.1387-7.05078C17.1387-11.3574 13.5449-14.9316 9.23828-14.9316C4.94141-14.9316 1.36719-11.3574 1.36719-7.05078C1.36719-2.74414 4.95117 0.830078 9.24805 0.830078ZM9.24805-0.654297C5.70312-0.654297 2.87109-3.49609 2.87109-7.05078C2.87109-10.6055 5.69336-13.4473 9.23828-13.4473C12.793-13.4473 15.6348-10.6055 15.6445-7.05078C15.6543-3.49609 12.8027-0.654297 9.24805-0.654297ZM6.39648-6.31836L8.50586-6.31836L8.50586-4.19922C8.50586-3.75977 8.79883-3.45703 9.22852-3.45703C9.67773-3.45703 9.9707-3.75977 9.9707-4.19922L9.9707-6.31836L12.0996-6.31836C12.5391-6.31836 12.8418-6.61133 12.8418-7.04102C12.8418-7.48047 12.5391-7.7832 12.0996-7.7832L9.9707-7.7832L9.9707-9.89258C9.9707-10.3418 9.67773-10.6445 9.22852-10.6445C8.79883-10.6445 8.50586-10.3418 8.50586-9.89258L8.50586-7.7832L6.39648-7.7832C5.94727-7.7832 5.64453-7.48047 5.64453-7.04102C5.64453-6.61133 5.94727-6.31836 6.39648-6.31836Z"/>
  </g>
  <g id="" transform="matrix(1 0 0 1 281.506 1933)">
   <path d="M11.709 2.91016C17.1582 2.91016 21.6699-1.61133 21.6699-7.05078C21.6699-12.5 17.1484-17.0117 11.6992-17.0117C6.25977-17.0117 1.74805-12.5 1.74805-7.05078C1.74805-1.61133 6.26953 2.91016 11.709 2.91016ZM11.709 1.25C7.09961 1.25 3.41797-2.44141 3.41797-7.05078C3.41797-11.6602 7.08984-15.3516 11.6992-15.3516C16.3086-15.3516 20-11.6602 20.0098-7.05078C20.0195-2.44141 16.3184 1.25 11.709 1.25ZM7.98828-6.23047L10.8789-6.23047L10.8789-3.32031C10.8789-2.83203 11.2109-2.5 11.6895-2.5C12.1777-2.5 12.5195-2.83203 12.5195-3.32031L12.5195-6.23047L15.4297-6.23047C15.918-6.23047 16.25-6.5625 16.25-7.04102C16.25-7.5293 15.918-7.87109 15.4297-7.87109L12.5195-7.87109L12.5195-10.7617C12.5195-11.2695 12.1777-11.6016 11.6895-11.6016C11.2109-11.6016 10.8789-11.2598 10.8789-10.7617L10.8789-7.87109L7.98828-7.87109C7.48047-7.87109 7.14844-7.5293 7.14844-7.04102C7.14844-6.5625 7.49023-6.23047 7.98828-6.23047Z"/>
  </g>
  <g id="" transform="matrix(1 0 0 1 304.924 1933)">
   <path d="M14.9707 5.66406C21.9336 5.66406 27.6953-0.0976562 27.6953-7.05078C27.6953-14.0137 21.9238-19.7754 14.9609-19.7754C8.00781-19.7754 2.25586-14.0137 2.25586-7.05078C2.25586-0.0976562 8.01758 5.66406 14.9707 5.66406ZM14.9707 3.84766C8.93555 3.84766 4.08203-1.01562 4.08203-7.05078C4.08203-13.0957 8.92578-17.9492 14.9609-17.9492C21.0059-17.9492 25.8594-13.0957 25.8691-7.05078C25.8789-1.01562 21.0156 3.84766 14.9707 3.84766ZM10.0586-6.14258L14.0625-6.14258L14.0625-2.12891C14.0625-1.5918 14.4336-1.2207 14.9512-1.2207C15.4883-1.2207 15.8594-1.5918 15.8594-2.12891L15.8594-6.14258L19.8828-6.14258C20.4102-6.14258 20.791-6.51367 20.791-7.03125C20.791-7.56836 20.4199-7.94922 19.8828-7.94922L15.8594-7.94922L15.8594-11.9531C15.8594-12.5098 15.4883-12.8809 14.9512-12.8809C14.4336-12.8809 14.0625-12.5 14.0625-11.9531L14.0625-7.94922L10.0586-7.94922C9.50195-7.94922 9.13086-7.56836 9.13086-7.03125C9.13086-6.51367 9.51172-6.14258 10.0586-6.14258Z"/>
  </g>
  <text style="stroke:none;fill:black;font-family:-apple-system,&quot;SF Pro Display&quot;,&quot;SF Pro Text&quot;,Helvetica,sans-serif;font-weight:bold;" transform="matrix(1 0 0 1 263 1953)">Design Variations</text>
  <text style="stroke:none;fill:black;font-family:-apple-system,&quot;SF Pro Display&quot;,&quot;SF Pro Text&quot;,Helvetica,sans-serif;" transform="matrix(1 0 0 1 263 1971)">Symbols are supported in up to nine weights and three scales.</text>
  <text style="stroke:none;fill:black;font-family:-apple-system,&quot;SF Pro Display&quot;,&quot;SF Pro Text&quot;,Helvetica,sans-serif;" transform="matrix(1 0 0 1 263 1989)">For optimal layout with text and other symbols, vertically align</text>
  <text style="stroke:none;fill:black;font-family:-apple-system,&quot;SF Pro Display&quot;,&quot;SF Pro Text&quot;,Helvetica,sans-serif;" transform="matrix(1 0 0 1 263 2007)">symbols with the adjacent text.</text>
  <line id="" style="fill:none;stroke:#00AEEF;stroke-width:0.5;opacity:1.0;" x1="776" x2="776" y1="1919" y2="1933"/>
  <g id="" transform="matrix(1 0 0 1 776 1933)">
   <path d="M3.31055 0.126953C3.82812 0.126953 4.08203-0.0683594 4.26758-0.605469L5.52734-4.0625L11.2891-4.0625L12.5488-0.605469C12.7344-0.0683594 12.9883 0.126953 13.4961 0.126953C14.0137 0.126953 14.3457-0.185547 14.3457-0.673828C14.3457-0.839844 14.3164-0.986328 14.2383-1.20117L9.6582-13.3887C9.43359-13.9941 9.0332-14.2871 8.4082-14.2871C7.80273-14.2871 7.39258-13.9941 7.17773-13.3984L2.59766-1.19141C2.51953-0.976562 2.49023-0.830078 2.49023-0.664062C2.49023-0.175781 2.80273 0.126953 3.31055 0.126953ZM6.00586-5.53711L8.37891-12.1094L8.42773-12.1094L10.8008-5.53711Z"/>
  </g>
  <line id="" style="fill:none;stroke:#00AEEF;stroke-width:0.5;opacity:1.0;" x1="792.836" x2="792.836" y1="1919" y2="1933"/>
  <text style="stroke:none;fill:black;font-family:-apple-system,&quot;SF Pro Display&quot;,&quot;SF Pro Text&quot;,Helvetica,sans-serif;font-weight:bold;" transform="matrix(1 0 0 1 776 1953)">Margins</text>
  <text style="stroke:none;fill:black;font-family:-apple-system,&quot;SF Pro Display&quot;,&quot;SF Pro Text&quot;,Helvetica,sans-serif;" transform="matrix(1 0 0 1 776 1971)">Leading and trailing margins on the left and right side of each symbol</text>
  <text style="stroke:none;fill:black;font-family:-apple-system,&quot;SF Pro Display&quot;,&quot;SF Pro Text&quot;,Helvetica,sans-serif;" transform="matrix(1 0 0 1 776 1989)">can be adjusted by modifying the x-location of the margin guidelines.</text>
  <text style="stroke:none;fill:black;font-family:-apple-system,&quot;SF Pro Display&quot;,&quot;SF Pro Text&quot;,Helvetica,sans-serif;" transform="matrix(1 0 0 1 776 2007)">Modifications are automatically applied proportionally to all</text>
  <text style="stroke:none;fill:black;font-family:-apple-system,&quot;SF Pro Display&quot;,&quot;SF Pro Text&quot;,Helvetica,sans-serif;" transform="matrix(1 0 0 1 776 2025)">scales and weights.</text>
  <g id="" transform="matrix(1 0 0 1 1289 1933)">
   <path d="M2.8418 1.86523L4.54102 3.57422C5.40039 4.44336 6.38672 4.38477 7.31445 3.35938L17.4902-7.85156C17.7539-7.76367 18.0273-7.7832 18.3398-7.8418L19.4043-8.03711L20.0684-7.36328L20.0293-6.80664C19.9902-6.30859 20.1172-5.92773 20.6055-5.44922L21.3672-4.70703C21.8457-4.22852 22.4609-4.19922 22.9297-4.66797L25.8398-7.58789C26.3086-8.05664 26.2891-8.65234 25.8105-9.13086L25.0391-9.89258C24.5605-10.3711 24.1895-10.5273 23.7109-10.4883L23.1348-10.4395L22.4902-11.0742L22.7344-12.1973C22.8613-12.7637 22.7051-13.2031 22.1191-13.7891L19.9219-15.9766C16.582-19.2969 12.1484-19.2188 9.25781-16.3281C8.83789-15.918 8.80859-15.3418 9.04297-14.9512C9.27734-14.5898 9.73633-14.3555 10.3809-14.5215C11.8457-14.8633 13.3691-14.9219 14.7949-13.9844L14.209-12.5293C14.0137-12.0508 13.9844-11.6504 14.1113-11.2891L3.04688-0.898438C2.06055 0.0195312 1.98242 0.996094 2.8418 1.86523ZM10.752-15.957C13.1836-17.7344 16.4746-17.4316 18.7012-15.2051L21.1328-12.793C21.3672-12.5586 21.4062-12.373 21.3379-12.0312L21.0156-10.5469L22.5195-9.0625L23.5059-9.12109C23.7598-9.13086 23.8379-9.11133 24.0332-8.91602L24.6094-8.33984L22.168-5.89844L21.5918-6.47461C21.3965-6.66992 21.3672-6.74805 21.377-7.01172L21.4453-7.98828L19.9512-9.47266L18.4277-9.21875C18.1055-9.15039 17.959-9.17969 17.7148-9.41406L15.7129-11.416C15.459-11.6504 15.4297-11.8164 15.5859-12.1875L16.4648-14.2773C14.9023-15.7324 12.8711-16.3574 10.8398-15.7617C10.6836-15.7227 10.625-15.8496 10.752-15.957ZM5.27344 2.30469L4.10156 1.14258C3.63281 0.683594 3.74023 0.341797 4.14062-0.0195312L14.9512-10.1953L16.416-8.71094L6.42578 2.27539C6.07422 2.67578 5.74219 2.77344 5.27344 2.30469Z"/>
  </g>
  <text style="stroke:none;fill:black;font-family:-apple-system,&quot;SF Pro Display&quot;,&quot;SF Pro Text&quot;,Helvetica,sans-serif;font-weight:bold;" transform="matrix(1 0 0 1 1289 1953)">Exporting</text>
  <text style="stroke:none;fill:black;font-family:-apple-system,&quot;SF Pro Display&quot;,&quot;SF Pro Text&quot;,Helvetica,sans-serif;" transform="matrix(1 0 0 1 1289 1971)">Symbols should be outlined when exporting to ensure the</text>
  <text style="stroke:none;fill:black;font-family:-apple-system,&quot;SF Pro Display&quot;,&quot;SF Pro Text&quot;,Helvetica,sans-serif;" transform="matrix(1 0 0 1 1289 1989)">design is preserved when submitting to Xcode.</text>
  <text id="template-version" style="stroke:none;fill:black;font-family:-apple-system,&quot;SF Pro Display&quot;,&quot;SF Pro Text&quot;,Helvetica,sans-serif;text-anchor:end;" transform="matrix(1 0 0 1 3036 1933)">Template v.2.0</text>
  <text style="stroke:none;fill:black;font-family:-apple-system,&quot;SF Pro Display&quot;,&quot;SF Pro Text&quot;,Helvetica,sans-serif;text-anchor:end;" transform="matrix(1 0 0 1 3036 1951)">Requires Xcode 12 or greater</text>
  <text style="stroke:none;fill:black;font-family:-apple-system,&quot;SF Pro Display&quot;,&quot;SF Pro Text&quot;,Helvetica,sans-serif;" transform="matrix(1 0 0 1 263 726)">Small</text>
  <text style="stroke:none;fill:black;font-family:-apple-system,&quot;SF Pro Display&quot;,&quot;SF Pro Text&quot;,Helvetica,sans-serif;" transform="matrix(1 0 0 1 263 1156)">Medium</text>
  <text style="stroke:none;fill:black;font-family:-apple-system,&quot;SF Pro Display&quot;,&quot;SF Pro Text&quot;,Helvetica,sans-serif;" transform="matrix(1 0 0 1 263 1586)">Large</text>
 </g>
 <g id="Guides">
  <g id="H-reference" style="fill:#27AAE1;stroke:none;" transform="matrix(1 0 0 1 339 696)">
   <path d="M0.976562 0L3.66211 0L12.9883-24.4629L45.752-24.4629L55.127 0L57.7637 0L30.6152-70.459L28.125-70.459ZM29.3457-67.1387L29.4434-67.1387L44.873-26.709L13.8672-26.709Z"/>
  </g>
  <line id="Baseline-S" style="fill:none;stroke:#27AAE1;opacity:1;stroke-width:0.5;" x1="263" x2="3036" y1="696" y2="696"/>
  <line id="Capline-S" style="fill:none;stroke:#27AAE1;opacity:1;stroke-width:0.5;" x1="263" x2="3036" y1="625.541" y2="625.541"/>
  <g id="H-reference" style="fill:#27AAE1;stroke:none;" transform="matrix(1 0 0 1 339 1126)">
   <path d="M0.976562 0L3.66211 0L12.9883-24.4629L45.752-24.4629L55.127 0L57.7637 0L30.6152-70.459L28.125-70.459ZM29.3457-67.1387L29.4434-67.1387L44.873-26.709L13.8672-26.709Z"/>
  </g>
  <line id="Baseline-M" style="fill:none;stroke:#27AAE1;opacity:1;stroke-width:0.5;" x1="263" x2="3036" y1="1126" y2="1126"/>
  <line id="Capline-M" style="fill:none;stroke:#27AAE1;opacity:1;stroke-width:0.5;" x1="263" x2="3036" y1="1055.54" y2="1055.54"/>
  <g id="H-reference" style="fill:#27AAE1;stroke:none;" transform="matrix(1 0 0 1 339 1556)">
   <path d="M0.976562 0L3.66211 0L12.9883-24.4629L45.752-24.4629L55.127 0L57.7637 0L30.6152-70.459L28.125-70.459ZM29.3457-67.1387L29.4434-67.1387L44.873-26.709L13.8672-26.709Z"/>
  </g>
  <line id="Baseline-L" style="fill:none;stroke:#27AAE1;opacity:1;stroke-width:0.5;" x1="263" x2="3036" y1="1556" y2="1556"/>
  <line id="Capline-L" style="fill:none;stroke:#27AAE1;opacity:1;stroke-width:0.5;" x1="263" x2="3036" y1="1485.54" y2="1485.54"/>
  <line id="left-margin" x1="1391.5591506871012" x2="1391.5591506871012" y1="1030.79" y2="1150.12" style="fill:none;stroke:#00AEEF;stroke-width:0.5;opacity:1.0;"/>
  <line id="right-margin" x1="1510.9159065306346" x2="1510.9159065306346" y1="1030.79" y2="1150.12" style="fill:none;stroke:#00AEEF;stroke-width:0.5;opacity:1.0;"/>
 </g>
 <g id="Symbols">
  <g id="Black-L" transform="matrix(1.0,0.0,0.0,1.0,2865.324047280109,1480.210083952873)">  <path stroke-dasharray="none" stroke-width="1px" stroke-linecap="butt" fill-rule="nonzero" stroke-opacity="1" stroke-linejoin="miter" fill-opacity="1" stroke-miterlimit="4" stroke="none" fill="#000000" d="M97.991,0C120.412,0,138.713,18.323,138.713,40.722C138.713,63.144,120.389,81.445,97.991,81.445L88.382,81.445C85.22,81.445,82.657,78.882,82.657,75.72C82.657,72.558,85.22,69.994,88.382,69.994L97.991,69.994C114.069,69.994,127.263,56.817,127.263,40.722C127.263,24.644,114.085,11.45,97.991,11.45L88.382,11.45C85.22,11.45,82.657,8.887,82.657,5.725C82.657,2.563,85.22,0,88.382,0L97.991,0ZM50.267,0C53.429,0,55.992,2.563,55.992,5.725C55.992,8.887,53.429,11.45,50.267,11.45L40.722,11.45C24.604,11.45,11.45,24.604,11.45,40.722C11.45,56.801,24.628,69.994,40.722,69.994L50.267,69.994C53.429,69.994,55.992,72.558,55.992,75.72C55.992,78.882,53.429,81.445,50.267,81.445L40.722,81.445C18.301,81.445,0,63.121,0,40.722C0,18.28,18.28,0,40.722,0L50.267,0ZM50.267,0"/>
  <path stroke-miterlimit="4" stroke-linecap="butt" stroke-linejoin="miter" stroke="none" fill="#000000" stroke-opacity="1" fill-opacity="1" fill-rule="nonzero" stroke-dasharray="none" stroke-width="1px" d="M94.809,34.997C97.971,34.997,100.534,37.56,100.534,40.722C100.534,43.884,97.971,46.448,94.809,46.448L43.904,46.448C40.742,46.448,38.179,43.884,38.179,40.722C38.179,37.56,40.742,34.997,43.904,34.997L94.809,34.997ZM94.809,34.997"/>
</g>
  <g id="Heavy-L" transform="matrix(1.0,0.0,0.0,1.0,2568.614047280109,1480.210083952873)">  <path stroke="none" fill-opacity="1" stroke-opacity="1" stroke-width="1px" stroke-miterlimit="4" stroke-linecap="butt" stroke-dasharray="none" stroke-linejoin="miter" fill-rule="nonzero" fill="#000000" d="M97.991,0C120.412,0,138.713,18.323,138.713,40.722C138.713,63.144,120.389,81.445,97.991,81.445L88.382,81.445C85.22,81.445,82.657,78.882,82.657,75.72C82.657,72.558,85.22,69.994,88.382,69.994L97.991,69.994C114.069,69.994,127.263,56.817,127.263,40.722C127.263,24.644,114.085,11.45,97.991,11.45L88.382,11.45C85.22,11.45,82.657,8.887,82.657,5.725C82.657,2.563,85.22,0,88.382,0L97.991,0ZM50.267,0C53.429,0,55.992,2.563,55.992,5.725C55.992,8.887,53.429,11.45,50.267,11.45L40.722,11.45C24.604,11.45,11.45,24.604,11.45,40.722C11.45,56.801,24.628,69.994,40.722,69.994L50.267,69.994C53.429,69.994,55.992,72.558,55.992,75.72C55.992,78.882,53.429,81.445,50.267,81.445L40.722,81.445C18.301,81.445,0,63.121,0,40.722C0,18.28,18.28,0,40.722,0L50.267,0ZM50.267,0"/>
  <path stroke-miterlimit="4" stroke-linejoin="miter" stroke-opacity="1" fill-opacity="1" stroke-linecap="butt" fill-rule="nonzero" stroke-dasharray="none" fill="#000000" stroke-width="1px" stroke="none" d="M94.809,34.997C97.971,34.997,100.534,37.56,100.534,40.722C100.534,43.884,97.971,46.448,94.809,46.448L43.904,46.448C40.742,46.448,38.179,43.884,38.179,40.722C38.179,37.56,40.742,34.997,43.904,34.997L94.809,34.997ZM94.809,34.997"/>
</g>
  <g id="Bold-L" transform="matrix(1.0,0.0,0.0,1.0,2271.904047280109,1480.210083952873)">  <path fill="#000000" stroke-dasharray="none" stroke-opacity="1" fill-opacity="1" stroke-width="1px" stroke-linejoin="miter" stroke-miterlimit="4" stroke-linecap="butt" stroke="none" fill-rule="nonzero" d="M97.991,0C120.412,0,138.713,18.323,138.713,40.722C138.713,63.144,120.389,81.445,97.991,81.445L88.382,81.445C85.22,81.445,82.657,78.882,82.657,75.72C82.657,72.558,85.22,69.994,88.382,69.994L97.991,69.994C114.069,69.994,127.263,56.817,127.263,40.722C127.263,24.644,114.085,11.45,97.991,11.45L88.382,11.45C85.22,11.45,82.657,8.887,82.657,5.725C82.657,2.563,85.22,0,88.382,0L97.991,0ZM50.267,0C53.429,0,55.992,2.563,55.992,5.725C55.992,8.887,53.429,11.45,50.267,11.45L40.722,11.45C24.604,11.45,11.45,24.604,11.45,40.722C11.45,56.801,24.628,69.994,40.722,69.994L50.267,69.994C53.429,69.994,55.992,72.558,55.992,75.72C55.992,78.882,53.429,81.445,50.267,81.445L40.722,81.445C18.301,81.445,0,63.121,0,40.722C0,18.28,18.28,0,40.722,0L50.267,0ZM50.267,0"/>
  <path stroke-linejoin="miter" stroke-linecap="butt" fill-opacity="1" fill="#000000" stroke-dasharray="none" stroke-opacity="1" stroke-miterlimit="4" stroke-width="1px" fill-rule="nonzero" stroke="none" d="M94.809,34.997C97.971,34.997,100.534,37.56,100.534,40.722C100.534,43.884,97.971,46.448,94.809,46.448L43.904,46.448C40.742,46.448,38.179,43.884,38.179,40.722C38.179,37.56,40.742,34.997,43.904,34.997L94.809,34.997ZM94.809,34.997"/>
</g>
  <g id="Semibold-L" transform="matrix(1.0,0.0,0.0,1.0,1975.194047280109,1480.210083952873)">  <path fill="#000000" stroke-miterlimit="4" fill-rule="nonzero" stroke-opacity="1" fill-opacity="1" stroke-linecap="butt" stroke-dasharray="none" stroke-linejoin="miter" stroke-width="1px" stroke="none" d="M97.991,0C120.412,0,138.713,18.323,138.713,40.722C138.713,63.144,120.389,81.445,97.991,81.445L88.382,81.445C85.22,81.445,82.657,78.882,82.657,75.72C82.657,72.558,85.22,69.994,88.382,69.994L97.991,69.994C114.069,69.994,127.263,56.817,127.263,40.722C127.263,24.644,114.085,11.45,97.991,11.45L88.382,11.45C85.22,11.45,82.657,8.887,82.657,5.725C82.657,2.563,85.22,0,88.382,0L97.991,0ZM50.267,0C53.429,0,55.992,2.563,55.992,5.725C55.992,8.887,53.429,11.45,50.267,11.45L40.722,11.45C24.604,11.45,11.45,24.604,11.45,40.722C11.45,56.801,24.628,69.994,40.722,69.994L50.267,69.994C53.429,69.994,55.992,72.558,55.992,75.72C55.992,78.882,53.429,81.445,50.267,81.445L40.722,81.445C18.301,81.445,0,63.121,0,40.722C0,18.28,18.28,0,40.722,0L50.267,0ZM50.267,0"/>
  <path stroke-linecap="butt" fill-opacity="1" fill-rule="nonzero" stroke-miterlimit="4" fill="#000000" stroke-width="1px" stroke="none" stroke-opacity="1" stroke-linejoin="miter" stroke-dasharray="none" d="M94.809,34.997C97.971,34.997,100.534,37.56,100.534,40.722C100.534,43.884,97.971,46.448,94.809,46.448L43.904,46.448C40.742,46.448,38.179,43.884,38.179,40.722C38.179,37.56,40.742,34.997,43.904,34.997L94.809,34.997ZM94.809,34.997"/>
</g>
  <g id="Medium-L" transform="matrix(1.0,0.0,0.0,1.0,1678.484047280109,1480.210083952873)">  <path stroke-width="1px" fill="#000000" fill-rule="nonzero" stroke-linejoin="miter" stroke-linecap="butt" stroke-opacity="1" stroke-dasharray="none" stroke-miterlimit="4" stroke="none" fill-opacity="1" d="M97.991,0C120.412,0,138.713,18.323,138.713,40.722C138.713,63.144,120.389,81.445,97.991,81.445L88.382,81.445C85.22,81.445,82.657,78.882,82.657,75.72C82.657,72.558,85.22,69.994,88.382,69.994L97.991,69.994C114.069,69.994,127.263,56.817,127.263,40.722C127.263,24.644,114.085,11.45,97.991,11.45L88.382,11.45C85.22,11.45,82.657,8.887,82.657,5.725C82.657,2.563,85.22,0,88.382,0L97.991,0ZM50.267,0C53.429,0,55.992,2.563,55.992,5.725C55.992,8.887,53.429,11.45,50.267,11.45L40.722,11.45C24.604,11.45,11.45,24.604,11.45,40.722C11.45,56.801,24.628,69.994,40.722,69.994L50.267,69.994C53.429,69.994,55.992,72.558,55.992,75.72C55.992,78.882,53.429,81.445,50.267,81.445L40.722,81.445C18.301,81.445,0,63.121,0,40.722C0,18.28,18.28,0,40.722,0L50.267,0ZM50.267,0"/>
  <path fill-rule="nonzero" fill-opacity="1" stroke-linecap="butt" fill="#000000" stroke-dasharray="none" stroke-width="1px" stroke="none" stroke-linejoin="miter" stroke-opacity="1" stroke-miterlimit="4" d="M94.809,34.997C97.971,34.997,100.534,37.56,100.534,40.722C100.534,43.884,97.971,46.448,94.809,46.448L43.904,46.448C40.742,46.448,38.179,43.884,38.179,40.722C38.179,37.56,40.742,34.997,43.904,34.997L94.809,34.997ZM94.809,34.997"/>
</g>
  <g id="Regular-L" transform="matrix(1.0,0.0,0.0,1.0,1381.774047280109,1480.210083952873)">  <path stroke-miterlimit="4" fill-rule="nonzero" stroke-linejoin="miter" stroke-width="1px" stroke="none" stroke-opacity="1" stroke-dasharray="none" fill="#000000" stroke-linecap="butt" fill-opacity="1" d="M97.991,0C120.412,0,138.713,18.323,138.713,40.722C138.713,63.144,120.389,81.445,97.991,81.445L88.382,81.445C85.22,81.445,82.657,78.882,82.657,75.72C82.657,72.558,85.22,69.994,88.382,69.994L97.991,69.994C114.069,69.994,127.263,56.817,127.263,40.722C127.263,24.644,114.085,11.45,97.991,11.45L88.382,11.45C85.22,11.45,82.657,8.887,82.657,5.725C82.657,2.563,85.22,0,88.382,0L97.991,0ZM50.267,0C53.429,0,55.992,2.563,55.992,5.725C55.992,8.887,53.429,11.45,50.267,11.45L40.722,11.45C24.604,11.45,11.45,24.604,11.45,40.722C11.45,56.801,24.628,69.994,40.722,69.994L50.267,69.994C53.429,69.994,55.992,72.558,55.992,75.72C55.992,78.882,53.429,81.445,50.267,81.445L40.722,81.445C18.301,81.445,0,63.121,0,40.722C0,18.28,18.28,0,40.722,0L50.267,0ZM50.267,0"/>
  <path stroke-width="1px" stroke-dasharray="none" stroke-miterlimit="4" stroke-linejoin="miter" stroke="none" fill-opacity="1" stroke-linecap="butt" fill-rule="nonzero" stroke-opacity="1" fill="#000000" d="M94.809,34.997C97.971,34.997,100.534,37.56,100.534,40.722C100.534,43.884,97.971,46.448,94.809,46.448L43.904,46.448C40.742,46.448,38.179,43.884,38.179,40.722C38.179,37.56,40.742,34.997,43.904,34.997L94.809,34.997ZM94.809,34.997"/>
</g>
  <g id="Light-L" transform="matrix(1.0,0.0,0.0,1.0,1085.0640472801092,1480.210083952873)">  <path fill-opacity="1" fill-rule="nonzero" stroke-opacity="1" stroke-linejoin="miter" fill="#000000" stroke="none" stroke-width="1px" stroke-dasharray="none" stroke-linecap="butt" stroke-miterlimit="4" d="M97.991,0C120.412,0,138.713,18.323,138.713,40.722C138.713,63.144,120.389,81.445,97.991,81.445L88.382,81.445C85.22,81.445,82.657,78.882,82.657,75.72C82.657,72.558,85.22,69.994,88.382,69.994L97.991,69.994C114.069,69.994,127.263,56.817,127.263,40.722C127.263,24.644,114.085,11.45,97.991,11.45L88.382,11.45C85.22,11.45,82.657,8.887,82.657,5.725C82.657,2.563,85.22,0,88.382,0L97.991,0ZM50.267,0C53.429,0,55.992,2.563,55.992,5.725C55.992,8.887,53.429,11.45,50.267,11.45L40.722,11.45C24.604,11.45,11.45,24.604,11.45,40.722C11.45,56.801,24.628,69.994,40.722,69.994L50.267,69.994C53.429,69.994,55.992,72.558,55.992,75.72C55.992,78.882,53.429,81.445,50.267,81.445L40.722,81.445C18.301,81.445,0,63.121,0,40.722C0,18.28,18.28,0,40.722,0L50.267,0ZM50.267,0"/>
  <path stroke-miterlimit="4" stroke-opacity="1" fill="#000000" stroke-width="1px" stroke-linecap="butt" stroke="none" stroke-dasharray="none" fill-opacity="1" stroke-linejoin="miter" fill-rule="nonzero" d="M94.809,34.997C97.971,34.997,100.534,37.56,100.534,40.722C100.534,43.884,97.971,46.448,94.809,46.448L43.904,46.448C40.742,46.448,38.179,43.884,38.179,40.722C38.179,37.56,40.742,34.997,43.904,34.997L94.809,34.997ZM94.809,34.997"/>
</g>
  <g id="Thin-L" transform="matrix(1.0,0.0,0.0,1.0,788.3540472801091,1480.210083952873)">  <path fill-rule="nonzero" fill-opacity="1" stroke="none" stroke-width="1px" stroke-linecap="butt" stroke-miterlimit="4" stroke-opacity="1" stroke-dasharray="none" fill="#000000" stroke-linejoin="miter" d="M97.991,0C120.412,0,138.713,18.323,138.713,40.722C138.713,63.144,120.389,81.445,97.991,81.445L88.382,81.445C85.22,81.445,82.657,78.882,82.657,75.72C82.657,72.558,85.22,69.994,88.382,69.994L97.991,69.994C114.069,69.994,127.263,56.817,127.263,40.722C127.263,24.644,114.085,11.45,97.991,11.45L88.382,11.45C85.22,11.45,82.657,8.887,82.657,5.725C82.657,2.563,85.22,0,88.382,0L97.991,0ZM50.267,0C53.429,0,55.992,2.563,55.992,5.725C55.992,8.887,53.429,11.45,50.267,11.45L40.722,11.45C24.604,11.45,11.45,24.604,11.45,40.722C11.45,56.801,24.628,69.994,40.722,69.994L50.267,69.994C53.429,69.994,55.992,72.558,55.992,75.72C55.992,78.882,53.429,81.445,50.267,81.445L40.722,81.445C18.301,81.445,0,63.121,0,40.722C0,18.28,18.28,0,40.722,0L50.267,0ZM50.267,0"/>
  <path stroke-opacity="1" stroke-miterlimit="4" fill-opacity="1" stroke-width="1px" fill="#000000" stroke-dasharray="none" stroke="none" fill-rule="nonzero" stroke-linejoin="miter" stroke-linecap="butt" d="M94.809,34.997C97.971,34.997,100.534,37.56,100.534,40.722C100.534,43.884,97.971,46.448,94.809,46.448L43.904,46.448C40.742,46.448,38.179,43.884,38.179,40.722C38.179,37.56,40.742,34.997,43.904,34.997L94.809,34.997ZM94.809,34.997"/>
</g>
  <g id="Ultralight-L" transform="matrix(1.0,0.0,0.0,1.0,491.644047280109,1480.210083952873)">  <path stroke-width="1px" fill="#000000" stroke="none" stroke-linecap="butt" stroke-opacity="1" stroke-linejoin="miter" stroke-dasharray="none" fill-opacity="1" fill-rule="nonzero" stroke-miterlimit="4" d="M97.991,0C120.412,0,138.713,18.323,138.713,40.722C138.713,63.144,120.389,81.445,97.991,81.445L88.382,81.445C85.22,81.445,82.657,78.882,82.657,75.72C82.657,72.558,85.22,69.994,88.382,69.994L97.991,69.994C114.069,69.994,127.263,56.817,127.263,40.722C127.263,24.644,114.085,11.45,97.991,11.45L88.382,11.45C85.22,11.45,82.657,8.887,82.657,5.725C82.657,2.563,85.22,0,88.382,0L97.991,0ZM50.267,0C53.429,0,55.992,2.563,55.992,5.725C55.992,8.887,53.429,11.45,50.267,11.45L40.722,11.45C24.604,11.45,11.45,24.604,11.45,40.722C11.45,56.801,24.628,69.994,40.722,69.994L50.267,69.994C53.429,69.994,55.992,72.558,55.992,75.72C55.992,78.882,53.429,81.445,50.267,81.445L40.722,81.445C18.301,81.445,0,63.121,0,40.722C0,18.28,18.28,0,40.722,0L50.267,0ZM50.267,0"/>
  <path stroke-opacity="1" stroke-miterlimit="4" stroke="none" stroke-linejoin="miter" fill-opacity="1" stroke-dasharray="none" fill="#000000" stroke-linecap="butt" fill-rule="nonzero" stroke-width="1px" d="M94.809,34.997C97.971,34.997,100.534,37.56,100.534,40.722C100.534,43.884,97.971,46.448,94.809,46.448L43.904,46.448C40.742,46.448,38.179,43.884,38.179,40.722C38.179,37.56,40.742,34.997,43.904,34.997L94.809,34.997ZM94.809,34.997"/>
</g>
  <g id="Black-M" transform="matrix(1.0,0.0,0.0,1.0,2880.915695565976,1059.3282090053763)">  <path stroke-dasharray="none" stroke-width="1px" stroke-linecap="butt" fill-rule="nonzero" stroke-opacity="1" stroke-linejoin="miter" fill-opacity="1" stroke-miterlimit="4" stroke="none" fill="#000000" d="M75.962,0C93.343,0,107.529,14.204,107.529,31.568C107.529,48.949,93.325,63.136,75.962,63.136L68.513,63.136C66.062,63.136,64.075,61.148,64.075,58.697C64.075,56.246,66.062,54.259,68.513,54.259L75.962,54.259C88.425,54.259,98.653,44.044,98.653,31.568C98.653,19.104,88.438,8.876,75.962,8.876L68.513,8.876C66.062,8.876,64.075,6.889,64.075,4.438C64.075,1.987,66.062,0,68.513,0L75.962,0ZM38.967,0C41.418,0,43.405,1.987,43.405,4.438C43.405,6.889,41.418,8.876,38.967,8.876L31.568,8.876C19.073,8.876,8.876,19.073,8.876,31.568C8.876,44.032,19.091,54.259,31.568,54.259L38.967,54.259C41.418,54.259,43.405,56.246,43.405,58.697C43.405,61.148,41.418,63.136,38.967,63.136L31.568,63.136C14.186,63.136,0,48.931,0,31.568C0,14.171,14.171,0,31.568,0L38.967,0ZM38.967,0"/>
  <path stroke-miterlimit="4" stroke-linecap="butt" stroke-linejoin="miter" stroke="none" fill="#000000" stroke-opacity="1" fill-opacity="1" fill-rule="nonzero" stroke-dasharray="none" stroke-width="1px" d="M73.495,27.13C75.946,27.13,77.933,29.117,77.933,31.568C77.933,34.019,75.946,36.006,73.495,36.006L34.034,36.006C31.583,36.006,29.596,34.019,29.596,31.568C29.596,29.117,31.583,27.13,34.034,27.13L73.495,27.13ZM73.495,27.13"/>
</g>
  <g id="Heavy-M" transform="matrix(1.0,0.0,0.0,1.0,2584.205695565976,1059.3282090053763)">  <path stroke="none" fill-opacity="1" stroke-opacity="1" stroke-width="1px" stroke-miterlimit="4" stroke-linecap="butt" stroke-dasharray="none" stroke-linejoin="miter" fill-rule="nonzero" fill="#000000" d="M75.962,0C93.343,0,107.529,14.204,107.529,31.568C107.529,48.949,93.325,63.136,75.962,63.136L68.513,63.136C66.062,63.136,64.075,61.148,64.075,58.697C64.075,56.246,66.062,54.259,68.513,54.259L75.962,54.259C88.425,54.259,98.653,44.044,98.653,31.568C98.653,19.104,88.438,8.876,75.962,8.876L68.513,8.876C66.062,8.876,64.075,6.889,64.075,4.438C64.075,1.987,66.062,0,68.513,0L75.962,0ZM38.967,0C41.418,0,43.405,1.987,43.405,4.438C43.405,6.889,41.418,8.876,38.967,8.876L31.568,8.876C19.073,8.876,8.876,19.073,8.876,31.568C8.876,44.032,19.091,54.259,31.568,54.259L38.967,54.259C41.418,54.259,43.405,56.246,43.405,58.697C43.405,61.148,41.418,63.136,38.967,63.136L31.568,63.136C14.186,63.136,0,48.931,0,31.568C0,14.171,14.171,0,31.568,0L38.967,0ZM38.967,0"/>
  <path stroke-miterlimit="4" stroke-linejoin="miter" stroke-opacity="1" fill-opacity="1" stroke-linecap="butt" fill-rule="nonzero" stroke-dasharray="none" fill="#000000" stroke-width="1px" stroke="none" d="M73.495,27.13C75.946,27.13,77.933,29.117,77.933,31.568C77.933,34.019,75.946,36.006,73.495,36.006L34.034,36.006C31.583,36.006,29.596,34.019,29.596,31.568C29.596,29.117,31.583,27.13,34.034,27.13L73.495,27.13ZM73.495,27.13"/>
</g>
  <g id="Bold-M" transform="matrix(1.0,0.0,0.0,1.0,2287.495695565976,1059.3282090053763)">  <path fill="#000000" stroke-dasharray="none" stroke-opacity="1" fill-opacity="1" stroke-width="1px" stroke-linejoin="miter" stroke-miterlimit="4" stroke-linecap="butt" stroke="none" fill-rule="nonzero" d="M75.962,0C93.343,0,107.529,14.204,107.529,31.568C107.529,48.949,93.325,63.136,75.962,63.136L68.513,63.136C66.062,63.136,64.075,61.148,64.075,58.697C64.075,56.246,66.062,54.259,68.513,54.259L75.962,54.259C88.425,54.259,98.653,44.044,98.653,31.568C98.653,19.104,88.438,8.876,75.962,8.876L68.513,8.876C66.062,8.876,64.075,6.889,64.075,4.438C64.075,1.987,66.062,0,68.513,0L75.962,0ZM38.967,0C41.418,0,43.405,1.987,43.405,4.438C43.405,6.889,41.418,8.876,38.967,8.876L31.568,8.876C19.073,8.876,8.876,19.073,8.876,31.568C8.876,44.032,19.091,54.259,31.568,54.259L38.967,54.259C41.418,54.259,43.405,56.246,43.405,58.697C43.405,61.148,41.418,63.136,38.967,63.136L31.568,63.136C14.186,63.136,0,48.931,0,31.568C0,14.171,14.171,0,31.568,0L38.967,0ZM38.967,0"/>
  <path stroke-linejoin="miter" stroke-linecap="butt" fill-opacity="1" fill="#000000" stroke-dasharray="none" stroke-opacity="1" stroke-miterlimit="4" stroke-width="1px" fill-rule="nonzero" stroke="none" d="M73.495,27.13C75.946,27.13,77.933,29.117,77.933,31.568C77.933,34.019,75.946,36.006,73.495,36.006L34.034,36.006C31.583,36.006,29.596,34.019,29.596,31.568C29.596,29.117,31.583,27.13,34.034,27.13L73.495,27.13ZM73.495,27.13"/>
</g>
  <g id="Semibold-M" transform="matrix(1.0,0.0,0.0,1.0,1990.7856955659759,1059.3282090053763)">  <path fill="#000000" stroke-miterlimit="4" fill-rule="nonzero" stroke-opacity="1" fill-opacity="1" stroke-linecap="butt" stroke-dasharray="none" stroke-linejoin="miter" stroke-width="1px" stroke="none" d="M75.962,0C93.343,0,107.529,14.204,107.529,31.568C107.529,48.949,93.325,63.136,75.962,63.136L68.513,63.136C66.062,63.136,64.075,61.148,64.075,58.697C64.075,56.246,66.062,54.259,68.513,54.259L75.962,54.259C88.425,54.259,98.653,44.044,98.653,31.568C98.653,19.104,88.438,8.876,75.962,8.876L68.513,8.876C66.062,8.876,64.075,6.889,64.075,4.438C64.075,1.987,66.062,0,68.513,0L75.962,0ZM38.967,0C41.418,0,43.405,1.987,43.405,4.438C43.405,6.889,41.418,8.876,38.967,8.876L31.568,8.876C19.073,8.876,8.876,19.073,8.876,31.568C8.876,44.032,19.091,54.259,31.568,54.259L38.967,54.259C41.418,54.259,43.405,56.246,43.405,58.697C43.405,61.148,41.418,63.136,38.967,63.136L31.568,63.136C14.186,63.136,0,48.931,0,31.568C0,14.171,14.171,0,31.568,0L38.967,0ZM38.967,0"/>
  <path stroke-linecap="butt" fill-opacity="1" fill-rule="nonzero" stroke-miterlimit="4" fill="#000000" stroke-width="1px" stroke="none" stroke-opacity="1" stroke-linejoin="miter" stroke-dasharray="none" d="M73.495,27.13C75.946,27.13,77.933,29.117,77.933,31.568C77.933,34.019,75.946,36.006,73.495,36.006L34.034,36.006C31.583,36.006,29.596,34.019,29.596,31.568C29.596,29.117,31.583,27.13,34.034,27.13L73.495,27.13ZM73.495,27.13"/>
</g>
  <g id="Medium-M" transform="matrix(1.0,0.0,0.0,1.0,1694.0756955659758,1059.3282090053763)">  <path stroke-width="1px" fill="#000000" fill-rule="nonzero" stroke-linejoin="miter" stroke-linecap="butt" stroke-opacity="1" stroke-dasharray="none" stroke-miterlimit="4" stroke="none" fill-opacity="1" d="M75.962,0C93.343,0,107.529,14.204,107.529,31.568C107.529,48.949,93.325,63.136,75.962,63.136L68.513,63.136C66.062,63.136,64.075,61.148,64.075,58.697C64.075,56.246,66.062,54.259,68.513,54.259L75.962,54.259C88.425,54.259,98.653,44.044,98.653,31.568C98.653,19.104,88.438,8.876,75.962,8.876L68.513,8.876C66.062,8.876,64.075,6.889,64.075,4.438C64.075,1.987,66.062,0,68.513,0L75.962,0ZM38.967,0C41.418,0,43.405,1.987,43.405,4.438C43.405,6.889,41.418,8.876,38.967,8.876L31.568,8.876C19.073,8.876,8.876,19.073,8.876,31.568C8.876,44.032,19.091,54.259,31.568,54.259L38.967,54.259C41.418,54.259,43.405,56.246,43.405,58.697C43.405,61.148,41.418,63.136,38.967,63.136L31.568,63.136C14.186,63.136,0,48.931,0,31.568C0,14.171,14.171,0,31.568,0L38.967,0ZM38.967,0"/>
  <path fill-rule="nonzero" fill-opacity="1" stroke-linecap="butt" fill="#000000" stroke-dasharray="none" stroke-width="1px" stroke="none" stroke-linejoin="miter" stroke-opacity="1" stroke-miterlimit="4" d="M73.495,27.13C75.946,27.13,77.933,29.117,77.933,31.568C77.933,34.019,75.946,36.006,73.495,36.006L34.034,36.006C31.583,36.006,29.596,34.019,29.596,31.568C29.596,29.117,31.583,27.13,34.034,27.13L73.495,27.13ZM73.495,27.13"/>
</g>
  <g id="Regular-M" transform="matrix(1.0,0.0,0.0,1.0,1397.3656955659758,1059.3282090053763)">  <path stroke-miterlimit="4" fill-rule="nonzero" stroke-linejoin="miter" stroke-width="1px" stroke="none" stroke-opacity="1" stroke-dasharray="none" fill="#000000" stroke-linecap="butt" fill-opacity="1" d="M75.962,0C93.343,0,107.529,14.204,107.529,31.568C107.529,48.949,93.325,63.136,75.962,63.136L68.513,63.136C66.062,63.136,64.075,61.148,64.075,58.697C64.075,56.246,66.062,54.259,68.513,54.259L75.962,54.259C88.425,54.259,98.653,44.044,98.653,31.568C98.653,19.104,88.438,8.876,75.962,8.876L68.513,8.876C66.062,8.876,64.075,6.889,64.075,4.438C64.075,1.987,66.062,0,68.513,0L75.962,0ZM38.967,0C41.418,0,43.405,1.987,43.405,4.438C43.405,6.889,41.418,8.876,38.967,8.876L31.568,8.876C19.073,8.876,8.876,19.073,8.876,31.568C8.876,44.032,19.091,54.259,31.568,54.259L38.967,54.259C41.418,54.259,43.405,56.246,43.405,58.697C43.405,61.148,41.418,63.136,38.967,63.136L31.568,63.136C14.186,63.136,0,48.931,0,31.568C0,14.171,14.171,0,31.568,0L38.967,0ZM38.967,0"/>
  <path stroke-width="1px" stroke-dasharray="none" stroke-miterlimit="4" stroke-linejoin="miter" stroke="none" fill-opacity="1" stroke-linecap="butt" fill-rule="nonzero" stroke-opacity="1" fill="#000000" d="M73.495,27.13C75.946,27.13,77.933,29.117,77.933,31.568C77.933,34.019,75.946,36.006,73.495,36.006L34.034,36.006C31.583,36.006,29.596,34.019,29.596,31.568C29.596,29.117,31.583,27.13,34.034,27.13L73.495,27.13ZM73.495,27.13"/>
</g>
  <g id="Light-M" transform="matrix(1.0,0.0,0.0,1.0,1100.655695565976,1059.3282090053763)">  <path fill-opacity="1" fill-rule="nonzero" stroke-opacity="1" stroke-linejoin="miter" fill="#000000" stroke="none" stroke-width="1px" stroke-dasharray="none" stroke-linecap="butt" stroke-miterlimit="4" d="M75.962,0C93.343,0,107.529,14.204,107.529,31.568C107.529,48.949,93.325,63.136,75.962,63.136L68.513,63.136C66.062,63.136,64.075,61.148,64.075,58.697C64.075,56.246,66.062,54.259,68.513,54.259L75.962,54.259C88.425,54.259,98.653,44.044,98.653,31.568C98.653,19.104,88.438,8.876,75.962,8.876L68.513,8.876C66.062,8.876,64.075,6.889,64.075,4.438C64.075,1.987,66.062,0,68.513,0L75.962,0ZM38.967,0C41.418,0,43.405,1.987,43.405,4.438C43.405,6.889,41.418,8.876,38.967,8.876L31.568,8.876C19.073,8.876,8.876,19.073,8.876,31.568C8.876,44.032,19.091,54.259,31.568,54.259L38.967,54.259C41.418,54.259,43.405,56.246,43.405,58.697C43.405,61.148,41.418,63.136,38.967,63.136L31.568,63.136C14.186,63.136,0,48.931,0,31.568C0,14.171,14.171,0,31.568,0L38.967,0ZM38.967,0"/>
  <path stroke-miterlimit="4" stroke-opacity="1" fill="#000000" stroke-width="1px" stroke-linecap="butt" stroke="none" stroke-dasharray="none" fill-opacity="1" stroke-linejoin="miter" fill-rule="nonzero" d="M73.495,27.13C75.946,27.13,77.933,29.117,77.933,31.568C77.933,34.019,75.946,36.006,73.495,36.006L34.034,36.006C31.583,36.006,29.596,34.019,29.596,31.568C29.596,29.117,31.583,27.13,34.034,27.13L73.495,27.13ZM73.495,27.13"/>
</g>
  <g id="Thin-M" transform="matrix(1.0,0.0,0.0,1.0,803.945695565976,1059.3282090053763)">  <path fill-rule="nonzero" fill-opacity="1" stroke="none" stroke-width="1px" stroke-linecap="butt" stroke-miterlimit="4" stroke-opacity="1" stroke-dasharray="none" fill="#000000" stroke-linejoin="miter" d="M75.962,0C93.343,0,107.529,14.204,107.529,31.568C107.529,48.949,93.325,63.136,75.962,63.136L68.513,63.136C66.062,63.136,64.075,61.148,64.075,58.697C64.075,56.246,66.062,54.259,68.513,54.259L75.962,54.259C88.425,54.259,98.653,44.044,98.653,31.568C98.653,19.104,88.438,8.876,75.962,8.876L68.513,8.876C66.062,8.876,64.075,6.889,64.075,4.438C64.075,1.987,66.062,0,68.513,0L75.962,0ZM38.967,0C41.418,0,43.405,1.987,43.405,4.438C43.405,6.889,41.418,8.876,38.967,8.876L31.568,8.876C19.073,8.876,8.876,19.073,8.876,31.568C8.876,44.032,19.091,54.259,31.568,54.259L38.967,54.259C41.418,54.259,43.405,56.246,43.405,58.697C43.405,61.148,41.418,63.136,38.967,63.136L31.568,63.136C14.186,63.136,0,48.931,0,31.568C0,14.171,14.171,0,31.568,0L38.967,0ZM38.967,0"/>
  <path stroke-opacity="1" stroke-miterlimit="4" fill-opacity="1" stroke-width="1px" fill="#000000" stroke-dasharray="none" stroke="none" fill-rule="nonzero" stroke-linejoin="miter" stroke-linecap="butt" d="M73.495,27.13C75.946,27.13,77.933,29.117,77.933,31.568C77.933,34.019,75.946,36.006,73.495,36.006L34.034,36.006C31.583,36.006,29.596,34.019,29.596,31.568C29.596,29.117,31.583,27.13,34.034,27.13L73.495,27.13ZM73.495,27.13"/>
</g>
  <g id="Ultralight-M" transform="matrix(1.0,0.0,0.0,1.0,507.235695565976,1059.3282090053763)">  <path stroke-width="1px" fill="#000000" stroke="none" stroke-linecap="butt" stroke-opacity="1" stroke-linejoin="miter" stroke-dasharray="none" fill-opacity="1" fill-rule="nonzero" stroke-miterlimit="4" d="M75.962,0C93.343,0,107.529,14.204,107.529,31.568C107.529,48.949,93.325,63.136,75.962,63.136L68.513,63.136C66.062,63.136,64.075,61.148,64.075,58.697C64.075,56.246,66.062,54.259,68.513,54.259L75.962,54.259C88.425,54.259,98.653,44.044,98.653,31.568C98.653,19.104,88.438,8.876,75.962,8.876L68.513,8.876C66.062,8.876,64.075,6.889,64.075,4.438C64.075,1.987,66.062,0,68.513,0L75.962,0ZM38.967,0C41.418,0,43.405,1.987,43.405,4.438C43.405,6.889,41.418,8.876,38.967,8.876L31.568,8.876C19.073,8.876,8.876,19.073,8.876,31.568C8.876,44.032,19.091,54.259,31.568,54.259L38.967,54.259C41.418,54.259,43.405,56.246,43.405,58.697C43.405,61.148,41.418,63.136,38.967,63.136L31.568,63.136C14.186,63.136,0,48.931,0,31.568C0,14.171,14.171,0,31.568,0L38.967,0ZM38.967,0"/>
  <path stroke-opacity="1" stroke-miterlimit="4" stroke="none" stroke-linejoin="miter" fill-opacity="1" stroke-dasharray="none" fill="#000000" stroke-linecap="butt" fill-rule="nonzero" stroke-width="1px" d="M73.495,27.13C75.946,27.13,77.933,29.117,77.933,31.568C77.933,34.019,75.946,36.006,73.495,36.006L34.034,36.006C31.583,36.006,29.596,34.019,29.596,31.568C29.596,29.117,31.583,27.13,34.034,27.13L73.495,27.13ZM73.495,27.13"/>
</g>
  <g id="Black-S" transform="matrix(1.0,0.0,0.0,1.0,2892.582549628159,636.1510818894909)">  <path stroke-dasharray="none" stroke-width="1px" stroke-linecap="butt" fill-rule="nonzero" stroke-opacity="1" stroke-linejoin="miter" fill-opacity="1" stroke-miterlimit="4" stroke="none" fill="#000000" d="M59.478,0C73.088,0,84.196,11.122,84.196,24.718C84.196,38.327,73.074,49.435,59.478,49.435L53.646,49.435C51.727,49.435,50.171,47.879,50.171,45.96C50.171,44.041,51.727,42.485,53.646,42.485L59.478,42.485C69.237,42.485,77.245,34.487,77.245,24.718C77.245,14.958,69.247,6.95,59.478,6.95L53.646,6.95C51.727,6.95,50.171,5.394,50.171,3.475C50.171,1.556,51.727,0,53.646,0L59.478,0ZM30.511,0C32.43,0,33.986,1.556,33.986,3.475C33.986,5.394,32.43,6.95,30.511,6.95L24.718,6.95C14.934,6.95,6.95,14.934,6.95,24.718C6.95,34.477,14.948,42.485,24.718,42.485L30.511,42.485C32.43,42.485,33.986,44.041,33.986,45.96C33.986,47.879,32.43,49.435,30.511,49.435L24.718,49.435C11.108,49.435,0,38.313,0,24.718C0,11.096,11.096,0,24.718,0L30.511,0ZM30.511,0"/>
  <path stroke-miterlimit="4" stroke-linecap="butt" stroke-linejoin="miter" stroke="none" fill="#000000" stroke-opacity="1" fill-opacity="1" fill-rule="nonzero" stroke-dasharray="none" stroke-width="1px" d="M57.547,21.242C59.466,21.242,61.022,22.798,61.022,24.718C61.022,26.637,59.466,28.193,57.547,28.193L26.649,28.193C24.729,28.193,23.174,26.637,23.174,24.718C23.174,22.798,24.729,21.242,26.649,21.242L57.547,21.242ZM57.547,21.242"/>
</g>
  <g id="Heavy-S" transform="matrix(1.0,0.0,0.0,1.0,2595.872549628159,636.1510818894909)">  <path stroke="none" fill-opacity="1" stroke-opacity="1" stroke-width="1px" stroke-miterlimit="4" stroke-linecap="butt" stroke-dasharray="none" stroke-linejoin="miter" fill-rule="nonzero" fill="#000000" d="M59.478,0C73.088,0,84.196,11.122,84.196,24.718C84.196,38.327,73.074,49.435,59.478,49.435L53.646,49.435C51.727,49.435,50.171,47.879,50.171,45.96C50.171,44.041,51.727,42.485,53.646,42.485L59.478,42.485C69.237,42.485,77.245,34.487,77.245,24.718C77.245,14.958,69.247,6.95,59.478,6.95L53.646,6.95C51.727,6.95,50.171,5.394,50.171,3.475C50.171,1.556,51.727,0,53.646,0L59.478,0ZM30.511,0C32.43,0,33.986,1.556,33.986,3.475C33.986,5.394,32.43,6.95,30.511,6.95L24.718,6.95C14.934,6.95,6.95,14.934,6.95,24.718C6.95,34.477,14.948,42.485,24.718,42.485L30.511,42.485C32.43,42.485,33.986,44.041,33.986,45.96C33.986,47.879,32.43,49.435,30.511,49.435L24.718,49.435C11.108,49.435,0,38.313,0,24.718C0,11.096,11.096,0,24.718,0L30.511,0ZM30.511,0"/>
  <path stroke-miterlimit="4" stroke-linejoin="miter" stroke-opacity="1" fill-opacity="1" stroke-linecap="butt" fill-rule="nonzero" stroke-dasharray="none" fill="#000000" stroke-width="1px" stroke="none" d="M57.547,21.242C59.466,21.242,61.022,22.798,61.022,24.718C61.022,26.637,59.466,28.193,57.547,28.193L26.649,28.193C24.729,28.193,23.174,26.637,23.174,24.718C23.174,22.798,24.729,21.242,26.649,21.242L57.547,21.242ZM57.547,21.242"/>
</g>
  <g id="Bold-S" transform="matrix(1.0,0.0,0.0,1.0,2299.162549628159,636.1510818894909)">  <path fill="#000000" stroke-dasharray="none" stroke-opacity="1" fill-opacity="1" stroke-width="1px" stroke-linejoin="miter" stroke-miterlimit="4" stroke-linecap="butt" stroke="none" fill-rule="nonzero" d="M59.478,0C73.088,0,84.196,11.122,84.196,24.718C84.196,38.327,73.074,49.435,59.478,49.435L53.646,49.435C51.727,49.435,50.171,47.879,50.171,45.96C50.171,44.041,51.727,42.485,53.646,42.485L59.478,42.485C69.237,42.485,77.245,34.487,77.245,24.718C77.245,14.958,69.247,6.95,59.478,6.95L53.646,6.95C51.727,6.95,50.171,5.394,50.171,3.475C50.171,1.556,51.727,0,53.646,0L59.478,0ZM30.511,0C32.43,0,33.986,1.556,33.986,3.475C33.986,5.394,32.43,6.95,30.511,6.95L24.718,6.95C14.934,6.95,6.95,14.934,6.95,24.718C6.95,34.477,14.948,42.485,24.718,42.485L30.511,42.485C32.43,42.485,33.986,44.041,33.986,45.96C33.986,47.879,32.43,49.435,30.511,49.435L24.718,49.435C11.108,49.435,0,38.313,0,24.718C0,11.096,11.096,0,24.718,0L30.511,0ZM30.511,0"/>
  <path stroke-linejoin="miter" stroke-linecap="butt" fill-opacity="1" fill="#000000" stroke-dasharray="none" stroke-opacity="1" stroke-miterlimit="4" stroke-width="1px" fill-rule="nonzero" stroke="none" d="M57.547,21.242C59.466,21.242,61.022,22.798,61.022,24.718C61.022,26.637,59.466,28.193,57.547,28.193L26.649,28.193C24.729,28.193,23.174,26.637,23.174,24.718C23.174,22.798,24.729,21.242,26.649,21.242L57.547,21.242ZM57.547,21.242"/>
</g>
  <g id="Semibold-S" transform="matrix(1.0,0.0,0.0,1.0,2002.4525496281592,636.1510818894909)">  <path fill="#000000" stroke-miterlimit="4" fill-rule="nonzero" stroke-opacity="1" fill-opacity="1" stroke-linecap="butt" stroke-dasharray="none" stroke-linejoin="miter" stroke-width="1px" stroke="none" d="M59.478,0C73.088,0,84.196,11.122,84.196,24.718C84.196,38.327,73.074,49.435,59.478,49.435L53.646,49.435C51.727,49.435,50.171,47.879,50.171,45.96C50.171,44.041,51.727,42.485,53.646,42.485L59.478,42.485C69.237,42.485,77.245,34.487,77.245,24.718C77.245,14.958,69.247,6.95,59.478,6.95L53.646,6.95C51.727,6.95,50.171,5.394,50.171,3.475C50.171,1.556,51.727,0,53.646,0L59.478,0ZM30.511,0C32.43,0,33.986,1.556,33.986,3.475C33.986,5.394,32.43,6.95,30.511,6.95L24.718,6.95C14.934,6.95,6.95,14.934,6.95,24.718C6.95,34.477,14.948,42.485,24.718,42.485L30.511,42.485C32.43,42.485,33.986,44.041,33.986,45.96C33.986,47.879,32.43,49.435,30.511,49.435L24.718,49.435C11.108,49.435,0,38.313,0,24.718C0,11.096,11.096,0,24.718,0L30.511,0ZM30.511,0"/>
  <path stroke-linecap="butt" fill-opacity="1" fill-rule="nonzero" stroke-miterlimit="4" fill="#000000" stroke-width="1px" stroke="none" stroke-opacity="1" stroke-linejoin="miter" stroke-dasharray="none" d="M57.547,21.242C59.466,21.242,61.022,22.798,61.022,24.718C61.022,26.637,59.466,28.193,57.547,28.193L26.649,28.193C24.729,28.193,23.174,26.637,23.174,24.718C23.174,22.798,24.729,21.242,26.649,21.242L57.547,21.242ZM57.547,21.242"/>
</g>
  <g id="Medium-S" transform="matrix(1.0,0.0,0.0,1.0,1705.7425496281592,636.1510818894909)">  <path stroke-width="1px" fill="#000000" fill-rule="nonzero" stroke-linejoin="miter" stroke-linecap="butt" stroke-opacity="1" stroke-dasharray="none" stroke-miterlimit="4" stroke="none" fill-opacity="1" d="M59.478,0C73.088,0,84.196,11.122,84.196,24.718C84.196,38.327,73.074,49.435,59.478,49.435L53.646,49.435C51.727,49.435,50.171,47.879,50.171,45.96C50.171,44.041,51.727,42.485,53.646,42.485L59.478,42.485C69.237,42.485,77.245,34.487,77.245,24.718C77.245,14.958,69.247,6.95,59.478,6.95L53.646,6.95C51.727,6.95,50.171,5.394,50.171,3.475C50.171,1.556,51.727,0,53.646,0L59.478,0ZM30.511,0C32.43,0,33.986,1.556,33.986,3.475C33.986,5.394,32.43,6.95,30.511,6.95L24.718,6.95C14.934,6.95,6.95,14.934,6.95,24.718C6.95,34.477,14.948,42.485,24.718,42.485L30.511,42.485C32.43,42.485,33.986,44.041,33.986,45.96C33.986,47.879,32.43,49.435,30.511,49.435L24.718,49.435C11.108,49.435,0,38.313,0,24.718C0,11.096,11.096,0,24.718,0L30.511,0ZM30.511,0"/>
  <path fill-rule="nonzero" fill-opacity="1" stroke-linecap="butt" fill="#000000" stroke-dasharray="none" stroke-width="1px" stroke="none" stroke-linejoin="miter" stroke-opacity="1" stroke-miterlimit="4" d="M57.547,21.242C59.466,21.242,61.022,22.798,61.022,24.718C61.022,26.637,59.466,28.193,57.547,28.193L26.649,28.193C24.729,28.193,23.174,26.637,23.174,24.718C23.174,22.798,24.729,21.242,26.649,21.242L57.547,21.242ZM57.547,21.242"/>
</g>
  <g id="Regular-S" transform="matrix(1.0,0.0,0.0,1.0,1409.0325496281591,636.1510818894909)">  <path stroke-miterlimit="4" fill-rule="nonzero" stroke-linejoin="miter" stroke-width="1px" stroke="none" stroke-opacity="1" stroke-dasharray="none" fill="#000000" stroke-linecap="butt" fill-opacity="1" d="M59.478,0C73.088,0,84.196,11.122,84.196,24.718C84.196,38.327,73.074,49.435,59.478,49.435L53.646,49.435C51.727,49.435,50.171,47.879,50.171,45.96C50.171,44.041,51.727,42.485,53.646,42.485L59.478,42.485C69.237,42.485,77.245,34.487,77.245,24.718C77.245,14.958,69.247,6.95,59.478,6.95L53.646,6.95C51.727,6.95,50.171,5.394,50.171,3.475C50.171,1.556,51.727,0,53.646,0L59.478,0ZM30.511,0C32.43,0,33.986,1.556,33.986,3.475C33.986,5.394,32.43,6.95,30.511,6.95L24.718,6.95C14.934,6.95,6.95,14.934,6.95,24.718C6.95,34.477,14.948,42.485,24.718,42.485L30.511,42.485C32.43,42.485,33.986,44.041,33.986,45.96C33.986,47.879,32.43,49.435,30.511,49.435L24.718,49.435C11.108,49.435,0,38.313,0,24.718C0,11.096,11.096,0,24.718,0L30.511,0ZM30.511,0"/>
  <path stroke-width="1px" stroke-dasharray="none" stroke-miterlimit="4" stroke-linejoin="miter" stroke="none" fill-opacity="1" stroke-linecap="butt" fill-rule="nonzero" stroke-opacity="1" fill="#000000" d="M57.547,21.242C59.466,21.242,61.022,22.798,61.022,24.718C61.022,26.637,59.466,28.193,57.547,28.193L26.649,28.193C24.729,28.193,23.174,26.637,23.174,24.718C23.174,22.798,24.729,21.242,26.649,21.242L57.547,21.242ZM57.547,21.242"/>
</g>
  <g id="Light-S" transform="matrix(1.0,0.0,0.0,1.0,1112.3225496281593,636.1510818894909)">  <path fill-opacity="1" fill-rule="nonzero" stroke-opacity="1" stroke-linejoin="miter" fill="#000000" stroke="none" stroke-width="1px" stroke-dasharray="none" stroke-linecap="butt" stroke-miterlimit="4" d="M59.478,0C73.088,0,84.196,11.122,84.196,24.718C84.196,38.327,73.074,49.435,59.478,49.435L53.646,49.435C51.727,49.435,50.171,47.879,50.171,45.96C50.171,44.041,51.727,42.485,53.646,42.485L59.478,42.485C69.237,42.485,77.245,34.487,77.245,24.718C77.245,14.958,69.247,6.95,59.478,6.95L53.646,6.95C51.727,6.95,50.171,5.394,50.171,3.475C50.171,1.556,51.727,0,53.646,0L59.478,0ZM30.511,0C32.43,0,33.986,1.556,33.986,3.475C33.986,5.394,32.43,6.95,30.511,6.95L24.718,6.95C14.934,6.95,6.95,14.934,6.95,24.718C6.95,34.477,14.948,42.485,24.718,42.485L30.511,42.485C32.43,42.485,33.986,44.041,33.986,45.96C33.986,47.879,32.43,49.435,30.511,49.435L24.718,49.435C11.108,49.435,0,38.313,0,24.718C0,11.096,11.096,0,24.718,0L30.511,0ZM30.511,0"/>
  <path stroke-miterlimit="4" stroke-opacity="1" fill="#000000" stroke-width="1px" stroke-linecap="butt" stroke="none" stroke-dasharray="none" fill-opacity="1" stroke-linejoin="miter" fill-rule="nonzero" d="M57.547,21.242C59.466,21.242,61.022,22.798,61.022,24.718C61.022,26.637,59.466,28.193,57.547,28.193L26.649,28.193C24.729,28.193,23.174,26.637,23.174,24.718C23.174,22.798,24.729,21.242,26.649,21.242L57.547,21.242ZM57.547,21.242"/>
</g>
  <g id="Thin-S" transform="matrix(1.0,0.0,0.0,1.0,815.6125496281593,636.1510818894909)">  <path fill-rule="nonzero" fill-opacity="1" stroke="none" stroke-width="1px" stroke-linecap="butt" stroke-miterlimit="4" stroke-opacity="1" stroke-dasharray="none" fill="#000000" stroke-linejoin="miter" d="M59.478,0C73.088,0,84.196,11.122,84.196,24.718C84.196,38.327,73.074,49.435,59.478,49.435L53.646,49.435C51.727,49.435,50.171,47.879,50.171,45.96C50.171,44.041,51.727,42.485,53.646,42.485L59.478,42.485C69.237,42.485,77.245,34.487,77.245,24.718C77.245,14.958,69.247,6.95,59.478,6.95L53.646,6.95C51.727,6.95,50.171,5.394,50.171,3.475C50.171,1.556,51.727,0,53.646,0L59.478,0ZM30.511,0C32.43,0,33.986,1.556,33.986,3.475C33.986,5.394,32.43,6.95,30.511,6.95L24.718,6.95C14.934,6.95,6.95,14.934,6.95,24.718C6.95,34.477,14.948,42.485,24.718,42.485L30.511,42.485C32.43,42.485,33.986,44.041,33.986,45.96C33.986,47.879,32.43,49.435,30.511,49.435L24.718,49.435C11.108,49.435,0,38.313,0,24.718C0,11.096,11.096,0,24.718,0L30.511,0ZM30.511,0"/>
  <path stroke-opacity="1" stroke-miterlimit="4" fill-opacity="1" stroke-width="1px" fill="#000000" stroke-dasharray="none" stroke="none" fill-rule="nonzero" stroke-linejoin="miter" stroke-linecap="butt" d="M57.547,21.242C59.466,21.242,61.022,22.798,61.022,24.718C61.022,26.637,59.466,28.193,57.547,28.193L26.649,28.193C24.729,28.193,23.174,26.637,23.174,24.718C23.174,22.798,24.729,21.242,26.649,21.242L57.547,21.242ZM57.547,21.242"/>
</g>
  <g id="Ultralight-S" transform="matrix(1.0,0.0,0.0,1.0,518.9025496281592,636.1510818894909)">  <path stroke-width="1px" fill="#000000" stroke="none" stroke-linecap="butt" stroke-opacity="1" stroke-linejoin="miter" stroke-dasharray="none" fill-opacity="1" fill-rule="nonzero" stroke-miterlimit="4" d="M59.478,0C73.088,0,84.196,11.122,84.196,24.718C84.196,38.327,73.074,49.435,59.478,49.435L53.646,49.435C51.727,49.435,50.171,47.879,50.171,45.96C50.171,44.041,51.727,42.485,53.646,42.485L59.478,42.485C69.237,42.485,77.245,34.487,77.245,24.718C77.245,14.958,69.247,6.95,59.478,6.95L53.646,6.95C51.727,6.95,50.171,5.394,50.171,3.475C50.171,1.556,51.727,0,53.646,0L59.478,0ZM30.511,0C32.43,0,33.986,1.556,33.986,3.475C33.986,5.394,32.43,6.95,30.511,6.95L24.718,6.95C14.934,6.95,6.95,14.934,6.95,24.718C6.95,34.477,14.948,42.485,24.718,42.485L30.511,42.485C32.43,42.485,33.986,44.041,33.986,45.96C33.986,47.879,32.43,49.435,30.511,49.435L24.718,49.435C11.108,49.435,0,38.313,0,24.718C0,11.096,11.096,0,24.718,0L30.511,0ZM30.511,0"/>
  <path stroke-opacity="1" stroke-miterlimit="4" stroke="none" stroke-linejoin="miter" fill-opacity="1" stroke-dasharray="none" fill="#000000" stroke-linecap="butt" fill-rule="nonzero" stroke-width="1px" d="M57.547,21.242C59.466,21.242,61.022,22.798,61.022,24.718C61.022,26.637,59.466,28.193,57.547,28.193L26.649,28.193C24.729,28.193,23.174,26.637,23.174,24.718C23.174,22.798,24.729,21.242,26.649,21.242L57.547,21.242ZM57.547,21.242"/>
</g>
 </g>
</svg>
