<?xml version="1.0" encoding="UTF-8"?>
<!-- Generator: CustomSymbols v2.6.7.45 by @serious_bret https://bretlester.com/app_content/CustomSymbols/ -->
<!-- Guides: Left/Right -0.05400000000000003/-0.05599999999999998 Cap/Base -0.06/-0.05599999999999998 -->
<!-- Settings: RefScale 0.0 Min/Max Stroke Scales 0.5/0.3 -->
<!DOCTYPE svg
PUBLIC "-//W3C//DTD SVG 1.1//EN"
       "http://www.w3.org/Graphics/SVG/1.1/DTD/svg11.dtd">
<svg version="1.1" xmlns="http://www.w3.org/2000/svg" xmlns:xlink="http://www.w3.org/1999/xlink" width="3300" height="2200">
<![CDATA[<svg xmlns="http://www.w3.org/2000/svg" width="21.824" height="22" viewBox="0 0 21.824 22"><path fill="#BBB" fill-rule="evenodd" d="M56.4695757,26.4917705 C56.4695757,29.1917816 58.6715078,31.3806593 61.3877315,31.3806593 L61.6295695,31.3806593 C62.2448062,31.3806593 62.8377022,31.6099482 63.2912299,32.0231816 L66.8927462,35.3048482 C67.5736648,35.9253705 68.4637281,36.2695482 69.3874807,36.2695482 C70.9282159,36.2695482 72.3913672,35.293726 72.773385,33.6788038 C73.1795017,31.9624371 73.6831208,29.0683371 73.6831208,25.2695482 C73.6831208,21.4707838 73.1795017,18.576696 72.773385,16.8603416 C72.3913672,15.245346 70.9282159,14.2695482 69.3874807,14.2695482 C68.4637281,14.2695482 67.5736648,14.6137382 66.8927462,15.2341993 L63.2912176,18.5159271 C62.8377022,18.9291849 62.2448062,19.1584371 61.6295695,19.1584371 L61.3877315,19.1584371 C58.6715078,19.1584371 56.4695757,21.347266 56.4695757,24.047326 L56.4695757,26.4917705 Z M61.3877315,28.9362149 C60.0296197,28.9362149 58.9286536,27.8418371 58.9286536,26.4917705 L58.9286536,24.047326 C58.9286536,22.697296 60.0296197,21.6028816 61.3877315,21.6028816 L61.6295695,21.6028816 C62.8600429,21.6028816 64.0458225,21.1443771 64.952878,20.3178616 L68.5543451,17.0361338 C68.7818098,16.8289305 69.0789893,16.7139927 69.3874807,16.7139927 C69.9177808,16.7139927 70.2876261,17.0310005 70.3795956,17.4199605 C70.7487032,18.9799071 71.224043,21.6850516 71.224043,25.2695482 C71.224043,28.8540816 70.7487032,31.559226 70.3795956,33.1191482 C70.2876261,33.5080593 69.9177808,33.8251038 69.3874807,33.8251038 C69.0789893,33.8251038 68.7818098,33.7102149 68.5543451,33.502926 L64.952878,30.2212593 C64.0458348,29.3946705 62.8600429,28.9362149 61.6295695,28.9362149 L61.3877315,28.9362149 Z M75.0424991,28.3896371 C74.738803,28.9934149 74.9849567,29.7274816 75.5923489,30.0293705 C76.1997411,30.3312593 76.9382022,30.0865705 77.2418983,29.4827927 C78.6445564,26.6942927 78.6445564,23.8448038 77.2418983,21.0562916 C76.9382022,20.4525382 76.1997411,20.2078127 75.5923489,20.5096893 C74.9849567,20.811566 74.738803,21.5457305 75.0424991,22.1494716 C76.0989189,24.2498482 76.0989189,26.2892482 75.0424991,28.3896371 Z" transform="translate(-56.47 -14.27)"/></svg>]]>
 <g id="Notes">
  <rect height="2200" id="artboard" style="fill:white;opacity:1" width="3300" x="0" y="0"/>
  <line id="" style="fill:none;stroke:black;opacity:1;stroke-width:0.5;" x1="263" x2="3036" y1="292" y2="292"/>
  <text id="reftext1" style="stroke:none;fill:black;font-family:-apple-system,&quot;SF Pro Display&quot;,&quot;SF Pro Text&quot;,Helvetica,sans-serif;font-weight:bold;" transform="matrix(1 0 0 1 263 322)">Weight/Scale Variations</text>
  <text id="reftext2" style="stroke:none;fill:black;font-family:-apple-system,&quot;SF Pro Display&quot;,&quot;SF Pro Text&quot;,Helvetica,sans-serif;text-anchor:middle;" transform="matrix(1 0 0 1 559.711 322)">Ultralight</text>
  <text style="stroke:none;fill:black;font-family:-apple-system,&quot;SF Pro Display&quot;,&quot;SF Pro Text&quot;,Helvetica,sans-serif;text-anchor:middle;" transform="matrix(1 0 0 1 856.422 322)">Thin</text>
  <text style="stroke:none;fill:black;font-family:-apple-system,&quot;SF Pro Display&quot;,&quot;SF Pro Text&quot;,Helvetica,sans-serif;text-anchor:middle;" transform="matrix(1 0 0 1 1153.13 322)">Light</text>
  <text style="stroke:none;fill:black;font-family:-apple-system,&quot;SF Pro Display&quot;,&quot;SF Pro Text&quot;,Helvetica,sans-serif;text-anchor:middle;" transform="matrix(1 0 0 1 1449.84 322)">Regular</text>
  <text style="stroke:none;fill:black;font-family:-apple-system,&quot;SF Pro Display&quot;,&quot;SF Pro Text&quot;,Helvetica,sans-serif;text-anchor:middle;" transform="matrix(1 0 0 1 1746.56 322)">Medium</text>
  <text style="stroke:none;fill:black;font-family:-apple-system,&quot;SF Pro Display&quot;,&quot;SF Pro Text&quot;,Helvetica,sans-serif;text-anchor:middle;" transform="matrix(1 0 0 1 2043.27 322)">Semibold</text>
  <text style="stroke:none;fill:black;font-family:-apple-system,&quot;SF Pro Display&quot;,&quot;SF Pro Text&quot;,Helvetica,sans-serif;text-anchor:middle;" transform="matrix(1 0 0 1 2339.98 322)">Bold</text>
  <text style="stroke:none;fill:black;font-family:-apple-system,&quot;SF Pro Display&quot;,&quot;SF Pro Text&quot;,Helvetica,sans-serif;text-anchor:middle;" transform="matrix(1 0 0 1 2636.69 322)">Heavy</text>
  <text style="stroke:none;fill:black;font-family:-apple-system,&quot;SF Pro Display&quot;,&quot;SF Pro Text&quot;,Helvetica,sans-serif;text-anchor:middle;" transform="matrix(1 0 0 1 2933.4 322)">Black</text>
  <line id="" style="fill:none;stroke:black;opacity:1;stroke-width:0.5;" x1="263" x2="3036" y1="1903" y2="1903"/>
  <g id="" transform="matrix(1 0 0 1 263 1933)">
   <path d="M9.24805 0.830078C13.5547 0.830078 17.1387-2.74414 17.1387-7.05078C17.1387-11.3574 13.5449-14.9316 9.23828-14.9316C4.94141-14.9316 1.36719-11.3574 1.36719-7.05078C1.36719-2.74414 4.95117 0.830078 9.24805 0.830078ZM9.24805-0.654297C5.70312-0.654297 2.87109-3.49609 2.87109-7.05078C2.87109-10.6055 5.69336-13.4473 9.23828-13.4473C12.793-13.4473 15.6348-10.6055 15.6445-7.05078C15.6543-3.49609 12.8027-0.654297 9.24805-0.654297ZM6.39648-6.31836L8.50586-6.31836L8.50586-4.19922C8.50586-3.75977 8.79883-3.45703 9.22852-3.45703C9.67773-3.45703 9.9707-3.75977 9.9707-4.19922L9.9707-6.31836L12.0996-6.31836C12.5391-6.31836 12.8418-6.61133 12.8418-7.04102C12.8418-7.48047 12.5391-7.7832 12.0996-7.7832L9.9707-7.7832L9.9707-9.89258C9.9707-10.3418 9.67773-10.6445 9.22852-10.6445C8.79883-10.6445 8.50586-10.3418 8.50586-9.89258L8.50586-7.7832L6.39648-7.7832C5.94727-7.7832 5.64453-7.48047 5.64453-7.04102C5.64453-6.61133 5.94727-6.31836 6.39648-6.31836Z"/>
  </g>
  <g id="" transform="matrix(1 0 0 1 281.506 1933)">
   <path d="M11.709 2.91016C17.1582 2.91016 21.6699-1.61133 21.6699-7.05078C21.6699-12.5 17.1484-17.0117 11.6992-17.0117C6.25977-17.0117 1.74805-12.5 1.74805-7.05078C1.74805-1.61133 6.26953 2.91016 11.709 2.91016ZM11.709 1.25C7.09961 1.25 3.41797-2.44141 3.41797-7.05078C3.41797-11.6602 7.08984-15.3516 11.6992-15.3516C16.3086-15.3516 20-11.6602 20.0098-7.05078C20.0195-2.44141 16.3184 1.25 11.709 1.25ZM7.98828-6.23047L10.8789-6.23047L10.8789-3.32031C10.8789-2.83203 11.2109-2.5 11.6895-2.5C12.1777-2.5 12.5195-2.83203 12.5195-3.32031L12.5195-6.23047L15.4297-6.23047C15.918-6.23047 16.25-6.5625 16.25-7.04102C16.25-7.5293 15.918-7.87109 15.4297-7.87109L12.5195-7.87109L12.5195-10.7617C12.5195-11.2695 12.1777-11.6016 11.6895-11.6016C11.2109-11.6016 10.8789-11.2598 10.8789-10.7617L10.8789-7.87109L7.98828-7.87109C7.48047-7.87109 7.14844-7.5293 7.14844-7.04102C7.14844-6.5625 7.49023-6.23047 7.98828-6.23047Z"/>
  </g>
  <g id="" transform="matrix(1 0 0 1 304.924 1933)">
   <path d="M14.9707 5.66406C21.9336 5.66406 27.6953-0.0976562 27.6953-7.05078C27.6953-14.0137 21.9238-19.7754 14.9609-19.7754C8.00781-19.7754 2.25586-14.0137 2.25586-7.05078C2.25586-0.0976562 8.01758 5.66406 14.9707 5.66406ZM14.9707 3.84766C8.93555 3.84766 4.08203-1.01562 4.08203-7.05078C4.08203-13.0957 8.92578-17.9492 14.9609-17.9492C21.0059-17.9492 25.8594-13.0957 25.8691-7.05078C25.8789-1.01562 21.0156 3.84766 14.9707 3.84766ZM10.0586-6.14258L14.0625-6.14258L14.0625-2.12891C14.0625-1.5918 14.4336-1.2207 14.9512-1.2207C15.4883-1.2207 15.8594-1.5918 15.8594-2.12891L15.8594-6.14258L19.8828-6.14258C20.4102-6.14258 20.791-6.51367 20.791-7.03125C20.791-7.56836 20.4199-7.94922 19.8828-7.94922L15.8594-7.94922L15.8594-11.9531C15.8594-12.5098 15.4883-12.8809 14.9512-12.8809C14.4336-12.8809 14.0625-12.5 14.0625-11.9531L14.0625-7.94922L10.0586-7.94922C9.50195-7.94922 9.13086-7.56836 9.13086-7.03125C9.13086-6.51367 9.51172-6.14258 10.0586-6.14258Z"/>
  </g>
  <text style="stroke:none;fill:black;font-family:-apple-system,&quot;SF Pro Display&quot;,&quot;SF Pro Text&quot;,Helvetica,sans-serif;font-weight:bold;" transform="matrix(1 0 0 1 263 1953)">Design Variations</text>
  <text style="stroke:none;fill:black;font-family:-apple-system,&quot;SF Pro Display&quot;,&quot;SF Pro Text&quot;,Helvetica,sans-serif;" transform="matrix(1 0 0 1 263 1971)">Symbols are supported in up to nine weights and three scales.</text>
  <text style="stroke:none;fill:black;font-family:-apple-system,&quot;SF Pro Display&quot;,&quot;SF Pro Text&quot;,Helvetica,sans-serif;" transform="matrix(1 0 0 1 263 1989)">For optimal layout with text and other symbols, vertically align</text>
  <text style="stroke:none;fill:black;font-family:-apple-system,&quot;SF Pro Display&quot;,&quot;SF Pro Text&quot;,Helvetica,sans-serif;" transform="matrix(1 0 0 1 263 2007)">symbols with the adjacent text.</text>
  <line id="" style="fill:none;stroke:#00AEEF;stroke-width:0.5;opacity:1.0;" x1="776" x2="776" y1="1919" y2="1933"/>
  <g id="" transform="matrix(1 0 0 1 776 1933)">
   <path d="M3.31055 0.126953C3.82812 0.126953 4.08203-0.0683594 4.26758-0.605469L5.52734-4.0625L11.2891-4.0625L12.5488-0.605469C12.7344-0.0683594 12.9883 0.126953 13.4961 0.126953C14.0137 0.126953 14.3457-0.185547 14.3457-0.673828C14.3457-0.839844 14.3164-0.986328 14.2383-1.20117L9.6582-13.3887C9.43359-13.9941 9.0332-14.2871 8.4082-14.2871C7.80273-14.2871 7.39258-13.9941 7.17773-13.3984L2.59766-1.19141C2.51953-0.976562 2.49023-0.830078 2.49023-0.664062C2.49023-0.175781 2.80273 0.126953 3.31055 0.126953ZM6.00586-5.53711L8.37891-12.1094L8.42773-12.1094L10.8008-5.53711Z"/>
  </g>
  <line id="" style="fill:none;stroke:#00AEEF;stroke-width:0.5;opacity:1.0;" x1="792.836" x2="792.836" y1="1919" y2="1933"/>
  <text style="stroke:none;fill:black;font-family:-apple-system,&quot;SF Pro Display&quot;,&quot;SF Pro Text&quot;,Helvetica,sans-serif;font-weight:bold;" transform="matrix(1 0 0 1 776 1953)">Margins</text>
  <text style="stroke:none;fill:black;font-family:-apple-system,&quot;SF Pro Display&quot;,&quot;SF Pro Text&quot;,Helvetica,sans-serif;" transform="matrix(1 0 0 1 776 1971)">Leading and trailing margins on the left and right side of each symbol</text>
  <text style="stroke:none;fill:black;font-family:-apple-system,&quot;SF Pro Display&quot;,&quot;SF Pro Text&quot;,Helvetica,sans-serif;" transform="matrix(1 0 0 1 776 1989)">can be adjusted by modifying the x-location of the margin guidelines.</text>
  <text style="stroke:none;fill:black;font-family:-apple-system,&quot;SF Pro Display&quot;,&quot;SF Pro Text&quot;,Helvetica,sans-serif;" transform="matrix(1 0 0 1 776 2007)">Modifications are automatically applied proportionally to all</text>
  <text style="stroke:none;fill:black;font-family:-apple-system,&quot;SF Pro Display&quot;,&quot;SF Pro Text&quot;,Helvetica,sans-serif;" transform="matrix(1 0 0 1 776 2025)">scales and weights.</text>
  <g id="" transform="matrix(1 0 0 1 1289 1933)">
   <path d="M2.8418 1.86523L4.54102 3.57422C5.40039 4.44336 6.38672 4.38477 7.31445 3.35938L17.4902-7.85156C17.7539-7.76367 18.0273-7.7832 18.3398-7.8418L19.4043-8.03711L20.0684-7.36328L20.0293-6.80664C19.9902-6.30859 20.1172-5.92773 20.6055-5.44922L21.3672-4.70703C21.8457-4.22852 22.4609-4.19922 22.9297-4.66797L25.8398-7.58789C26.3086-8.05664 26.2891-8.65234 25.8105-9.13086L25.0391-9.89258C24.5605-10.3711 24.1895-10.5273 23.7109-10.4883L23.1348-10.4395L22.4902-11.0742L22.7344-12.1973C22.8613-12.7637 22.7051-13.2031 22.1191-13.7891L19.9219-15.9766C16.582-19.2969 12.1484-19.2188 9.25781-16.3281C8.83789-15.918 8.80859-15.3418 9.04297-14.9512C9.27734-14.5898 9.73633-14.3555 10.3809-14.5215C11.8457-14.8633 13.3691-14.9219 14.7949-13.9844L14.209-12.5293C14.0137-12.0508 13.9844-11.6504 14.1113-11.2891L3.04688-0.898438C2.06055 0.0195312 1.98242 0.996094 2.8418 1.86523ZM10.752-15.957C13.1836-17.7344 16.4746-17.4316 18.7012-15.2051L21.1328-12.793C21.3672-12.5586 21.4062-12.373 21.3379-12.0312L21.0156-10.5469L22.5195-9.0625L23.5059-9.12109C23.7598-9.13086 23.8379-9.11133 24.0332-8.91602L24.6094-8.33984L22.168-5.89844L21.5918-6.47461C21.3965-6.66992 21.3672-6.74805 21.377-7.01172L21.4453-7.98828L19.9512-9.47266L18.4277-9.21875C18.1055-9.15039 17.959-9.17969 17.7148-9.41406L15.7129-11.416C15.459-11.6504 15.4297-11.8164 15.5859-12.1875L16.4648-14.2773C14.9023-15.7324 12.8711-16.3574 10.8398-15.7617C10.6836-15.7227 10.625-15.8496 10.752-15.957ZM5.27344 2.30469L4.10156 1.14258C3.63281 0.683594 3.74023 0.341797 4.14062-0.0195312L14.9512-10.1953L16.416-8.71094L6.42578 2.27539C6.07422 2.67578 5.74219 2.77344 5.27344 2.30469Z"/>
  </g>
  <text style="stroke:none;fill:black;font-family:-apple-system,&quot;SF Pro Display&quot;,&quot;SF Pro Text&quot;,Helvetica,sans-serif;font-weight:bold;" transform="matrix(1 0 0 1 1289 1953)">Exporting</text>
  <text style="stroke:none;fill:black;font-family:-apple-system,&quot;SF Pro Display&quot;,&quot;SF Pro Text&quot;,Helvetica,sans-serif;" transform="matrix(1 0 0 1 1289 1971)">Symbols should be outlined when exporting to ensure the</text>
  <text style="stroke:none;fill:black;font-family:-apple-system,&quot;SF Pro Display&quot;,&quot;SF Pro Text&quot;,Helvetica,sans-serif;" transform="matrix(1 0 0 1 1289 1989)">design is preserved when submitting to Xcode.</text>
  <text id="template-version" style="stroke:none;fill:black;font-family:-apple-system,&quot;SF Pro Display&quot;,&quot;SF Pro Text&quot;,Helvetica,sans-serif;text-anchor:end;" transform="matrix(1 0 0 1 3036 1933)">Template v.2.0</text>
  <text style="stroke:none;fill:black;font-family:-apple-system,&quot;SF Pro Display&quot;,&quot;SF Pro Text&quot;,Helvetica,sans-serif;text-anchor:end;" transform="matrix(1 0 0 1 3036 1951)">Requires Xcode 12 or greater</text>
  <text style="stroke:none;fill:black;font-family:-apple-system,&quot;SF Pro Display&quot;,&quot;SF Pro Text&quot;,Helvetica,sans-serif;" transform="matrix(1 0 0 1 263 726)">Small</text>
  <text style="stroke:none;fill:black;font-family:-apple-system,&quot;SF Pro Display&quot;,&quot;SF Pro Text&quot;,Helvetica,sans-serif;" transform="matrix(1 0 0 1 263 1156)">Medium</text>
  <text style="stroke:none;fill:black;font-family:-apple-system,&quot;SF Pro Display&quot;,&quot;SF Pro Text&quot;,Helvetica,sans-serif;" transform="matrix(1 0 0 1 263 1586)">Large</text>
 </g>
 <g id="Guides">
  <g id="H-reference" style="fill:#27AAE1;stroke:none;" transform="matrix(1 0 0 1 339 696)">
   <path d="M0.976562 0L3.66211 0L12.9883-24.4629L45.752-24.4629L55.127 0L57.7637 0L30.6152-70.459L28.125-70.459ZM29.3457-67.1387L29.4434-67.1387L44.873-26.709L13.8672-26.709Z"/>
  </g>
  <line id="Baseline-S" style="fill:none;stroke:#27AAE1;opacity:1;stroke-width:0.5;" x1="263" x2="3036" y1="696" y2="696"/>
  <line id="Capline-S" style="fill:none;stroke:#27AAE1;opacity:1;stroke-width:0.5;" x1="263" x2="3036" y1="625.541" y2="625.541"/>
  <g id="H-reference" style="fill:#27AAE1;stroke:none;" transform="matrix(1 0 0 1 339 1126)">
   <path d="M0.976562 0L3.66211 0L12.9883-24.4629L45.752-24.4629L55.127 0L57.7637 0L30.6152-70.459L28.125-70.459ZM29.3457-67.1387L29.4434-67.1387L44.873-26.709L13.8672-26.709Z"/>
  </g>
  <line id="Baseline-M" style="fill:none;stroke:#27AAE1;opacity:1;stroke-width:0.5;" x1="263" x2="3036" y1="1126" y2="1126"/>
  <line id="Capline-M" style="fill:none;stroke:#27AAE1;opacity:1;stroke-width:0.5;" x1="263" x2="3036" y1="1055.54" y2="1055.54"/>
  <g id="H-reference" style="fill:#27AAE1;stroke:none;" transform="matrix(1 0 0 1 339 1556)">
   <path d="M0.976562 0L3.66211 0L12.9883-24.4629L45.752-24.4629L55.127 0L57.7637 0L30.6152-70.459L28.125-70.459ZM29.3457-67.1387L29.4434-67.1387L44.873-26.709L13.8672-26.709Z"/>
  </g>
  <line id="Baseline-L" style="fill:none;stroke:#27AAE1;opacity:1;stroke-width:0.5;" x1="263" x2="3036" y1="1556" y2="1556"/>
  <line id="Capline-L" style="fill:none;stroke:#27AAE1;opacity:1;stroke-width:0.5;" x1="263" x2="3036" y1="1485.54" y2="1485.54"/>
  <line id="left-margin" x1="1416.4323836805556" x2="1416.4323836805556" y1="1030.79" y2="1150.12" style="fill:none;stroke:#00AEEF;stroke-width:0.5;opacity:1.0;"/>
  <line id="right-margin" x1="1485.952878472222" x2="1485.952878472222" y1="1030.79" y2="1150.12" style="fill:none;stroke:#00AEEF;stroke-width:0.5;opacity:1.0;"/>
 </g>
 <g id="Symbols">
  <g id="Black-L" transform="matrix(1.0,0.0,0.0,1.0,2894.2829557291666,1480.210083952873)">  <path stroke="none" stroke-dasharray="none" fill-opacity="1" stroke-linejoin="miter" stroke-opacity="1" stroke-width="1px" fill="#000000" stroke-miterlimit="4" fill-rule="evenodd" stroke-linecap="butt" d="M-0.002,45.246C-0.002,55.242,8.15,63.345,18.206,63.345L19.101,63.345C21.379,63.345,23.574,64.194,25.253,65.724L38.586,77.873C41.107,80.17,44.402,81.444,47.821,81.444C53.525,81.444,58.942,77.831,60.356,71.853C61.86,65.499,63.724,54.785,63.724,40.721C63.724,26.658,61.86,15.944,60.356,9.59C58.942,3.611,53.525,-0.002,47.821,-0.002C44.402,-0.002,41.107,1.273,38.586,3.57L25.253,15.719C23.574,17.249,21.379,18.097,19.101,18.097L18.206,18.097C8.15,18.097,-0.002,26.201,-0.002,36.196L-0.002,45.246ZM18.206,54.295C13.178,54.295,9.102,50.244,9.102,45.246L9.102,36.196C9.102,31.198,13.178,27.147,18.206,27.147L19.101,27.147C23.656,27.147,28.046,25.449,31.404,22.39L44.737,10.24C45.579,9.473,46.679,9.048,47.821,9.048C49.785,9.048,51.154,10.221,51.494,11.661C52.861,17.436,54.621,27.451,54.621,40.721C54.621,53.991,52.861,64.006,51.494,69.781C51.154,71.221,49.785,72.394,47.821,72.394C46.679,72.394,45.579,71.969,44.737,71.202L31.404,59.053C28.046,55.993,23.656,54.295,19.101,54.295L18.206,54.295ZM68.757,52.272C67.632,54.507,68.544,57.225,70.792,58.342C73.041,59.46,75.775,58.554,76.899,56.319C82.092,45.996,82.092,35.447,76.899,25.123C75.775,22.888,73.041,21.982,70.792,23.1C68.544,24.217,67.632,26.935,68.757,29.17C72.668,36.946,72.668,44.496,68.757,52.272ZM68.757,52.272"/>
</g>
  <g id="Heavy-L" transform="matrix(1.0,0.0,0.0,1.0,2597.5729557291666,1480.210083952873)">  <path fill="#000000" fill-rule="evenodd" stroke-linejoin="miter" stroke-width="1px" stroke-linecap="butt" stroke="none" stroke-dasharray="none" stroke-opacity="1" stroke-miterlimit="4" fill-opacity="1" d="M-0.002,45.246C-0.002,55.242,8.15,63.345,18.206,63.345L19.101,63.345C21.379,63.345,23.574,64.194,25.253,65.724L38.586,77.873C41.107,80.17,44.402,81.444,47.821,81.444C53.525,81.444,58.942,77.831,60.356,71.853C61.86,65.499,63.724,54.785,63.724,40.721C63.724,26.658,61.86,15.944,60.356,9.59C58.942,3.611,53.525,-0.002,47.821,-0.002C44.402,-0.002,41.107,1.273,38.586,3.57L25.253,15.719C23.574,17.249,21.379,18.097,19.101,18.097L18.206,18.097C8.15,18.097,-0.002,26.201,-0.002,36.196L-0.002,45.246ZM18.206,54.295C13.178,54.295,9.102,50.244,9.102,45.246L9.102,36.196C9.102,31.198,13.178,27.147,18.206,27.147L19.101,27.147C23.656,27.147,28.046,25.449,31.404,22.39L44.737,10.24C45.579,9.473,46.679,9.048,47.821,9.048C49.785,9.048,51.154,10.221,51.494,11.661C52.861,17.436,54.621,27.451,54.621,40.721C54.621,53.991,52.861,64.006,51.494,69.781C51.154,71.221,49.785,72.394,47.821,72.394C46.679,72.394,45.579,71.969,44.737,71.202L31.404,59.053C28.046,55.993,23.656,54.295,19.101,54.295L18.206,54.295ZM68.757,52.272C67.632,54.507,68.544,57.225,70.792,58.342C73.041,59.46,75.775,58.554,76.899,56.319C82.092,45.996,82.092,35.447,76.899,25.123C75.775,22.888,73.041,21.982,70.792,23.1C68.544,24.217,67.632,26.935,68.757,29.17C72.668,36.946,72.668,44.496,68.757,52.272ZM68.757,52.272"/>
</g>
  <g id="Bold-L" transform="matrix(1.0,0.0,0.0,1.0,2300.8629557291665,1480.210083952873)">  <path stroke-width="1px" fill-rule="evenodd" stroke-miterlimit="4" stroke-opacity="1" fill-opacity="1" stroke-linejoin="miter" stroke-linecap="butt" stroke-dasharray="none" fill="#000000" stroke="none" d="M-0.002,45.246C-0.002,55.242,8.15,63.345,18.206,63.345L19.101,63.345C21.379,63.345,23.574,64.194,25.253,65.724L38.586,77.873C41.107,80.17,44.402,81.444,47.821,81.444C53.525,81.444,58.942,77.831,60.356,71.853C61.86,65.499,63.724,54.785,63.724,40.721C63.724,26.658,61.86,15.944,60.356,9.59C58.942,3.611,53.525,-0.002,47.821,-0.002C44.402,-0.002,41.107,1.273,38.586,3.57L25.253,15.719C23.574,17.249,21.379,18.097,19.101,18.097L18.206,18.097C8.15,18.097,-0.002,26.201,-0.002,36.196L-0.002,45.246ZM18.206,54.295C13.178,54.295,9.102,50.244,9.102,45.246L9.102,36.196C9.102,31.198,13.178,27.147,18.206,27.147L19.101,27.147C23.656,27.147,28.046,25.449,31.404,22.39L44.737,10.24C45.579,9.473,46.679,9.048,47.821,9.048C49.785,9.048,51.154,10.221,51.494,11.661C52.861,17.436,54.621,27.451,54.621,40.721C54.621,53.991,52.861,64.006,51.494,69.781C51.154,71.221,49.785,72.394,47.821,72.394C46.679,72.394,45.579,71.969,44.737,71.202L31.404,59.053C28.046,55.993,23.656,54.295,19.101,54.295L18.206,54.295ZM68.757,52.272C67.632,54.507,68.544,57.225,70.792,58.342C73.041,59.46,75.775,58.554,76.899,56.319C82.092,45.996,82.092,35.447,76.899,25.123C75.775,22.888,73.041,21.982,70.792,23.1C68.544,24.217,67.632,26.935,68.757,29.17C72.668,36.946,72.668,44.496,68.757,52.272ZM68.757,52.272"/>
</g>
  <g id="Semibold-L" transform="matrix(1.0,0.0,0.0,1.0,2004.1529557291667,1480.210083952873)">  <path fill-rule="evenodd" stroke-linecap="butt" stroke-width="1px" stroke-dasharray="none" stroke-linejoin="miter" fill-opacity="1" stroke-miterlimit="4" fill="#000000" stroke-opacity="1" stroke="none" d="M-0.002,45.246C-0.002,55.242,8.15,63.345,18.206,63.345L19.101,63.345C21.379,63.345,23.574,64.194,25.253,65.724L38.586,77.873C41.107,80.17,44.402,81.444,47.821,81.444C53.525,81.444,58.942,77.831,60.356,71.853C61.86,65.499,63.724,54.785,63.724,40.721C63.724,26.658,61.86,15.944,60.356,9.59C58.942,3.611,53.525,-0.002,47.821,-0.002C44.402,-0.002,41.107,1.273,38.586,3.57L25.253,15.719C23.574,17.249,21.379,18.097,19.101,18.097L18.206,18.097C8.15,18.097,-0.002,26.201,-0.002,36.196L-0.002,45.246ZM18.206,54.295C13.178,54.295,9.102,50.244,9.102,45.246L9.102,36.196C9.102,31.198,13.178,27.147,18.206,27.147L19.101,27.147C23.656,27.147,28.046,25.449,31.404,22.39L44.737,10.24C45.579,9.473,46.679,9.048,47.821,9.048C49.785,9.048,51.154,10.221,51.494,11.661C52.861,17.436,54.621,27.451,54.621,40.721C54.621,53.991,52.861,64.006,51.494,69.781C51.154,71.221,49.785,72.394,47.821,72.394C46.679,72.394,45.579,71.969,44.737,71.202L31.404,59.053C28.046,55.993,23.656,54.295,19.101,54.295L18.206,54.295ZM68.757,52.272C67.632,54.507,68.544,57.225,70.792,58.342C73.041,59.46,75.775,58.554,76.899,56.319C82.092,45.996,82.092,35.447,76.899,25.123C75.775,22.888,73.041,21.982,70.792,23.1C68.544,24.217,67.632,26.935,68.757,29.17C72.668,36.946,72.668,44.496,68.757,52.272ZM68.757,52.272"/>
</g>
  <g id="Medium-L" transform="matrix(1.0,0.0,0.0,1.0,1707.4429557291667,1480.210083952873)">  <path stroke-linejoin="miter" stroke-miterlimit="4" fill-rule="evenodd" stroke-linecap="butt" fill="#000000" stroke-opacity="1" fill-opacity="1" stroke-width="1px" stroke-dasharray="none" stroke="none" d="M-0.002,45.246C-0.002,55.242,8.15,63.345,18.206,63.345L19.101,63.345C21.379,63.345,23.574,64.194,25.253,65.724L38.586,77.873C41.107,80.17,44.402,81.444,47.821,81.444C53.525,81.444,58.942,77.831,60.356,71.853C61.86,65.499,63.724,54.785,63.724,40.721C63.724,26.658,61.86,15.944,60.356,9.59C58.942,3.611,53.525,-0.002,47.821,-0.002C44.402,-0.002,41.107,1.273,38.586,3.57L25.253,15.719C23.574,17.249,21.379,18.097,19.101,18.097L18.206,18.097C8.15,18.097,-0.002,26.201,-0.002,36.196L-0.002,45.246ZM18.206,54.295C13.178,54.295,9.102,50.244,9.102,45.246L9.102,36.196C9.102,31.198,13.178,27.147,18.206,27.147L19.101,27.147C23.656,27.147,28.046,25.449,31.404,22.39L44.737,10.24C45.579,9.473,46.679,9.048,47.821,9.048C49.785,9.048,51.154,10.221,51.494,11.661C52.861,17.436,54.621,27.451,54.621,40.721C54.621,53.991,52.861,64.006,51.494,69.781C51.154,71.221,49.785,72.394,47.821,72.394C46.679,72.394,45.579,71.969,44.737,71.202L31.404,59.053C28.046,55.993,23.656,54.295,19.101,54.295L18.206,54.295ZM68.757,52.272C67.632,54.507,68.544,57.225,70.792,58.342C73.041,59.46,75.775,58.554,76.899,56.319C82.092,45.996,82.092,35.447,76.899,25.123C75.775,22.888,73.041,21.982,70.792,23.1C68.544,24.217,67.632,26.935,68.757,29.17C72.668,36.946,72.668,44.496,68.757,52.272ZM68.757,52.272"/>
</g>
  <g id="Regular-L" transform="matrix(1.0,0.0,0.0,1.0,1410.7329557291666,1480.210083952873)">  <path stroke-linecap="butt" stroke="none" stroke-dasharray="none" fill="#000000" fill-opacity="1" stroke-opacity="1" fill-rule="evenodd" stroke-width="1px" stroke-linejoin="miter" stroke-miterlimit="4" d="M-0.002,45.246C-0.002,55.242,8.15,63.345,18.206,63.345L19.101,63.345C21.379,63.345,23.574,64.194,25.253,65.724L38.586,77.873C41.107,80.17,44.402,81.444,47.821,81.444C53.525,81.444,58.942,77.831,60.356,71.853C61.86,65.499,63.724,54.785,63.724,40.721C63.724,26.658,61.86,15.944,60.356,9.59C58.942,3.611,53.525,-0.002,47.821,-0.002C44.402,-0.002,41.107,1.273,38.586,3.57L25.253,15.719C23.574,17.249,21.379,18.097,19.101,18.097L18.206,18.097C8.15,18.097,-0.002,26.201,-0.002,36.196L-0.002,45.246ZM18.206,54.295C13.178,54.295,9.102,50.244,9.102,45.246L9.102,36.196C9.102,31.198,13.178,27.147,18.206,27.147L19.101,27.147C23.656,27.147,28.046,25.449,31.404,22.39L44.737,10.24C45.579,9.473,46.679,9.048,47.821,9.048C49.785,9.048,51.154,10.221,51.494,11.661C52.861,17.436,54.621,27.451,54.621,40.721C54.621,53.991,52.861,64.006,51.494,69.781C51.154,71.221,49.785,72.394,47.821,72.394C46.679,72.394,45.579,71.969,44.737,71.202L31.404,59.053C28.046,55.993,23.656,54.295,19.101,54.295L18.206,54.295ZM68.757,52.272C67.632,54.507,68.544,57.225,70.792,58.342C73.041,59.46,75.775,58.554,76.899,56.319C82.092,45.996,82.092,35.447,76.899,25.123C75.775,22.888,73.041,21.982,70.792,23.1C68.544,24.217,67.632,26.935,68.757,29.17C72.668,36.946,72.668,44.496,68.757,52.272ZM68.757,52.272"/>
</g>
  <g id="Light-L" transform="matrix(1.0,0.0,0.0,1.0,1114.0229557291668,1480.210083952873)">  <path fill-opacity="1" stroke-miterlimit="4" stroke="none" stroke-width="1px" stroke-opacity="1" stroke-dasharray="none" stroke-linecap="butt" fill-rule="evenodd" fill="#000000" stroke-linejoin="miter" d="M-0.002,45.246C-0.002,55.242,8.15,63.345,18.206,63.345L19.101,63.345C21.379,63.345,23.574,64.194,25.253,65.724L38.586,77.873C41.107,80.17,44.402,81.444,47.821,81.444C53.525,81.444,58.942,77.831,60.356,71.853C61.86,65.499,63.724,54.785,63.724,40.721C63.724,26.658,61.86,15.944,60.356,9.59C58.942,3.611,53.525,-0.002,47.821,-0.002C44.402,-0.002,41.107,1.273,38.586,3.57L25.253,15.719C23.574,17.249,21.379,18.097,19.101,18.097L18.206,18.097C8.15,18.097,-0.002,26.201,-0.002,36.196L-0.002,45.246ZM18.206,54.295C13.178,54.295,9.102,50.244,9.102,45.246L9.102,36.196C9.102,31.198,13.178,27.147,18.206,27.147L19.101,27.147C23.656,27.147,28.046,25.449,31.404,22.39L44.737,10.24C45.579,9.473,46.679,9.048,47.821,9.048C49.785,9.048,51.154,10.221,51.494,11.661C52.861,17.436,54.621,27.451,54.621,40.721C54.621,53.991,52.861,64.006,51.494,69.781C51.154,71.221,49.785,72.394,47.821,72.394C46.679,72.394,45.579,71.969,44.737,71.202L31.404,59.053C28.046,55.993,23.656,54.295,19.101,54.295L18.206,54.295ZM68.757,52.272C67.632,54.507,68.544,57.225,70.792,58.342C73.041,59.46,75.775,58.554,76.899,56.319C82.092,45.996,82.092,35.447,76.899,25.123C75.775,22.888,73.041,21.982,70.792,23.1C68.544,24.217,67.632,26.935,68.757,29.17C72.668,36.946,72.668,44.496,68.757,52.272ZM68.757,52.272"/>
</g>
  <g id="Thin-L" transform="matrix(1.0,0.0,0.0,1.0,817.3129557291667,1480.210083952873)">  <path stroke-linecap="butt" stroke-linejoin="miter" fill-opacity="1" fill="#000000" stroke-width="1px" stroke-opacity="1" stroke="none" fill-rule="evenodd" stroke-miterlimit="4" stroke-dasharray="none" d="M-0.002,45.246C-0.002,55.242,8.15,63.345,18.206,63.345L19.101,63.345C21.379,63.345,23.574,64.194,25.253,65.724L38.586,77.873C41.107,80.17,44.402,81.444,47.821,81.444C53.525,81.444,58.942,77.831,60.356,71.853C61.86,65.499,63.724,54.785,63.724,40.721C63.724,26.658,61.86,15.944,60.356,9.59C58.942,3.611,53.525,-0.002,47.821,-0.002C44.402,-0.002,41.107,1.273,38.586,3.57L25.253,15.719C23.574,17.249,21.379,18.097,19.101,18.097L18.206,18.097C8.15,18.097,-0.002,26.201,-0.002,36.196L-0.002,45.246ZM18.206,54.295C13.178,54.295,9.102,50.244,9.102,45.246L9.102,36.196C9.102,31.198,13.178,27.147,18.206,27.147L19.101,27.147C23.656,27.147,28.046,25.449,31.404,22.39L44.737,10.24C45.579,9.473,46.679,9.048,47.821,9.048C49.785,9.048,51.154,10.221,51.494,11.661C52.861,17.436,54.621,27.451,54.621,40.721C54.621,53.991,52.861,64.006,51.494,69.781C51.154,71.221,49.785,72.394,47.821,72.394C46.679,72.394,45.579,71.969,44.737,71.202L31.404,59.053C28.046,55.993,23.656,54.295,19.101,54.295L18.206,54.295ZM68.757,52.272C67.632,54.507,68.544,57.225,70.792,58.342C73.041,59.46,75.775,58.554,76.899,56.319C82.092,45.996,82.092,35.447,76.899,25.123C75.775,22.888,73.041,21.982,70.792,23.1C68.544,24.217,67.632,26.935,68.757,29.17C72.668,36.946,72.668,44.496,68.757,52.272ZM68.757,52.272"/>
</g>
  <g id="Ultralight-L" transform="matrix(1.0,0.0,0.0,1.0,520.6029557291666,1480.210083952873)">  <path stroke-miterlimit="4" stroke-opacity="1" stroke-dasharray="none" stroke-width="1px" stroke-linecap="butt" fill-opacity="1" stroke-linejoin="miter" fill="#000000" fill-rule="evenodd" stroke="none" d="M-0.002,45.246C-0.002,55.242,8.15,63.345,18.206,63.345L19.101,63.345C21.379,63.345,23.574,64.194,25.253,65.724L38.586,77.873C41.107,80.17,44.402,81.444,47.821,81.444C53.525,81.444,58.942,77.831,60.356,71.853C61.86,65.499,63.724,54.785,63.724,40.721C63.724,26.658,61.86,15.944,60.356,9.59C58.942,3.611,53.525,-0.002,47.821,-0.002C44.402,-0.002,41.107,1.273,38.586,3.57L25.253,15.719C23.574,17.249,21.379,18.097,19.101,18.097L18.206,18.097C8.15,18.097,-0.002,26.201,-0.002,36.196L-0.002,45.246ZM18.206,54.295C13.178,54.295,9.102,50.244,9.102,45.246L9.102,36.196C9.102,31.198,13.178,27.147,18.206,27.147L19.101,27.147C23.656,27.147,28.046,25.449,31.404,22.39L44.737,10.24C45.579,9.473,46.679,9.048,47.821,9.048C49.785,9.048,51.154,10.221,51.494,11.661C52.861,17.436,54.621,27.451,54.621,40.721C54.621,53.991,52.861,64.006,51.494,69.781C51.154,71.221,49.785,72.394,47.821,72.394C46.679,72.394,45.579,71.969,44.737,71.202L31.404,59.053C28.046,55.993,23.656,54.295,19.101,54.295L18.206,54.295ZM68.757,52.272C67.632,54.507,68.544,57.225,70.792,58.342C73.041,59.46,75.775,58.554,76.899,56.319C82.092,45.996,82.092,35.447,76.899,25.123C75.775,22.888,73.041,21.982,70.792,23.1C68.544,24.217,67.632,26.935,68.757,29.17C72.668,36.946,72.668,44.496,68.757,52.272ZM68.757,52.272"/>
</g>
  <g id="Black-M" transform="matrix(1.0,0.0,0.0,1.0,2903.3644618055555,1059.3282090053763)">  <path stroke="none" stroke-dasharray="none" fill-opacity="1" stroke-linejoin="miter" stroke-opacity="1" stroke-width="1px" fill="#000000" stroke-miterlimit="4" fill-rule="evenodd" stroke-linecap="butt" d="M-0.001,35.074C-0.001,42.823,6.318,49.105,14.113,49.105L14.807,49.105C16.573,49.105,18.274,49.763,19.576,50.949L29.911,60.366C31.866,62.147,34.42,63.135,37.071,63.135C41.493,63.135,45.692,60.334,46.788,55.7C47.953,50.774,49.399,42.469,49.399,31.567C49.399,20.665,47.953,12.359,46.788,7.434C45.692,2.799,41.493,-0.001,37.071,-0.001C34.42,-0.001,31.866,0.986,29.911,2.767L19.576,12.185C18.274,13.371,16.573,14.029,14.807,14.029L14.113,14.029C6.318,14.029,-0.001,20.311,-0.001,28.059L-0.001,35.074ZM14.113,42.089C10.215,42.089,7.056,38.949,7.056,35.074L7.056,28.059C7.056,24.185,10.215,21.044,14.113,21.044L14.807,21.044C18.338,21.044,21.741,19.728,24.344,17.356L34.68,7.938C35.333,7.344,36.186,7.014,37.071,7.014C38.593,7.014,39.654,7.924,39.918,9.04C40.977,13.517,42.342,21.28,42.342,31.567C42.342,41.854,40.977,49.617,39.918,54.094C39.654,55.21,38.593,56.12,37.071,56.12C36.186,56.12,35.333,55.79,34.68,55.195L24.344,45.777C21.741,43.405,18.338,42.089,14.807,42.089L14.113,42.089ZM53.3,40.521C52.428,42.254,53.135,44.36,54.878,45.227C56.621,46.093,58.74,45.391,59.612,43.658C63.637,35.656,63.637,27.478,59.612,19.475C58.74,17.743,56.621,17.04,54.878,17.907C53.135,18.773,52.428,20.88,53.3,22.613C56.332,28.64,56.332,34.493,53.3,40.521ZM53.3,40.521"/>
</g>
  <g id="Heavy-M" transform="matrix(1.0,0.0,0.0,1.0,2606.6544618055555,1059.3282090053763)">  <path fill="#000000" fill-rule="evenodd" stroke-linejoin="miter" stroke-width="1px" stroke-linecap="butt" stroke="none" stroke-dasharray="none" stroke-opacity="1" stroke-miterlimit="4" fill-opacity="1" d="M-0.001,35.074C-0.001,42.823,6.318,49.105,14.113,49.105L14.807,49.105C16.573,49.105,18.274,49.763,19.576,50.949L29.911,60.366C31.866,62.147,34.42,63.135,37.071,63.135C41.493,63.135,45.692,60.334,46.788,55.7C47.953,50.774,49.399,42.469,49.399,31.567C49.399,20.665,47.953,12.359,46.788,7.434C45.692,2.799,41.493,-0.001,37.071,-0.001C34.42,-0.001,31.866,0.986,29.911,2.767L19.576,12.185C18.274,13.371,16.573,14.029,14.807,14.029L14.113,14.029C6.318,14.029,-0.001,20.311,-0.001,28.059L-0.001,35.074ZM14.113,42.089C10.215,42.089,7.056,38.949,7.056,35.074L7.056,28.059C7.056,24.185,10.215,21.044,14.113,21.044L14.807,21.044C18.338,21.044,21.741,19.728,24.344,17.356L34.68,7.938C35.333,7.344,36.186,7.014,37.071,7.014C38.593,7.014,39.654,7.924,39.918,9.04C40.977,13.517,42.342,21.28,42.342,31.567C42.342,41.854,40.977,49.617,39.918,54.094C39.654,55.21,38.593,56.12,37.071,56.12C36.186,56.12,35.333,55.79,34.68,55.195L24.344,45.777C21.741,43.405,18.338,42.089,14.807,42.089L14.113,42.089ZM53.3,40.521C52.428,42.254,53.135,44.36,54.878,45.227C56.621,46.093,58.74,45.391,59.612,43.658C63.637,35.656,63.637,27.478,59.612,19.475C58.74,17.743,56.621,17.04,54.878,17.907C53.135,18.773,52.428,20.88,53.3,22.613C56.332,28.64,56.332,34.493,53.3,40.521ZM53.3,40.521"/>
</g>
  <g id="Bold-M" transform="matrix(1.0,0.0,0.0,1.0,2309.9444618055554,1059.3282090053763)">  <path stroke-width="1px" fill-rule="evenodd" stroke-miterlimit="4" stroke-opacity="1" fill-opacity="1" stroke-linejoin="miter" stroke-linecap="butt" stroke-dasharray="none" fill="#000000" stroke="none" d="M-0.001,35.074C-0.001,42.823,6.318,49.105,14.113,49.105L14.807,49.105C16.573,49.105,18.274,49.763,19.576,50.949L29.911,60.366C31.866,62.147,34.42,63.135,37.071,63.135C41.493,63.135,45.692,60.334,46.788,55.7C47.953,50.774,49.399,42.469,49.399,31.567C49.399,20.665,47.953,12.359,46.788,7.434C45.692,2.799,41.493,-0.001,37.071,-0.001C34.42,-0.001,31.866,0.986,29.911,2.767L19.576,12.185C18.274,13.371,16.573,14.029,14.807,14.029L14.113,14.029C6.318,14.029,-0.001,20.311,-0.001,28.059L-0.001,35.074ZM14.113,42.089C10.215,42.089,7.056,38.949,7.056,35.074L7.056,28.059C7.056,24.185,10.215,21.044,14.113,21.044L14.807,21.044C18.338,21.044,21.741,19.728,24.344,17.356L34.68,7.938C35.333,7.344,36.186,7.014,37.071,7.014C38.593,7.014,39.654,7.924,39.918,9.04C40.977,13.517,42.342,21.28,42.342,31.567C42.342,41.854,40.977,49.617,39.918,54.094C39.654,55.21,38.593,56.12,37.071,56.12C36.186,56.12,35.333,55.79,34.68,55.195L24.344,45.777C21.741,43.405,18.338,42.089,14.807,42.089L14.113,42.089ZM53.3,40.521C52.428,42.254,53.135,44.36,54.878,45.227C56.621,46.093,58.74,45.391,59.612,43.658C63.637,35.656,63.637,27.478,59.612,19.475C58.74,17.743,56.621,17.04,54.878,17.907C53.135,18.773,52.428,20.88,53.3,22.613C56.332,28.64,56.332,34.493,53.3,40.521ZM53.3,40.521"/>
</g>
  <g id="Semibold-M" transform="matrix(1.0,0.0,0.0,1.0,2013.2344618055556,1059.3282090053763)">  <path fill-rule="evenodd" stroke-linecap="butt" stroke-width="1px" stroke-dasharray="none" stroke-linejoin="miter" fill-opacity="1" stroke-miterlimit="4" fill="#000000" stroke-opacity="1" stroke="none" d="M-0.001,35.074C-0.001,42.823,6.318,49.105,14.113,49.105L14.807,49.105C16.573,49.105,18.274,49.763,19.576,50.949L29.911,60.366C31.866,62.147,34.42,63.135,37.071,63.135C41.493,63.135,45.692,60.334,46.788,55.7C47.953,50.774,49.399,42.469,49.399,31.567C49.399,20.665,47.953,12.359,46.788,7.434C45.692,2.799,41.493,-0.001,37.071,-0.001C34.42,-0.001,31.866,0.986,29.911,2.767L19.576,12.185C18.274,13.371,16.573,14.029,14.807,14.029L14.113,14.029C6.318,14.029,-0.001,20.311,-0.001,28.059L-0.001,35.074ZM14.113,42.089C10.215,42.089,7.056,38.949,7.056,35.074L7.056,28.059C7.056,24.185,10.215,21.044,14.113,21.044L14.807,21.044C18.338,21.044,21.741,19.728,24.344,17.356L34.68,7.938C35.333,7.344,36.186,7.014,37.071,7.014C38.593,7.014,39.654,7.924,39.918,9.04C40.977,13.517,42.342,21.28,42.342,31.567C42.342,41.854,40.977,49.617,39.918,54.094C39.654,55.21,38.593,56.12,37.071,56.12C36.186,56.12,35.333,55.79,34.68,55.195L24.344,45.777C21.741,43.405,18.338,42.089,14.807,42.089L14.113,42.089ZM53.3,40.521C52.428,42.254,53.135,44.36,54.878,45.227C56.621,46.093,58.74,45.391,59.612,43.658C63.637,35.656,63.637,27.478,59.612,19.475C58.74,17.743,56.621,17.04,54.878,17.907C53.135,18.773,52.428,20.88,53.3,22.613C56.332,28.64,56.332,34.493,53.3,40.521ZM53.3,40.521"/>
</g>
  <g id="Medium-M" transform="matrix(1.0,0.0,0.0,1.0,1716.5244618055556,1059.3282090053763)">  <path stroke-linejoin="miter" stroke-miterlimit="4" fill-rule="evenodd" stroke-linecap="butt" fill="#000000" stroke-opacity="1" fill-opacity="1" stroke-width="1px" stroke-dasharray="none" stroke="none" d="M-0.001,35.074C-0.001,42.823,6.318,49.105,14.113,49.105L14.807,49.105C16.573,49.105,18.274,49.763,19.576,50.949L29.911,60.366C31.866,62.147,34.42,63.135,37.071,63.135C41.493,63.135,45.692,60.334,46.788,55.7C47.953,50.774,49.399,42.469,49.399,31.567C49.399,20.665,47.953,12.359,46.788,7.434C45.692,2.799,41.493,-0.001,37.071,-0.001C34.42,-0.001,31.866,0.986,29.911,2.767L19.576,12.185C18.274,13.371,16.573,14.029,14.807,14.029L14.113,14.029C6.318,14.029,-0.001,20.311,-0.001,28.059L-0.001,35.074ZM14.113,42.089C10.215,42.089,7.056,38.949,7.056,35.074L7.056,28.059C7.056,24.185,10.215,21.044,14.113,21.044L14.807,21.044C18.338,21.044,21.741,19.728,24.344,17.356L34.68,7.938C35.333,7.344,36.186,7.014,37.071,7.014C38.593,7.014,39.654,7.924,39.918,9.04C40.977,13.517,42.342,21.28,42.342,31.567C42.342,41.854,40.977,49.617,39.918,54.094C39.654,55.21,38.593,56.12,37.071,56.12C36.186,56.12,35.333,55.79,34.68,55.195L24.344,45.777C21.741,43.405,18.338,42.089,14.807,42.089L14.113,42.089ZM53.3,40.521C52.428,42.254,53.135,44.36,54.878,45.227C56.621,46.093,58.74,45.391,59.612,43.658C63.637,35.656,63.637,27.478,59.612,19.475C58.74,17.743,56.621,17.04,54.878,17.907C53.135,18.773,52.428,20.88,53.3,22.613C56.332,28.64,56.332,34.493,53.3,40.521ZM53.3,40.521"/>
</g>
  <g id="Regular-M" transform="matrix(1.0,0.0,0.0,1.0,1419.8144618055555,1059.3282090053763)">  <path stroke-linecap="butt" stroke="none" stroke-dasharray="none" fill="#000000" fill-opacity="1" stroke-opacity="1" fill-rule="evenodd" stroke-width="1px" stroke-linejoin="miter" stroke-miterlimit="4" d="M-0.001,35.074C-0.001,42.823,6.318,49.105,14.113,49.105L14.807,49.105C16.573,49.105,18.274,49.763,19.576,50.949L29.911,60.366C31.866,62.147,34.42,63.135,37.071,63.135C41.493,63.135,45.692,60.334,46.788,55.7C47.953,50.774,49.399,42.469,49.399,31.567C49.399,20.665,47.953,12.359,46.788,7.434C45.692,2.799,41.493,-0.001,37.071,-0.001C34.42,-0.001,31.866,0.986,29.911,2.767L19.576,12.185C18.274,13.371,16.573,14.029,14.807,14.029L14.113,14.029C6.318,14.029,-0.001,20.311,-0.001,28.059L-0.001,35.074ZM14.113,42.089C10.215,42.089,7.056,38.949,7.056,35.074L7.056,28.059C7.056,24.185,10.215,21.044,14.113,21.044L14.807,21.044C18.338,21.044,21.741,19.728,24.344,17.356L34.68,7.938C35.333,7.344,36.186,7.014,37.071,7.014C38.593,7.014,39.654,7.924,39.918,9.04C40.977,13.517,42.342,21.28,42.342,31.567C42.342,41.854,40.977,49.617,39.918,54.094C39.654,55.21,38.593,56.12,37.071,56.12C36.186,56.12,35.333,55.79,34.68,55.195L24.344,45.777C21.741,43.405,18.338,42.089,14.807,42.089L14.113,42.089ZM53.3,40.521C52.428,42.254,53.135,44.36,54.878,45.227C56.621,46.093,58.74,45.391,59.612,43.658C63.637,35.656,63.637,27.478,59.612,19.475C58.74,17.743,56.621,17.04,54.878,17.907C53.135,18.773,52.428,20.88,53.3,22.613C56.332,28.64,56.332,34.493,53.3,40.521ZM53.3,40.521"/>
</g>
  <g id="Light-M" transform="matrix(1.0,0.0,0.0,1.0,1123.1044618055557,1059.3282090053763)">  <path fill-opacity="1" stroke-miterlimit="4" stroke="none" stroke-width="1px" stroke-opacity="1" stroke-dasharray="none" stroke-linecap="butt" fill-rule="evenodd" fill="#000000" stroke-linejoin="miter" d="M-0.001,35.074C-0.001,42.823,6.318,49.105,14.113,49.105L14.807,49.105C16.573,49.105,18.274,49.763,19.576,50.949L29.911,60.366C31.866,62.147,34.42,63.135,37.071,63.135C41.493,63.135,45.692,60.334,46.788,55.7C47.953,50.774,49.399,42.469,49.399,31.567C49.399,20.665,47.953,12.359,46.788,7.434C45.692,2.799,41.493,-0.001,37.071,-0.001C34.42,-0.001,31.866,0.986,29.911,2.767L19.576,12.185C18.274,13.371,16.573,14.029,14.807,14.029L14.113,14.029C6.318,14.029,-0.001,20.311,-0.001,28.059L-0.001,35.074ZM14.113,42.089C10.215,42.089,7.056,38.949,7.056,35.074L7.056,28.059C7.056,24.185,10.215,21.044,14.113,21.044L14.807,21.044C18.338,21.044,21.741,19.728,24.344,17.356L34.68,7.938C35.333,7.344,36.186,7.014,37.071,7.014C38.593,7.014,39.654,7.924,39.918,9.04C40.977,13.517,42.342,21.28,42.342,31.567C42.342,41.854,40.977,49.617,39.918,54.094C39.654,55.21,38.593,56.12,37.071,56.12C36.186,56.12,35.333,55.79,34.68,55.195L24.344,45.777C21.741,43.405,18.338,42.089,14.807,42.089L14.113,42.089ZM53.3,40.521C52.428,42.254,53.135,44.36,54.878,45.227C56.621,46.093,58.74,45.391,59.612,43.658C63.637,35.656,63.637,27.478,59.612,19.475C58.74,17.743,56.621,17.04,54.878,17.907C53.135,18.773,52.428,20.88,53.3,22.613C56.332,28.64,56.332,34.493,53.3,40.521ZM53.3,40.521"/>
</g>
  <g id="Thin-M" transform="matrix(1.0,0.0,0.0,1.0,826.3944618055556,1059.3282090053763)">  <path stroke-linecap="butt" stroke-linejoin="miter" fill-opacity="1" fill="#000000" stroke-width="1px" stroke-opacity="1" stroke="none" fill-rule="evenodd" stroke-miterlimit="4" stroke-dasharray="none" d="M-0.001,35.074C-0.001,42.823,6.318,49.105,14.113,49.105L14.807,49.105C16.573,49.105,18.274,49.763,19.576,50.949L29.911,60.366C31.866,62.147,34.42,63.135,37.071,63.135C41.493,63.135,45.692,60.334,46.788,55.7C47.953,50.774,49.399,42.469,49.399,31.567C49.399,20.665,47.953,12.359,46.788,7.434C45.692,2.799,41.493,-0.001,37.071,-0.001C34.42,-0.001,31.866,0.986,29.911,2.767L19.576,12.185C18.274,13.371,16.573,14.029,14.807,14.029L14.113,14.029C6.318,14.029,-0.001,20.311,-0.001,28.059L-0.001,35.074ZM14.113,42.089C10.215,42.089,7.056,38.949,7.056,35.074L7.056,28.059C7.056,24.185,10.215,21.044,14.113,21.044L14.807,21.044C18.338,21.044,21.741,19.728,24.344,17.356L34.68,7.938C35.333,7.344,36.186,7.014,37.071,7.014C38.593,7.014,39.654,7.924,39.918,9.04C40.977,13.517,42.342,21.28,42.342,31.567C42.342,41.854,40.977,49.617,39.918,54.094C39.654,55.21,38.593,56.12,37.071,56.12C36.186,56.12,35.333,55.79,34.68,55.195L24.344,45.777C21.741,43.405,18.338,42.089,14.807,42.089L14.113,42.089ZM53.3,40.521C52.428,42.254,53.135,44.36,54.878,45.227C56.621,46.093,58.74,45.391,59.612,43.658C63.637,35.656,63.637,27.478,59.612,19.475C58.74,17.743,56.621,17.04,54.878,17.907C53.135,18.773,52.428,20.88,53.3,22.613C56.332,28.64,56.332,34.493,53.3,40.521ZM53.3,40.521"/>
</g>
  <g id="Ultralight-M" transform="matrix(1.0,0.0,0.0,1.0,529.6844618055555,1059.3282090053763)">  <path stroke-miterlimit="4" stroke-opacity="1" stroke-dasharray="none" stroke-width="1px" stroke-linecap="butt" fill-opacity="1" stroke-linejoin="miter" fill="#000000" fill-rule="evenodd" stroke="none" d="M-0.001,35.074C-0.001,42.823,6.318,49.105,14.113,49.105L14.807,49.105C16.573,49.105,18.274,49.763,19.576,50.949L29.911,60.366C31.866,62.147,34.42,63.135,37.071,63.135C41.493,63.135,45.692,60.334,46.788,55.7C47.953,50.774,49.399,42.469,49.399,31.567C49.399,20.665,47.953,12.359,46.788,7.434C45.692,2.799,41.493,-0.001,37.071,-0.001C34.42,-0.001,31.866,0.986,29.911,2.767L19.576,12.185C18.274,13.371,16.573,14.029,14.807,14.029L14.113,14.029C6.318,14.029,-0.001,20.311,-0.001,28.059L-0.001,35.074ZM14.113,42.089C10.215,42.089,7.056,38.949,7.056,35.074L7.056,28.059C7.056,24.185,10.215,21.044,14.113,21.044L14.807,21.044C18.338,21.044,21.741,19.728,24.344,17.356L34.68,7.938C35.333,7.344,36.186,7.014,37.071,7.014C38.593,7.014,39.654,7.924,39.918,9.04C40.977,13.517,42.342,21.28,42.342,31.567C42.342,41.854,40.977,49.617,39.918,54.094C39.654,55.21,38.593,56.12,37.071,56.12C36.186,56.12,35.333,55.79,34.68,55.195L24.344,45.777C21.741,43.405,18.338,42.089,14.807,42.089L14.113,42.089ZM53.3,40.521C52.428,42.254,53.135,44.36,54.878,45.227C56.621,46.093,58.74,45.391,59.612,43.658C63.637,35.656,63.637,27.478,59.612,19.475C58.74,17.743,56.621,17.04,54.878,17.907C53.135,18.773,52.428,20.88,53.3,22.613C56.332,28.64,56.332,34.493,53.3,40.521ZM53.3,40.521"/>
</g>
  <g id="Black-S" transform="matrix(1.0,0.0,0.0,1.0,2910.15993359375,636.1510818894909)">  <path stroke="none" stroke-dasharray="none" fill-opacity="1" stroke-linejoin="miter" stroke-opacity="1" stroke-width="1px" fill="#000000" stroke-miterlimit="4" fill-rule="evenodd" stroke-linecap="butt" d="M-0.001,27.463C-0.001,33.53,4.947,38.449,11.05,38.449L11.594,38.449C12.976,38.449,14.309,38.964,15.328,39.893L23.421,47.267C24.951,48.661,26.951,49.435,29.027,49.435C32.489,49.435,35.776,47.242,36.635,43.613C37.547,39.756,38.679,33.253,38.679,24.717C38.679,16.181,37.547,9.677,36.635,5.821C35.776,2.192,32.489,-0.001,29.027,-0.001C26.951,-0.001,24.951,0.772,23.421,2.167L15.328,9.541C14.309,10.47,12.976,10.985,11.594,10.985L11.05,10.985C4.947,10.985,-0.001,15.903,-0.001,21.97L-0.001,27.463ZM11.05,32.956C7.999,32.956,5.525,30.497,5.525,27.463L5.525,21.97C5.525,18.937,7.999,16.478,11.05,16.478L11.594,16.478C14.359,16.478,17.023,15.447,19.062,13.59L27.154,6.216C27.666,5.75,28.333,5.492,29.027,5.492C30.218,5.492,31.049,6.204,31.256,7.078C32.085,10.584,33.153,16.662,33.153,24.717C33.153,32.772,32.085,38.85,31.256,42.355C31.049,43.229,30.218,43.942,29.027,43.942C28.333,43.942,27.666,43.684,27.154,43.218L19.062,35.844C17.023,33.986,14.359,32.956,11.594,32.956L11.05,32.956ZM41.734,31.728C41.051,33.085,41.604,34.734,42.969,35.412C44.334,36.091,45.994,35.541,46.676,34.184C49.828,27.918,49.828,21.515,46.676,15.249C45.994,13.893,44.334,13.343,42.969,14.021C41.604,14.699,41.051,16.349,41.734,17.706C44.108,22.425,44.108,27.008,41.734,31.728ZM41.734,31.728"/>
</g>
  <g id="Heavy-S" transform="matrix(1.0,0.0,0.0,1.0,2613.44993359375,636.1510818894909)">  <path fill="#000000" fill-rule="evenodd" stroke-linejoin="miter" stroke-width="1px" stroke-linecap="butt" stroke="none" stroke-dasharray="none" stroke-opacity="1" stroke-miterlimit="4" fill-opacity="1" d="M-0.001,27.463C-0.001,33.53,4.947,38.449,11.05,38.449L11.594,38.449C12.976,38.449,14.309,38.964,15.328,39.893L23.421,47.267C24.951,48.661,26.951,49.435,29.027,49.435C32.489,49.435,35.776,47.242,36.635,43.613C37.547,39.756,38.679,33.253,38.679,24.717C38.679,16.181,37.547,9.677,36.635,5.821C35.776,2.192,32.489,-0.001,29.027,-0.001C26.951,-0.001,24.951,0.772,23.421,2.167L15.328,9.541C14.309,10.47,12.976,10.985,11.594,10.985L11.05,10.985C4.947,10.985,-0.001,15.903,-0.001,21.97L-0.001,27.463ZM11.05,32.956C7.999,32.956,5.525,30.497,5.525,27.463L5.525,21.97C5.525,18.937,7.999,16.478,11.05,16.478L11.594,16.478C14.359,16.478,17.023,15.447,19.062,13.59L27.154,6.216C27.666,5.75,28.333,5.492,29.027,5.492C30.218,5.492,31.049,6.204,31.256,7.078C32.085,10.584,33.153,16.662,33.153,24.717C33.153,32.772,32.085,38.85,31.256,42.355C31.049,43.229,30.218,43.942,29.027,43.942C28.333,43.942,27.666,43.684,27.154,43.218L19.062,35.844C17.023,33.986,14.359,32.956,11.594,32.956L11.05,32.956ZM41.734,31.728C41.051,33.085,41.604,34.734,42.969,35.412C44.334,36.091,45.994,35.541,46.676,34.184C49.828,27.918,49.828,21.515,46.676,15.249C45.994,13.893,44.334,13.343,42.969,14.021C41.604,14.699,41.051,16.349,41.734,17.706C44.108,22.425,44.108,27.008,41.734,31.728ZM41.734,31.728"/>
</g>
  <g id="Bold-S" transform="matrix(1.0,0.0,0.0,1.0,2316.73993359375,636.1510818894909)">  <path stroke-width="1px" fill-rule="evenodd" stroke-miterlimit="4" stroke-opacity="1" fill-opacity="1" stroke-linejoin="miter" stroke-linecap="butt" stroke-dasharray="none" fill="#000000" stroke="none" d="M-0.001,27.463C-0.001,33.53,4.947,38.449,11.05,38.449L11.594,38.449C12.976,38.449,14.309,38.964,15.328,39.893L23.421,47.267C24.951,48.661,26.951,49.435,29.027,49.435C32.489,49.435,35.776,47.242,36.635,43.613C37.547,39.756,38.679,33.253,38.679,24.717C38.679,16.181,37.547,9.677,36.635,5.821C35.776,2.192,32.489,-0.001,29.027,-0.001C26.951,-0.001,24.951,0.772,23.421,2.167L15.328,9.541C14.309,10.47,12.976,10.985,11.594,10.985L11.05,10.985C4.947,10.985,-0.001,15.903,-0.001,21.97L-0.001,27.463ZM11.05,32.956C7.999,32.956,5.525,30.497,5.525,27.463L5.525,21.97C5.525,18.937,7.999,16.478,11.05,16.478L11.594,16.478C14.359,16.478,17.023,15.447,19.062,13.59L27.154,6.216C27.666,5.75,28.333,5.492,29.027,5.492C30.218,5.492,31.049,6.204,31.256,7.078C32.085,10.584,33.153,16.662,33.153,24.717C33.153,32.772,32.085,38.85,31.256,42.355C31.049,43.229,30.218,43.942,29.027,43.942C28.333,43.942,27.666,43.684,27.154,43.218L19.062,35.844C17.023,33.986,14.359,32.956,11.594,32.956L11.05,32.956ZM41.734,31.728C41.051,33.085,41.604,34.734,42.969,35.412C44.334,36.091,45.994,35.541,46.676,34.184C49.828,27.918,49.828,21.515,46.676,15.249C45.994,13.893,44.334,13.343,42.969,14.021C41.604,14.699,41.051,16.349,41.734,17.706C44.108,22.425,44.108,27.008,41.734,31.728ZM41.734,31.728"/>
</g>
  <g id="Semibold-S" transform="matrix(1.0,0.0,0.0,1.0,2020.02993359375,636.1510818894909)">  <path fill-rule="evenodd" stroke-linecap="butt" stroke-width="1px" stroke-dasharray="none" stroke-linejoin="miter" fill-opacity="1" stroke-miterlimit="4" fill="#000000" stroke-opacity="1" stroke="none" d="M-0.001,27.463C-0.001,33.53,4.947,38.449,11.05,38.449L11.594,38.449C12.976,38.449,14.309,38.964,15.328,39.893L23.421,47.267C24.951,48.661,26.951,49.435,29.027,49.435C32.489,49.435,35.776,47.242,36.635,43.613C37.547,39.756,38.679,33.253,38.679,24.717C38.679,16.181,37.547,9.677,36.635,5.821C35.776,2.192,32.489,-0.001,29.027,-0.001C26.951,-0.001,24.951,0.772,23.421,2.167L15.328,9.541C14.309,10.47,12.976,10.985,11.594,10.985L11.05,10.985C4.947,10.985,-0.001,15.903,-0.001,21.97L-0.001,27.463ZM11.05,32.956C7.999,32.956,5.525,30.497,5.525,27.463L5.525,21.97C5.525,18.937,7.999,16.478,11.05,16.478L11.594,16.478C14.359,16.478,17.023,15.447,19.062,13.59L27.154,6.216C27.666,5.75,28.333,5.492,29.027,5.492C30.218,5.492,31.049,6.204,31.256,7.078C32.085,10.584,33.153,16.662,33.153,24.717C33.153,32.772,32.085,38.85,31.256,42.355C31.049,43.229,30.218,43.942,29.027,43.942C28.333,43.942,27.666,43.684,27.154,43.218L19.062,35.844C17.023,33.986,14.359,32.956,11.594,32.956L11.05,32.956ZM41.734,31.728C41.051,33.085,41.604,34.734,42.969,35.412C44.334,36.091,45.994,35.541,46.676,34.184C49.828,27.918,49.828,21.515,46.676,15.249C45.994,13.893,44.334,13.343,42.969,14.021C41.604,14.699,41.051,16.349,41.734,17.706C44.108,22.425,44.108,27.008,41.734,31.728ZM41.734,31.728"/>
</g>
  <g id="Medium-S" transform="matrix(1.0,0.0,0.0,1.0,1723.31993359375,636.1510818894909)">  <path stroke-linejoin="miter" stroke-miterlimit="4" fill-rule="evenodd" stroke-linecap="butt" fill="#000000" stroke-opacity="1" fill-opacity="1" stroke-width="1px" stroke-dasharray="none" stroke="none" d="M-0.001,27.463C-0.001,33.53,4.947,38.449,11.05,38.449L11.594,38.449C12.976,38.449,14.309,38.964,15.328,39.893L23.421,47.267C24.951,48.661,26.951,49.435,29.027,49.435C32.489,49.435,35.776,47.242,36.635,43.613C37.547,39.756,38.679,33.253,38.679,24.717C38.679,16.181,37.547,9.677,36.635,5.821C35.776,2.192,32.489,-0.001,29.027,-0.001C26.951,-0.001,24.951,0.772,23.421,2.167L15.328,9.541C14.309,10.47,12.976,10.985,11.594,10.985L11.05,10.985C4.947,10.985,-0.001,15.903,-0.001,21.97L-0.001,27.463ZM11.05,32.956C7.999,32.956,5.525,30.497,5.525,27.463L5.525,21.97C5.525,18.937,7.999,16.478,11.05,16.478L11.594,16.478C14.359,16.478,17.023,15.447,19.062,13.59L27.154,6.216C27.666,5.75,28.333,5.492,29.027,5.492C30.218,5.492,31.049,6.204,31.256,7.078C32.085,10.584,33.153,16.662,33.153,24.717C33.153,32.772,32.085,38.85,31.256,42.355C31.049,43.229,30.218,43.942,29.027,43.942C28.333,43.942,27.666,43.684,27.154,43.218L19.062,35.844C17.023,33.986,14.359,32.956,11.594,32.956L11.05,32.956ZM41.734,31.728C41.051,33.085,41.604,34.734,42.969,35.412C44.334,36.091,45.994,35.541,46.676,34.184C49.828,27.918,49.828,21.515,46.676,15.249C45.994,13.893,44.334,13.343,42.969,14.021C41.604,14.699,41.051,16.349,41.734,17.706C44.108,22.425,44.108,27.008,41.734,31.728ZM41.734,31.728"/>
</g>
  <g id="Regular-S" transform="matrix(1.0,0.0,0.0,1.0,1426.60993359375,636.1510818894909)">  <path stroke-linecap="butt" stroke="none" stroke-dasharray="none" fill="#000000" fill-opacity="1" stroke-opacity="1" fill-rule="evenodd" stroke-width="1px" stroke-linejoin="miter" stroke-miterlimit="4" d="M-0.001,27.463C-0.001,33.53,4.947,38.449,11.05,38.449L11.594,38.449C12.976,38.449,14.309,38.964,15.328,39.893L23.421,47.267C24.951,48.661,26.951,49.435,29.027,49.435C32.489,49.435,35.776,47.242,36.635,43.613C37.547,39.756,38.679,33.253,38.679,24.717C38.679,16.181,37.547,9.677,36.635,5.821C35.776,2.192,32.489,-0.001,29.027,-0.001C26.951,-0.001,24.951,0.772,23.421,2.167L15.328,9.541C14.309,10.47,12.976,10.985,11.594,10.985L11.05,10.985C4.947,10.985,-0.001,15.903,-0.001,21.97L-0.001,27.463ZM11.05,32.956C7.999,32.956,5.525,30.497,5.525,27.463L5.525,21.97C5.525,18.937,7.999,16.478,11.05,16.478L11.594,16.478C14.359,16.478,17.023,15.447,19.062,13.59L27.154,6.216C27.666,5.75,28.333,5.492,29.027,5.492C30.218,5.492,31.049,6.204,31.256,7.078C32.085,10.584,33.153,16.662,33.153,24.717C33.153,32.772,32.085,38.85,31.256,42.355C31.049,43.229,30.218,43.942,29.027,43.942C28.333,43.942,27.666,43.684,27.154,43.218L19.062,35.844C17.023,33.986,14.359,32.956,11.594,32.956L11.05,32.956ZM41.734,31.728C41.051,33.085,41.604,34.734,42.969,35.412C44.334,36.091,45.994,35.541,46.676,34.184C49.828,27.918,49.828,21.515,46.676,15.249C45.994,13.893,44.334,13.343,42.969,14.021C41.604,14.699,41.051,16.349,41.734,17.706C44.108,22.425,44.108,27.008,41.734,31.728ZM41.734,31.728"/>
</g>
  <g id="Light-S" transform="matrix(1.0,0.0,0.0,1.0,1129.8999335937501,636.1510818894909)">  <path fill-opacity="1" stroke-miterlimit="4" stroke="none" stroke-width="1px" stroke-opacity="1" stroke-dasharray="none" stroke-linecap="butt" fill-rule="evenodd" fill="#000000" stroke-linejoin="miter" d="M-0.001,27.463C-0.001,33.53,4.947,38.449,11.05,38.449L11.594,38.449C12.976,38.449,14.309,38.964,15.328,39.893L23.421,47.267C24.951,48.661,26.951,49.435,29.027,49.435C32.489,49.435,35.776,47.242,36.635,43.613C37.547,39.756,38.679,33.253,38.679,24.717C38.679,16.181,37.547,9.677,36.635,5.821C35.776,2.192,32.489,-0.001,29.027,-0.001C26.951,-0.001,24.951,0.772,23.421,2.167L15.328,9.541C14.309,10.47,12.976,10.985,11.594,10.985L11.05,10.985C4.947,10.985,-0.001,15.903,-0.001,21.97L-0.001,27.463ZM11.05,32.956C7.999,32.956,5.525,30.497,5.525,27.463L5.525,21.97C5.525,18.937,7.999,16.478,11.05,16.478L11.594,16.478C14.359,16.478,17.023,15.447,19.062,13.59L27.154,6.216C27.666,5.75,28.333,5.492,29.027,5.492C30.218,5.492,31.049,6.204,31.256,7.078C32.085,10.584,33.153,16.662,33.153,24.717C33.153,32.772,32.085,38.85,31.256,42.355C31.049,43.229,30.218,43.942,29.027,43.942C28.333,43.942,27.666,43.684,27.154,43.218L19.062,35.844C17.023,33.986,14.359,32.956,11.594,32.956L11.05,32.956ZM41.734,31.728C41.051,33.085,41.604,34.734,42.969,35.412C44.334,36.091,45.994,35.541,46.676,34.184C49.828,27.918,49.828,21.515,46.676,15.249C45.994,13.893,44.334,13.343,42.969,14.021C41.604,14.699,41.051,16.349,41.734,17.706C44.108,22.425,44.108,27.008,41.734,31.728ZM41.734,31.728"/>
</g>
  <g id="Thin-S" transform="matrix(1.0,0.0,0.0,1.0,833.1899335937501,636.1510818894909)">  <path stroke-linecap="butt" stroke-linejoin="miter" fill-opacity="1" fill="#000000" stroke-width="1px" stroke-opacity="1" stroke="none" fill-rule="evenodd" stroke-miterlimit="4" stroke-dasharray="none" d="M-0.001,27.463C-0.001,33.53,4.947,38.449,11.05,38.449L11.594,38.449C12.976,38.449,14.309,38.964,15.328,39.893L23.421,47.267C24.951,48.661,26.951,49.435,29.027,49.435C32.489,49.435,35.776,47.242,36.635,43.613C37.547,39.756,38.679,33.253,38.679,24.717C38.679,16.181,37.547,9.677,36.635,5.821C35.776,2.192,32.489,-0.001,29.027,-0.001C26.951,-0.001,24.951,0.772,23.421,2.167L15.328,9.541C14.309,10.47,12.976,10.985,11.594,10.985L11.05,10.985C4.947,10.985,-0.001,15.903,-0.001,21.97L-0.001,27.463ZM11.05,32.956C7.999,32.956,5.525,30.497,5.525,27.463L5.525,21.97C5.525,18.937,7.999,16.478,11.05,16.478L11.594,16.478C14.359,16.478,17.023,15.447,19.062,13.59L27.154,6.216C27.666,5.75,28.333,5.492,29.027,5.492C30.218,5.492,31.049,6.204,31.256,7.078C32.085,10.584,33.153,16.662,33.153,24.717C33.153,32.772,32.085,38.85,31.256,42.355C31.049,43.229,30.218,43.942,29.027,43.942C28.333,43.942,27.666,43.684,27.154,43.218L19.062,35.844C17.023,33.986,14.359,32.956,11.594,32.956L11.05,32.956ZM41.734,31.728C41.051,33.085,41.604,34.734,42.969,35.412C44.334,36.091,45.994,35.541,46.676,34.184C49.828,27.918,49.828,21.515,46.676,15.249C45.994,13.893,44.334,13.343,42.969,14.021C41.604,14.699,41.051,16.349,41.734,17.706C44.108,22.425,44.108,27.008,41.734,31.728ZM41.734,31.728"/>
</g>
  <g id="Ultralight-S" transform="matrix(1.0,0.0,0.0,1.0,536.47993359375,636.1510818894909)">  <path stroke-miterlimit="4" stroke-opacity="1" stroke-dasharray="none" stroke-width="1px" stroke-linecap="butt" fill-opacity="1" stroke-linejoin="miter" fill="#000000" fill-rule="evenodd" stroke="none" d="M-0.001,27.463C-0.001,33.53,4.947,38.449,11.05,38.449L11.594,38.449C12.976,38.449,14.309,38.964,15.328,39.893L23.421,47.267C24.951,48.661,26.951,49.435,29.027,49.435C32.489,49.435,35.776,47.242,36.635,43.613C37.547,39.756,38.679,33.253,38.679,24.717C38.679,16.181,37.547,9.677,36.635,5.821C35.776,2.192,32.489,-0.001,29.027,-0.001C26.951,-0.001,24.951,0.772,23.421,2.167L15.328,9.541C14.309,10.47,12.976,10.985,11.594,10.985L11.05,10.985C4.947,10.985,-0.001,15.903,-0.001,21.97L-0.001,27.463ZM11.05,32.956C7.999,32.956,5.525,30.497,5.525,27.463L5.525,21.97C5.525,18.937,7.999,16.478,11.05,16.478L11.594,16.478C14.359,16.478,17.023,15.447,19.062,13.59L27.154,6.216C27.666,5.75,28.333,5.492,29.027,5.492C30.218,5.492,31.049,6.204,31.256,7.078C32.085,10.584,33.153,16.662,33.153,24.717C33.153,32.772,32.085,38.85,31.256,42.355C31.049,43.229,30.218,43.942,29.027,43.942C28.333,43.942,27.666,43.684,27.154,43.218L19.062,35.844C17.023,33.986,14.359,32.956,11.594,32.956L11.05,32.956ZM41.734,31.728C41.051,33.085,41.604,34.734,42.969,35.412C44.334,36.091,45.994,35.541,46.676,34.184C49.828,27.918,49.828,21.515,46.676,15.249C45.994,13.893,44.334,13.343,42.969,14.021C41.604,14.699,41.051,16.349,41.734,17.706C44.108,22.425,44.108,27.008,41.734,31.728ZM41.734,31.728"/>
</g>
 </g>
</svg>
