<?xml version="1.0" encoding="UTF-8"?>
<!-- Generator: CustomSymbols v2.6.7.45 by @serious_bret https://bretlester.com/app_content/CustomSymbols/ -->
<!-- Guides: Left/Right -0.05400000000000003/-0.05599999999999998 Cap/Base -0.06/-0.05599999999999998 -->
<!-- Settings: RefScale 0.0 Min/Max Stroke Scales 0.5/0.3 -->
<!DOCTYPE svg
PUBLIC "-//W3C//DTD SVG 1.1//EN"
       "http://www.w3.org/Graphics/SVG/1.1/DTD/svg11.dtd">
<svg version="1.1" xmlns="http://www.w3.org/2000/svg" xmlns:xlink="http://www.w3.org/1999/xlink" width="3300" height="2200">
<![CDATA[<svg xmlns="http://www.w3.org/2000/svg" width="22.855" height="25.216" viewBox="0 0 22.855 25.216"><path fill="#BBB" d="M15.3506486,-0.8 C15.7924764,-0.8 16.1506486,-0.4418278 16.1506486,-7.77156117e-16 L16.15,1 L16.1637746,1.00164067 C19.928244,1.29123491 21.9611279,3.63455767 22.0515873,7.40963183 L22.0547442,7.67532429 L22.0547442,17.7122868 C22.0547442,21.9109508 19.728272,24.4163824 15.3506486,24.4163824 L5.90409561,24.4163824 C1.52647224,24.4163824 -0.8,21.9109508 -0.8,17.7122868 L-0.8,7.67532429 C-0.8,3.74466015 1.23895439,1.29796966 5.09096956,1.00164067 L5.104,1 L5.10409561,-7.77156117e-16 C5.10409561,-0.407841046 5.40928375,-0.744401581 5.80374531,-0.793766864 L5.90409561,-0.8 C6.34592341,-0.8 6.70409561,-0.4418278 6.70409561,-7.77156117e-16 L6.704,0.971 L14.55,0.971 L14.5506486,-7.77156117e-16 C14.5506486,-0.407841046 14.8558367,-0.744401581 15.2502983,-0.793766864 L15.3506486,-0.8 Z M20.454,9.171 L0.8,9.171 L0.8,17.7122868 C0.8,20.9670472 2.35479804,22.7249005 5.64105392,22.8129069 L5.90409561,22.8163824 L15.3506486,22.8163824 C18.8170379,22.8163824 20.4547442,21.0526988 20.4547442,17.7122868 L20.454,9.171 Z M6.26222624,16.5580411 C6.70405404,16.5580411 7.06222624,16.9162133 7.06222624,17.3580411 C7.06222624,17.7998689 6.70405404,18.1580411 6.26222624,18.1580411 L6.25162248,18.1580411 C5.80979468,18.1580411 5.45162248,17.7998689 5.45162248,17.3580411 C5.45162248,16.9162133 5.80979468,16.5580411 6.25162248,16.5580411 L6.26222624,16.5580411 Z M10.6326858,13.0155837 C11.0745136,13.0155837 11.4326858,13.3737559 11.4326858,13.8155837 C11.4326858,14.2574115 11.0745136,14.6155837 10.6326858,14.6155837 L10.6220584,14.6155837 C10.1802306,14.6155837 9.82205841,14.2574115 9.82205841,13.8155837 C9.82205841,13.3737559 10.1802306,13.0155837 10.6220584,13.0155837 L10.6326858,13.0155837 Z M6.26222624,13.0155837 C6.70405404,13.0155837 7.06222624,13.3737559 7.06222624,13.8155837 C7.06222624,14.2574115 6.70405404,14.6155837 6.26222624,14.6155837 L6.25162248,14.6155837 C5.80979468,14.6155837 5.45162248,14.2574115 5.45162248,13.8155837 C5.45162248,13.3737559 5.80979468,13.0155837 6.25162248,13.0155837 L6.26222624,13.0155837 Z M14.55,2.571 L6.704,2.571 L6.70409561,3.54245736 C6.70409561,3.95029841 6.39890746,4.28685895 6.00444591,4.33622423 L5.90409561,4.34245736 C5.46226781,4.34245736 5.10409561,3.98428516 5.10409561,3.54245736 L5.104,2.605 L4.89501814,2.62668563 C2.19830915,2.94037016 0.876560508,4.5799272 0.803233409,7.42148259 L0.801,7.571 L20.453,7.571 L20.4515108,7.42148259 C20.3781837,4.5799272 19.056435,2.94037016 16.359726,2.62668563 L16.15,2.605 L16.1506486,3.54245736 C16.1506486,3.95029841 15.8454604,4.28685895 15.4509989,4.33622423 L15.3506486,4.34245736 C14.9088208,4.34245736 14.5506486,3.98428516 14.5506486,3.54245736 L14.55,2.571 Z" transform="translate(.8 .8)"/></svg>]]>
 <g id="Notes">
  <rect height="2200" id="artboard" style="fill:white;opacity:1" width="3300" x="0" y="0"/>
  <line id="" style="fill:none;stroke:black;opacity:1;stroke-width:0.5;" x1="263" x2="3036" y1="292" y2="292"/>
  <text id="reftext1" style="stroke:none;fill:black;font-family:-apple-system,&quot;SF Pro Display&quot;,&quot;SF Pro Text&quot;,Helvetica,sans-serif;font-weight:bold;" transform="matrix(1 0 0 1 263 322)">Weight/Scale Variations</text>
  <text id="reftext2" style="stroke:none;fill:black;font-family:-apple-system,&quot;SF Pro Display&quot;,&quot;SF Pro Text&quot;,Helvetica,sans-serif;text-anchor:middle;" transform="matrix(1 0 0 1 559.711 322)">Ultralight</text>
  <text style="stroke:none;fill:black;font-family:-apple-system,&quot;SF Pro Display&quot;,&quot;SF Pro Text&quot;,Helvetica,sans-serif;text-anchor:middle;" transform="matrix(1 0 0 1 856.422 322)">Thin</text>
  <text style="stroke:none;fill:black;font-family:-apple-system,&quot;SF Pro Display&quot;,&quot;SF Pro Text&quot;,Helvetica,sans-serif;text-anchor:middle;" transform="matrix(1 0 0 1 1153.13 322)">Light</text>
  <text style="stroke:none;fill:black;font-family:-apple-system,&quot;SF Pro Display&quot;,&quot;SF Pro Text&quot;,Helvetica,sans-serif;text-anchor:middle;" transform="matrix(1 0 0 1 1449.84 322)">Regular</text>
  <text style="stroke:none;fill:black;font-family:-apple-system,&quot;SF Pro Display&quot;,&quot;SF Pro Text&quot;,Helvetica,sans-serif;text-anchor:middle;" transform="matrix(1 0 0 1 1746.56 322)">Medium</text>
  <text style="stroke:none;fill:black;font-family:-apple-system,&quot;SF Pro Display&quot;,&quot;SF Pro Text&quot;,Helvetica,sans-serif;text-anchor:middle;" transform="matrix(1 0 0 1 2043.27 322)">Semibold</text>
  <text style="stroke:none;fill:black;font-family:-apple-system,&quot;SF Pro Display&quot;,&quot;SF Pro Text&quot;,Helvetica,sans-serif;text-anchor:middle;" transform="matrix(1 0 0 1 2339.98 322)">Bold</text>
  <text style="stroke:none;fill:black;font-family:-apple-system,&quot;SF Pro Display&quot;,&quot;SF Pro Text&quot;,Helvetica,sans-serif;text-anchor:middle;" transform="matrix(1 0 0 1 2636.69 322)">Heavy</text>
  <text style="stroke:none;fill:black;font-family:-apple-system,&quot;SF Pro Display&quot;,&quot;SF Pro Text&quot;,Helvetica,sans-serif;text-anchor:middle;" transform="matrix(1 0 0 1 2933.4 322)">Black</text>
  <line id="" style="fill:none;stroke:black;opacity:1;stroke-width:0.5;" x1="263" x2="3036" y1="1903" y2="1903"/>
  <g id="" transform="matrix(1 0 0 1 263 1933)">
   <path d="M9.24805 0.830078C13.5547 0.830078 17.1387-2.74414 17.1387-7.05078C17.1387-11.3574 13.5449-14.9316 9.23828-14.9316C4.94141-14.9316 1.36719-11.3574 1.36719-7.05078C1.36719-2.74414 4.95117 0.830078 9.24805 0.830078ZM9.24805-0.654297C5.70312-0.654297 2.87109-3.49609 2.87109-7.05078C2.87109-10.6055 5.69336-13.4473 9.23828-13.4473C12.793-13.4473 15.6348-10.6055 15.6445-7.05078C15.6543-3.49609 12.8027-0.654297 9.24805-0.654297ZM6.39648-6.31836L8.50586-6.31836L8.50586-4.19922C8.50586-3.75977 8.79883-3.45703 9.22852-3.45703C9.67773-3.45703 9.9707-3.75977 9.9707-4.19922L9.9707-6.31836L12.0996-6.31836C12.5391-6.31836 12.8418-6.61133 12.8418-7.04102C12.8418-7.48047 12.5391-7.7832 12.0996-7.7832L9.9707-7.7832L9.9707-9.89258C9.9707-10.3418 9.67773-10.6445 9.22852-10.6445C8.79883-10.6445 8.50586-10.3418 8.50586-9.89258L8.50586-7.7832L6.39648-7.7832C5.94727-7.7832 5.64453-7.48047 5.64453-7.04102C5.64453-6.61133 5.94727-6.31836 6.39648-6.31836Z"/>
  </g>
  <g id="" transform="matrix(1 0 0 1 281.506 1933)">
   <path d="M11.709 2.91016C17.1582 2.91016 21.6699-1.61133 21.6699-7.05078C21.6699-12.5 17.1484-17.0117 11.6992-17.0117C6.25977-17.0117 1.74805-12.5 1.74805-7.05078C1.74805-1.61133 6.26953 2.91016 11.709 2.91016ZM11.709 1.25C7.09961 1.25 3.41797-2.44141 3.41797-7.05078C3.41797-11.6602 7.08984-15.3516 11.6992-15.3516C16.3086-15.3516 20-11.6602 20.0098-7.05078C20.0195-2.44141 16.3184 1.25 11.709 1.25ZM7.98828-6.23047L10.8789-6.23047L10.8789-3.32031C10.8789-2.83203 11.2109-2.5 11.6895-2.5C12.1777-2.5 12.5195-2.83203 12.5195-3.32031L12.5195-6.23047L15.4297-6.23047C15.918-6.23047 16.25-6.5625 16.25-7.04102C16.25-7.5293 15.918-7.87109 15.4297-7.87109L12.5195-7.87109L12.5195-10.7617C12.5195-11.2695 12.1777-11.6016 11.6895-11.6016C11.2109-11.6016 10.8789-11.2598 10.8789-10.7617L10.8789-7.87109L7.98828-7.87109C7.48047-7.87109 7.14844-7.5293 7.14844-7.04102C7.14844-6.5625 7.49023-6.23047 7.98828-6.23047Z"/>
  </g>
  <g id="" transform="matrix(1 0 0 1 304.924 1933)">
   <path d="M14.9707 5.66406C21.9336 5.66406 27.6953-0.0976562 27.6953-7.05078C27.6953-14.0137 21.9238-19.7754 14.9609-19.7754C8.00781-19.7754 2.25586-14.0137 2.25586-7.05078C2.25586-0.0976562 8.01758 5.66406 14.9707 5.66406ZM14.9707 3.84766C8.93555 3.84766 4.08203-1.01562 4.08203-7.05078C4.08203-13.0957 8.92578-17.9492 14.9609-17.9492C21.0059-17.9492 25.8594-13.0957 25.8691-7.05078C25.8789-1.01562 21.0156 3.84766 14.9707 3.84766ZM10.0586-6.14258L14.0625-6.14258L14.0625-2.12891C14.0625-1.5918 14.4336-1.2207 14.9512-1.2207C15.4883-1.2207 15.8594-1.5918 15.8594-2.12891L15.8594-6.14258L19.8828-6.14258C20.4102-6.14258 20.791-6.51367 20.791-7.03125C20.791-7.56836 20.4199-7.94922 19.8828-7.94922L15.8594-7.94922L15.8594-11.9531C15.8594-12.5098 15.4883-12.8809 14.9512-12.8809C14.4336-12.8809 14.0625-12.5 14.0625-11.9531L14.0625-7.94922L10.0586-7.94922C9.50195-7.94922 9.13086-7.56836 9.13086-7.03125C9.13086-6.51367 9.51172-6.14258 10.0586-6.14258Z"/>
  </g>
  <text style="stroke:none;fill:black;font-family:-apple-system,&quot;SF Pro Display&quot;,&quot;SF Pro Text&quot;,Helvetica,sans-serif;font-weight:bold;" transform="matrix(1 0 0 1 263 1953)">Design Variations</text>
  <text style="stroke:none;fill:black;font-family:-apple-system,&quot;SF Pro Display&quot;,&quot;SF Pro Text&quot;,Helvetica,sans-serif;" transform="matrix(1 0 0 1 263 1971)">Symbols are supported in up to nine weights and three scales.</text>
  <text style="stroke:none;fill:black;font-family:-apple-system,&quot;SF Pro Display&quot;,&quot;SF Pro Text&quot;,Helvetica,sans-serif;" transform="matrix(1 0 0 1 263 1989)">For optimal layout with text and other symbols, vertically align</text>
  <text style="stroke:none;fill:black;font-family:-apple-system,&quot;SF Pro Display&quot;,&quot;SF Pro Text&quot;,Helvetica,sans-serif;" transform="matrix(1 0 0 1 263 2007)">symbols with the adjacent text.</text>
  <line id="" style="fill:none;stroke:#00AEEF;stroke-width:0.5;opacity:1.0;" x1="776" x2="776" y1="1919" y2="1933"/>
  <g id="" transform="matrix(1 0 0 1 776 1933)">
   <path d="M3.31055 0.126953C3.82812 0.126953 4.08203-0.0683594 4.26758-0.605469L5.52734-4.0625L11.2891-4.0625L12.5488-0.605469C12.7344-0.0683594 12.9883 0.126953 13.4961 0.126953C14.0137 0.126953 14.3457-0.185547 14.3457-0.673828C14.3457-0.839844 14.3164-0.986328 14.2383-1.20117L9.6582-13.3887C9.43359-13.9941 9.0332-14.2871 8.4082-14.2871C7.80273-14.2871 7.39258-13.9941 7.17773-13.3984L2.59766-1.19141C2.51953-0.976562 2.49023-0.830078 2.49023-0.664062C2.49023-0.175781 2.80273 0.126953 3.31055 0.126953ZM6.00586-5.53711L8.37891-12.1094L8.42773-12.1094L10.8008-5.53711Z"/>
  </g>
  <line id="" style="fill:none;stroke:#00AEEF;stroke-width:0.5;opacity:1.0;" x1="792.836" x2="792.836" y1="1919" y2="1933"/>
  <text style="stroke:none;fill:black;font-family:-apple-system,&quot;SF Pro Display&quot;,&quot;SF Pro Text&quot;,Helvetica,sans-serif;font-weight:bold;" transform="matrix(1 0 0 1 776 1953)">Margins</text>
  <text style="stroke:none;fill:black;font-family:-apple-system,&quot;SF Pro Display&quot;,&quot;SF Pro Text&quot;,Helvetica,sans-serif;" transform="matrix(1 0 0 1 776 1971)">Leading and trailing margins on the left and right side of each symbol</text>
  <text style="stroke:none;fill:black;font-family:-apple-system,&quot;SF Pro Display&quot;,&quot;SF Pro Text&quot;,Helvetica,sans-serif;" transform="matrix(1 0 0 1 776 1989)">can be adjusted by modifying the x-location of the margin guidelines.</text>
  <text style="stroke:none;fill:black;font-family:-apple-system,&quot;SF Pro Display&quot;,&quot;SF Pro Text&quot;,Helvetica,sans-serif;" transform="matrix(1 0 0 1 776 2007)">Modifications are automatically applied proportionally to all</text>
  <text style="stroke:none;fill:black;font-family:-apple-system,&quot;SF Pro Display&quot;,&quot;SF Pro Text&quot;,Helvetica,sans-serif;" transform="matrix(1 0 0 1 776 2025)">scales and weights.</text>
  <g id="" transform="matrix(1 0 0 1 1289 1933)">
   <path d="M2.8418 1.86523L4.54102 3.57422C5.40039 4.44336 6.38672 4.38477 7.31445 3.35938L17.4902-7.85156C17.7539-7.76367 18.0273-7.7832 18.3398-7.8418L19.4043-8.03711L20.0684-7.36328L20.0293-6.80664C19.9902-6.30859 20.1172-5.92773 20.6055-5.44922L21.3672-4.70703C21.8457-4.22852 22.4609-4.19922 22.9297-4.66797L25.8398-7.58789C26.3086-8.05664 26.2891-8.65234 25.8105-9.13086L25.0391-9.89258C24.5605-10.3711 24.1895-10.5273 23.7109-10.4883L23.1348-10.4395L22.4902-11.0742L22.7344-12.1973C22.8613-12.7637 22.7051-13.2031 22.1191-13.7891L19.9219-15.9766C16.582-19.2969 12.1484-19.2188 9.25781-16.3281C8.83789-15.918 8.80859-15.3418 9.04297-14.9512C9.27734-14.5898 9.73633-14.3555 10.3809-14.5215C11.8457-14.8633 13.3691-14.9219 14.7949-13.9844L14.209-12.5293C14.0137-12.0508 13.9844-11.6504 14.1113-11.2891L3.04688-0.898438C2.06055 0.0195312 1.98242 0.996094 2.8418 1.86523ZM10.752-15.957C13.1836-17.7344 16.4746-17.4316 18.7012-15.2051L21.1328-12.793C21.3672-12.5586 21.4062-12.373 21.3379-12.0312L21.0156-10.5469L22.5195-9.0625L23.5059-9.12109C23.7598-9.13086 23.8379-9.11133 24.0332-8.91602L24.6094-8.33984L22.168-5.89844L21.5918-6.47461C21.3965-6.66992 21.3672-6.74805 21.377-7.01172L21.4453-7.98828L19.9512-9.47266L18.4277-9.21875C18.1055-9.15039 17.959-9.17969 17.7148-9.41406L15.7129-11.416C15.459-11.6504 15.4297-11.8164 15.5859-12.1875L16.4648-14.2773C14.9023-15.7324 12.8711-16.3574 10.8398-15.7617C10.6836-15.7227 10.625-15.8496 10.752-15.957ZM5.27344 2.30469L4.10156 1.14258C3.63281 0.683594 3.74023 0.341797 4.14062-0.0195312L14.9512-10.1953L16.416-8.71094L6.42578 2.27539C6.07422 2.67578 5.74219 2.77344 5.27344 2.30469Z"/>
  </g>
  <text style="stroke:none;fill:black;font-family:-apple-system,&quot;SF Pro Display&quot;,&quot;SF Pro Text&quot;,Helvetica,sans-serif;font-weight:bold;" transform="matrix(1 0 0 1 1289 1953)">Exporting</text>
  <text style="stroke:none;fill:black;font-family:-apple-system,&quot;SF Pro Display&quot;,&quot;SF Pro Text&quot;,Helvetica,sans-serif;" transform="matrix(1 0 0 1 1289 1971)">Symbols should be outlined when exporting to ensure the</text>
  <text style="stroke:none;fill:black;font-family:-apple-system,&quot;SF Pro Display&quot;,&quot;SF Pro Text&quot;,Helvetica,sans-serif;" transform="matrix(1 0 0 1 1289 1989)">design is preserved when submitting to Xcode.</text>
  <text id="template-version" style="stroke:none;fill:black;font-family:-apple-system,&quot;SF Pro Display&quot;,&quot;SF Pro Text&quot;,Helvetica,sans-serif;text-anchor:end;" transform="matrix(1 0 0 1 3036 1933)">Template v.2.0</text>
  <text style="stroke:none;fill:black;font-family:-apple-system,&quot;SF Pro Display&quot;,&quot;SF Pro Text&quot;,Helvetica,sans-serif;text-anchor:end;" transform="matrix(1 0 0 1 3036 1951)">Requires Xcode 12 or greater</text>
  <text style="stroke:none;fill:black;font-family:-apple-system,&quot;SF Pro Display&quot;,&quot;SF Pro Text&quot;,Helvetica,sans-serif;" transform="matrix(1 0 0 1 263 726)">Small</text>
  <text style="stroke:none;fill:black;font-family:-apple-system,&quot;SF Pro Display&quot;,&quot;SF Pro Text&quot;,Helvetica,sans-serif;" transform="matrix(1 0 0 1 263 1156)">Medium</text>
  <text style="stroke:none;fill:black;font-family:-apple-system,&quot;SF Pro Display&quot;,&quot;SF Pro Text&quot;,Helvetica,sans-serif;" transform="matrix(1 0 0 1 263 1586)">Large</text>
 </g>
 <g id="Guides">
  <g id="H-reference" style="fill:#27AAE1;stroke:none;" transform="matrix(1 0 0 1 339 696)">
   <path d="M0.976562 0L3.66211 0L12.9883-24.4629L45.752-24.4629L55.127 0L57.7637 0L30.6152-70.459L28.125-70.459ZM29.3457-67.1387L29.4434-67.1387L44.873-26.709L13.8672-26.709Z"/>
  </g>
  <line id="Baseline-S" style="fill:none;stroke:#27AAE1;opacity:1;stroke-width:0.5;" x1="263" x2="3036" y1="696" y2="696"/>
  <line id="Capline-S" style="fill:none;stroke:#27AAE1;opacity:1;stroke-width:0.5;" x1="263" x2="3036" y1="625.541" y2="625.541"/>
  <g id="H-reference" style="fill:#27AAE1;stroke:none;" transform="matrix(1 0 0 1 339 1126)">
   <path d="M0.976562 0L3.66211 0L12.9883-24.4629L45.752-24.4629L55.127 0L57.7637 0L30.6152-70.459L28.125-70.459ZM29.3457-67.1387L29.4434-67.1387L44.873-26.709L13.8672-26.709Z"/>
  </g>
  <line id="Baseline-M" style="fill:none;stroke:#27AAE1;opacity:1;stroke-width:0.5;" x1="263" x2="3036" y1="1126" y2="1126"/>
  <line id="Capline-M" style="fill:none;stroke:#27AAE1;opacity:1;stroke-width:0.5;" x1="263" x2="3036" y1="1055.54" y2="1055.54"/>
  <g id="H-reference" style="fill:#27AAE1;stroke:none;" transform="matrix(1 0 0 1 339 1556)">
   <path d="M0.976562 0L3.66211 0L12.9883-24.4629L45.752-24.4629L55.127 0L57.7637 0L30.6152-70.459L28.125-70.459ZM29.3457-67.1387L29.4434-67.1387L44.873-26.709L13.8672-26.709Z"/>
  </g>
  <line id="Baseline-L" style="fill:none;stroke:#27AAE1;opacity:1;stroke-width:0.5;" x1="263" x2="3036" y1="1556" y2="1556"/>
  <line id="Capline-L" style="fill:none;stroke:#27AAE1;opacity:1;stroke-width:0.5;" x1="263" x2="3036" y1="1485.54" y2="1485.54"/>
  <line id="left-margin" x1="1419.427537462577" x2="1419.427537462577" y1="1030.79" y2="1150.12" style="fill:none;stroke:#00AEEF;stroke-width:0.5;opacity:1.0;"/>
  <line id="right-margin" x1="1482.9469118606626" x2="1482.9469118606626" y1="1030.79" y2="1150.12" style="fill:none;stroke:#00AEEF;stroke-width:0.5;opacity:1.0;"/>
 </g>
 <g id="Symbols">
  <g id="Black-L" transform="matrix(1.0,0.0,0.0,1.0,2897.7700932551666,1480.210083952873)">  <path fill-rule="nonzero" stroke-opacity="1" fill-opacity="1" fill="#000000" stroke-linecap="butt" stroke-miterlimit="4" stroke-width="1px" stroke="none" stroke-linejoin="miter" stroke-dasharray="none" d="M52.165,0C53.592,0,54.749,1.157,54.749,2.584L54.747,5.814L54.792,5.819C66.951,6.755,73.517,14.323,73.809,26.516L73.819,27.375L73.819,59.793C73.819,73.355,66.305,81.447,52.165,81.447L21.654,81.447C7.514,81.447,0,73.355,0,59.793L0,27.375C0,14.679,6.586,6.776,19.027,5.819L19.069,5.814L19.07,2.584C19.07,1.267,20.055,0.18,21.33,0.02L21.654,0C23.081,0,24.238,1.157,24.238,2.584L24.237,5.72L49.579,5.72L49.581,2.584C49.581,1.267,50.567,0.18,51.841,0.02L52.165,0ZM68.649,32.206L5.168,32.206L5.168,59.793C5.168,70.306,10.19,75.984,20.804,76.268L21.654,76.279L52.165,76.279C63.361,76.279,68.651,70.582,68.651,59.793L68.649,32.206ZM22.81,56.065C24.237,56.065,25.394,57.222,25.394,58.649C25.394,60.076,24.237,61.233,22.81,61.233L22.776,61.233C21.349,61.233,20.192,60.076,20.192,58.649C20.192,57.222,21.349,56.065,22.776,56.065L22.81,56.065ZM36.927,44.623C38.354,44.623,39.511,45.78,39.511,47.207C39.511,48.634,38.354,49.791,36.927,49.791L36.892,49.791C35.465,49.791,34.308,48.634,34.308,47.207C34.308,45.78,35.465,44.623,36.892,44.623L36.927,44.623ZM22.81,44.623C24.237,44.623,25.394,45.78,25.394,47.207C25.394,48.634,24.237,49.791,22.81,49.791L22.776,49.791C21.349,49.791,20.192,48.634,20.192,47.207C20.192,45.78,21.349,44.623,22.776,44.623L22.81,44.623ZM49.579,10.888L24.237,10.888L24.238,14.026C24.238,15.343,23.252,16.43,21.978,16.59L21.654,16.61C20.227,16.61,19.07,15.453,19.07,14.026L19.069,10.998L18.394,11.068C9.684,12.081,5.415,17.377,5.178,26.555L5.171,27.038L68.645,27.038L68.641,26.555C68.404,17.377,64.135,12.081,55.425,11.068L54.747,10.998L54.749,14.026C54.749,15.343,53.763,16.43,52.489,16.59L52.165,16.61C50.738,16.61,49.581,15.453,49.581,14.026L49.579,10.888ZM49.579,10.888"/>
</g>
  <g id="Heavy-L" transform="matrix(1.0,0.0,0.0,1.0,2601.0600932551665,1480.210083952873)">  <path stroke-linecap="butt" stroke="none" stroke-linejoin="miter" stroke-width="1px" stroke-opacity="1" fill="#000000" stroke-miterlimit="4" stroke-dasharray="none" fill-opacity="1" fill-rule="nonzero" d="M52.165,0C53.592,0,54.749,1.157,54.749,2.584L54.747,5.814L54.792,5.819C66.951,6.755,73.517,14.323,73.809,26.516L73.819,27.375L73.819,59.793C73.819,73.355,66.305,81.447,52.165,81.447L21.654,81.447C7.514,81.447,0,73.355,0,59.793L0,27.375C0,14.679,6.586,6.776,19.027,5.819L19.069,5.814L19.07,2.584C19.07,1.267,20.055,0.18,21.33,0.02L21.654,0C23.081,0,24.238,1.157,24.238,2.584L24.237,5.72L49.579,5.72L49.581,2.584C49.581,1.267,50.567,0.18,51.841,0.02L52.165,0ZM68.649,32.206L5.168,32.206L5.168,59.793C5.168,70.306,10.19,75.984,20.804,76.268L21.654,76.279L52.165,76.279C63.361,76.279,68.651,70.582,68.651,59.793L68.649,32.206ZM22.81,56.065C24.237,56.065,25.394,57.222,25.394,58.649C25.394,60.076,24.237,61.233,22.81,61.233L22.776,61.233C21.349,61.233,20.192,60.076,20.192,58.649C20.192,57.222,21.349,56.065,22.776,56.065L22.81,56.065ZM36.927,44.623C38.354,44.623,39.511,45.78,39.511,47.207C39.511,48.634,38.354,49.791,36.927,49.791L36.892,49.791C35.465,49.791,34.308,48.634,34.308,47.207C34.308,45.78,35.465,44.623,36.892,44.623L36.927,44.623ZM22.81,44.623C24.237,44.623,25.394,45.78,25.394,47.207C25.394,48.634,24.237,49.791,22.81,49.791L22.776,49.791C21.349,49.791,20.192,48.634,20.192,47.207C20.192,45.78,21.349,44.623,22.776,44.623L22.81,44.623ZM49.579,10.888L24.237,10.888L24.238,14.026C24.238,15.343,23.252,16.43,21.978,16.59L21.654,16.61C20.227,16.61,19.07,15.453,19.07,14.026L19.069,10.998L18.394,11.068C9.684,12.081,5.415,17.377,5.178,26.555L5.171,27.038L68.645,27.038L68.641,26.555C68.404,17.377,64.135,12.081,55.425,11.068L54.747,10.998L54.749,14.026C54.749,15.343,53.763,16.43,52.489,16.59L52.165,16.61C50.738,16.61,49.581,15.453,49.581,14.026L49.579,10.888ZM49.579,10.888"/>
</g>
  <g id="Bold-L" transform="matrix(1.0,0.0,0.0,1.0,2304.3500932551665,1480.210083952873)">  <path fill="#000000" stroke-linejoin="miter" stroke-linecap="butt" stroke-dasharray="none" stroke-width="1px" stroke-miterlimit="4" stroke-opacity="1" fill-opacity="1" stroke="none" fill-rule="nonzero" d="M52.165,0C53.592,0,54.749,1.157,54.749,2.584L54.747,5.814L54.792,5.819C66.951,6.755,73.517,14.323,73.809,26.516L73.819,27.375L73.819,59.793C73.819,73.355,66.305,81.447,52.165,81.447L21.654,81.447C7.514,81.447,0,73.355,0,59.793L0,27.375C0,14.679,6.586,6.776,19.027,5.819L19.069,5.814L19.07,2.584C19.07,1.267,20.055,0.18,21.33,0.02L21.654,0C23.081,0,24.238,1.157,24.238,2.584L24.237,5.72L49.579,5.72L49.581,2.584C49.581,1.267,50.567,0.18,51.841,0.02L52.165,0ZM68.649,32.206L5.168,32.206L5.168,59.793C5.168,70.306,10.19,75.984,20.804,76.268L21.654,76.279L52.165,76.279C63.361,76.279,68.651,70.582,68.651,59.793L68.649,32.206ZM22.81,56.065C24.237,56.065,25.394,57.222,25.394,58.649C25.394,60.076,24.237,61.233,22.81,61.233L22.776,61.233C21.349,61.233,20.192,60.076,20.192,58.649C20.192,57.222,21.349,56.065,22.776,56.065L22.81,56.065ZM36.927,44.623C38.354,44.623,39.511,45.78,39.511,47.207C39.511,48.634,38.354,49.791,36.927,49.791L36.892,49.791C35.465,49.791,34.308,48.634,34.308,47.207C34.308,45.78,35.465,44.623,36.892,44.623L36.927,44.623ZM22.81,44.623C24.237,44.623,25.394,45.78,25.394,47.207C25.394,48.634,24.237,49.791,22.81,49.791L22.776,49.791C21.349,49.791,20.192,48.634,20.192,47.207C20.192,45.78,21.349,44.623,22.776,44.623L22.81,44.623ZM49.579,10.888L24.237,10.888L24.238,14.026C24.238,15.343,23.252,16.43,21.978,16.59L21.654,16.61C20.227,16.61,19.07,15.453,19.07,14.026L19.069,10.998L18.394,11.068C9.684,12.081,5.415,17.377,5.178,26.555L5.171,27.038L68.645,27.038L68.641,26.555C68.404,17.377,64.135,12.081,55.425,11.068L54.747,10.998L54.749,14.026C54.749,15.343,53.763,16.43,52.489,16.59L52.165,16.61C50.738,16.61,49.581,15.453,49.581,14.026L49.579,10.888ZM49.579,10.888"/>
</g>
  <g id="Semibold-L" transform="matrix(1.0,0.0,0.0,1.0,2007.6400932551667,1480.210083952873)">  <path stroke="none" fill="#000000" stroke-opacity="1" stroke-linejoin="miter" stroke-dasharray="none" fill-rule="nonzero" stroke-linecap="butt" fill-opacity="1" stroke-width="1px" stroke-miterlimit="4" d="M52.165,0C53.592,0,54.749,1.157,54.749,2.584L54.747,5.814L54.792,5.819C66.951,6.755,73.517,14.323,73.809,26.516L73.819,27.375L73.819,59.793C73.819,73.355,66.305,81.447,52.165,81.447L21.654,81.447C7.514,81.447,0,73.355,0,59.793L0,27.375C0,14.679,6.586,6.776,19.027,5.819L19.069,5.814L19.07,2.584C19.07,1.267,20.055,0.18,21.33,0.02L21.654,0C23.081,0,24.238,1.157,24.238,2.584L24.237,5.72L49.579,5.72L49.581,2.584C49.581,1.267,50.567,0.18,51.841,0.02L52.165,0ZM68.649,32.206L5.168,32.206L5.168,59.793C5.168,70.306,10.19,75.984,20.804,76.268L21.654,76.279L52.165,76.279C63.361,76.279,68.651,70.582,68.651,59.793L68.649,32.206ZM22.81,56.065C24.237,56.065,25.394,57.222,25.394,58.649C25.394,60.076,24.237,61.233,22.81,61.233L22.776,61.233C21.349,61.233,20.192,60.076,20.192,58.649C20.192,57.222,21.349,56.065,22.776,56.065L22.81,56.065ZM36.927,44.623C38.354,44.623,39.511,45.78,39.511,47.207C39.511,48.634,38.354,49.791,36.927,49.791L36.892,49.791C35.465,49.791,34.308,48.634,34.308,47.207C34.308,45.78,35.465,44.623,36.892,44.623L36.927,44.623ZM22.81,44.623C24.237,44.623,25.394,45.78,25.394,47.207C25.394,48.634,24.237,49.791,22.81,49.791L22.776,49.791C21.349,49.791,20.192,48.634,20.192,47.207C20.192,45.78,21.349,44.623,22.776,44.623L22.81,44.623ZM49.579,10.888L24.237,10.888L24.238,14.026C24.238,15.343,23.252,16.43,21.978,16.59L21.654,16.61C20.227,16.61,19.07,15.453,19.07,14.026L19.069,10.998L18.394,11.068C9.684,12.081,5.415,17.377,5.178,26.555L5.171,27.038L68.645,27.038L68.641,26.555C68.404,17.377,64.135,12.081,55.425,11.068L54.747,10.998L54.749,14.026C54.749,15.343,53.763,16.43,52.489,16.59L52.165,16.61C50.738,16.61,49.581,15.453,49.581,14.026L49.579,10.888ZM49.579,10.888"/>
</g>
  <g id="Medium-L" transform="matrix(1.0,0.0,0.0,1.0,1710.9300932551666,1480.210083952873)">  <path stroke-width="1px" fill-opacity="1" stroke="none" fill="#000000" stroke-linecap="butt" stroke-linejoin="miter" stroke-opacity="1" stroke-miterlimit="4" stroke-dasharray="none" fill-rule="nonzero" d="M52.165,0C53.592,0,54.749,1.157,54.749,2.584L54.747,5.814L54.792,5.819C66.951,6.755,73.517,14.323,73.809,26.516L73.819,27.375L73.819,59.793C73.819,73.355,66.305,81.447,52.165,81.447L21.654,81.447C7.514,81.447,0,73.355,0,59.793L0,27.375C0,14.679,6.586,6.776,19.027,5.819L19.069,5.814L19.07,2.584C19.07,1.267,20.055,0.18,21.33,0.02L21.654,0C23.081,0,24.238,1.157,24.238,2.584L24.237,5.72L49.579,5.72L49.581,2.584C49.581,1.267,50.567,0.18,51.841,0.02L52.165,0ZM68.649,32.206L5.168,32.206L5.168,59.793C5.168,70.306,10.19,75.984,20.804,76.268L21.654,76.279L52.165,76.279C63.361,76.279,68.651,70.582,68.651,59.793L68.649,32.206ZM22.81,56.065C24.237,56.065,25.394,57.222,25.394,58.649C25.394,60.076,24.237,61.233,22.81,61.233L22.776,61.233C21.349,61.233,20.192,60.076,20.192,58.649C20.192,57.222,21.349,56.065,22.776,56.065L22.81,56.065ZM36.927,44.623C38.354,44.623,39.511,45.78,39.511,47.207C39.511,48.634,38.354,49.791,36.927,49.791L36.892,49.791C35.465,49.791,34.308,48.634,34.308,47.207C34.308,45.78,35.465,44.623,36.892,44.623L36.927,44.623ZM22.81,44.623C24.237,44.623,25.394,45.78,25.394,47.207C25.394,48.634,24.237,49.791,22.81,49.791L22.776,49.791C21.349,49.791,20.192,48.634,20.192,47.207C20.192,45.78,21.349,44.623,22.776,44.623L22.81,44.623ZM49.579,10.888L24.237,10.888L24.238,14.026C24.238,15.343,23.252,16.43,21.978,16.59L21.654,16.61C20.227,16.61,19.07,15.453,19.07,14.026L19.069,10.998L18.394,11.068C9.684,12.081,5.415,17.377,5.178,26.555L5.171,27.038L68.645,27.038L68.641,26.555C68.404,17.377,64.135,12.081,55.425,11.068L54.747,10.998L54.749,14.026C54.749,15.343,53.763,16.43,52.489,16.59L52.165,16.61C50.738,16.61,49.581,15.453,49.581,14.026L49.579,10.888ZM49.579,10.888"/>
</g>
  <g id="Regular-L" transform="matrix(1.0,0.0,0.0,1.0,1414.2200932551666,1480.210083952873)">  <path stroke-linejoin="miter" stroke-linecap="butt" stroke-width="1px" stroke-miterlimit="4" fill-rule="nonzero" stroke-opacity="1" stroke-dasharray="none" stroke="none" fill="#000000" fill-opacity="1" d="M52.165,0C53.592,0,54.749,1.157,54.749,2.584L54.747,5.814L54.792,5.819C66.951,6.755,73.517,14.323,73.809,26.516L73.819,27.375L73.819,59.793C73.819,73.355,66.305,81.447,52.165,81.447L21.654,81.447C7.514,81.447,0,73.355,0,59.793L0,27.375C0,14.679,6.586,6.776,19.027,5.819L19.069,5.814L19.07,2.584C19.07,1.267,20.055,0.18,21.33,0.02L21.654,0C23.081,0,24.238,1.157,24.238,2.584L24.237,5.72L49.579,5.72L49.581,2.584C49.581,1.267,50.567,0.18,51.841,0.02L52.165,0ZM68.649,32.206L5.168,32.206L5.168,59.793C5.168,70.306,10.19,75.984,20.804,76.268L21.654,76.279L52.165,76.279C63.361,76.279,68.651,70.582,68.651,59.793L68.649,32.206ZM22.81,56.065C24.237,56.065,25.394,57.222,25.394,58.649C25.394,60.076,24.237,61.233,22.81,61.233L22.776,61.233C21.349,61.233,20.192,60.076,20.192,58.649C20.192,57.222,21.349,56.065,22.776,56.065L22.81,56.065ZM36.927,44.623C38.354,44.623,39.511,45.78,39.511,47.207C39.511,48.634,38.354,49.791,36.927,49.791L36.892,49.791C35.465,49.791,34.308,48.634,34.308,47.207C34.308,45.78,35.465,44.623,36.892,44.623L36.927,44.623ZM22.81,44.623C24.237,44.623,25.394,45.78,25.394,47.207C25.394,48.634,24.237,49.791,22.81,49.791L22.776,49.791C21.349,49.791,20.192,48.634,20.192,47.207C20.192,45.78,21.349,44.623,22.776,44.623L22.81,44.623ZM49.579,10.888L24.237,10.888L24.238,14.026C24.238,15.343,23.252,16.43,21.978,16.59L21.654,16.61C20.227,16.61,19.07,15.453,19.07,14.026L19.069,10.998L18.394,11.068C9.684,12.081,5.415,17.377,5.178,26.555L5.171,27.038L68.645,27.038L68.641,26.555C68.404,17.377,64.135,12.081,55.425,11.068L54.747,10.998L54.749,14.026C54.749,15.343,53.763,16.43,52.489,16.59L52.165,16.61C50.738,16.61,49.581,15.453,49.581,14.026L49.579,10.888ZM49.579,10.888"/>
</g>
  <g id="Light-L" transform="matrix(1.0,0.0,0.0,1.0,1117.5100932551668,1480.210083952873)">  <path stroke-linejoin="miter" stroke-linecap="butt" fill-opacity="1" stroke-opacity="1" stroke-miterlimit="4" stroke="none" stroke-dasharray="none" fill="#000000" stroke-width="1px" fill-rule="nonzero" d="M52.165,0C53.592,0,54.749,1.157,54.749,2.584L54.747,5.814L54.792,5.819C66.951,6.755,73.517,14.323,73.809,26.516L73.819,27.375L73.819,59.793C73.819,73.355,66.305,81.447,52.165,81.447L21.654,81.447C7.514,81.447,0,73.355,0,59.793L0,27.375C0,14.679,6.586,6.776,19.027,5.819L19.069,5.814L19.07,2.584C19.07,1.267,20.055,0.18,21.33,0.02L21.654,0C23.081,0,24.238,1.157,24.238,2.584L24.237,5.72L49.579,5.72L49.581,2.584C49.581,1.267,50.567,0.18,51.841,0.02L52.165,0ZM68.649,32.206L5.168,32.206L5.168,59.793C5.168,70.306,10.19,75.984,20.804,76.268L21.654,76.279L52.165,76.279C63.361,76.279,68.651,70.582,68.651,59.793L68.649,32.206ZM22.81,56.065C24.237,56.065,25.394,57.222,25.394,58.649C25.394,60.076,24.237,61.233,22.81,61.233L22.776,61.233C21.349,61.233,20.192,60.076,20.192,58.649C20.192,57.222,21.349,56.065,22.776,56.065L22.81,56.065ZM36.927,44.623C38.354,44.623,39.511,45.78,39.511,47.207C39.511,48.634,38.354,49.791,36.927,49.791L36.892,49.791C35.465,49.791,34.308,48.634,34.308,47.207C34.308,45.78,35.465,44.623,36.892,44.623L36.927,44.623ZM22.81,44.623C24.237,44.623,25.394,45.78,25.394,47.207C25.394,48.634,24.237,49.791,22.81,49.791L22.776,49.791C21.349,49.791,20.192,48.634,20.192,47.207C20.192,45.78,21.349,44.623,22.776,44.623L22.81,44.623ZM49.579,10.888L24.237,10.888L24.238,14.026C24.238,15.343,23.252,16.43,21.978,16.59L21.654,16.61C20.227,16.61,19.07,15.453,19.07,14.026L19.069,10.998L18.394,11.068C9.684,12.081,5.415,17.377,5.178,26.555L5.171,27.038L68.645,27.038L68.641,26.555C68.404,17.377,64.135,12.081,55.425,11.068L54.747,10.998L54.749,14.026C54.749,15.343,53.763,16.43,52.489,16.59L52.165,16.61C50.738,16.61,49.581,15.453,49.581,14.026L49.579,10.888ZM49.579,10.888"/>
</g>
  <g id="Thin-L" transform="matrix(1.0,0.0,0.0,1.0,820.8000932551666,1480.210083952873)">  <path stroke-miterlimit="4" stroke-opacity="1" stroke-linejoin="miter" stroke="none" fill-rule="nonzero" stroke-width="1px" stroke-linecap="butt" fill="#000000" stroke-dasharray="none" fill-opacity="1" d="M52.165,0C53.592,0,54.749,1.157,54.749,2.584L54.747,5.814L54.792,5.819C66.951,6.755,73.517,14.323,73.809,26.516L73.819,27.375L73.819,59.793C73.819,73.355,66.305,81.447,52.165,81.447L21.654,81.447C7.514,81.447,0,73.355,0,59.793L0,27.375C0,14.679,6.586,6.776,19.027,5.819L19.069,5.814L19.07,2.584C19.07,1.267,20.055,0.18,21.33,0.02L21.654,0C23.081,0,24.238,1.157,24.238,2.584L24.237,5.72L49.579,5.72L49.581,2.584C49.581,1.267,50.567,0.18,51.841,0.02L52.165,0ZM68.649,32.206L5.168,32.206L5.168,59.793C5.168,70.306,10.19,75.984,20.804,76.268L21.654,76.279L52.165,76.279C63.361,76.279,68.651,70.582,68.651,59.793L68.649,32.206ZM22.81,56.065C24.237,56.065,25.394,57.222,25.394,58.649C25.394,60.076,24.237,61.233,22.81,61.233L22.776,61.233C21.349,61.233,20.192,60.076,20.192,58.649C20.192,57.222,21.349,56.065,22.776,56.065L22.81,56.065ZM36.927,44.623C38.354,44.623,39.511,45.78,39.511,47.207C39.511,48.634,38.354,49.791,36.927,49.791L36.892,49.791C35.465,49.791,34.308,48.634,34.308,47.207C34.308,45.78,35.465,44.623,36.892,44.623L36.927,44.623ZM22.81,44.623C24.237,44.623,25.394,45.78,25.394,47.207C25.394,48.634,24.237,49.791,22.81,49.791L22.776,49.791C21.349,49.791,20.192,48.634,20.192,47.207C20.192,45.78,21.349,44.623,22.776,44.623L22.81,44.623ZM49.579,10.888L24.237,10.888L24.238,14.026C24.238,15.343,23.252,16.43,21.978,16.59L21.654,16.61C20.227,16.61,19.07,15.453,19.07,14.026L19.069,10.998L18.394,11.068C9.684,12.081,5.415,17.377,5.178,26.555L5.171,27.038L68.645,27.038L68.641,26.555C68.404,17.377,64.135,12.081,55.425,11.068L54.747,10.998L54.749,14.026C54.749,15.343,53.763,16.43,52.489,16.59L52.165,16.61C50.738,16.61,49.581,15.453,49.581,14.026L49.579,10.888ZM49.579,10.888"/>
</g>
  <g id="Ultralight-L" transform="matrix(1.0,0.0,0.0,1.0,524.0900932551666,1480.210083952873)">  <path stroke-opacity="1" fill-rule="nonzero" stroke-miterlimit="4" stroke="none" stroke-linecap="butt" fill-opacity="1" fill="#000000" stroke-width="1px" stroke-linejoin="miter" stroke-dasharray="none" d="M52.165,0C53.592,0,54.749,1.157,54.749,2.584L54.747,5.814L54.792,5.819C66.951,6.755,73.517,14.323,73.809,26.516L73.819,27.375L73.819,59.793C73.819,73.355,66.305,81.447,52.165,81.447L21.654,81.447C7.514,81.447,0,73.355,0,59.793L0,27.375C0,14.679,6.586,6.776,19.027,5.819L19.069,5.814L19.07,2.584C19.07,1.267,20.055,0.18,21.33,0.02L21.654,0C23.081,0,24.238,1.157,24.238,2.584L24.237,5.72L49.579,5.72L49.581,2.584C49.581,1.267,50.567,0.18,51.841,0.02L52.165,0ZM68.649,32.206L5.168,32.206L5.168,59.793C5.168,70.306,10.19,75.984,20.804,76.268L21.654,76.279L52.165,76.279C63.361,76.279,68.651,70.582,68.651,59.793L68.649,32.206ZM22.81,56.065C24.237,56.065,25.394,57.222,25.394,58.649C25.394,60.076,24.237,61.233,22.81,61.233L22.776,61.233C21.349,61.233,20.192,60.076,20.192,58.649C20.192,57.222,21.349,56.065,22.776,56.065L22.81,56.065ZM36.927,44.623C38.354,44.623,39.511,45.78,39.511,47.207C39.511,48.634,38.354,49.791,36.927,49.791L36.892,49.791C35.465,49.791,34.308,48.634,34.308,47.207C34.308,45.78,35.465,44.623,36.892,44.623L36.927,44.623ZM22.81,44.623C24.237,44.623,25.394,45.78,25.394,47.207C25.394,48.634,24.237,49.791,22.81,49.791L22.776,49.791C21.349,49.791,20.192,48.634,20.192,47.207C20.192,45.78,21.349,44.623,22.776,44.623L22.81,44.623ZM49.579,10.888L24.237,10.888L24.238,14.026C24.238,15.343,23.252,16.43,21.978,16.59L21.654,16.61C20.227,16.61,19.07,15.453,19.07,14.026L19.069,10.998L18.394,11.068C9.684,12.081,5.415,17.377,5.178,26.555L5.171,27.038L68.645,27.038L68.641,26.555C68.404,17.377,64.135,12.081,55.425,11.068L54.747,10.998L54.749,14.026C54.749,15.343,53.763,16.43,52.489,16.59L52.165,16.61C50.738,16.61,49.581,15.453,49.581,14.026L49.579,10.888ZM49.579,10.888"/>
</g>
  <g id="Black-M" transform="matrix(1.0,0.0,0.0,1.0,2906.0676691900517,1059.3282090053763)">  <path fill-rule="nonzero" stroke-opacity="1" fill-opacity="1" fill="#000000" stroke-linecap="butt" stroke-miterlimit="4" stroke-width="1px" stroke="none" stroke-linejoin="miter" stroke-dasharray="none" d="M40.438,0C41.544,0,42.441,0.897,42.441,2.003L42.44,4.507L42.474,4.511C51.9,5.236,56.99,11.103,57.216,20.555L57.224,21.221L57.224,46.351C57.224,56.864,51.399,63.137,40.438,63.137L16.786,63.137C5.825,63.137,0,56.864,0,46.351L0,21.221C0,11.379,5.105,5.253,14.75,4.511L14.783,4.507L14.783,2.003C14.783,0.982,15.547,0.139,16.535,0.016L16.786,0C17.892,0,18.789,0.897,18.789,2.003L18.789,4.434L38.434,4.434L38.435,2.003C38.435,0.982,39.199,0.139,40.187,0.016L40.438,0ZM53.216,24.966L4.006,24.966L4.006,46.351C4.006,54.501,7.899,58.902,16.127,59.122L16.786,59.131L40.438,59.131C49.117,59.131,53.218,54.715,53.218,46.351L53.216,24.966ZM17.682,43.461C18.789,43.461,19.686,44.358,19.686,45.464C19.686,46.571,18.789,47.467,17.682,47.467L17.656,47.467C16.55,47.467,15.653,46.571,15.653,45.464C15.653,44.358,16.55,43.461,17.656,43.461L17.682,43.461ZM28.625,34.592C29.732,34.592,30.628,35.488,30.628,36.595C30.628,37.701,29.732,38.598,28.625,38.598L28.599,38.598C27.492,38.598,26.596,37.701,26.596,36.595C26.596,35.488,27.492,34.592,28.599,34.592L28.625,34.592ZM17.682,34.592C18.789,34.592,19.686,35.488,19.686,36.595C19.686,37.701,18.789,38.598,17.682,38.598L17.656,38.598C16.55,38.598,15.653,37.701,15.653,36.595C15.653,35.488,16.55,34.592,17.656,34.592L17.682,34.592ZM38.434,8.44L18.789,8.44L18.789,10.873C18.789,11.894,18.025,12.737,17.037,12.86L16.786,12.876C15.68,12.876,14.783,11.979,14.783,10.873L14.783,8.525L14.259,8.58C7.507,9.365,4.198,13.47,4.014,20.585L4.009,20.959L53.214,20.959L53.21,20.585C53.026,13.47,49.717,9.365,42.965,8.58L42.44,8.525L42.441,10.873C42.441,11.894,41.677,12.737,40.689,12.86L40.438,12.876C39.332,12.876,38.435,11.979,38.435,10.873L38.434,8.44ZM38.434,8.44"/>
</g>
  <g id="Heavy-M" transform="matrix(1.0,0.0,0.0,1.0,2609.3576691900516,1059.3282090053763)">  <path stroke-linecap="butt" stroke="none" stroke-linejoin="miter" stroke-width="1px" stroke-opacity="1" fill="#000000" stroke-miterlimit="4" stroke-dasharray="none" fill-opacity="1" fill-rule="nonzero" d="M40.438,0C41.544,0,42.441,0.897,42.441,2.003L42.44,4.507L42.474,4.511C51.9,5.236,56.99,11.103,57.216,20.555L57.224,21.221L57.224,46.351C57.224,56.864,51.399,63.137,40.438,63.137L16.786,63.137C5.825,63.137,0,56.864,0,46.351L0,21.221C0,11.379,5.105,5.253,14.75,4.511L14.783,4.507L14.783,2.003C14.783,0.982,15.547,0.139,16.535,0.016L16.786,0C17.892,0,18.789,0.897,18.789,2.003L18.789,4.434L38.434,4.434L38.435,2.003C38.435,0.982,39.199,0.139,40.187,0.016L40.438,0ZM53.216,24.966L4.006,24.966L4.006,46.351C4.006,54.501,7.899,58.902,16.127,59.122L16.786,59.131L40.438,59.131C49.117,59.131,53.218,54.715,53.218,46.351L53.216,24.966ZM17.682,43.461C18.789,43.461,19.686,44.358,19.686,45.464C19.686,46.571,18.789,47.467,17.682,47.467L17.656,47.467C16.55,47.467,15.653,46.571,15.653,45.464C15.653,44.358,16.55,43.461,17.656,43.461L17.682,43.461ZM28.625,34.592C29.732,34.592,30.628,35.488,30.628,36.595C30.628,37.701,29.732,38.598,28.625,38.598L28.599,38.598C27.492,38.598,26.596,37.701,26.596,36.595C26.596,35.488,27.492,34.592,28.599,34.592L28.625,34.592ZM17.682,34.592C18.789,34.592,19.686,35.488,19.686,36.595C19.686,37.701,18.789,38.598,17.682,38.598L17.656,38.598C16.55,38.598,15.653,37.701,15.653,36.595C15.653,35.488,16.55,34.592,17.656,34.592L17.682,34.592ZM38.434,8.44L18.789,8.44L18.789,10.873C18.789,11.894,18.025,12.737,17.037,12.86L16.786,12.876C15.68,12.876,14.783,11.979,14.783,10.873L14.783,8.525L14.259,8.58C7.507,9.365,4.198,13.47,4.014,20.585L4.009,20.959L53.214,20.959L53.21,20.585C53.026,13.47,49.717,9.365,42.965,8.58L42.44,8.525L42.441,10.873C42.441,11.894,41.677,12.737,40.689,12.86L40.438,12.876C39.332,12.876,38.435,11.979,38.435,10.873L38.434,8.44ZM38.434,8.44"/>
</g>
  <g id="Bold-M" transform="matrix(1.0,0.0,0.0,1.0,2312.6476691900516,1059.3282090053763)">  <path fill="#000000" stroke-linejoin="miter" stroke-linecap="butt" stroke-dasharray="none" stroke-width="1px" stroke-miterlimit="4" stroke-opacity="1" fill-opacity="1" stroke="none" fill-rule="nonzero" d="M40.438,0C41.544,0,42.441,0.897,42.441,2.003L42.44,4.507L42.474,4.511C51.9,5.236,56.99,11.103,57.216,20.555L57.224,21.221L57.224,46.351C57.224,56.864,51.399,63.137,40.438,63.137L16.786,63.137C5.825,63.137,0,56.864,0,46.351L0,21.221C0,11.379,5.105,5.253,14.75,4.511L14.783,4.507L14.783,2.003C14.783,0.982,15.547,0.139,16.535,0.016L16.786,0C17.892,0,18.789,0.897,18.789,2.003L18.789,4.434L38.434,4.434L38.435,2.003C38.435,0.982,39.199,0.139,40.187,0.016L40.438,0ZM53.216,24.966L4.006,24.966L4.006,46.351C4.006,54.501,7.899,58.902,16.127,59.122L16.786,59.131L40.438,59.131C49.117,59.131,53.218,54.715,53.218,46.351L53.216,24.966ZM17.682,43.461C18.789,43.461,19.686,44.358,19.686,45.464C19.686,46.571,18.789,47.467,17.682,47.467L17.656,47.467C16.55,47.467,15.653,46.571,15.653,45.464C15.653,44.358,16.55,43.461,17.656,43.461L17.682,43.461ZM28.625,34.592C29.732,34.592,30.628,35.488,30.628,36.595C30.628,37.701,29.732,38.598,28.625,38.598L28.599,38.598C27.492,38.598,26.596,37.701,26.596,36.595C26.596,35.488,27.492,34.592,28.599,34.592L28.625,34.592ZM17.682,34.592C18.789,34.592,19.686,35.488,19.686,36.595C19.686,37.701,18.789,38.598,17.682,38.598L17.656,38.598C16.55,38.598,15.653,37.701,15.653,36.595C15.653,35.488,16.55,34.592,17.656,34.592L17.682,34.592ZM38.434,8.44L18.789,8.44L18.789,10.873C18.789,11.894,18.025,12.737,17.037,12.86L16.786,12.876C15.68,12.876,14.783,11.979,14.783,10.873L14.783,8.525L14.259,8.58C7.507,9.365,4.198,13.47,4.014,20.585L4.009,20.959L53.214,20.959L53.21,20.585C53.026,13.47,49.717,9.365,42.965,8.58L42.44,8.525L42.441,10.873C42.441,11.894,41.677,12.737,40.689,12.86L40.438,12.876C39.332,12.876,38.435,11.979,38.435,10.873L38.434,8.44ZM38.434,8.44"/>
</g>
  <g id="Semibold-M" transform="matrix(1.0,0.0,0.0,1.0,2015.9376691900516,1059.3282090053763)">  <path stroke="none" fill="#000000" stroke-opacity="1" stroke-linejoin="miter" stroke-dasharray="none" fill-rule="nonzero" stroke-linecap="butt" fill-opacity="1" stroke-width="1px" stroke-miterlimit="4" d="M40.438,0C41.544,0,42.441,0.897,42.441,2.003L42.44,4.507L42.474,4.511C51.9,5.236,56.99,11.103,57.216,20.555L57.224,21.221L57.224,46.351C57.224,56.864,51.399,63.137,40.438,63.137L16.786,63.137C5.825,63.137,0,56.864,0,46.351L0,21.221C0,11.379,5.105,5.253,14.75,4.511L14.783,4.507L14.783,2.003C14.783,0.982,15.547,0.139,16.535,0.016L16.786,0C17.892,0,18.789,0.897,18.789,2.003L18.789,4.434L38.434,4.434L38.435,2.003C38.435,0.982,39.199,0.139,40.187,0.016L40.438,0ZM53.216,24.966L4.006,24.966L4.006,46.351C4.006,54.501,7.899,58.902,16.127,59.122L16.786,59.131L40.438,59.131C49.117,59.131,53.218,54.715,53.218,46.351L53.216,24.966ZM17.682,43.461C18.789,43.461,19.686,44.358,19.686,45.464C19.686,46.571,18.789,47.467,17.682,47.467L17.656,47.467C16.55,47.467,15.653,46.571,15.653,45.464C15.653,44.358,16.55,43.461,17.656,43.461L17.682,43.461ZM28.625,34.592C29.732,34.592,30.628,35.488,30.628,36.595C30.628,37.701,29.732,38.598,28.625,38.598L28.599,38.598C27.492,38.598,26.596,37.701,26.596,36.595C26.596,35.488,27.492,34.592,28.599,34.592L28.625,34.592ZM17.682,34.592C18.789,34.592,19.686,35.488,19.686,36.595C19.686,37.701,18.789,38.598,17.682,38.598L17.656,38.598C16.55,38.598,15.653,37.701,15.653,36.595C15.653,35.488,16.55,34.592,17.656,34.592L17.682,34.592ZM38.434,8.44L18.789,8.44L18.789,10.873C18.789,11.894,18.025,12.737,17.037,12.86L16.786,12.876C15.68,12.876,14.783,11.979,14.783,10.873L14.783,8.525L14.259,8.58C7.507,9.365,4.198,13.47,4.014,20.585L4.009,20.959L53.214,20.959L53.21,20.585C53.026,13.47,49.717,9.365,42.965,8.58L42.44,8.525L42.441,10.873C42.441,11.894,41.677,12.737,40.689,12.86L40.438,12.876C39.332,12.876,38.435,11.979,38.435,10.873L38.434,8.44ZM38.434,8.44"/>
</g>
  <g id="Medium-M" transform="matrix(1.0,0.0,0.0,1.0,1719.2276691900515,1059.3282090053763)">  <path stroke-width="1px" fill-opacity="1" stroke="none" fill="#000000" stroke-linecap="butt" stroke-linejoin="miter" stroke-opacity="1" stroke-miterlimit="4" stroke-dasharray="none" fill-rule="nonzero" d="M40.438,0C41.544,0,42.441,0.897,42.441,2.003L42.44,4.507L42.474,4.511C51.9,5.236,56.99,11.103,57.216,20.555L57.224,21.221L57.224,46.351C57.224,56.864,51.399,63.137,40.438,63.137L16.786,63.137C5.825,63.137,0,56.864,0,46.351L0,21.221C0,11.379,5.105,5.253,14.75,4.511L14.783,4.507L14.783,2.003C14.783,0.982,15.547,0.139,16.535,0.016L16.786,0C17.892,0,18.789,0.897,18.789,2.003L18.789,4.434L38.434,4.434L38.435,2.003C38.435,0.982,39.199,0.139,40.187,0.016L40.438,0ZM53.216,24.966L4.006,24.966L4.006,46.351C4.006,54.501,7.899,58.902,16.127,59.122L16.786,59.131L40.438,59.131C49.117,59.131,53.218,54.715,53.218,46.351L53.216,24.966ZM17.682,43.461C18.789,43.461,19.686,44.358,19.686,45.464C19.686,46.571,18.789,47.467,17.682,47.467L17.656,47.467C16.55,47.467,15.653,46.571,15.653,45.464C15.653,44.358,16.55,43.461,17.656,43.461L17.682,43.461ZM28.625,34.592C29.732,34.592,30.628,35.488,30.628,36.595C30.628,37.701,29.732,38.598,28.625,38.598L28.599,38.598C27.492,38.598,26.596,37.701,26.596,36.595C26.596,35.488,27.492,34.592,28.599,34.592L28.625,34.592ZM17.682,34.592C18.789,34.592,19.686,35.488,19.686,36.595C19.686,37.701,18.789,38.598,17.682,38.598L17.656,38.598C16.55,38.598,15.653,37.701,15.653,36.595C15.653,35.488,16.55,34.592,17.656,34.592L17.682,34.592ZM38.434,8.44L18.789,8.44L18.789,10.873C18.789,11.894,18.025,12.737,17.037,12.86L16.786,12.876C15.68,12.876,14.783,11.979,14.783,10.873L14.783,8.525L14.259,8.58C7.507,9.365,4.198,13.47,4.014,20.585L4.009,20.959L53.214,20.959L53.21,20.585C53.026,13.47,49.717,9.365,42.965,8.58L42.44,8.525L42.441,10.873C42.441,11.894,41.677,12.737,40.689,12.86L40.438,12.876C39.332,12.876,38.435,11.979,38.435,10.873L38.434,8.44ZM38.434,8.44"/>
</g>
  <g id="Regular-M" transform="matrix(1.0,0.0,0.0,1.0,1422.5176691900515,1059.3282090053763)">  <path stroke-linejoin="miter" stroke-linecap="butt" stroke-width="1px" stroke-miterlimit="4" fill-rule="nonzero" stroke-opacity="1" stroke-dasharray="none" stroke="none" fill="#000000" fill-opacity="1" d="M40.438,0C41.544,0,42.441,0.897,42.441,2.003L42.44,4.507L42.474,4.511C51.9,5.236,56.99,11.103,57.216,20.555L57.224,21.221L57.224,46.351C57.224,56.864,51.399,63.137,40.438,63.137L16.786,63.137C5.825,63.137,0,56.864,0,46.351L0,21.221C0,11.379,5.105,5.253,14.75,4.511L14.783,4.507L14.783,2.003C14.783,0.982,15.547,0.139,16.535,0.016L16.786,0C17.892,0,18.789,0.897,18.789,2.003L18.789,4.434L38.434,4.434L38.435,2.003C38.435,0.982,39.199,0.139,40.187,0.016L40.438,0ZM53.216,24.966L4.006,24.966L4.006,46.351C4.006,54.501,7.899,58.902,16.127,59.122L16.786,59.131L40.438,59.131C49.117,59.131,53.218,54.715,53.218,46.351L53.216,24.966ZM17.682,43.461C18.789,43.461,19.686,44.358,19.686,45.464C19.686,46.571,18.789,47.467,17.682,47.467L17.656,47.467C16.55,47.467,15.653,46.571,15.653,45.464C15.653,44.358,16.55,43.461,17.656,43.461L17.682,43.461ZM28.625,34.592C29.732,34.592,30.628,35.488,30.628,36.595C30.628,37.701,29.732,38.598,28.625,38.598L28.599,38.598C27.492,38.598,26.596,37.701,26.596,36.595C26.596,35.488,27.492,34.592,28.599,34.592L28.625,34.592ZM17.682,34.592C18.789,34.592,19.686,35.488,19.686,36.595C19.686,37.701,18.789,38.598,17.682,38.598L17.656,38.598C16.55,38.598,15.653,37.701,15.653,36.595C15.653,35.488,16.55,34.592,17.656,34.592L17.682,34.592ZM38.434,8.44L18.789,8.44L18.789,10.873C18.789,11.894,18.025,12.737,17.037,12.86L16.786,12.876C15.68,12.876,14.783,11.979,14.783,10.873L14.783,8.525L14.259,8.58C7.507,9.365,4.198,13.47,4.014,20.585L4.009,20.959L53.214,20.959L53.21,20.585C53.026,13.47,49.717,9.365,42.965,8.58L42.44,8.525L42.441,10.873C42.441,11.894,41.677,12.737,40.689,12.86L40.438,12.876C39.332,12.876,38.435,11.979,38.435,10.873L38.434,8.44ZM38.434,8.44"/>
</g>
  <g id="Light-M" transform="matrix(1.0,0.0,0.0,1.0,1125.8076691900517,1059.3282090053763)">  <path stroke-linejoin="miter" stroke-linecap="butt" fill-opacity="1" stroke-opacity="1" stroke-miterlimit="4" stroke="none" stroke-dasharray="none" fill="#000000" stroke-width="1px" fill-rule="nonzero" d="M40.438,0C41.544,0,42.441,0.897,42.441,2.003L42.44,4.507L42.474,4.511C51.9,5.236,56.99,11.103,57.216,20.555L57.224,21.221L57.224,46.351C57.224,56.864,51.399,63.137,40.438,63.137L16.786,63.137C5.825,63.137,0,56.864,0,46.351L0,21.221C0,11.379,5.105,5.253,14.75,4.511L14.783,4.507L14.783,2.003C14.783,0.982,15.547,0.139,16.535,0.016L16.786,0C17.892,0,18.789,0.897,18.789,2.003L18.789,4.434L38.434,4.434L38.435,2.003C38.435,0.982,39.199,0.139,40.187,0.016L40.438,0ZM53.216,24.966L4.006,24.966L4.006,46.351C4.006,54.501,7.899,58.902,16.127,59.122L16.786,59.131L40.438,59.131C49.117,59.131,53.218,54.715,53.218,46.351L53.216,24.966ZM17.682,43.461C18.789,43.461,19.686,44.358,19.686,45.464C19.686,46.571,18.789,47.467,17.682,47.467L17.656,47.467C16.55,47.467,15.653,46.571,15.653,45.464C15.653,44.358,16.55,43.461,17.656,43.461L17.682,43.461ZM28.625,34.592C29.732,34.592,30.628,35.488,30.628,36.595C30.628,37.701,29.732,38.598,28.625,38.598L28.599,38.598C27.492,38.598,26.596,37.701,26.596,36.595C26.596,35.488,27.492,34.592,28.599,34.592L28.625,34.592ZM17.682,34.592C18.789,34.592,19.686,35.488,19.686,36.595C19.686,37.701,18.789,38.598,17.682,38.598L17.656,38.598C16.55,38.598,15.653,37.701,15.653,36.595C15.653,35.488,16.55,34.592,17.656,34.592L17.682,34.592ZM38.434,8.44L18.789,8.44L18.789,10.873C18.789,11.894,18.025,12.737,17.037,12.86L16.786,12.876C15.68,12.876,14.783,11.979,14.783,10.873L14.783,8.525L14.259,8.58C7.507,9.365,4.198,13.47,4.014,20.585L4.009,20.959L53.214,20.959L53.21,20.585C53.026,13.47,49.717,9.365,42.965,8.58L42.44,8.525L42.441,10.873C42.441,11.894,41.677,12.737,40.689,12.86L40.438,12.876C39.332,12.876,38.435,11.979,38.435,10.873L38.434,8.44ZM38.434,8.44"/>
</g>
  <g id="Thin-M" transform="matrix(1.0,0.0,0.0,1.0,829.0976691900516,1059.3282090053763)">  <path stroke-miterlimit="4" stroke-opacity="1" stroke-linejoin="miter" stroke="none" fill-rule="nonzero" stroke-width="1px" stroke-linecap="butt" fill="#000000" stroke-dasharray="none" fill-opacity="1" d="M40.438,0C41.544,0,42.441,0.897,42.441,2.003L42.44,4.507L42.474,4.511C51.9,5.236,56.99,11.103,57.216,20.555L57.224,21.221L57.224,46.351C57.224,56.864,51.399,63.137,40.438,63.137L16.786,63.137C5.825,63.137,0,56.864,0,46.351L0,21.221C0,11.379,5.105,5.253,14.75,4.511L14.783,4.507L14.783,2.003C14.783,0.982,15.547,0.139,16.535,0.016L16.786,0C17.892,0,18.789,0.897,18.789,2.003L18.789,4.434L38.434,4.434L38.435,2.003C38.435,0.982,39.199,0.139,40.187,0.016L40.438,0ZM53.216,24.966L4.006,24.966L4.006,46.351C4.006,54.501,7.899,58.902,16.127,59.122L16.786,59.131L40.438,59.131C49.117,59.131,53.218,54.715,53.218,46.351L53.216,24.966ZM17.682,43.461C18.789,43.461,19.686,44.358,19.686,45.464C19.686,46.571,18.789,47.467,17.682,47.467L17.656,47.467C16.55,47.467,15.653,46.571,15.653,45.464C15.653,44.358,16.55,43.461,17.656,43.461L17.682,43.461ZM28.625,34.592C29.732,34.592,30.628,35.488,30.628,36.595C30.628,37.701,29.732,38.598,28.625,38.598L28.599,38.598C27.492,38.598,26.596,37.701,26.596,36.595C26.596,35.488,27.492,34.592,28.599,34.592L28.625,34.592ZM17.682,34.592C18.789,34.592,19.686,35.488,19.686,36.595C19.686,37.701,18.789,38.598,17.682,38.598L17.656,38.598C16.55,38.598,15.653,37.701,15.653,36.595C15.653,35.488,16.55,34.592,17.656,34.592L17.682,34.592ZM38.434,8.44L18.789,8.44L18.789,10.873C18.789,11.894,18.025,12.737,17.037,12.86L16.786,12.876C15.68,12.876,14.783,11.979,14.783,10.873L14.783,8.525L14.259,8.58C7.507,9.365,4.198,13.47,4.014,20.585L4.009,20.959L53.214,20.959L53.21,20.585C53.026,13.47,49.717,9.365,42.965,8.58L42.44,8.525L42.441,10.873C42.441,11.894,41.677,12.737,40.689,12.86L40.438,12.876C39.332,12.876,38.435,11.979,38.435,10.873L38.434,8.44ZM38.434,8.44"/>
</g>
  <g id="Ultralight-M" transform="matrix(1.0,0.0,0.0,1.0,532.3876691900516,1059.3282090053763)">  <path stroke-opacity="1" fill-rule="nonzero" stroke-miterlimit="4" stroke="none" stroke-linecap="butt" fill-opacity="1" fill="#000000" stroke-width="1px" stroke-linejoin="miter" stroke-dasharray="none" d="M40.438,0C41.544,0,42.441,0.897,42.441,2.003L42.44,4.507L42.474,4.511C51.9,5.236,56.99,11.103,57.216,20.555L57.224,21.221L57.224,46.351C57.224,56.864,51.399,63.137,40.438,63.137L16.786,63.137C5.825,63.137,0,56.864,0,46.351L0,21.221C0,11.379,5.105,5.253,14.75,4.511L14.783,4.507L14.783,2.003C14.783,0.982,15.547,0.139,16.535,0.016L16.786,0C17.892,0,18.789,0.897,18.789,2.003L18.789,4.434L38.434,4.434L38.435,2.003C38.435,0.982,39.199,0.139,40.187,0.016L40.438,0ZM53.216,24.966L4.006,24.966L4.006,46.351C4.006,54.501,7.899,58.902,16.127,59.122L16.786,59.131L40.438,59.131C49.117,59.131,53.218,54.715,53.218,46.351L53.216,24.966ZM17.682,43.461C18.789,43.461,19.686,44.358,19.686,45.464C19.686,46.571,18.789,47.467,17.682,47.467L17.656,47.467C16.55,47.467,15.653,46.571,15.653,45.464C15.653,44.358,16.55,43.461,17.656,43.461L17.682,43.461ZM28.625,34.592C29.732,34.592,30.628,35.488,30.628,36.595C30.628,37.701,29.732,38.598,28.625,38.598L28.599,38.598C27.492,38.598,26.596,37.701,26.596,36.595C26.596,35.488,27.492,34.592,28.599,34.592L28.625,34.592ZM17.682,34.592C18.789,34.592,19.686,35.488,19.686,36.595C19.686,37.701,18.789,38.598,17.682,38.598L17.656,38.598C16.55,38.598,15.653,37.701,15.653,36.595C15.653,35.488,16.55,34.592,17.656,34.592L17.682,34.592ZM38.434,8.44L18.789,8.44L18.789,10.873C18.789,11.894,18.025,12.737,17.037,12.86L16.786,12.876C15.68,12.876,14.783,11.979,14.783,10.873L14.783,8.525L14.259,8.58C7.507,9.365,4.198,13.47,4.014,20.585L4.009,20.959L53.214,20.959L53.21,20.585C53.026,13.47,49.717,9.365,42.965,8.58L42.44,8.525L42.441,10.873C42.441,11.894,41.677,12.737,40.689,12.86L40.438,12.876C39.332,12.876,38.435,11.979,38.435,10.873L38.434,8.44ZM38.434,8.44"/>
</g>
  <g id="Black-S" transform="matrix(1.0,0.0,0.0,1.0,2912.2765449758103,636.1510818894909)">  <path fill-rule="nonzero" stroke-opacity="1" fill-opacity="1" fill="#000000" stroke-linecap="butt" stroke-miterlimit="4" stroke-width="1px" stroke="none" stroke-linejoin="miter" stroke-dasharray="none" d="M31.663,0C32.529,0,33.232,0.702,33.232,1.568L33.23,3.529L33.257,3.532C40.637,4.1,44.623,8.694,44.8,16.095L44.806,16.616L44.806,36.293C44.806,44.525,40.245,49.436,31.663,49.436L13.143,49.436C4.561,49.436,0,44.525,0,36.293L0,16.616C0,8.91,3.997,4.113,11.549,3.532L11.575,3.529L11.575,1.568C11.575,0.769,12.173,0.109,12.947,0.012L13.143,0C14.009,0,14.712,0.702,14.712,1.568L14.711,3.472L30.093,3.472L30.095,1.568C30.095,0.769,30.693,0.109,31.466,0.012L31.663,0ZM41.668,19.548L3.137,19.548L3.137,36.293C3.137,42.674,6.185,46.12,12.628,46.293L13.143,46.3L31.663,46.3C38.459,46.3,41.67,42.842,41.67,36.293L41.668,19.548ZM13.845,34.03C14.712,34.03,15.414,34.732,15.414,35.599C15.414,36.465,14.712,37.167,13.845,37.167L13.825,37.167C12.958,37.167,12.256,36.465,12.256,35.599C12.256,34.732,12.958,34.03,13.825,34.03L13.845,34.03ZM22.414,27.085C23.28,27.085,23.982,27.787,23.982,28.654C23.982,29.52,23.28,30.222,22.414,30.222L22.393,30.222C21.527,30.222,20.824,29.52,20.824,28.654C20.824,27.787,21.527,27.085,22.393,27.085L22.414,27.085ZM13.845,27.085C14.712,27.085,15.414,27.787,15.414,28.654C15.414,29.52,14.712,30.222,13.845,30.222L13.825,30.222C12.958,30.222,12.256,29.52,12.256,28.654C12.256,27.787,12.958,27.085,13.825,27.085L13.845,27.085ZM30.093,6.609L14.711,6.609L14.712,8.513C14.712,9.313,14.113,9.973,13.34,10.069L13.143,10.082C12.277,10.082,11.575,9.38,11.575,8.513L11.575,6.675L11.165,6.718C5.878,7.333,3.287,10.547,3.143,16.118L3.139,16.411L41.666,16.411L41.663,16.118C41.52,10.547,38.928,7.333,33.641,6.718L33.23,6.675L33.232,8.513C33.232,9.313,32.633,9.973,31.86,10.069L31.663,10.082C30.797,10.082,30.095,9.38,30.095,8.513L30.093,6.609ZM30.093,6.609"/>
</g>
  <g id="Heavy-S" transform="matrix(1.0,0.0,0.0,1.0,2615.5665449758103,636.1510818894909)">  <path stroke-linecap="butt" stroke="none" stroke-linejoin="miter" stroke-width="1px" stroke-opacity="1" fill="#000000" stroke-miterlimit="4" stroke-dasharray="none" fill-opacity="1" fill-rule="nonzero" d="M31.663,0C32.529,0,33.232,0.702,33.232,1.568L33.23,3.529L33.257,3.532C40.637,4.1,44.623,8.694,44.8,16.095L44.806,16.616L44.806,36.293C44.806,44.525,40.245,49.436,31.663,49.436L13.143,49.436C4.561,49.436,0,44.525,0,36.293L0,16.616C0,8.91,3.997,4.113,11.549,3.532L11.575,3.529L11.575,1.568C11.575,0.769,12.173,0.109,12.947,0.012L13.143,0C14.009,0,14.712,0.702,14.712,1.568L14.711,3.472L30.093,3.472L30.095,1.568C30.095,0.769,30.693,0.109,31.466,0.012L31.663,0ZM41.668,19.548L3.137,19.548L3.137,36.293C3.137,42.674,6.185,46.12,12.628,46.293L13.143,46.3L31.663,46.3C38.459,46.3,41.67,42.842,41.67,36.293L41.668,19.548ZM13.845,34.03C14.712,34.03,15.414,34.732,15.414,35.599C15.414,36.465,14.712,37.167,13.845,37.167L13.825,37.167C12.958,37.167,12.256,36.465,12.256,35.599C12.256,34.732,12.958,34.03,13.825,34.03L13.845,34.03ZM22.414,27.085C23.28,27.085,23.982,27.787,23.982,28.654C23.982,29.52,23.28,30.222,22.414,30.222L22.393,30.222C21.527,30.222,20.824,29.52,20.824,28.654C20.824,27.787,21.527,27.085,22.393,27.085L22.414,27.085ZM13.845,27.085C14.712,27.085,15.414,27.787,15.414,28.654C15.414,29.52,14.712,30.222,13.845,30.222L13.825,30.222C12.958,30.222,12.256,29.52,12.256,28.654C12.256,27.787,12.958,27.085,13.825,27.085L13.845,27.085ZM30.093,6.609L14.711,6.609L14.712,8.513C14.712,9.313,14.113,9.973,13.34,10.069L13.143,10.082C12.277,10.082,11.575,9.38,11.575,8.513L11.575,6.675L11.165,6.718C5.878,7.333,3.287,10.547,3.143,16.118L3.139,16.411L41.666,16.411L41.663,16.118C41.52,10.547,38.928,7.333,33.641,6.718L33.23,6.675L33.232,8.513C33.232,9.313,32.633,9.973,31.86,10.069L31.663,10.082C30.797,10.082,30.095,9.38,30.095,8.513L30.093,6.609ZM30.093,6.609"/>
</g>
  <g id="Bold-S" transform="matrix(1.0,0.0,0.0,1.0,2318.8565449758103,636.1510818894909)">  <path fill="#000000" stroke-linejoin="miter" stroke-linecap="butt" stroke-dasharray="none" stroke-width="1px" stroke-miterlimit="4" stroke-opacity="1" fill-opacity="1" stroke="none" fill-rule="nonzero" d="M31.663,0C32.529,0,33.232,0.702,33.232,1.568L33.23,3.529L33.257,3.532C40.637,4.1,44.623,8.694,44.8,16.095L44.806,16.616L44.806,36.293C44.806,44.525,40.245,49.436,31.663,49.436L13.143,49.436C4.561,49.436,0,44.525,0,36.293L0,16.616C0,8.91,3.997,4.113,11.549,3.532L11.575,3.529L11.575,1.568C11.575,0.769,12.173,0.109,12.947,0.012L13.143,0C14.009,0,14.712,0.702,14.712,1.568L14.711,3.472L30.093,3.472L30.095,1.568C30.095,0.769,30.693,0.109,31.466,0.012L31.663,0ZM41.668,19.548L3.137,19.548L3.137,36.293C3.137,42.674,6.185,46.12,12.628,46.293L13.143,46.3L31.663,46.3C38.459,46.3,41.67,42.842,41.67,36.293L41.668,19.548ZM13.845,34.03C14.712,34.03,15.414,34.732,15.414,35.599C15.414,36.465,14.712,37.167,13.845,37.167L13.825,37.167C12.958,37.167,12.256,36.465,12.256,35.599C12.256,34.732,12.958,34.03,13.825,34.03L13.845,34.03ZM22.414,27.085C23.28,27.085,23.982,27.787,23.982,28.654C23.982,29.52,23.28,30.222,22.414,30.222L22.393,30.222C21.527,30.222,20.824,29.52,20.824,28.654C20.824,27.787,21.527,27.085,22.393,27.085L22.414,27.085ZM13.845,27.085C14.712,27.085,15.414,27.787,15.414,28.654C15.414,29.52,14.712,30.222,13.845,30.222L13.825,30.222C12.958,30.222,12.256,29.52,12.256,28.654C12.256,27.787,12.958,27.085,13.825,27.085L13.845,27.085ZM30.093,6.609L14.711,6.609L14.712,8.513C14.712,9.313,14.113,9.973,13.34,10.069L13.143,10.082C12.277,10.082,11.575,9.38,11.575,8.513L11.575,6.675L11.165,6.718C5.878,7.333,3.287,10.547,3.143,16.118L3.139,16.411L41.666,16.411L41.663,16.118C41.52,10.547,38.928,7.333,33.641,6.718L33.23,6.675L33.232,8.513C33.232,9.313,32.633,9.973,31.86,10.069L31.663,10.082C30.797,10.082,30.095,9.38,30.095,8.513L30.093,6.609ZM30.093,6.609"/>
</g>
  <g id="Semibold-S" transform="matrix(1.0,0.0,0.0,1.0,2022.1465449758105,636.1510818894909)">  <path stroke="none" fill="#000000" stroke-opacity="1" stroke-linejoin="miter" stroke-dasharray="none" fill-rule="nonzero" stroke-linecap="butt" fill-opacity="1" stroke-width="1px" stroke-miterlimit="4" d="M31.663,0C32.529,0,33.232,0.702,33.232,1.568L33.23,3.529L33.257,3.532C40.637,4.1,44.623,8.694,44.8,16.095L44.806,16.616L44.806,36.293C44.806,44.525,40.245,49.436,31.663,49.436L13.143,49.436C4.561,49.436,0,44.525,0,36.293L0,16.616C0,8.91,3.997,4.113,11.549,3.532L11.575,3.529L11.575,1.568C11.575,0.769,12.173,0.109,12.947,0.012L13.143,0C14.009,0,14.712,0.702,14.712,1.568L14.711,3.472L30.093,3.472L30.095,1.568C30.095,0.769,30.693,0.109,31.466,0.012L31.663,0ZM41.668,19.548L3.137,19.548L3.137,36.293C3.137,42.674,6.185,46.12,12.628,46.293L13.143,46.3L31.663,46.3C38.459,46.3,41.67,42.842,41.67,36.293L41.668,19.548ZM13.845,34.03C14.712,34.03,15.414,34.732,15.414,35.599C15.414,36.465,14.712,37.167,13.845,37.167L13.825,37.167C12.958,37.167,12.256,36.465,12.256,35.599C12.256,34.732,12.958,34.03,13.825,34.03L13.845,34.03ZM22.414,27.085C23.28,27.085,23.982,27.787,23.982,28.654C23.982,29.52,23.28,30.222,22.414,30.222L22.393,30.222C21.527,30.222,20.824,29.52,20.824,28.654C20.824,27.787,21.527,27.085,22.393,27.085L22.414,27.085ZM13.845,27.085C14.712,27.085,15.414,27.787,15.414,28.654C15.414,29.52,14.712,30.222,13.845,30.222L13.825,30.222C12.958,30.222,12.256,29.52,12.256,28.654C12.256,27.787,12.958,27.085,13.825,27.085L13.845,27.085ZM30.093,6.609L14.711,6.609L14.712,8.513C14.712,9.313,14.113,9.973,13.34,10.069L13.143,10.082C12.277,10.082,11.575,9.38,11.575,8.513L11.575,6.675L11.165,6.718C5.878,7.333,3.287,10.547,3.143,16.118L3.139,16.411L41.666,16.411L41.663,16.118C41.52,10.547,38.928,7.333,33.641,6.718L33.23,6.675L33.232,8.513C33.232,9.313,32.633,9.973,31.86,10.069L31.663,10.082C30.797,10.082,30.095,9.38,30.095,8.513L30.093,6.609ZM30.093,6.609"/>
</g>
  <g id="Medium-S" transform="matrix(1.0,0.0,0.0,1.0,1725.4365449758104,636.1510818894909)">  <path stroke-width="1px" fill-opacity="1" stroke="none" fill="#000000" stroke-linecap="butt" stroke-linejoin="miter" stroke-opacity="1" stroke-miterlimit="4" stroke-dasharray="none" fill-rule="nonzero" d="M31.663,0C32.529,0,33.232,0.702,33.232,1.568L33.23,3.529L33.257,3.532C40.637,4.1,44.623,8.694,44.8,16.095L44.806,16.616L44.806,36.293C44.806,44.525,40.245,49.436,31.663,49.436L13.143,49.436C4.561,49.436,0,44.525,0,36.293L0,16.616C0,8.91,3.997,4.113,11.549,3.532L11.575,3.529L11.575,1.568C11.575,0.769,12.173,0.109,12.947,0.012L13.143,0C14.009,0,14.712,0.702,14.712,1.568L14.711,3.472L30.093,3.472L30.095,1.568C30.095,0.769,30.693,0.109,31.466,0.012L31.663,0ZM41.668,19.548L3.137,19.548L3.137,36.293C3.137,42.674,6.185,46.12,12.628,46.293L13.143,46.3L31.663,46.3C38.459,46.3,41.67,42.842,41.67,36.293L41.668,19.548ZM13.845,34.03C14.712,34.03,15.414,34.732,15.414,35.599C15.414,36.465,14.712,37.167,13.845,37.167L13.825,37.167C12.958,37.167,12.256,36.465,12.256,35.599C12.256,34.732,12.958,34.03,13.825,34.03L13.845,34.03ZM22.414,27.085C23.28,27.085,23.982,27.787,23.982,28.654C23.982,29.52,23.28,30.222,22.414,30.222L22.393,30.222C21.527,30.222,20.824,29.52,20.824,28.654C20.824,27.787,21.527,27.085,22.393,27.085L22.414,27.085ZM13.845,27.085C14.712,27.085,15.414,27.787,15.414,28.654C15.414,29.52,14.712,30.222,13.845,30.222L13.825,30.222C12.958,30.222,12.256,29.52,12.256,28.654C12.256,27.787,12.958,27.085,13.825,27.085L13.845,27.085ZM30.093,6.609L14.711,6.609L14.712,8.513C14.712,9.313,14.113,9.973,13.34,10.069L13.143,10.082C12.277,10.082,11.575,9.38,11.575,8.513L11.575,6.675L11.165,6.718C5.878,7.333,3.287,10.547,3.143,16.118L3.139,16.411L41.666,16.411L41.663,16.118C41.52,10.547,38.928,7.333,33.641,6.718L33.23,6.675L33.232,8.513C33.232,9.313,32.633,9.973,31.86,10.069L31.663,10.082C30.797,10.082,30.095,9.38,30.095,8.513L30.093,6.609ZM30.093,6.609"/>
</g>
  <g id="Regular-S" transform="matrix(1.0,0.0,0.0,1.0,1428.7265449758104,636.1510818894909)">  <path stroke-linejoin="miter" stroke-linecap="butt" stroke-width="1px" stroke-miterlimit="4" fill-rule="nonzero" stroke-opacity="1" stroke-dasharray="none" stroke="none" fill="#000000" fill-opacity="1" d="M31.663,0C32.529,0,33.232,0.702,33.232,1.568L33.23,3.529L33.257,3.532C40.637,4.1,44.623,8.694,44.8,16.095L44.806,16.616L44.806,36.293C44.806,44.525,40.245,49.436,31.663,49.436L13.143,49.436C4.561,49.436,0,44.525,0,36.293L0,16.616C0,8.91,3.997,4.113,11.549,3.532L11.575,3.529L11.575,1.568C11.575,0.769,12.173,0.109,12.947,0.012L13.143,0C14.009,0,14.712,0.702,14.712,1.568L14.711,3.472L30.093,3.472L30.095,1.568C30.095,0.769,30.693,0.109,31.466,0.012L31.663,0ZM41.668,19.548L3.137,19.548L3.137,36.293C3.137,42.674,6.185,46.12,12.628,46.293L13.143,46.3L31.663,46.3C38.459,46.3,41.67,42.842,41.67,36.293L41.668,19.548ZM13.845,34.03C14.712,34.03,15.414,34.732,15.414,35.599C15.414,36.465,14.712,37.167,13.845,37.167L13.825,37.167C12.958,37.167,12.256,36.465,12.256,35.599C12.256,34.732,12.958,34.03,13.825,34.03L13.845,34.03ZM22.414,27.085C23.28,27.085,23.982,27.787,23.982,28.654C23.982,29.52,23.28,30.222,22.414,30.222L22.393,30.222C21.527,30.222,20.824,29.52,20.824,28.654C20.824,27.787,21.527,27.085,22.393,27.085L22.414,27.085ZM13.845,27.085C14.712,27.085,15.414,27.787,15.414,28.654C15.414,29.52,14.712,30.222,13.845,30.222L13.825,30.222C12.958,30.222,12.256,29.52,12.256,28.654C12.256,27.787,12.958,27.085,13.825,27.085L13.845,27.085ZM30.093,6.609L14.711,6.609L14.712,8.513C14.712,9.313,14.113,9.973,13.34,10.069L13.143,10.082C12.277,10.082,11.575,9.38,11.575,8.513L11.575,6.675L11.165,6.718C5.878,7.333,3.287,10.547,3.143,16.118L3.139,16.411L41.666,16.411L41.663,16.118C41.52,10.547,38.928,7.333,33.641,6.718L33.23,6.675L33.232,8.513C33.232,9.313,32.633,9.973,31.86,10.069L31.663,10.082C30.797,10.082,30.095,9.38,30.095,8.513L30.093,6.609ZM30.093,6.609"/>
</g>
  <g id="Light-S" transform="matrix(1.0,0.0,0.0,1.0,1132.0165449758106,636.1510818894909)">  <path stroke-linejoin="miter" stroke-linecap="butt" fill-opacity="1" stroke-opacity="1" stroke-miterlimit="4" stroke="none" stroke-dasharray="none" fill="#000000" stroke-width="1px" fill-rule="nonzero" d="M31.663,0C32.529,0,33.232,0.702,33.232,1.568L33.23,3.529L33.257,3.532C40.637,4.1,44.623,8.694,44.8,16.095L44.806,16.616L44.806,36.293C44.806,44.525,40.245,49.436,31.663,49.436L13.143,49.436C4.561,49.436,0,44.525,0,36.293L0,16.616C0,8.91,3.997,4.113,11.549,3.532L11.575,3.529L11.575,1.568C11.575,0.769,12.173,0.109,12.947,0.012L13.143,0C14.009,0,14.712,0.702,14.712,1.568L14.711,3.472L30.093,3.472L30.095,1.568C30.095,0.769,30.693,0.109,31.466,0.012L31.663,0ZM41.668,19.548L3.137,19.548L3.137,36.293C3.137,42.674,6.185,46.12,12.628,46.293L13.143,46.3L31.663,46.3C38.459,46.3,41.67,42.842,41.67,36.293L41.668,19.548ZM13.845,34.03C14.712,34.03,15.414,34.732,15.414,35.599C15.414,36.465,14.712,37.167,13.845,37.167L13.825,37.167C12.958,37.167,12.256,36.465,12.256,35.599C12.256,34.732,12.958,34.03,13.825,34.03L13.845,34.03ZM22.414,27.085C23.28,27.085,23.982,27.787,23.982,28.654C23.982,29.52,23.28,30.222,22.414,30.222L22.393,30.222C21.527,30.222,20.824,29.52,20.824,28.654C20.824,27.787,21.527,27.085,22.393,27.085L22.414,27.085ZM13.845,27.085C14.712,27.085,15.414,27.787,15.414,28.654C15.414,29.52,14.712,30.222,13.845,30.222L13.825,30.222C12.958,30.222,12.256,29.52,12.256,28.654C12.256,27.787,12.958,27.085,13.825,27.085L13.845,27.085ZM30.093,6.609L14.711,6.609L14.712,8.513C14.712,9.313,14.113,9.973,13.34,10.069L13.143,10.082C12.277,10.082,11.575,9.38,11.575,8.513L11.575,6.675L11.165,6.718C5.878,7.333,3.287,10.547,3.143,16.118L3.139,16.411L41.666,16.411L41.663,16.118C41.52,10.547,38.928,7.333,33.641,6.718L33.23,6.675L33.232,8.513C33.232,9.313,32.633,9.973,31.86,10.069L31.663,10.082C30.797,10.082,30.095,9.38,30.095,8.513L30.093,6.609ZM30.093,6.609"/>
</g>
  <g id="Thin-S" transform="matrix(1.0,0.0,0.0,1.0,835.3065449758105,636.1510818894909)">  <path stroke-miterlimit="4" stroke-opacity="1" stroke-linejoin="miter" stroke="none" fill-rule="nonzero" stroke-width="1px" stroke-linecap="butt" fill="#000000" stroke-dasharray="none" fill-opacity="1" d="M31.663,0C32.529,0,33.232,0.702,33.232,1.568L33.23,3.529L33.257,3.532C40.637,4.1,44.623,8.694,44.8,16.095L44.806,16.616L44.806,36.293C44.806,44.525,40.245,49.436,31.663,49.436L13.143,49.436C4.561,49.436,0,44.525,0,36.293L0,16.616C0,8.91,3.997,4.113,11.549,3.532L11.575,3.529L11.575,1.568C11.575,0.769,12.173,0.109,12.947,0.012L13.143,0C14.009,0,14.712,0.702,14.712,1.568L14.711,3.472L30.093,3.472L30.095,1.568C30.095,0.769,30.693,0.109,31.466,0.012L31.663,0ZM41.668,19.548L3.137,19.548L3.137,36.293C3.137,42.674,6.185,46.12,12.628,46.293L13.143,46.3L31.663,46.3C38.459,46.3,41.67,42.842,41.67,36.293L41.668,19.548ZM13.845,34.03C14.712,34.03,15.414,34.732,15.414,35.599C15.414,36.465,14.712,37.167,13.845,37.167L13.825,37.167C12.958,37.167,12.256,36.465,12.256,35.599C12.256,34.732,12.958,34.03,13.825,34.03L13.845,34.03ZM22.414,27.085C23.28,27.085,23.982,27.787,23.982,28.654C23.982,29.52,23.28,30.222,22.414,30.222L22.393,30.222C21.527,30.222,20.824,29.52,20.824,28.654C20.824,27.787,21.527,27.085,22.393,27.085L22.414,27.085ZM13.845,27.085C14.712,27.085,15.414,27.787,15.414,28.654C15.414,29.52,14.712,30.222,13.845,30.222L13.825,30.222C12.958,30.222,12.256,29.52,12.256,28.654C12.256,27.787,12.958,27.085,13.825,27.085L13.845,27.085ZM30.093,6.609L14.711,6.609L14.712,8.513C14.712,9.313,14.113,9.973,13.34,10.069L13.143,10.082C12.277,10.082,11.575,9.38,11.575,8.513L11.575,6.675L11.165,6.718C5.878,7.333,3.287,10.547,3.143,16.118L3.139,16.411L41.666,16.411L41.663,16.118C41.52,10.547,38.928,7.333,33.641,6.718L33.23,6.675L33.232,8.513C33.232,9.313,32.633,9.973,31.86,10.069L31.663,10.082C30.797,10.082,30.095,9.38,30.095,8.513L30.093,6.609ZM30.093,6.609"/>
</g>
  <g id="Ultralight-S" transform="matrix(1.0,0.0,0.0,1.0,538.5965449758105,636.1510818894909)">  <path stroke-opacity="1" fill-rule="nonzero" stroke-miterlimit="4" stroke="none" stroke-linecap="butt" fill-opacity="1" fill="#000000" stroke-width="1px" stroke-linejoin="miter" stroke-dasharray="none" d="M31.663,0C32.529,0,33.232,0.702,33.232,1.568L33.23,3.529L33.257,3.532C40.637,4.1,44.623,8.694,44.8,16.095L44.806,16.616L44.806,36.293C44.806,44.525,40.245,49.436,31.663,49.436L13.143,49.436C4.561,49.436,0,44.525,0,36.293L0,16.616C0,8.91,3.997,4.113,11.549,3.532L11.575,3.529L11.575,1.568C11.575,0.769,12.173,0.109,12.947,0.012L13.143,0C14.009,0,14.712,0.702,14.712,1.568L14.711,3.472L30.093,3.472L30.095,1.568C30.095,0.769,30.693,0.109,31.466,0.012L31.663,0ZM41.668,19.548L3.137,19.548L3.137,36.293C3.137,42.674,6.185,46.12,12.628,46.293L13.143,46.3L31.663,46.3C38.459,46.3,41.67,42.842,41.67,36.293L41.668,19.548ZM13.845,34.03C14.712,34.03,15.414,34.732,15.414,35.599C15.414,36.465,14.712,37.167,13.845,37.167L13.825,37.167C12.958,37.167,12.256,36.465,12.256,35.599C12.256,34.732,12.958,34.03,13.825,34.03L13.845,34.03ZM22.414,27.085C23.28,27.085,23.982,27.787,23.982,28.654C23.982,29.52,23.28,30.222,22.414,30.222L22.393,30.222C21.527,30.222,20.824,29.52,20.824,28.654C20.824,27.787,21.527,27.085,22.393,27.085L22.414,27.085ZM13.845,27.085C14.712,27.085,15.414,27.787,15.414,28.654C15.414,29.52,14.712,30.222,13.845,30.222L13.825,30.222C12.958,30.222,12.256,29.52,12.256,28.654C12.256,27.787,12.958,27.085,13.825,27.085L13.845,27.085ZM30.093,6.609L14.711,6.609L14.712,8.513C14.712,9.313,14.113,9.973,13.34,10.069L13.143,10.082C12.277,10.082,11.575,9.38,11.575,8.513L11.575,6.675L11.165,6.718C5.878,7.333,3.287,10.547,3.143,16.118L3.139,16.411L41.666,16.411L41.663,16.118C41.52,10.547,38.928,7.333,33.641,6.718L33.23,6.675L33.232,8.513C33.232,9.313,32.633,9.973,31.86,10.069L31.663,10.082C30.797,10.082,30.095,9.38,30.095,8.513L30.093,6.609ZM30.093,6.609"/>
</g>
 </g>
</svg>
